999
"DXF R12 Output" (www.mydxf.blogspot.com)
 0 
SECTION
 2 
HEADER
 9 
$ACADVER
 1 
AC1009
 9 
$EXTMIN
 10 
 0 
 20 
 0 
 9 
$EXTMAX
 10 
 8.5 
 20 
 11 
 0 
ENDSEC
 0 
SECTION
 2 
ENTITIES
0
LINE
8
Layer 1
10
102.581030
20
133.239410
11
102.581030
21
153.278950
0
LINE
8
Layer 1
10
94.581096
20
153.278950
11
102.581030
21
153.278950
0
LINE
8
Layer 1
10
94.581096
20
173.278800
11
94.581096
21
153.278950
0
LINE
8
Layer 1
10
102.581030
20
173.278800
11
94.581096
21
173.278800
0
LINE
8
Layer 1
10
102.581030
20
173.278800
11
102.581030
21
193.320990
0
LINE
8
Layer 1
10
94.581096
20
193.320990
11
102.581030
21
193.320990
0
LINE
8
Layer 1
10
94.581096
20
213.320840
11
94.581096
21
193.320990
0
LINE
8
Layer 1
10
102.581030
20
213.320840
11
94.581096
21
213.320840
0
LINE
8
Layer 1
10
102.581030
20
213.320840
11
102.581030
21
233.361180
0
LINE
8
Layer 1
10
94.581096
20
233.361180
11
102.581030
21
233.361180
0
LINE
8
Layer 1
10
94.581096
20
253.361300
11
94.581096
21
233.361180
0
LINE
8
Layer 1
10
102.581030
20
253.361300
11
94.581096
21
253.361300
0
LINE
8
Layer 1
10
102.581030
20
253.361300
11
102.581030
21
273.401900
0
LINE
8
Layer 1
10
94.581096
20
273.401900
11
102.581030
21
273.401900
0
LINE
8
Layer 1
10
94.581096
20
293.401750
11
94.581096
21
273.401900
0
LINE
8
Layer 1
10
102.581030
20
293.401750
11
94.581096
21
293.401750
0
LINE
8
Layer 1
10
102.581030
20
293.401750
11
102.581030
21
313.442354
0
LINE
8
Layer 1
10
94.581096
20
313.442354
11
102.581030
21
313.442354
0
LINE
8
Layer 1
10
94.581096
20
333.442477
11
94.581096
21
313.442354
0
LINE
8
Layer 1
10
102.581030
20
333.442477
11
94.581096
21
333.442477
0
LINE
8
Layer 1
10
102.581030
20
333.442477
11
102.581030
21
353.483336
0
LINE
8
Layer 1
10
94.581096
20
353.483336
11
102.581030
21
353.483336
0
LINE
8
Layer 1
10
94.581096
20
373.483457
11
94.581096
21
353.483336
0
LINE
8
Layer 1
10
102.581030
20
373.483457
11
94.581096
21
373.483457
0
LINE
8
Layer 1
10
102.581030
20
373.483457
11
102.581030
21
379.239467
0
LINE
8
Layer 1
10
82.199127
20
379.239467
11
102.581030
21
379.239467
0
LINE
8
Layer 1
10
82.199127
20
371.239527
11
82.199127
21
379.239467
0
LINE
8
Layer 1
10
62.199007
20
371.239527
11
82.199127
21
371.239527
0
LINE
8
Layer 1
10
62.199007
20
379.239467
11
62.199007
21
371.239527
0
LINE
8
Layer 1
10
42.580947
20
379.239467
11
62.199007
21
379.239467
0
LINE
8
Layer 1
10
42.580947
20
371.239527
11
42.580947
21
379.239467
0
LINE
8
Layer 1
10
22.581087
20
371.239527
11
42.580947
21
371.239527
0
LINE
8
Layer 1
10
22.581087
20
121.240550
11
22.581087
21
371.239527
0
LINE
8
Layer 1
10
22.581087
20
121.240550
11
42.580947
21
121.240550
0
LINE
8
Layer 1
10
42.580947
20
121.240550
11
42.580947
21
113.239550
0
LINE
8
Layer 1
10
62.199007
20
113.239550
11
42.580947
21
113.239550
0
LINE
8
Layer 1
10
62.199007
20
113.239550
11
62.199007
21
121.240550
0
LINE
8
Layer 1
10
62.199007
20
121.240550
11
82.199127
21
121.240550
0
LINE
8
Layer 1
10
82.199127
20
121.240550
11
82.199127
21
113.239550
0
LINE
8
Layer 1
10
94.581096
20
113.239550
11
82.199127
21
113.239550
0
LINE
8
Layer 1
10
94.581096
20
133.239410
11
94.581096
21
113.239550
0
LINE
8
Layer 1
10
102.581030
20
133.239410
11
94.581096
21
133.239410
0
LINE
8
Layer 1
10
84.081017
20
143.239440
11
83.979885
21
144.762725
0
LINE
8
Layer 1
10
83.979885
20
144.762725
11
83.682939
21
146.239993
0
LINE
8
Layer 1
10
83.682939
20
146.239993
11
83.199855
21
147.654484
0
LINE
8
Layer 1
10
83.199855
20
147.654484
11
82.540309
21
148.989440
0
LINE
8
Layer 1
10
82.540309
20
148.989440
11
81.713977
21
150.228102
0
LINE
8
Layer 1
10
81.713977
20
150.228102
11
80.730533
21
151.353710
0
LINE
8
Layer 1
10
80.730533
20
151.353710
11
79.599655
21
152.349507
0
LINE
8
Layer 1
10
79.599655
20
152.349507
11
78.331017
21
153.198732
0
LINE
8
Layer 1
10
78.331017
20
153.198732
11
76.961247
21
153.872792
0
LINE
8
Layer 1
10
76.961247
20
153.872792
11
75.533423
21
154.354263
0
LINE
8
Layer 1
10
75.533423
20
154.354263
11
74.066896
21
154.643146
0
LINE
8
Layer 1
10
74.066896
20
154.643146
11
72.581017
21
154.739440
0
LINE
8
Layer 1
10
72.581017
20
154.739440
11
71.095138
21
154.643146
0
LINE
8
Layer 1
10
71.095138
20
154.643146
11
69.628611
21
154.354263
0
LINE
8
Layer 1
10
69.628611
20
154.354263
11
68.200787
21
153.872792
0
LINE
8
Layer 1
10
68.200787
20
153.872792
11
66.831017
21
153.198732
0
LINE
8
Layer 1
10
66.831017
20
153.198732
11
65.562379
21
152.349507
0
LINE
8
Layer 1
10
65.562379
20
152.349507
11
64.431501
21
151.353710
0
LINE
8
Layer 1
10
64.431501
20
151.353710
11
63.448057
21
150.228102
0
LINE
8
Layer 1
10
63.448057
20
150.228102
11
62.621725
21
148.989440
0
LINE
8
Layer 1
10
62.621725
20
148.989440
11
61.962179
21
147.654484
0
LINE
8
Layer 1
10
61.962179
20
147.654484
11
61.479095
21
146.239993
0
LINE
8
Layer 1
10
61.479095
20
146.239993
11
61.182149
21
144.762725
0
LINE
8
Layer 1
10
61.182149
20
144.762725
11
61.081017
21
143.239440
0
LINE
8
Layer 1
10
61.081017
20
143.239440
11
61.182149
21
141.716155
0
LINE
8
Layer 1
10
61.182149
20
141.716155
11
61.479095
21
140.238887
0
LINE
8
Layer 1
10
61.479095
20
140.238887
11
61.962179
21
138.824396
0
LINE
8
Layer 1
10
61.962179
20
138.824396
11
62.621725
21
137.489440
0
LINE
8
Layer 1
10
62.621725
20
137.489440
11
63.448057
21
136.250778
0
LINE
8
Layer 1
10
63.448057
20
136.250778
11
64.431501
21
135.125170
0
LINE
8
Layer 1
10
64.431501
20
135.125170
11
65.562379
21
134.129373
0
LINE
8
Layer 1
10
65.562379
20
134.129373
11
66.831017
21
133.280148
0
LINE
8
Layer 1
10
66.831017
20
133.280148
11
68.200787
21
132.606088
0
LINE
8
Layer 1
10
68.200787
20
132.606088
11
69.628611
21
132.124617
0
LINE
8
Layer 1
10
69.628611
20
132.124617
11
71.095138
21
131.835734
0
LINE
8
Layer 1
10
71.095138
20
131.835734
11
72.581017
21
131.739440
0
LINE
8
Layer 1
10
72.581017
20
131.739440
11
74.066896
21
131.835734
0
LINE
8
Layer 1
10
74.066896
20
131.835734
11
75.533423
21
132.124617
0
LINE
8
Layer 1
10
75.533423
20
132.124617
11
76.961247
21
132.606088
0
LINE
8
Layer 1
10
76.961247
20
132.606088
11
78.331017
21
133.280148
0
LINE
8
Layer 1
10
78.331017
20
133.280148
11
79.599655
21
134.129373
0
LINE
8
Layer 1
10
79.599655
20
134.129373
11
80.730533
21
135.125170
0
LINE
8
Layer 1
10
80.730533
20
135.125170
11
81.713977
21
136.250778
0
LINE
8
Layer 1
10
81.713977
20
136.250778
11
82.540309
21
137.489440
0
LINE
8
Layer 1
10
82.540309
20
137.489440
11
83.199855
21
138.824396
0
LINE
8
Layer 1
10
83.199855
20
138.824396
11
83.682939
21
140.238887
0
LINE
8
Layer 1
10
83.682939
20
140.238887
11
83.979885
21
141.716155
0
LINE
8
Layer 1
10
83.979885
20
141.716155
11
84.081017
21
143.239440
0
LINE
8
Layer 1
10
84.081017
20
143.239440
11
84.081017
21
143.239440
0
LINE
8
Layer 1
10
54.037927
20
139.949240
11
54.661027
21
139.949240
0
LINE
8
Layer 1
10
53.893017
20
139.809940
11
54.038017
21
139.948130
0
LINE
8
Layer 1
10
54.661017
20
139.948130
11
54.883017
21
139.725430
0
LINE
8
Layer 1
10
53.892937
20
137.644720
11
53.892937
21
139.809010
0
LINE
8
Layer 1
10
54.883007
20
139.724340
11
54.883007
21
137.644720
0
LINE
8
Layer 1
10
53.954017
20
137.582620
11
53.893017
21
137.644120
0
LINE
8
Layer 1
10
54.883017
20
137.644140
11
54.829017
21
137.582640
0
LINE
8
Layer 1
10
54.829037
20
137.583870
11
53.954057
21
137.583870
0
LINE
8
Layer 1
10
53.989017
20
142.748140
11
54.135017
21
142.847940
0
LINE
8
Layer 1
10
53.421017
20
142.179630
11
53.721017
21
142.308320
0
LINE
8
Layer 1
10
53.721017
20
142.308320
11
53.989017
21
142.748140
0
LINE
8
Layer 1
10
54.135037
20
142.849070
11
54.811047
21
142.849070
0
LINE
8
Layer 1
10
53.229017
20
141.980130
11
53.421017
21
142.179630
0
LINE
8
Layer 1
10
54.811017
20
142.847940
11
54.949017
21
142.678920
0
LINE
8
Layer 1
10
53.229097
20
141.303910
11
53.229097
21
141.981240
0
LINE
8
Layer 1
10
54.949017
20
142.678920
11
54.715517
21
142.060937
0
LINE
8
Layer 1
10
54.715517
20
142.060937
11
54.320017
21
141.544730
0
LINE
8
Layer 1
10
54.320017
20
141.544730
11
53.903892
21
141.273417
0
LINE
8
Layer 1
10
53.903892
20
141.273417
11
53.421017
21
141.173630
0
LINE
8
Layer 1
10
53.359017
20
141.173630
11
53.229017
21
141.304120
0
LINE
8
Layer 1
10
53.420927
20
141.174260
11
53.359027
21
141.174260
0
LINE
8
Layer 1
10
54.037927
20
150.731010
11
54.661027
21
150.731010
0
LINE
8
Layer 1
10
53.893017
20
150.593930
11
54.038017
21
150.732120
0
LINE
8
Layer 1
10
54.661017
20
150.732120
11
54.883017
21
150.509420
0
LINE
8
Layer 1
10
53.892937
20
148.429140
11
53.892937
21
150.593430
0
LINE
8
Layer 1
10
54.883007
20
150.508760
11
54.883007
21
148.429140
0
LINE
8
Layer 1
10
53.954017
20
148.366620
11
53.893017
21
148.428120
0
LINE
8
Layer 1
10
54.883017
20
148.428130
11
54.829017
21
148.366630
0
LINE
8
Layer 1
10
54.829037
20
148.365640
11
53.954057
21
148.365640
0
LINE
8
Layer 1
10
50.675077
20
153.686410
11
50.675077
21
154.437820
0
LINE
8
Layer 1
10
50.790017
20
153.570440
11
50.675017
21
153.685640
0
LINE
8
Layer 1
10
50.675017
20
154.438430
11
50.790017
21
154.553420
0
LINE
8
Layer 1
10
54.767917
20
153.569990
11
50.789907
21
153.569990
0
LINE
8
Layer 1
10
50.789907
20
154.554240
11
54.767917
21
154.554240
0
LINE
8
Layer 1
10
54.883017
20
153.685640
11
54.768017
21
153.570440
0
LINE
8
Layer 1
10
54.768017
20
154.553420
11
54.883017
21
154.438430
0
LINE
8
Layer 1
10
54.883007
20
154.437820
11
54.883007
21
153.686410
0
LINE
8
Layer 1
10
49.123027
20
130.657070
11
49.123027
21
131.371450
0
LINE
8
Layer 1
10
49.262017
20
130.517640
11
49.123017
21
130.655940
0
LINE
8
Layer 1
10
49.123017
20
131.370130
11
49.262017
21
131.508420
0
LINE
8
Layer 1
10
54.744897
20
130.516840
11
49.261937
21
130.516840
0
LINE
8
Layer 1
10
49.261937
20
131.509030
11
54.744897
21
131.509030
0
LINE
8
Layer 1
10
54.883017
20
130.655940
11
54.745017
21
130.517640
0
LINE
8
Layer 1
10
54.745017
20
131.508420
11
54.883017
21
131.370130
0
LINE
8
Layer 1
10
54.883007
20
131.371450
11
54.883007
21
130.657070
0
LINE
8
Layer 1
10
54.699017
20
134.634130
11
54.883017
21
134.503640
0
LINE
8
Layer 1
10
52.110967
20
133.588660
11
54.699127
21
134.633760
0
LINE
8
Layer 1
10
54.883007
20
134.504120
11
54.883007
21
133.773870
0
LINE
8
Layer 1
10
51.988017
20
133.643430
11
52.111017
21
133.589630
0
LINE
8
Layer 1
10
54.883017
20
133.773920
11
54.837017
21
133.697120
0
LINE
8
Layer 1
10
50.652017
20
134.557430
11
51.115142
21
134.482490
0
LINE
8
Layer 1
10
51.115142
20
134.482490
11
51.522017
21
134.260940
0
LINE
8
Layer 1
10
51.522017
20
134.260940
11
51.988017
21
133.643430
0
LINE
8
Layer 1
10
54.836977
20
133.697140
11
52.110967
21
132.614990
0
LINE
8
Layer 1
10
49.123017
20
132.875420
11
49.256767
21
133.578568
0
LINE
8
Layer 1
10
49.256767
20
133.578568
11
49.653017
21
134.164340
0
LINE
8
Layer 1
10
49.653017
20
134.164340
11
50.113142
21
134.456165
0
LINE
8
Layer 1
10
50.113142
20
134.456165
11
50.652017
21
134.557430
0
LINE
8
Layer 1
10
52.111017
20
132.614430
11
52.042017
21
132.606430
0
LINE
8
Layer 1
10
49.123027
20
132.530320
11
49.123027
21
132.874280
0
LINE
8
Layer 1
10
52.041917
20
132.607050
11
51.327007
21
132.607050
0
LINE
8
Layer 1
10
49.269017
20
132.383930
11
49.123017
21
132.529930
0
LINE
8
Layer 1
10
51.327017
20
132.606630
11
51.235017
21
132.698630
0
LINE
8
Layer 1
10
49.930007
20
132.384800
11
49.269077
21
132.384800
0
LINE
8
Layer 1
10
51.234937
20
132.699660
11
51.234937
21
132.874280
0
LINE
8
Layer 1
10
50.029017
20
132.483620
11
49.930017
21
132.383920
0
LINE
8
Layer 1
10
51.235017
20
132.875420
11
51.128017
21
133.367120
0
LINE
8
Layer 1
10
51.128017
20
133.367120
11
50.934642
21
133.585886
0
LINE
8
Layer 1
10
50.934642
20
133.585886
11
50.652017
21
133.666420
0
LINE
8
Layer 1
10
50.028967
20
132.874280
11
50.028967
21
132.482700
0
LINE
8
Layer 1
10
50.652017
20
133.666420
11
50.357767
21
133.585961
0
LINE
8
Layer 1
10
50.357767
20
133.585961
11
50.149017
21
133.367120
0
LINE
8
Layer 1
10
50.149017
20
133.367120
11
50.029017
21
132.875420
0
LINE
8
Layer 1
10
51.588947
20
136.930340
11
51.588947
21
138.464930
0
LINE
8
Layer 1
10
51.527017
20
136.868430
11
51.589017
21
136.929930
0
LINE
8
Layer 1
10
51.589017
20
138.465930
11
51.727017
21
138.604130
0
LINE
8
Layer 1
10
49.261147
20
136.869490
11
51.527037
21
136.869490
0
LINE
8
Layer 1
10
51.727057
20
138.605160
11
52.309937
21
138.605160
0
LINE
8
Layer 1
10
49.123017
20
136.730130
11
49.261017
21
136.868430
0
LINE
8
Layer 1
10
52.310017
20
138.604130
11
52.499642
21
138.524225
0
LINE
8
Layer 1
10
52.499642
20
138.524225
11
52.579017
21
138.335120
0
LINE
8
Layer 1
10
49.123027
20
136.014890
11
49.123027
21
136.729260
0
LINE
8
Layer 1
10
52.579017
20
138.335280
11
52.579017
21
136.930340
0
LINE
8
Layer 1
10
49.261017
20
135.877620
11
49.123017
21
136.015920
0
LINE
8
Layer 1
10
52.579017
20
136.929920
11
52.641017
21
136.868420
0
LINE
8
Layer 1
10
54.744897
20
135.877300
11
49.261147
21
135.877300
0
LINE
8
Layer 1
10
52.640927
20
136.869490
11
54.744897
21
136.869490
0
LINE
8
Layer 1
10
54.883017
20
136.015920
11
54.745017
21
135.877620
0
LINE
8
Layer 1
10
54.745017
20
136.868430
11
54.883017
21
136.730130
0
LINE
8
Layer 1
10
54.883007
20
136.729260
11
54.883007
21
136.014890
0
LINE
8
Layer 1
10
50.049017
20
142.632940
11
49.857017
21
142.786420
0
LINE
8
Layer 1
10
50.633017
20
142.141420
11
50.210017
21
142.320520
0
LINE
8
Layer 1
10
50.210017
20
142.320520
11
50.049017
21
142.632940
0
LINE
8
Layer 1
10
49.856987
20
142.785570
11
49.165897
21
142.785570
0
LINE
8
Layer 1
10
51.931017
20
144.214930
11
51.635017
21
143.506330
0
LINE
8
Layer 1
10
51.635017
20
143.506330
11
51.341017
21
142.861720
0
LINE
8
Layer 1
10
51.341017
20
142.861720
11
51.061017
21
142.415130
0
LINE
8
Layer 1
10
51.061017
20
142.415130
11
50.633017
21
142.141420
0
LINE
8
Layer 1
10
49.166017
20
142.786420
11
49.043017
21
142.655930
0
LINE
8
Layer 1
10
53.644017
20
145.436120
11
52.744017
21
145.226040
0
LINE
8
Layer 1
10
52.744017
20
145.226040
11
52.251017
21
144.777440
0
LINE
8
Layer 1
10
52.251017
20
144.777440
11
51.931017
21
144.214930
0
LINE
8
Layer 1
10
49.043017
20
142.655930
11
49.244267
21
142.011707
0
LINE
8
Layer 1
10
49.244267
20
142.011707
11
49.681017
21
141.499620
0
LINE
8
Layer 1
10
49.681017
20
141.499620
11
50.082267
21
141.272938
0
LINE
8
Layer 1
10
50.082267
20
141.272938
11
50.533017
21
141.189130
0
LINE
8
Layer 1
10
54.957017
20
143.923120
11
54.782892
21
144.538890
0
LINE
8
Layer 1
10
54.782892
20
144.538890
11
54.419017
21
145.072820
0
LINE
8
Layer 1
10
54.419017
20
145.072820
11
54.066392
21
145.334052
0
LINE
8
Layer 1
10
54.066392
20
145.334052
11
53.644017
21
145.436120
0
LINE
8
Layer 1
10
50.533017
20
141.189130
11
51.070017
21
141.279530
0
LINE
8
Layer 1
10
51.070017
20
141.279530
11
51.782017
21
141.798910
0
LINE
8
Layer 1
10
51.782017
20
141.798910
11
52.422017
21
143.009110
0
LINE
8
Layer 1
10
54.842017
20
143.792630
11
54.957017
21
143.923120
0
LINE
8
Layer 1
10
52.422017
20
143.009120
11
52.876017
21
144.054040
0
LINE
8
Layer 1
10
52.876017
20
144.054040
11
53.096017
21
144.332330
0
LINE
8
Layer 1
10
53.096017
20
144.332330
11
53.444017
21
144.476130
0
LINE
8
Layer 1
10
54.195887
20
143.793640
11
54.841997
21
143.793640
0
LINE
8
Layer 1
10
53.444017
20
144.476130
11
53.812017
21
144.319340
0
LINE
8
Layer 1
10
53.812017
20
144.319340
11
53.997017
21
143.946120
0
LINE
8
Layer 1
10
53.997017
20
143.946120
11
54.196017
21
143.792630
0
LINE
8
Layer 1
10
49.261147
20
139.949240
11
49.891117
21
139.949240
0
LINE
8
Layer 1
10
49.123017
20
139.809940
11
49.261017
21
139.948130
0
LINE
8
Layer 1
10
49.891017
20
139.948130
11
50.114017
21
139.725430
0
LINE
8
Layer 1
10
49.123027
20
137.644720
11
49.123027
21
139.809010
0
LINE
8
Layer 1
10
50.113897
20
139.724340
11
50.113897
21
137.644720
0
LINE
8
Layer 1
10
49.185017
20
137.582620
11
49.123017
21
137.644120
0
LINE
8
Layer 1
10
50.114017
20
137.644140
11
50.053017
21
137.582640
0
LINE
8
Layer 1
10
50.053037
20
137.583870
11
49.184947
21
137.583870
0
LINE
8
Layer 1
10
50.011017
20
143.861630
11
49.873017
21
143.754130
0
LINE
8
Layer 1
10
50.579017
20
144.429930
11
50.303017
21
144.319920
0
LINE
8
Layer 1
10
50.303017
20
144.319920
11
50.011017
21
143.861630
0
LINE
8
Layer 1
10
49.873127
20
143.753950
11
49.188917
21
143.753950
0
LINE
8
Layer 1
10
50.586967
20
144.428640
11
50.578967
21
144.428640
0
LINE
8
Layer 1
10
49.189017
20
143.754130
11
49.059017
21
143.930640
0
LINE
8
Layer 1
10
50.779017
20
144.621940
11
50.587017
21
144.429930
0
LINE
8
Layer 1
10
49.059017
20
143.930640
11
49.300017
21
144.568967
0
LINE
8
Layer 1
10
49.300017
20
144.568967
11
49.718017
21
145.094720
0
LINE
8
Layer 1
10
49.718017
20
145.094720
11
50.118892
21
145.344519
0
LINE
8
Layer 1
10
50.118892
20
145.344519
11
50.579017
21
145.436120
0
LINE
8
Layer 1
10
50.779057
20
145.299120
11
50.779057
21
144.621780
0
LINE
8
Layer 1
10
50.579037
20
145.436700
11
50.648137
21
145.436700
0
LINE
8
Layer 1
10
50.648017
20
145.436120
11
50.779017
21
145.297920
0
LINE
8
Layer 1
10
51.588947
20
147.714760
11
51.588947
21
149.249340
0
LINE
8
Layer 1
10
51.527017
20
147.652430
11
51.589017
21
147.713930
0
LINE
8
Layer 1
10
51.589017
20
149.249930
11
51.727017
21
149.388120
0
LINE
8
Layer 1
10
49.261147
20
147.651260
11
51.527037
21
147.651260
0
LINE
8
Layer 1
10
51.727057
20
149.386930
11
52.309937
21
149.386930
0
LINE
8
Layer 1
10
49.123017
20
147.514130
11
49.261017
21
147.652430
0
LINE
8
Layer 1
10
52.310017
20
149.388120
11
52.499642
21
149.308220
0
LINE
8
Layer 1
10
52.499642
20
149.308220
11
52.579017
21
149.119120
0
LINE
8
Layer 1
10
49.123027
20
146.799300
11
49.123027
21
147.513680
0
LINE
8
Layer 1
10
52.579017
20
149.119700
11
52.579017
21
147.714760
0
LINE
8
Layer 1
10
49.261017
20
146.661640
11
49.123017
21
146.799940
0
LINE
8
Layer 1
10
52.579017
20
147.713910
11
52.641017
21
147.652410
0
LINE
8
Layer 1
10
54.744897
20
146.661720
11
49.261147
21
146.661720
0
LINE
8
Layer 1
10
52.640927
20
147.651260
11
54.744897
21
147.651260
0
LINE
8
Layer 1
10
54.883017
20
146.799940
11
54.745017
21
146.661640
0
LINE
8
Layer 1
10
54.745017
20
147.652430
11
54.883017
21
147.514130
0
LINE
8
Layer 1
10
54.883007
20
147.513680
11
54.883007
21
146.799300
0
LINE
8
Layer 1
10
49.261147
20
150.731010
11
49.891117
21
150.731010
0
LINE
8
Layer 1
10
49.123017
20
150.593930
11
49.261017
21
150.732120
0
LINE
8
Layer 1
10
49.891017
20
150.732120
11
50.114017
21
150.509420
0
LINE
8
Layer 1
10
49.123027
20
148.429140
11
49.123027
21
150.593430
0
LINE
8
Layer 1
10
50.113897
20
150.508760
11
50.113897
21
148.429140
0
LINE
8
Layer 1
10
49.185017
20
148.366620
11
49.123017
21
148.428120
0
LINE
8
Layer 1
10
50.114017
20
148.428130
11
50.053017
21
148.366630
0
LINE
8
Layer 1
10
50.053037
20
148.365640
11
49.184947
21
148.365640
0
LINE
8
Layer 1
10
49.246067
20
156.165550
11
49.999067
21
156.165550
0
LINE
8
Layer 1
10
49.123017
20
156.051120
11
49.246017
21
156.166130
0
LINE
8
Layer 1
10
49.999017
20
156.166130
11
50.114017
21
156.051120
0
LINE
8
Layer 1
10
49.123027
20
152.072450
11
49.123027
21
156.051780
0
LINE
8
Layer 1
10
50.113897
20
156.051780
11
50.113897
21
152.072450
0
LINE
8
Layer 1
10
49.246017
20
151.957620
11
49.123017
21
152.072920
0
LINE
8
Layer 1
10
50.114017
20
152.072920
11
49.999017
21
151.957620
0
LINE
8
Layer 1
10
49.999067
20
151.958680
11
49.246067
21
151.958680
0
LINE
8
Layer 1
10
84.081017
20
349.239426
11
83.979885
21
350.762711
0
LINE
8
Layer 1
10
83.979885
20
350.762711
11
83.682939
21
352.239979
0
LINE
8
Layer 1
10
83.682939
20
352.239979
11
83.199855
21
353.654470
0
LINE
8
Layer 1
10
83.199855
20
353.654470
11
82.540309
21
354.989426
0
LINE
8
Layer 1
10
82.540309
20
354.989426
11
81.713977
21
356.228088
0
LINE
8
Layer 1
10
81.713977
20
356.228088
11
80.730533
21
357.353696
0
LINE
8
Layer 1
10
80.730533
20
357.353696
11
79.599655
21
358.349493
0
LINE
8
Layer 1
10
79.599655
20
358.349493
11
78.331017
21
359.198718
0
LINE
8
Layer 1
10
78.331017
20
359.198718
11
76.961247
21
359.872778
0
LINE
8
Layer 1
10
76.961247
20
359.872778
11
75.533423
21
360.354249
0
LINE
8
Layer 1
10
75.533423
20
360.354249
11
74.066896
21
360.643132
0
LINE
8
Layer 1
10
74.066896
20
360.643132
11
72.581017
21
360.739426
0
LINE
8
Layer 1
10
72.581017
20
360.739426
11
71.095138
21
360.643132
0
LINE
8
Layer 1
10
71.095138
20
360.643132
11
69.628611
21
360.354249
0
LINE
8
Layer 1
10
69.628611
20
360.354249
11
68.200787
21
359.872778
0
LINE
8
Layer 1
10
68.200787
20
359.872778
11
66.831017
21
359.198718
0
LINE
8
Layer 1
10
66.831017
20
359.198718
11
65.562379
21
358.349493
0
LINE
8
Layer 1
10
65.562379
20
358.349493
11
64.431501
21
357.353696
0
LINE
8
Layer 1
10
64.431501
20
357.353696
11
63.448057
21
356.228088
0
LINE
8
Layer 1
10
63.448057
20
356.228088
11
62.621725
21
354.989426
0
LINE
8
Layer 1
10
62.621725
20
354.989426
11
61.962179
21
353.654470
0
LINE
8
Layer 1
10
61.962179
20
353.654470
11
61.479095
21
352.239979
0
LINE
8
Layer 1
10
61.479095
20
352.239979
11
61.182149
21
350.762711
0
LINE
8
Layer 1
10
61.182149
20
350.762711
11
61.081017
21
349.239426
0
LINE
8
Layer 1
10
61.081017
20
349.239426
11
61.182149
21
347.716141
0
LINE
8
Layer 1
10
61.182149
20
347.716141
11
61.479095
21
346.238873
0
LINE
8
Layer 1
10
61.479095
20
346.238873
11
61.962179
21
344.824382
0
LINE
8
Layer 1
10
61.962179
20
344.824382
11
62.621725
21
343.489426
0
LINE
8
Layer 1
10
62.621725
20
343.489426
11
63.448057
21
342.250764
0
LINE
8
Layer 1
10
63.448057
20
342.250764
11
64.431501
21
341.125156
0
LINE
8
Layer 1
10
64.431501
20
341.125156
11
65.562379
21
340.129359
0
LINE
8
Layer 1
10
65.562379
20
340.129359
11
66.831017
21
339.280134
0
LINE
8
Layer 1
10
66.831017
20
339.280134
11
68.200787
21
338.606074
0
LINE
8
Layer 1
10
68.200787
20
338.606074
11
69.628611
21
338.124603
0
LINE
8
Layer 1
10
69.628611
20
338.124603
11
71.095138
21
337.835720
0
LINE
8
Layer 1
10
71.095138
20
337.835720
11
72.581017
21
337.739426
0
LINE
8
Layer 1
10
72.581017
20
337.739426
11
74.066896
21
337.835720
0
LINE
8
Layer 1
10
74.066896
20
337.835720
11
75.533423
21
338.124603
0
LINE
8
Layer 1
10
75.533423
20
338.124603
11
76.961247
21
338.606074
0
LINE
8
Layer 1
10
76.961247
20
338.606074
11
78.331017
21
339.280134
0
LINE
8
Layer 1
10
78.331017
20
339.280134
11
79.599655
21
340.129359
0
LINE
8
Layer 1
10
79.599655
20
340.129359
11
80.730533
21
341.125156
0
LINE
8
Layer 1
10
80.730533
20
341.125156
11
81.713977
21
342.250764
0
LINE
8
Layer 1
10
81.713977
20
342.250764
11
82.540309
21
343.489426
0
LINE
8
Layer 1
10
82.540309
20
343.489426
11
83.199855
21
344.824382
0
LINE
8
Layer 1
10
83.199855
20
344.824382
11
83.682939
21
346.238873
0
LINE
8
Layer 1
10
83.682939
20
346.238873
11
83.979885
21
347.716141
0
LINE
8
Layer 1
10
83.979885
20
347.716141
11
84.081017
21
349.239426
0
LINE
8
Layer 1
10
84.081017
20
349.239426
11
84.081017
21
349.239426
0
LINE
8
Layer 1
10
51.460017
20
349.563426
11
51.621017
21
349.379426
0
LINE
8
Layer 1
10
51.460097
20
350.085556
11
51.460097
21
349.563536
0
LINE
8
Layer 1
10
51.621017
20
349.379426
11
52.378017
21
349.070426
0
LINE
8
Layer 1
10
52.378017
20
349.070426
11
52.596017
21
348.811426
0
LINE
8
Layer 1
10
51.667017
20
350.270426
11
51.460017
21
350.085426
0
LINE
8
Layer 1
10
52.596017
20
348.811426
11
52.842017
21
348.665426
0
LINE
8
Layer 1
10
53.595017
20
348.803426
11
53.303517
21
349.434926
0
LINE
8
Layer 1
10
53.303517
20
349.434926
11
52.772017
21
349.901426
0
LINE
8
Layer 1
10
52.772017
20
349.901426
11
51.667017
21
350.270426
0
LINE
8
Layer 1
10
52.842017
20
348.665536
11
53.479927
21
348.665536
0
LINE
8
Layer 1
10
53.480017
20
348.665426
11
53.595017
21
348.803426
0
LINE
8
Layer 1
10
52.156017
20
339.756427
11
51.523642
21
339.658802
0
LINE
8
Layer 1
10
51.523642
20
339.658802
11
50.964017
21
339.377427
0
LINE
8
Layer 1
10
50.964017
20
339.377427
11
50.513017
21
338.873427
0
LINE
8
Layer 1
10
53.393137
20
339.756487
11
52.155947
21
339.756487
0
LINE
8
Layer 1
10
50.513017
20
338.873427
11
50.582017
21
338.765427
0
LINE
8
Layer 1
10
53.531017
20
339.618427
11
53.393017
21
339.756427
0
LINE
8
Layer 1
10
53.530987
20
338.903477
11
53.530987
21
339.618377
0
LINE
8
Layer 1
10
50.581947
20
338.765357
11
53.393137
21
338.765357
0
LINE
8
Layer 1
10
53.393017
20
338.765427
11
53.531017
21
338.903427
0
LINE
8
Layer 1
10
47.771007
20
337.394557
11
47.771007
21
336.679387
0
LINE
8
Layer 1
10
47.909017
20
337.532427
11
47.771017
21
337.394427
0
LINE
8
Layer 1
10
47.771017
20
336.679427
11
47.909017
21
336.541427
0
LINE
8
Layer 1
10
53.315887
20
337.532397
11
47.909127
21
337.532397
0
LINE
8
Layer 1
10
47.909127
20
336.541537
11
53.393137
21
336.541537
0
LINE
8
Layer 1
10
53.531017
20
337.317427
11
53.316017
21
337.532427
0
LINE
8
Layer 1
10
53.393017
20
336.541427
11
53.531017
21
336.679427
0
LINE
8
Layer 1
10
53.530987
20
336.679387
11
53.530987
21
337.317557
0
LINE
8
Layer 1
10
49.329937
20
338.765357
11
47.977917
21
338.765357
0
LINE
8
Layer 1
10
49.522017
20
338.942427
11
49.330017
21
338.765427
0
LINE
8
Layer 1
10
47.978017
20
338.765427
11
47.794017
21
338.965427
0
LINE
8
Layer 1
10
49.553017
20
339.257427
11
49.522017
21
338.942427
0
LINE
8
Layer 1
10
47.794027
20
338.965387
11
47.840027
21
339.656477
0
LINE
8
Layer 1
10
50.044017
20
339.932427
11
49.638017
21
339.557427
0
LINE
8
Layer 1
10
49.638017
20
339.557427
11
49.553017
21
339.257427
0
LINE
8
Layer 1
10
47.840017
20
339.656427
11
48.001017
21
339.902427
0
LINE
8
Layer 1
10
53.377017
20
341.730427
11
52.236017
21
341.115427
0
LINE
8
Layer 1
10
52.236017
20
341.115427
11
51.156017
21
340.535427
0
LINE
8
Layer 1
10
51.156017
20
340.535427
11
50.659017
21
340.267427
0
LINE
8
Layer 1
10
50.659017
20
340.267427
11
50.325017
21
340.087427
0
LINE
8
Layer 1
10
50.325017
20
340.087427
11
50.044017
21
339.932427
0
LINE
8
Layer 1
10
48.001017
20
339.902427
11
48.547017
21
340.193427
0
LINE
8
Layer 1
10
48.547017
20
340.193427
11
49.098017
21
340.486427
0
LINE
8
Layer 1
10
49.098017
20
340.486427
11
50.016017
21
340.977427
0
LINE
8
Layer 1
10
50.016017
20
340.977427
11
50.482017
21
341.226427
0
LINE
8
Layer 1
10
50.482017
20
341.226427
11
50.958017
21
341.483427
0
LINE
8
Layer 1
10
50.958017
20
341.483427
11
51.396017
21
341.722427
0
LINE
8
Layer 1
10
53.531017
20
341.983427
11
53.377017
21
341.730427
0
LINE
8
Layer 1
10
51.396017
20
341.722427
11
51.834017
21
342.126427
0
LINE
8
Layer 1
10
51.834017
20
342.126427
11
51.933017
21
342.505427
0
LINE
8
Layer 1
10
53.530987
20
342.690457
11
53.530987
21
341.983487
0
LINE
8
Layer 1
10
51.932907
20
342.505507
11
51.932907
21
342.690457
0
LINE
8
Layer 1
10
53.416017
20
342.805427
11
53.531017
21
342.690427
0
LINE
8
Layer 1
10
51.933017
20
342.690427
11
52.049017
21
342.805427
0
LINE
8
Layer 1
10
52.049057
20
342.805547
11
53.415897
21
342.805547
0
LINE
8
Layer 1
10
47.771007
20
344.882527
11
47.771007
21
344.167357
0
LINE
8
Layer 1
10
47.909017
20
345.020427
11
47.771017
21
344.882427
0
LINE
8
Layer 1
10
47.771017
20
344.167427
11
47.909017
21
344.029427
0
LINE
8
Layer 1
10
53.315887
20
345.020377
11
47.909127
21
345.020377
0
LINE
8
Layer 1
10
47.909127
20
344.029507
11
53.393137
21
344.029507
0
LINE
8
Layer 1
10
53.531017
20
344.805427
11
53.316017
21
345.020427
0
LINE
8
Layer 1
10
53.393017
20
344.029427
11
53.531017
21
344.167427
0
LINE
8
Layer 1
10
53.530987
20
344.167357
11
53.530987
21
344.805537
0
LINE
8
Layer 1
10
48.664017
20
347.735426
11
48.998017
21
347.348426
0
LINE
8
Layer 1
10
48.998017
20
347.348426
11
49.563017
21
347.175426
0
LINE
8
Layer 1
10
48.541017
20
347.804426
11
48.664017
21
347.735426
0
LINE
8
Layer 1
10
49.563037
20
347.175406
11
51.713037
21
347.175406
0
LINE
8
Layer 1
10
47.827107
20
347.804316
11
48.540947
21
347.804316
0
LINE
8
Layer 1
10
51.721017
20
347.175426
11
51.713017
21
347.175426
0
LINE
8
Layer 1
10
47.689017
20
347.636426
11
47.827017
21
347.804426
0
LINE
8
Layer 1
10
51.721017
20
347.175426
11
52.282017
21
347.346426
0
LINE
8
Layer 1
10
52.282017
20
347.346426
11
52.612017
21
347.735426
0
LINE
8
Layer 1
10
49.517017
20
346.253427
11
49.016017
21
346.335427
0
LINE
8
Layer 1
10
49.016017
20
346.335427
11
48.346017
21
346.651426
0
LINE
8
Layer 1
10
48.346017
20
346.651426
11
47.935392
21
347.082426
0
LINE
8
Layer 1
10
47.935392
20
347.082426
11
47.689017
21
347.636426
0
LINE
8
Layer 1
10
52.612017
20
347.735426
11
52.742017
21
347.804426
0
LINE
8
Layer 1
10
51.713017
20
346.253427
11
51.656017
21
346.253427
0
LINE
8
Layer 1
10
51.656017
20
346.253427
11
51.546017
21
346.253427
0
LINE
8
Layer 1
10
51.546017
20
346.253427
11
51.397017
21
346.253427
0
LINE
8
Layer 1
10
51.397017
20
346.253427
11
50.988017
21
346.253427
0
LINE
8
Layer 1
10
50.988017
20
346.253427
11
50.485017
21
346.253427
0
LINE
8
Layer 1
10
50.485017
20
346.253427
11
50.011017
21
346.253427
0
LINE
8
Layer 1
10
50.011017
20
346.253427
11
49.749017
21
346.253427
0
LINE
8
Layer 1
10
49.749017
20
346.253427
11
49.608017
21
346.253427
0
LINE
8
Layer 1
10
49.608017
20
346.253427
11
49.517017
21
346.253427
0
LINE
8
Layer 1
10
52.742007
20
347.804316
11
53.456907
21
347.804316
0
LINE
8
Layer 1
10
53.595017
20
347.636426
11
53.345517
21
347.076801
0
LINE
8
Layer 1
10
53.345517
20
347.076801
11
52.928017
21
346.642426
0
LINE
8
Layer 1
10
52.928017
20
346.642426
11
52.263017
21
346.333427
0
LINE
8
Layer 1
10
52.263017
20
346.333427
11
51.713017
21
346.253427
0
LINE
8
Layer 1
10
53.457017
20
347.804426
11
53.595017
21
347.636426
0
LINE
8
Layer 1
10
49.146017
20
341.814427
11
49.751517
21
341.902427
0
LINE
8
Layer 1
10
49.751517
20
341.902427
11
50.294017
21
342.158427
0
LINE
8
Layer 1
10
50.294017
20
342.158427
11
50.797017
21
342.697427
0
LINE
8
Layer 1
10
47.917057
20
341.814417
11
49.146047
21
341.814417
0
LINE
8
Layer 1
10
50.797017
20
342.697427
11
50.728017
21
342.805427
0
LINE
8
Layer 1
10
47.771017
20
341.952427
11
47.917017
21
341.814427
0
LINE
8
Layer 1
10
47.771007
20
342.667437
11
47.771007
21
341.952527
0
LINE
8
Layer 1
10
50.727997
20
342.805547
11
47.917057
21
342.805547
0
LINE
8
Layer 1
10
47.917017
20
342.805427
11
47.771017
21
342.667427
0
LINE
8
Layer 1
10
50.198037
20
354.992516
11
52.095097
21
355.530416
0
LINE
8
Layer 1
10
50.106017
20
354.908426
11
50.198017
21
354.992426
0
LINE
8
Layer 1
10
52.095017
20
355.530426
11
52.271017
21
355.399426
0
LINE
8
Layer 1
10
50.059127
20
354.793556
11
50.105927
21
354.908386
0
LINE
8
Layer 1
10
52.271047
20
355.399446
11
52.279047
21
355.169526
0
LINE
8
Layer 1
10
50.152017
20
354.608426
11
50.059017
21
354.793426
0
LINE
8
Layer 1
10
52.279017
20
355.169426
11
52.409017
21
354.992426
0
LINE
8
Layer 1
10
53.353987
20
353.748446
11
50.151997
21
354.608346
0
LINE
8
Layer 1
10
52.408887
20
354.992516
11
53.430977
21
354.716556
0
LINE
8
Layer 1
10
53.531017
20
353.879426
11
53.354017
21
353.748426
0
LINE
8
Layer 1
10
53.431017
20
354.716426
11
53.531017
21
354.585426
0
LINE
8
Layer 1
10
53.530987
20
354.585326
11
53.530987
21
353.879416
0
LINE
8
Layer 1
10
47.771007
20
352.354356
11
47.771007
21
351.639456
0
LINE
8
Layer 1
10
47.909017
20
352.492426
11
47.771017
21
352.354426
0
LINE
8
Layer 1
10
47.771017
20
351.639426
11
47.909017
21
351.501426
0
LINE
8
Layer 1
10
53.315887
20
352.492476
11
47.909127
21
352.492476
0
LINE
8
Layer 1
10
47.909127
20
351.501346
11
53.393137
21
351.501346
0
LINE
8
Layer 1
10
53.531017
20
352.277426
11
53.316017
21
352.492426
0
LINE
8
Layer 1
10
53.393017
20
351.501426
11
53.531017
21
351.639426
0
LINE
8
Layer 1
10
53.530987
20
351.639456
11
53.530987
21
352.277366
0
LINE
8
Layer 1
10
47.863017
20
356.252426
11
47.763017
21
356.121426
0
LINE
8
Layer 1
10
53.353987
20
357.734396
11
47.863087
21
356.252466
0
LINE
8
Layer 1
10
47.763077
20
356.121496
11
47.763077
21
355.346536
0
LINE
8
Layer 1
10
53.531017
20
357.604426
11
53.354017
21
357.734426
0
LINE
8
Layer 1
10
47.763017
20
355.346426
11
47.863017
21
355.207426
0
LINE
8
Layer 1
10
53.530987
20
356.897516
11
53.530987
21
357.604486
0
LINE
8
Layer 1
10
47.863087
20
355.207366
11
48.907127
21
354.946486
0
LINE
8
Layer 1
10
53.431017
20
356.766426
11
53.531017
21
356.897426
0
LINE
8
Layer 1
10
48.907017
20
354.946426
11
49.069017
21
355.023426
0
LINE
8
Layer 1
10
49.452967
20
355.668526
11
53.430977
21
356.766546
0
LINE
8
Layer 1
10
49.069057
20
355.023476
11
49.261147
21
355.499466
0
LINE
8
Layer 1
10
49.261017
20
355.499426
11
49.453017
21
355.668426
0
LINE
8
Layer 1
10
47.771007
20
359.079536
11
47.771007
21
359.794446
0
LINE
8
Layer 1
10
47.909017
20
358.941426
11
47.771017
21
359.079426
0
LINE
8
Layer 1
10
47.771017
20
359.794426
11
47.909017
21
359.932426
0
LINE
8
Layer 1
10
53.393137
20
358.941426
11
47.909127
21
358.941426
0
LINE
8
Layer 1
10
47.909127
20
359.932556
11
53.393137
21
359.932556
0
LINE
8
Layer 1
10
53.531017
20
359.079426
11
53.393017
21
358.941426
0
LINE
8
Layer 1
10
53.393017
20
359.932426
11
53.531017
21
359.794426
0
LINE
8
Layer 1
10
53.530987
20
359.794446
11
53.530987
21
359.079536
0
LINE
8
Layer 1
10
53.346017
20
363.058426
11
53.531017
21
362.927426
0
LINE
8
Layer 1
10
50.757887
20
362.013506
11
53.346047
21
363.058346
0
LINE
8
Layer 1
10
53.530987
20
362.927376
11
53.530987
21
362.197386
0
LINE
8
Layer 1
10
50.635017
20
362.067426
11
50.758017
21
362.013426
0
LINE
8
Layer 1
10
53.531017
20
362.197426
11
53.485017
21
362.121426
0
LINE
8
Layer 1
10
49.299017
20
362.981426
11
49.762142
21
362.905676
0
LINE
8
Layer 1
10
49.762142
20
362.905676
11
50.169017
21
362.684426
0
LINE
8
Layer 1
10
50.169017
20
362.684426
11
50.635017
21
362.067426
0
LINE
8
Layer 1
10
53.484957
20
362.121456
11
50.757887
21
361.038516
0
LINE
8
Layer 1
10
47.771017
20
361.299426
11
47.904017
21
362.002426
0
LINE
8
Layer 1
10
47.904017
20
362.002426
11
48.301017
21
362.588426
0
LINE
8
Layer 1
10
48.301017
20
362.588426
11
48.760642
21
362.879801
0
LINE
8
Layer 1
10
48.760642
20
362.879801
11
49.299017
21
362.981426
0
LINE
8
Layer 1
10
50.758017
20
361.038426
11
50.689017
21
361.030426
0
LINE
8
Layer 1
10
47.771007
20
360.953316
11
47.771007
21
361.299396
0
LINE
8
Layer 1
10
50.689097
20
361.030306
11
49.974987
21
361.030306
0
LINE
8
Layer 1
10
47.917017
20
360.807426
11
47.771017
21
360.953426
0
LINE
8
Layer 1
10
49.975017
20
361.030426
11
49.883017
21
361.122426
0
LINE
8
Layer 1
10
48.576927
20
360.807536
11
47.917057
21
360.807536
0
LINE
8
Layer 1
10
49.882917
20
361.122386
11
49.882917
21
361.299396
0
LINE
8
Layer 1
10
48.677017
20
360.907426
11
48.577017
21
360.807426
0
LINE
8
Layer 1
10
49.883017
20
361.299426
11
49.776017
21
361.791426
0
LINE
8
Layer 1
10
49.776017
20
361.791426
11
49.582517
21
362.009551
0
LINE
8
Layer 1
10
49.582517
20
362.009551
11
49.299017
21
362.090426
0
LINE
8
Layer 1
10
48.676947
20
361.299396
11
48.676947
21
360.907546
0
LINE
8
Layer 1
10
49.299017
20
362.090426
11
49.004767
21
362.009926
0
LINE
8
Layer 1
10
49.004767
20
362.009926
11
48.796017
21
361.791426
0
LINE
8
Layer 1
10
48.796017
20
361.791426
11
48.677017
21
361.299426
0
LINE
8
Layer 1
10
49.678017
20
349.379426
11
48.903017
21
349.055426
0
LINE
8
Layer 1
10
48.903017
20
349.055426
11
48.703017
21
348.811426
0
LINE
8
Layer 1
10
49.839017
20
349.563426
11
49.678017
21
349.379426
0
LINE
8
Layer 1
10
48.703017
20
348.811426
11
48.465017
21
348.665426
0
LINE
8
Layer 1
10
49.838997
20
350.085556
11
49.838997
21
349.563536
0
LINE
8
Layer 1
10
48.465017
20
348.665536
11
47.818897
21
348.665536
0
LINE
8
Layer 1
10
49.632017
20
350.270426
11
49.839017
21
350.085426
0
LINE
8
Layer 1
10
47.819017
20
348.665426
11
47.704017
21
348.803426
0
LINE
8
Layer 1
10
47.704017
20
348.803426
11
47.980267
21
349.413676
0
LINE
8
Layer 1
10
47.980267
20
349.413676
11
48.483017
21
349.872426
0
LINE
8
Layer 1
10
48.483017
20
349.872426
11
49.632017
21
350.270426
0
LINE
8
Layer 1
10
302.582220
20
21.238630
11
302.582220
21
13.240280
0
LINE
8
Layer 1
10
342.581930
20
21.238630
11
342.581930
21
13.240280
0
LINE
8
Layer 1
10
302.582220
20
371.239527
11
302.582220
21
379.239467
0
LINE
8
Layer 1
10
322.582080
20
379.239467
11
302.582220
21
379.239467
0
LINE
8
Layer 1
10
342.198280
20
371.239527
11
342.198280
21
379.239467
0
LINE
8
Layer 1
10
382.581640
20
352.244556
11
382.581640
21
331.175527
0
LINE
8
Layer 1
10
374.580640
20
331.175527
11
382.581640
21
331.175527
0
LINE
8
Layer 1
10
382.581640
20
352.244556
11
374.580640
21
352.244556
0
LINE
8
Layer 1
10
374.580640
20
352.244556
11
374.580640
21
371.239527
0
LINE
8
Layer 1
10
342.198280
20
371.239527
11
322.582080
21
371.239527
0
LINE
8
Layer 1
10
374.580640
20
371.239527
11
362.198140
21
371.239527
0
LINE
8
Layer 1
10
374.580640
20
311.175404
11
374.580640
21
331.175527
0
LINE
8
Layer 1
10
382.581640
20
24.006180
11
374.580640
21
24.006180
0
LINE
8
Layer 1
10
374.580640
20
24.006180
11
374.580640
21
44.006030
0
LINE
8
Layer 1
10
374.580640
20
44.006030
11
382.581640
21
44.006030
0
LINE
8
Layer 1
10
382.581640
20
65.029820
11
382.581640
21
44.006030
0
LINE
8
Layer 1
10
382.581640
20
65.029820
11
374.580640
21
65.029820
0
LINE
8
Layer 1
10
374.580640
20
65.029820
11
374.580640
21
85.029680
0
LINE
8
Layer 1
10
374.580640
20
85.029680
11
382.581640
21
85.029680
0
LINE
8
Layer 1
10
382.581640
20
106.053470
11
382.581640
21
85.029680
0
LINE
8
Layer 1
10
382.581640
20
106.053470
11
374.580640
21
106.053470
0
LINE
8
Layer 1
10
374.580640
20
106.053470
11
374.580640
21
126.053320
0
LINE
8
Layer 1
10
374.580640
20
126.053320
11
382.581640
21
126.053320
0
LINE
8
Layer 1
10
382.581640
20
147.077120
11
382.581640
21
126.053320
0
LINE
8
Layer 1
10
382.581640
20
147.077120
11
374.580640
21
147.077120
0
LINE
8
Layer 1
10
374.580640
20
147.077120
11
374.580640
21
167.079620
0
LINE
8
Layer 1
10
374.580640
20
167.079620
11
382.581640
21
167.079620
0
LINE
8
Layer 1
10
382.581640
20
188.103410
11
382.581640
21
167.079620
0
LINE
8
Layer 1
10
382.581640
20
188.103410
11
374.580640
21
188.103410
0
LINE
8
Layer 1
10
374.580640
20
188.103410
11
374.580640
21
208.103260
0
LINE
8
Layer 1
10
374.580640
20
208.103260
11
382.581640
21
208.103260
0
LINE
8
Layer 1
10
382.581640
20
229.127050
11
382.581640
21
208.103260
0
LINE
8
Layer 1
10
382.581640
20
229.127050
11
374.580640
21
229.127050
0
LINE
8
Layer 1
10
374.580640
20
229.127050
11
374.580640
21
249.126910
0
LINE
8
Layer 1
10
374.580640
20
249.126910
11
382.581640
21
249.126910
0
LINE
8
Layer 1
10
382.581640
20
270.151230
11
382.581640
21
249.126910
0
LINE
8
Layer 1
10
382.581640
20
270.151230
11
374.580640
21
270.151230
0
LINE
8
Layer 1
10
374.580640
20
270.151230
11
374.580640
21
290.151350
0
LINE
8
Layer 1
10
374.580640
20
290.151350
11
382.581640
21
290.151350
0
LINE
8
Layer 1
10
382.581640
20
311.175404
11
382.581640
21
290.151350
0
LINE
8
Layer 1
10
382.581640
20
311.175404
11
374.580640
21
311.175404
0
LINE
8
Layer 1
10
322.582080
20
371.239527
11
322.582080
21
379.239467
0
LINE
8
Layer 1
10
362.198140
20
371.239527
11
362.198140
21
379.239467
0
LINE
8
Layer 1
10
302.582220
20
371.239527
11
294.642070
21
372.214517
0
LINE
8
Layer 1
10
292.202620
20
352.363356
11
294.642070
21
372.214517
0
LINE
8
Layer 1
10
297.536620
20
330.150527
11
289.596470
21
331.125517
0
LINE
8
Layer 1
10
297.536620
20
330.150527
11
300.142760
21
351.388366
0
LINE
8
Layer 1
10
259.605950
20
21.238630
11
295.099810
21
310.299369
0
LINE
8
Layer 1
10
342.547110
20
21.238630
11
362.567600
21
21.238630
0
LINE
8
Layer 1
10
302.582220
20
21.238630
11
322.550410
21
21.238630
0
LINE
8
Layer 1
10
282.604990
20
21.238630
11
259.587900
21
21.238630
0
LINE
8
Layer 1
10
300.142760
20
351.388366
11
292.202620
21
352.363356
0
LINE
8
Layer 1
10
295.099810
20
310.299369
11
287.157010
21
311.274358
0
LINE
8
Layer 1
10
362.581780
20
21.238630
11
362.581780
21
13.240280
0
LINE
8
Layer 1
10
382.581640
20
13.240280
11
362.581780
21
13.240280
0
LINE
8
Layer 1
10
322.582080
20
21.238630
11
322.582080
21
13.240280
0
LINE
8
Layer 1
10
342.581930
20
13.240280
11
322.582080
21
13.240280
0
LINE
8
Layer 1
10
282.579720
20
21.238630
11
282.579720
21
13.240280
0
LINE
8
Layer 1
10
302.582220
20
13.240280
11
282.579720
21
13.240280
0
LINE
8
Layer 1
10
362.198140
20
379.239467
11
342.198280
21
379.239467
0
LINE
8
Layer 1
10
287.157010
20
311.274358
11
289.596470
21
331.125517
0
LINE
8
Layer 1
10
382.581640
20
24.006180
11
382.581640
21
13.240280
0
LINE
8
Layer 1
10
348.944390
20
270.329530
11
351.183054
21
269.685708
0
LINE
8
Layer 1
10
351.183054
20
269.685708
11
353.436198
21
269.506164
0
LINE
8
Layer 1
10
353.436198
20
269.506164
11
355.643710
21
269.765136
0
LINE
8
Layer 1
10
355.643710
20
269.765136
11
357.745479
21
270.436862
0
LINE
8
Layer 1
10
357.745479
20
270.436862
11
359.681394
21
271.495580
0
LINE
8
Layer 1
10
359.681394
20
271.495580
11
361.391342
21
272.915528
0
LINE
8
Layer 1
10
361.391342
20
272.915528
11
362.815214
21
274.670943
0
LINE
8
Layer 1
10
362.815214
20
274.670943
11
363.892897
21
276.736064
0
LINE
8
Layer 1
10
363.892897
20
276.736064
11
364.536722
21
278.974727
0
LINE
8
Layer 1
10
364.536722
20
278.974727
11
364.716268
21
281.227871
0
LINE
8
Layer 1
10
364.716268
20
281.227871
11
364.457298
21
283.435383
0
LINE
8
Layer 1
10
364.457298
20
283.435383
11
363.785575
21
285.537153
0
LINE
8
Layer 1
10
363.785575
20
285.537153
11
362.726859
21
287.473069
0
LINE
8
Layer 1
10
362.726859
20
287.473069
11
361.306913
21
289.183019
0
LINE
8
Layer 1
10
361.306913
20
289.183019
11
359.551500
21
290.606893
0
LINE
8
Layer 1
10
359.551500
20
290.606893
11
357.486380
21
291.684578
0
LINE
8
Layer 1
10
357.486380
20
291.684578
11
355.247718
21
292.328406
0
LINE
8
Layer 1
10
355.247718
20
292.328406
11
352.994575
21
292.507955
0
LINE
8
Layer 1
10
352.994575
20
292.507955
11
350.787062
21
292.248988
0
LINE
8
Layer 1
10
350.787062
20
292.248988
11
348.685291
21
291.577266
0
LINE
8
Layer 1
10
348.685291
20
291.577266
11
346.749374
21
290.518553
0
LINE
8
Layer 1
10
346.749374
20
290.518553
11
345.039422
21
289.098609
0
LINE
8
Layer 1
10
345.039422
20
289.098609
11
343.615546
21
287.343197
0
LINE
8
Layer 1
10
343.615546
20
287.343197
11
342.537859
21
285.278079
0
LINE
8
Layer 1
10
342.537859
20
285.278079
11
341.894029
21
283.039418
0
LINE
8
Layer 1
10
341.894029
20
283.039418
11
341.714477
21
280.786274
0
LINE
8
Layer 1
10
341.714477
20
280.786274
11
341.973441
21
278.578761
0
LINE
8
Layer 1
10
341.973441
20
278.578761
11
342.645160
21
276.476990
0
LINE
8
Layer 1
10
342.645160
20
276.476990
11
343.703871
21
274.541072
0
LINE
8
Layer 1
10
343.703871
20
274.541072
11
345.123813
21
272.831118
0
LINE
8
Layer 1
10
345.123813
20
272.831118
11
346.879223
21
271.407240
0
LINE
8
Layer 1
10
346.879223
20
271.407240
11
348.944340
21
270.329550
0
LINE
8
Layer 1
10
166.321800
20
375.771307
11
166.321800
21
383.771517
0
LINE
8
Layer 1
10
206.321510
20
375.771307
11
206.321510
21
383.771517
0
LINE
8
Layer 1
10
166.321800
20
25.770950
11
166.321800
21
17.772590
0
LINE
8
Layer 1
10
186.321660
20
17.772590
11
166.321800
21
17.772590
0
LINE
8
Layer 1
10
205.937870
20
25.770950
11
205.937870
21
17.772590
0
LINE
8
Layer 1
10
246.321220
20
44.765380
11
246.321220
21
65.834150
0
LINE
8
Layer 1
10
238.320220
20
65.834150
11
246.321220
21
65.834150
0
LINE
8
Layer 1
10
246.321220
20
44.765380
11
238.320220
21
44.765380
0
LINE
8
Layer 1
10
238.320220
20
44.765380
11
238.320220
21
25.770950
0
LINE
8
Layer 1
10
205.937870
20
25.770950
11
186.321660
21
25.770950
0
LINE
8
Layer 1
10
238.320220
20
25.770950
11
225.937720
21
25.770950
0
LINE
8
Layer 1
10
238.320220
20
85.836650
11
238.320220
21
65.834150
0
LINE
8
Layer 1
10
246.321220
20
373.005357
11
238.320220
21
373.005357
0
LINE
8
Layer 1
10
238.320220
20
373.005357
11
238.320220
21
353.005496
0
LINE
8
Layer 1
10
238.320220
20
353.005496
11
246.321220
21
353.005496
0
LINE
8
Layer 1
10
246.321220
20
331.981447
11
246.321220
21
353.005496
0
LINE
8
Layer 1
10
246.321220
20
331.981447
11
238.320220
21
331.981447
0
LINE
8
Layer 1
10
238.320220
20
331.981447
11
238.320220
21
311.981325
0
LINE
8
Layer 1
10
238.320220
20
311.981325
11
246.321220
21
311.981325
0
LINE
8
Layer 1
10
246.321220
20
290.956740
11
246.321220
21
311.981325
0
LINE
8
Layer 1
10
246.321220
20
290.956740
11
238.320220
21
290.956740
0
LINE
8
Layer 1
10
238.320220
20
290.956740
11
238.320220
21
270.956890
0
LINE
8
Layer 1
10
238.320220
20
270.956890
11
246.321220
21
270.956890
0
LINE
8
Layer 1
10
246.321220
20
249.932560
11
246.321220
21
270.956890
0
LINE
8
Layer 1
10
246.321220
20
249.932560
11
238.320220
21
249.932560
0
LINE
8
Layer 1
10
238.320220
20
249.932560
11
238.320220
21
229.932440
0
LINE
8
Layer 1
10
238.320220
20
229.932440
11
246.321220
21
229.932440
0
LINE
8
Layer 1
10
246.321220
20
208.907590
11
246.321220
21
229.932440
0
LINE
8
Layer 1
10
246.321220
20
208.907590
11
238.320220
21
208.907590
0
LINE
8
Layer 1
10
238.320220
20
208.907590
11
238.320220
21
188.907740
0
LINE
8
Layer 1
10
238.320220
20
188.907740
11
246.321220
21
188.907740
0
LINE
8
Layer 1
10
246.321220
20
167.883950
11
246.321220
21
188.907740
0
LINE
8
Layer 1
10
246.321220
20
167.883950
11
238.320220
21
167.883950
0
LINE
8
Layer 1
10
238.320220
20
167.883950
11
238.320220
21
147.884090
0
LINE
8
Layer 1
10
238.320220
20
147.884090
11
246.321220
21
147.884090
0
LINE
8
Layer 1
10
246.321220
20
126.860300
11
246.321220
21
147.884090
0
LINE
8
Layer 1
10
246.321220
20
126.860300
11
238.320220
21
126.860300
0
LINE
8
Layer 1
10
238.320220
20
126.860300
11
238.320220
21
106.860450
0
LINE
8
Layer 1
10
238.320220
20
106.860450
11
246.321220
21
106.860450
0
LINE
8
Layer 1
10
246.321220
20
85.836650
11
246.321220
21
106.860450
0
LINE
8
Layer 1
10
246.321220
20
85.836650
11
238.320220
21
85.836650
0
LINE
8
Layer 1
10
186.321660
20
25.770950
11
186.321660
21
17.772590
0
LINE
8
Layer 1
10
225.937720
20
25.770950
11
225.937720
21
17.772590
0
LINE
8
Layer 1
10
166.321800
20
25.770950
11
158.379010
21
24.797280
0
LINE
8
Layer 1
10
155.942200
20
44.646320
11
158.379010
21
24.797280
0
LINE
8
Layer 1
10
161.276200
20
66.860740
11
153.336050
21
65.884430
0
LINE
8
Layer 1
10
161.276200
20
66.860740
11
163.882350
21
45.622630
0
LINE
8
Layer 1
10
123.346060
20
375.771307
11
158.836740
21
86.712430
0
LINE
8
Layer 1
10
166.307570
20
375.771307
11
186.321660
21
375.771307
0
LINE
8
Layer 1
10
123.322860
20
375.771307
11
146.321950
21
375.771307
0
LINE
8
Layer 1
10
226.321370
20
375.771307
11
206.294740
21
375.771307
0
LINE
8
Layer 1
10
163.882350
20
45.622630
11
155.942200
21
44.646320
0
LINE
8
Layer 1
10
158.836740
20
86.712430
11
150.899240
21
85.736110
0
LINE
8
Layer 1
10
226.321370
20
375.771307
11
226.321370
21
383.771517
0
LINE
8
Layer 1
10
246.321220
20
383.771517
11
226.321370
21
383.771517
0
LINE
8
Layer 1
10
186.321660
20
375.771307
11
186.321660
21
383.771517
0
LINE
8
Layer 1
10
206.321510
20
383.771517
11
186.321660
21
383.771517
0
LINE
8
Layer 1
10
146.321950
20
375.771307
11
146.321950
21
383.771517
0
LINE
8
Layer 1
10
166.321800
20
383.771517
11
146.321950
21
383.771517
0
LINE
8
Layer 1
10
225.937720
20
17.772590
11
205.937870
21
17.772590
0
LINE
8
Layer 1
10
150.899240
20
85.736110
11
153.336050
21
65.884430
0
LINE
8
Layer 1
10
246.321220
20
373.005357
11
246.321220
21
383.771517
0
LINE
8
Layer 1
10
206.035100
20
120.914370
11
205.440091
21
118.662252
0
LINE
8
Layer 1
10
205.440091
20
118.662252
11
205.309563
21
116.405749
0
LINE
8
Layer 1
10
205.309563
20
116.405749
11
205.616453
21
114.204398
0
LINE
8
Layer 1
10
205.616453
20
114.204398
11
206.333699
21
112.117735
0
LINE
8
Layer 1
10
206.333699
20
112.117735
11
207.434239
21
110.205298
0
LINE
8
Layer 1
10
207.434239
20
110.205298
11
208.891010
21
108.526624
0
LINE
8
Layer 1
10
208.891010
20
108.526624
11
210.676949
21
107.141249
0
LINE
8
Layer 1
10
210.676949
20
107.141249
11
212.764995
21
106.108710
0
LINE
8
Layer 1
10
212.764995
20
106.108710
11
215.017112
21
105.513697
0
LINE
8
Layer 1
10
215.017112
20
105.513697
11
217.273615
21
105.383164
0
LINE
8
Layer 1
10
217.273615
20
105.383164
11
219.474967
21
105.690051
0
LINE
8
Layer 1
10
219.474967
20
105.690051
11
221.561631
21
106.407293
0
LINE
8
Layer 1
10
221.561631
20
106.407293
11
223.474070
21
107.507829
0
LINE
8
Layer 1
10
223.474070
20
107.507829
11
225.152747
21
108.964597
0
LINE
8
Layer 1
10
225.152747
20
108.964597
11
226.538125
21
110.750534
0
LINE
8
Layer 1
10
226.538125
20
110.750534
11
227.570667
21
112.838578
0
LINE
8
Layer 1
10
227.570667
20
112.838578
11
228.165685
21
115.090694
0
LINE
8
Layer 1
10
228.165685
20
115.090694
11
228.296221
21
117.347196
0
LINE
8
Layer 1
10
228.296221
20
117.347196
11
227.989339
21
119.548549
0
LINE
8
Layer 1
10
227.989339
20
119.548549
11
227.272101
21
121.635214
0
LINE
8
Layer 1
10
227.272101
20
121.635214
11
226.171568
21
123.547655
0
LINE
8
Layer 1
10
226.171568
20
123.547655
11
224.714804
21
125.226335
0
LINE
8
Layer 1
10
224.714804
20
125.226335
11
222.928869
21
126.611716
0
LINE
8
Layer 1
10
222.928869
20
126.611716
11
220.840827
21
127.644263
0
LINE
8
Layer 1
10
220.840827
20
127.644263
11
218.588713
21
128.239284
0
LINE
8
Layer 1
10
218.588713
20
128.239284
11
216.332210
21
128.369825
0
LINE
8
Layer 1
10
216.332210
20
128.369825
11
214.130857
21
128.062947
0
LINE
8
Layer 1
10
214.130857
20
128.062947
11
212.044191
21
127.345713
0
LINE
8
Layer 1
10
212.044191
20
127.345713
11
210.131747
21
126.245183
0
LINE
8
Layer 1
10
210.131747
20
126.245183
11
208.453065
21
124.788422
0
LINE
8
Layer 1
10
208.453065
20
124.788422
11
207.067680
21
123.002490
0
LINE
8
Layer 1
10
207.067680
20
123.002490
11
206.035130
21
120.914450
 0 
ENDSEC
 0 
EOF