999
"DXF R12 Output" (www.mydxf.blogspot.com)
 0 
SECTION
 2 
HEADER
 9 
$ACADVER
 1 
AC1009
 9 
$EXTMIN
 10 
 0 
 20 
 0 
 9 
$EXTMAX
 10 
 8.5 
 20 
 11 
 0 
ENDSEC
 0 
SECTION
 2 
ENTITIES
0
LINE
8
Layer 1
10
137.674890
20
74.468730
11
137.674890
21
53.399960
0
LINE
8
Layer 1
10
137.674890
20
53.399960
11
129.674950
21
53.399960
0
LINE
8
Layer 1
10
149.674810
20
34.402870
11
169.715410
21
34.402870
0
LINE
8
Layer 1
10
149.674810
20
34.402870
11
149.674810
21
26.404520
0
LINE
8
Layer 1
10
169.715410
20
34.402870
11
169.715410
21
26.404520
0
LINE
8
Layer 1
10
149.674810
20
26.404520
11
129.674950
21
26.404520
0
LINE
8
Layer 1
10
189.715530
20
26.404520
11
169.715410
21
26.404520
0
LINE
8
Layer 1
10
129.674950
20
53.399960
11
129.674950
21
26.404520
0
LINE
8
Layer 1
10
189.715530
20
34.402870
11
189.715530
21
26.404520
0
LINE
8
Layer 1
10
189.715530
20
34.402870
11
209.756130
21
34.402870
0
LINE
8
Layer 1
10
209.756130
20
34.402870
11
209.756130
21
26.404520
0
LINE
8
Layer 1
10
137.674890
20
74.468730
11
129.674950
21
74.468730
0
LINE
8
Layer 1
10
229.755980
20
26.404520
11
209.756130
21
26.404520
0
LINE
8
Layer 1
10
129.674950
20
94.468580
11
129.674950
21
74.468730
0
LINE
8
Layer 1
10
229.755980
20
34.402870
11
229.755980
21
26.404520
0
LINE
8
Layer 1
10
137.674890
20
94.468580
11
129.674950
21
94.468580
0
LINE
8
Layer 1
10
229.755980
20
34.402870
11
249.796710
21
34.402870
0
LINE
8
Layer 1
10
137.674890
20
115.492370
11
137.674890
21
94.468580
0
LINE
8
Layer 1
10
249.796710
20
34.402870
11
249.796710
21
26.404520
0
LINE
8
Layer 1
10
137.674890
20
115.492370
11
129.674950
21
115.492370
0
LINE
8
Layer 1
10
269.796700
20
26.404520
11
249.796710
21
26.404520
0
LINE
8
Layer 1
10
129.674950
20
135.492230
11
129.674950
21
115.492370
0
LINE
8
Layer 1
10
269.796700
20
34.402870
11
269.796700
21
26.404520
0
LINE
8
Layer 1
10
137.674890
20
135.492230
11
129.674950
21
135.492230
0
LINE
8
Layer 1
10
269.796700
20
34.402870
11
289.837300
21
34.402870
0
LINE
8
Layer 1
10
137.674890
20
156.516020
11
137.674890
21
135.492230
0
LINE
8
Layer 1
10
289.837300
20
34.402870
11
289.837300
21
26.404520
0
LINE
8
Layer 1
10
137.674890
20
156.516020
11
129.674950
21
156.516020
0
LINE
8
Layer 1
10
309.837420
20
26.404520
11
289.837300
21
26.404520
0
LINE
8
Layer 1
10
129.674950
20
176.515870
11
129.674950
21
156.516020
0
LINE
8
Layer 1
10
309.837420
20
34.402870
11
309.837420
21
26.404520
0
LINE
8
Layer 1
10
137.674890
20
176.515870
11
129.674950
21
176.515870
0
LINE
8
Layer 1
10
309.837420
20
34.402870
11
329.878020
21
34.402870
0
LINE
8
Layer 1
10
137.674890
20
197.539660
11
137.674890
21
176.515870
0
LINE
8
Layer 1
10
329.878020
20
34.402870
11
329.878020
21
26.404520
0
LINE
8
Layer 1
10
137.674890
20
197.539660
11
129.674950
21
197.539660
0
LINE
8
Layer 1
10
349.877870
20
26.404520
11
329.878020
21
26.404520
0
LINE
8
Layer 1
10
129.674950
20
217.539520
11
129.674950
21
197.539660
0
LINE
8
Layer 1
10
349.877870
20
34.402870
11
349.877870
21
26.404520
0
LINE
8
Layer 1
10
137.674890
20
217.539520
11
129.674950
21
217.539520
0
LINE
8
Layer 1
10
349.877870
20
34.402870
11
369.919000
21
34.402870
0
LINE
8
Layer 1
10
137.674890
20
238.565950
11
137.674890
21
217.539520
0
LINE
8
Layer 1
10
369.919000
20
34.402870
11
369.919000
21
26.404520
0
LINE
8
Layer 1
10
137.674890
20
238.565950
11
129.674950
21
238.565950
0
LINE
8
Layer 1
10
389.918850
20
26.404520
11
369.919000
21
26.404520
0
LINE
8
Layer 1
10
129.674950
20
258.564750
11
129.674950
21
238.565950
0
LINE
8
Layer 1
10
389.918850
20
34.402870
11
389.918850
21
26.404520
0
LINE
8
Layer 1
10
137.674890
20
258.564750
11
129.674950
21
258.564750
0
LINE
8
Layer 1
10
389.918850
20
34.402870
11
395.674860
21
34.402870
0
LINE
8
Layer 1
10
137.674890
20
279.589070
11
137.674890
21
258.564750
0
LINE
8
Layer 1
10
395.674860
20
53.399960
11
395.674860
21
34.402870
0
LINE
8
Layer 1
10
137.674890
20
279.589070
11
129.674950
21
279.589070
0
LINE
8
Layer 1
10
387.674920
20
53.399960
11
395.674860
21
53.399960
0
LINE
8
Layer 1
10
129.674950
20
299.589190
11
129.674950
21
279.589070
0
LINE
8
Layer 1
10
387.674920
20
53.399960
11
387.674920
21
74.468730
0
LINE
8
Layer 1
10
137.674890
20
299.589190
11
129.674950
21
299.589190
0
LINE
8
Layer 1
10
387.674920
20
74.468730
11
395.674860
21
74.468730
0
LINE
8
Layer 1
10
137.674890
20
320.613772
11
137.674890
21
299.589190
0
LINE
8
Layer 1
10
395.674860
20
94.468580
11
395.674860
21
74.468730
0
LINE
8
Layer 1
10
137.674890
20
320.613772
11
129.674950
21
320.613772
0
LINE
8
Layer 1
10
387.674920
20
94.468580
11
395.674860
21
94.468580
0
LINE
8
Layer 1
10
129.674950
20
340.613626
11
129.674950
21
320.613772
0
LINE
8
Layer 1
10
387.674920
20
94.468580
11
387.674920
21
115.492370
0
LINE
8
Layer 1
10
137.674890
20
340.613626
11
129.674950
21
340.613626
0
LINE
8
Layer 1
10
387.674920
20
115.492370
11
395.674860
21
115.492370
0
LINE
8
Layer 1
10
137.674890
20
361.637682
11
137.674890
21
340.613626
0
LINE
8
Layer 1
10
395.674860
20
135.492230
11
395.674860
21
115.492370
0
LINE
8
Layer 1
10
137.674890
20
361.637682
11
129.674950
21
361.637682
0
LINE
8
Layer 1
10
387.674920
20
135.492230
11
395.674860
21
135.492230
0
LINE
8
Layer 1
10
129.674950
20
381.637536
11
129.674950
21
361.637682
0
LINE
8
Layer 1
10
387.674920
20
135.492230
11
387.674920
21
156.516020
0
LINE
8
Layer 1
10
137.674890
20
381.637536
11
129.674950
21
381.637536
0
LINE
8
Layer 1
10
387.674920
20
156.516020
11
395.674860
21
156.516020
0
LINE
8
Layer 1
10
137.674890
20
384.403754
11
137.674890
21
381.637536
0
LINE
8
Layer 1
10
395.674860
20
176.515870
11
395.674860
21
156.516020
0
LINE
8
Layer 1
10
149.093780
20
384.403754
11
137.674890
21
384.403754
0
LINE
8
Layer 1
10
387.674920
20
176.515870
11
395.674860
21
176.515870
0
LINE
8
Layer 1
10
149.093780
20
384.403754
11
149.093780
21
392.403696
0
LINE
8
Layer 1
10
387.674920
20
176.515870
11
387.674920
21
197.539660
0
LINE
8
Layer 1
10
149.093780
20
392.403696
11
169.093900
21
392.403696
0
LINE
8
Layer 1
10
387.674920
20
197.539660
11
395.674860
21
197.539660
0
LINE
8
Layer 1
10
169.093900
20
384.403754
11
169.093900
21
392.403696
0
LINE
8
Layer 1
10
395.674860
20
217.539520
11
395.674860
21
197.539660
0
LINE
8
Layer 1
10
190.664060
20
384.403754
11
169.093900
21
384.403754
0
LINE
8
Layer 1
10
387.674920
20
217.539520
11
395.674860
21
217.539520
0
LINE
8
Layer 1
10
190.664060
20
384.403754
11
190.664060
21
392.403696
0
LINE
8
Layer 1
10
387.674920
20
217.539520
11
387.674920
21
238.565950
0
LINE
8
Layer 1
10
190.664060
20
392.403696
11
210.663910
21
392.403696
0
LINE
8
Layer 1
10
387.674920
20
238.565950
11
395.674860
21
238.565950
0
LINE
8
Layer 1
10
210.663910
20
384.403754
11
210.663910
21
392.403696
0
LINE
8
Layer 1
10
395.674860
20
258.564750
11
395.674860
21
238.565950
0
LINE
8
Layer 1
10
232.234070
20
384.403754
11
210.663910
21
384.403754
0
LINE
8
Layer 1
10
387.674920
20
258.564750
11
395.674860
21
258.564750
0
LINE
8
Layer 1
10
232.234070
20
384.403754
11
232.234070
21
392.403696
0
LINE
8
Layer 1
10
387.674920
20
258.564750
11
387.674920
21
279.589070
0
LINE
8
Layer 1
10
232.234070
20
392.403696
11
252.234000
21
392.403696
0
LINE
8
Layer 1
10
387.674920
20
279.589070
11
395.674860
21
279.589070
0
LINE
8
Layer 1
10
252.234000
20
384.403754
11
252.234000
21
392.403696
0
LINE
8
Layer 1
10
395.674860
20
299.589190
11
395.674860
21
279.589070
0
LINE
8
Layer 1
10
273.804000
20
384.403754
11
252.234000
21
384.403754
0
LINE
8
Layer 1
10
387.674920
20
299.589190
11
395.674860
21
299.589190
0
LINE
8
Layer 1
10
273.804000
20
384.403754
11
273.804000
21
392.403696
0
LINE
8
Layer 1
10
387.674920
20
299.589190
11
387.674920
21
320.613772
0
LINE
8
Layer 1
10
273.804000
20
392.403696
11
293.803930
21
392.403696
0
LINE
8
Layer 1
10
387.674920
20
320.613772
11
395.674860
21
320.613772
0
LINE
8
Layer 1
10
293.803930
20
384.403754
11
293.803930
21
392.403696
0
LINE
8
Layer 1
10
395.674860
20
340.613626
11
395.674860
21
320.613772
0
LINE
8
Layer 1
10
315.374090
20
384.403754
11
293.803930
21
384.403754
0
LINE
8
Layer 1
10
387.674920
20
340.613626
11
395.674860
21
340.613626
0
LINE
8
Layer 1
10
315.374090
20
384.403754
11
315.374090
21
392.403696
0
LINE
8
Layer 1
10
387.674920
20
340.613626
11
387.674920
21
361.637682
0
LINE
8
Layer 1
10
315.374090
20
392.403696
11
335.373940
21
392.403696
0
LINE
8
Layer 1
10
387.674920
20
361.637682
11
395.674860
21
361.637682
0
LINE
8
Layer 1
10
335.373940
20
384.403754
11
335.373940
21
392.403696
0
LINE
8
Layer 1
10
395.674860
20
381.637536
11
395.674860
21
361.637682
0
LINE
8
Layer 1
10
356.944100
20
384.403754
11
335.373940
21
384.403754
0
LINE
8
Layer 1
10
387.674920
20
381.637536
11
395.674860
21
381.637536
0
LINE
8
Layer 1
10
356.944100
20
384.403754
11
356.944100
21
392.403696
0
LINE
8
Layer 1
10
387.674920
20
381.637536
11
387.674920
21
384.403754
0
LINE
8
Layer 1
10
356.944100
20
392.403696
11
376.943950
21
392.403696
0
LINE
8
Layer 1
10
387.674920
20
384.403754
11
376.943950
21
384.403754
0
LINE
8
Layer 1
10
376.943950
20
384.403754
11
376.943950
21
392.403696
0
LINE
8
Layer 1
10
365.674820
20
97.087960
11
357.674880
21
97.087960
0
LINE
8
Layer 1
10
357.674880
20
97.087960
11
357.674880
21
77.088100
0
LINE
8
Layer 1
10
357.674880
20
77.088100
11
365.674820
21
77.088100
0
LINE
8
Layer 1
10
365.674820
20
77.088100
11
365.674820
21
97.087960
0
LINE
8
Layer 1
10
365.674820
20
198.870520
11
357.674880
21
198.870520
0
LINE
8
Layer 1
10
357.674880
20
198.870520
11
357.674880
21
178.870660
0
LINE
8
Layer 1
10
357.674880
20
178.870660
11
365.674820
21
178.870660
0
LINE
8
Layer 1
10
365.674820
20
178.870660
11
365.674820
21
198.870520
0
LINE
8
Layer 1
10
365.674820
20
238.851700
11
357.674880
21
238.851700
0
LINE
8
Layer 1
10
357.674880
20
238.851700
11
357.674880
21
218.851850
0
LINE
8
Layer 1
10
357.674880
20
218.851850
11
365.674820
21
218.851850
0
LINE
8
Layer 1
10
365.674820
20
218.851850
11
365.674820
21
238.851700
0
LINE
8
Layer 1
10
365.674820
20
278.832890
11
357.674880
21
278.832890
0
LINE
8
Layer 1
10
357.674880
20
278.832890
11
357.674880
21
258.832770
0
LINE
8
Layer 1
10
357.674880
20
258.832770
11
365.674820
21
258.832770
0
LINE
8
Layer 1
10
365.674820
20
258.832770
11
365.674820
21
278.832890
0
LINE
8
Layer 1
10
365.674820
20
318.814606
11
357.674880
21
318.814606
0
LINE
8
Layer 1
10
357.674880
20
318.814606
11
357.674880
21
298.814490
0
LINE
8
Layer 1
10
357.674880
20
298.814490
11
365.674820
21
298.814490
0
LINE
8
Layer 1
10
365.674820
20
298.814490
11
365.674820
21
318.814606
0
LINE
8
Layer 1
10
365.674820
20
358.796586
11
357.674880
21
358.796586
0
LINE
8
Layer 1
10
357.674880
20
358.796586
11
357.674880
21
338.796732
0
LINE
8
Layer 1
10
357.674880
20
338.796732
11
365.674820
21
338.796732
0
LINE
8
Layer 1
10
365.674820
20
338.796732
11
365.674820
21
358.796586
0
LINE
8
Layer 1
10
159.675000
20
77.088100
11
159.675000
21
97.087960
0
LINE
8
Layer 1
10
167.674940
20
77.088100
11
159.675000
21
77.088100
0
LINE
8
Layer 1
10
159.675000
20
97.087960
11
167.674940
21
97.087960
0
LINE
8
Layer 1
10
167.674940
20
97.087960
11
167.674940
21
77.088100
0
LINE
8
Layer 1
10
159.675000
20
178.870660
11
159.675000
21
198.870520
0
LINE
8
Layer 1
10
167.674940
20
178.870660
11
159.675000
21
178.870660
0
LINE
8
Layer 1
10
159.675000
20
198.870520
11
167.674940
21
198.870520
0
LINE
8
Layer 1
10
167.674940
20
198.870520
11
167.674940
21
178.870660
0
LINE
8
Layer 1
10
159.675000
20
218.851850
11
159.675000
21
238.851700
0
LINE
8
Layer 1
10
167.674940
20
218.851850
11
159.675000
21
218.851850
0
LINE
8
Layer 1
10
159.675000
20
238.851700
11
167.674940
21
238.851700
0
LINE
8
Layer 1
10
167.674940
20
238.851700
11
167.674940
21
218.851850
0
LINE
8
Layer 1
10
159.675000
20
258.832770
11
159.675000
21
278.832890
0
LINE
8
Layer 1
10
167.674940
20
258.832770
11
159.675000
21
258.832770
0
LINE
8
Layer 1
10
159.675000
20
278.832890
11
167.674940
21
278.832890
0
LINE
8
Layer 1
10
167.674940
20
278.832890
11
167.674940
21
258.832770
0
LINE
8
Layer 1
10
159.675000
20
298.814490
11
159.675000
21
318.814606
0
LINE
8
Layer 1
10
167.674940
20
298.814490
11
159.675000
21
298.814490
0
LINE
8
Layer 1
10
159.675000
20
318.814606
11
167.674940
21
318.814606
0
LINE
8
Layer 1
10
167.674940
20
318.814606
11
167.674940
21
298.814490
0
LINE
8
Layer 1
10
159.675000
20
338.796732
11
159.675000
21
358.796586
0
LINE
8
Layer 1
10
167.674940
20
338.796732
11
159.675000
21
338.796732
0
LINE
8
Layer 1
10
159.675000
20
358.796586
11
167.674940
21
358.796586
0
LINE
8
Layer 1
10
167.674940
20
358.796586
11
167.674940
21
338.796732
0
LINE
8
Layer 1
10
96.452996
20
390.532373
11
75.056136
21
390.532373
0
LINE
8
Layer 1
10
75.056136
20
382.533970
11
75.056136
21
390.532373
0
LINE
8
Layer 1
10
96.452996
20
132.532370
11
116.452860
21
132.532370
0
LINE
8
Layer 1
10
96.452996
20
124.532430
11
96.452996
21
132.532370
0
LINE
8
Layer 1
10
75.056136
20
124.532430
11
96.452996
21
124.532430
0
LINE
8
Layer 1
10
75.056136
20
132.532370
11
75.056136
21
124.532430
0
LINE
8
Layer 1
10
55.056286
20
132.532370
11
75.056136
21
132.532370
0
LINE
8
Layer 1
10
55.056286
20
124.532430
11
55.056286
21
132.532370
0
LINE
8
Layer 1
10
16.453576
20
124.532430
11
55.056286
21
124.532430
0
LINE
8
Layer 1
10
64.861746
20
257.531320
11
16.453576
21
124.532430
0
LINE
8
Layer 1
10
16.453576
20
390.532373
11
64.861746
21
257.531320
0
LINE
8
Layer 1
10
55.056286
20
390.532373
11
16.453576
21
390.532373
0
LINE
8
Layer 1
10
55.056286
20
390.532373
11
55.056286
21
382.533970
0
LINE
8
Layer 1
10
55.056286
20
382.533970
11
75.056136
21
382.533970
0
LINE
8
Layer 1
10
96.452996
20
390.532373
11
96.452996
21
382.533970
0
LINE
8
Layer 1
10
96.452996
20
382.533970
11
116.452860
21
382.533970
0
LINE
8
Layer 1
10
116.452860
20
132.532370
11
116.452860
21
382.533970
 0 
ENDSEC
 0 
EOF