999
"DXF R12 Output" (www.mydxf.blogspot.com)
 0 
SECTION
 2 
HEADER
 9 
$ACADVER
 1 
AC1009
 9 
$EXTMIN
 10 
 0 
 20 
 0 
 9 
$EXTMAX
 10 
 8.5 
 20 
 11 
 0 
ENDSEC
 0 
SECTION
 2 
ENTITIES
0
LINE
8
Layer 1
10
0.793749
20
297.793749
11
-0.793749
21
296.206251
0
LINE
8
Layer 1
10
0.000000
20
298.322915
11
0.000000
21
295.677085
0
LINE
8
Layer 1
10
2.116664
20
295.941668
11
1.058332
21
294.883336
0
LINE
8
Layer 1
10
1.587498
20
296.470834
11
0.529166
21
295.412502
0
LINE
8
Layer 1
10
1.058332
20
297.000000
11
0.000000
21
295.941668
0
LINE
8
Shape2DView008
10
379.999396
20
-79.536005
11
379.999396
21
-41.981094
0
LINE
8
Shape2DView008
10
386.000139
20
-41.981094
11
379.999396
21
-41.981094
0
LINE
8
Shape2DView008
10
395.998730
20
219.309171
11
395.998730
21
-79.536005
0
LINE
8
Shape2DView008
10
386.000139
20
219.309171
11
395.998730
21
219.309171
0
LINE
8
Shape2DView008
10
386.000139
20
219.309171
11
386.000139
21
182.153251
0
LINE
8
Shape2DView008
10
386.000139
20
182.153251
11
379.999396
21
182.153251
0
LINE
8
Shape2DView008
10
379.999396
20
144.397257
11
379.999396
21
182.153251
0
LINE
8
Shape2DView008
10
386.000139
20
144.397257
11
379.999396
21
144.397257
0
LINE
8
Shape2DView008
10
386.000139
20
144.397257
11
386.000139
21
107.441362
0
LINE
8
Shape2DView008
10
386.000139
20
107.441362
11
379.999396
21
107.441362
0
LINE
8
Shape2DView008
10
379.999396
20
69.685897
11
379.999396
21
107.441362
0
LINE
8
Shape2DView008
10
386.000139
20
69.685897
11
379.999396
21
69.685897
0
LINE
8
Shape2DView008
10
386.000139
20
69.685897
11
386.000139
21
32.730002
0
LINE
8
Shape2DView008
10
386.000139
20
32.730002
11
379.999396
21
32.730002
0
LINE
8
Shape2DView008
10
379.999396
20
-5.026786
11
379.999396
21
32.730002
0
LINE
8
Shape2DView008
10
386.000139
20
-5.026786
11
379.999396
21
-5.026786
0
LINE
8
Shape2DView008
10
386.000139
20
-5.026786
11
386.000139
21
-41.981094
0
LINE
8
Shape2DView008
10
379.999396
20
-79.536005
11
395.998730
21
-79.536005
0
LINE
8
Shape2DView
10
80.999969
20
-131.000044
11
80.999969
21
-124.798219
0
LINE
8
Shape2DView
10
74.900008
20
-124.798219
11
80.999969
21
-124.798219
0
LINE
8
Shape2DView
10
74.900008
20
-89.484326
11
74.900008
21
-124.798219
0
LINE
8
Shape2DView
10
74.900008
20
-89.484326
11
80.999969
21
-89.484326
0
LINE
8
Shape2DView
10
80.999969
20
-89.484326
11
80.999969
21
-53.371392
0
LINE
8
Shape2DView
10
74.900008
20
-53.371392
11
80.999969
21
-53.371392
0
LINE
8
Shape2DView
10
74.900008
20
-18.057499
11
74.900008
21
-53.371392
0
LINE
8
Shape2DView
10
74.900008
20
-18.057499
11
80.999969
21
-18.057499
0
LINE
8
Shape2DView
10
80.999969
20
-18.057499
11
80.999969
21
18.058081
0
LINE
8
Shape2DView
10
74.900008
20
18.058081
11
80.999969
21
18.058081
0
LINE
8
Shape2DView
10
74.900008
20
53.371709
11
74.900008
21
18.058081
0
LINE
8
Shape2DView
10
74.900008
20
53.371709
11
80.999969
21
53.371709
0
LINE
8
Shape2DView
10
80.999969
20
53.371709
11
80.999969
21
89.485966
0
LINE
8
Shape2DView
10
74.900008
20
89.485966
11
80.999969
21
89.485966
0
LINE
8
Shape2DView
10
74.900008
20
124.800123
11
74.900008
21
89.485966
0
LINE
8
Shape2DView
10
74.900008
20
124.800123
11
80.999969
21
124.800123
0
LINE
8
Shape2DView
10
80.999969
20
124.800123
11
80.999969
21
131.000097
0
LINE
8
Shape2DView
10
60.799850
20
131.000097
11
80.999969
21
131.000097
0
LINE
8
Shape2DView
10
60.799850
20
124.900136
11
60.799850
21
131.000097
0
LINE
8
Shape2DView
10
41.200071
20
124.900136
11
60.799850
21
124.900136
0
LINE
8
Shape2DView
10
41.200071
20
124.900136
11
41.200071
21
131.000097
0
LINE
8
Shape2DView
10
20.799981
20
131.000097
11
41.200071
21
131.000097
0
LINE
8
Shape2DView
10
20.799981
20
124.900136
11
20.799981
21
131.000097
0
LINE
8
Shape2DView
10
1.000028
20
124.900136
11
20.799981
21
124.900136
0
LINE
8
Shape2DView
10
0.999999
20
131.000097
11
1.000028
21
131.000097
0
LINE
8
Shape2DView
10
0.999999
20
-124.942549
11
0.999999
21
124.936645
0
LINE
8
Shape2DView
10
0.999999
20
-124.898760
11
19.274977
21
-124.898760
0
LINE
8
Shape2DView
10
19.274977
20
-131.000044
11
19.274977
21
-124.898760
0
LINE
8
Shape2DView
10
38.149958
20
-131.000044
11
19.274977
21
-131.000044
0
LINE
8
Shape2DView
10
38.149958
20
-131.000044
11
38.149958
21
-124.898760
0
LINE
8
Shape2DView
10
38.149958
20
-124.898760
11
56.224946
21
-124.898760
0
LINE
8
Shape2DView
10
56.224946
20
-131.000044
11
56.224946
21
-124.898760
0
LINE
8
Shape2DView
10
80.999969
20
-131.000044
11
56.224946
21
-131.000044
0
LINE
8
Shape2DView
10
62.499921
20
-100.999499
11
62.265978
21
-98.682121
0
LINE
8
Shape2DView
10
62.265978
20
-98.682121
11
61.595693
21
-96.523745
0
LINE
8
Shape2DView
10
61.595693
20
-96.523745
11
60.535301
21
-94.570599
0
LINE
8
Shape2DView
10
60.535301
20
-94.570599
11
59.131037
21
-92.868909
0
LINE
8
Shape2DView
10
59.131037
20
-92.868909
11
57.429134
21
-91.464902
0
LINE
8
Shape2DView
10
57.429134
20
-91.464902
11
55.475826
21
-90.404807
0
LINE
8
Shape2DView
10
55.475826
20
-90.404807
11
53.317349
21
-89.734849
0
LINE
8
Shape2DView
10
53.317349
20
-89.734849
11
50.999936
21
-89.501258
0
LINE
8
Shape2DView
10
50.999936
20
-89.501258
11
48.682523
21
-89.734849
0
LINE
8
Shape2DView
10
48.682523
20
-89.734849
11
46.524045
21
-90.404807
0
LINE
8
Shape2DView
10
46.524045
20
-90.404807
11
44.570738
21
-91.464902
0
LINE
8
Shape2DView
10
44.570738
20
-91.464902
11
42.868835
21
-92.868909
0
LINE
8
Shape2DView
10
42.868835
20
-92.868909
11
41.464570
21
-94.570599
0
LINE
8
Shape2DView
10
41.464570
20
-94.570599
11
40.404178
21
-96.523745
0
LINE
8
Shape2DView
10
40.404178
20
-96.523745
11
39.733894
21
-98.682121
0
LINE
8
Shape2DView
10
39.733894
20
-98.682121
11
39.499950
21
-100.999499
0
LINE
8
Shape2DView
10
39.499950
20
-100.999499
11
39.733894
21
-103.316876
0
LINE
8
Shape2DView
10
39.733894
20
-103.316876
11
40.404178
21
-105.475252
0
LINE
8
Shape2DView
10
40.404178
20
-105.475252
11
41.464570
21
-107.428399
0
LINE
8
Shape2DView
10
41.464570
20
-107.428399
11
42.868835
21
-109.130089
0
LINE
8
Shape2DView
10
42.868835
20
-109.130089
11
44.570738
21
-110.534095
0
LINE
8
Shape2DView
10
44.570738
20
-110.534095
11
46.524045
21
-111.594191
0
LINE
8
Shape2DView
10
46.524045
20
-111.594191
11
48.682523
21
-112.264148
0
LINE
8
Shape2DView
10
48.682523
20
-112.264148
11
50.999936
21
-112.497740
0
LINE
8
Shape2DView
10
50.999936
20
-112.497740
11
53.317349
21
-112.264148
0
LINE
8
Shape2DView
10
53.317349
20
-112.264148
11
55.475826
21
-111.594191
0
LINE
8
Shape2DView
10
55.475826
20
-111.594191
11
57.429134
21
-110.534095
0
LINE
8
Shape2DView
10
57.429134
20
-110.534095
11
59.131037
21
-109.130089
0
LINE
8
Shape2DView
10
59.131037
20
-109.130089
11
60.535301
21
-107.428399
0
LINE
8
Shape2DView
10
60.535301
20
-107.428399
11
61.595693
21
-105.475252
0
LINE
8
Shape2DView
10
61.595693
20
-105.475252
11
62.265978
21
-103.316876
0
LINE
8
Shape2DView
10
62.265978
20
-103.316876
11
62.499921
21
-100.999499
0
LINE
8
Shape2DView
10
62.499921
20
-100.999499
11
62.499921
21
-100.999499
0
LINE
8
Shape2DView
10
32.457455
20
-106.290638
11
33.079754
21
-106.290638
0
LINE
8
Shape2DView
10
32.311659
20
-106.429492
11
32.457459
21
-106.290492
0
LINE
8
Shape2DView
10
33.079658
20
-106.290492
11
33.302158
21
-106.513492
0
LINE
8
Shape2DView
10
32.311670
20
-108.595156
11
32.311670
21
-106.428221
0
LINE
8
Shape2DView
10
33.302268
20
-106.512887
11
33.302268
21
-108.595156
0
LINE
8
Shape2DView
10
32.372959
20
-108.656489
11
32.311659
21
-108.594489
0
LINE
8
Shape2DView
10
33.302158
20
-108.594489
11
33.248458
21
-108.656489
0
LINE
8
Shape2DView
10
33.248558
20
-108.656010
11
32.373053
21
-108.656010
0
LINE
8
Shape2DView
10
32.408159
20
-103.490496
11
32.554159
21
-103.391495
0
LINE
8
Shape2DView
10
31.839960
20
-104.059495
11
32.140460
21
-103.930495
0
LINE
8
Shape2DView
10
32.140460
20
-103.930495
11
32.408159
21
-103.490496
0
LINE
8
Shape2DView
10
32.554028
20
-103.390808
11
33.230037
21
-103.390808
0
LINE
8
Shape2DView
10
31.647960
20
-104.258495
11
31.839960
21
-104.059495
0
LINE
8
Shape2DView
10
33.229958
20
-103.391495
11
33.368158
21
-103.560495
0
LINE
8
Shape2DView
10
31.647831
20
-104.933327
11
31.647831
21
-104.258640
0
LINE
8
Shape2DView
10
33.368158
20
-103.560495
11
33.134583
21
-104.177745
0
LINE
8
Shape2DView
10
33.134583
20
-104.177745
11
32.738559
21
-104.694494
0
LINE
8
Shape2DView
10
32.738559
20
-104.694494
11
32.322934
21
-104.965494
0
LINE
8
Shape2DView
10
32.322934
20
-104.965494
11
31.839960
21
-105.065494
0
LINE
8
Shape2DView
10
31.778460
20
-105.065494
11
31.647960
21
-104.934494
0
LINE
8
Shape2DView
10
31.839918
20
-105.065618
11
31.778535
21
-105.065618
0
LINE
8
Shape2DView
10
32.457455
20
-95.506235
11
33.079754
21
-95.506235
0
LINE
8
Shape2DView
10
32.311659
20
-95.645005
11
32.457459
21
-95.506805
0
LINE
8
Shape2DView
10
33.079658
20
-95.506805
11
33.302158
21
-95.729505
0
LINE
8
Shape2DView
10
32.311670
20
-97.810753
11
32.311670
21
-95.643818
0
LINE
8
Shape2DView
10
33.302268
20
-95.728484
11
33.302268
21
-97.810753
0
LINE
8
Shape2DView
10
32.372959
20
-97.872303
11
32.311659
21
-97.810803
0
LINE
8
Shape2DView
10
33.302158
20
-97.810803
11
33.248458
21
-97.872303
0
LINE
8
Shape2DView
10
33.248558
20
-97.871607
11
32.373053
21
-97.871607
0
LINE
8
Shape2DView
10
29.093547
20
-92.553488
11
29.093547
21
-91.799427
0
LINE
8
Shape2DView
10
29.208963
20
-92.668509
11
29.093663
21
-92.553309
0
LINE
8
Shape2DView
10
29.093663
20
-91.800510
11
29.208963
21
-91.685510
0
LINE
8
Shape2DView
10
33.187175
20
-92.667259
11
29.208905
21
-92.667259
0
LINE
8
Shape2DView
10
29.208905
20
-91.685656
11
33.187175
21
-91.685656
0
LINE
8
Shape2DView
10
33.302158
20
-92.553309
11
33.187158
21
-92.668509
0
LINE
8
Shape2DView
10
33.187158
20
-91.685510
11
33.302158
21
-91.800510
0
LINE
8
Shape2DView
10
33.302268
20
-91.799427
11
33.302268
21
-92.553488
0
LINE
8
Shape2DView
10
27.542561
20
-115.582793
11
27.542561
21
-114.868419
0
LINE
8
Shape2DView
10
27.680665
20
-115.721480
11
27.542465
21
-115.583480
0
LINE
8
Shape2DView
10
27.542465
20
-114.868481
11
27.680665
21
-114.730481
0
LINE
8
Shape2DView
10
33.164156
20
-115.720376
11
27.680673
21
-115.720376
0
LINE
8
Shape2DView
10
27.680673
20
-114.730835
11
33.164156
21
-114.730835
0
LINE
8
Shape2DView
10
33.302158
20
-115.583480
11
33.164158
21
-115.721480
0
LINE
8
Shape2DView
10
33.164158
20
-114.730481
11
33.302158
21
-114.868481
0
LINE
8
Shape2DView
10
33.302268
20
-114.868419
11
33.302268
21
-115.582793
0
LINE
8
Shape2DView
10
33.117958
20
-111.604485
11
33.302158
21
-111.735485
0
LINE
8
Shape2DView
10
30.529968
20
-112.648567
11
33.117854
21
-111.603464
0
LINE
8
Shape2DView
10
33.302268
20
-111.735756
11
33.302268
21
-112.466005
0
LINE
8
Shape2DView
10
30.406962
20
-112.595484
11
30.529961
21
-112.649484
0
LINE
8
Shape2DView
10
33.302158
20
-112.465484
11
33.256158
21
-112.541484
0
LINE
8
Shape2DView
10
29.070663
20
-111.681485
11
29.533913
21
-111.756735
0
LINE
8
Shape2DView
10
29.533913
20
-111.756735
11
29.940762
21
-111.977485
0
LINE
8
Shape2DView
10
29.940762
20
-111.977485
11
30.406962
21
-112.595484
0
LINE
8
Shape2DView
10
33.256231
20
-112.542734
11
30.529703
21
-113.624879
0
LINE
8
Shape2DView
10
27.542165
20
-113.363483
11
27.675678
21
-112.660484
0
LINE
8
Shape2DView
10
27.675678
20
-112.660484
11
28.072365
21
-112.074485
0
LINE
8
Shape2DView
10
28.072365
20
-112.074485
11
28.532327
21
-111.782735
0
LINE
8
Shape2DView
10
28.532327
20
-111.782735
11
29.070663
21
-111.681485
0
LINE
8
Shape2DView
10
30.529662
20
-113.624483
11
30.460662
21
-113.632483
0
LINE
8
Shape2DView
10
27.542297
20
-113.709545
11
27.542297
21
-113.362941
0
LINE
8
Shape2DView
10
30.460647
20
-113.632816
11
29.746538
21
-113.632816
0
LINE
8
Shape2DView
10
27.688165
20
-113.855482
11
27.542165
21
-113.709483
0
LINE
8
Shape2DView
10
29.746463
20
-113.632483
11
29.654163
21
-113.540483
0
LINE
8
Shape2DView
10
28.348746
20
-113.855066
11
27.688082
21
-113.855066
0
LINE
8
Shape2DView
10
29.654198
20
-113.540212
11
29.654198
21
-113.362941
0
LINE
8
Shape2DView
10
28.448464
20
-113.755482
11
28.348664
21
-113.855482
0
LINE
8
Shape2DView
10
29.654163
20
-113.363483
11
29.547263
21
-112.871484
0
LINE
8
Shape2DView
10
29.547263
20
-112.871484
11
29.353851
21
-112.652984
0
LINE
8
Shape2DView
10
29.353851
20
-112.652984
11
29.070663
21
-112.572484
0
LINE
8
Shape2DView
10
28.448493
20
-113.362941
11
28.448493
21
-113.754524
0
LINE
8
Shape2DView
10
29.070663
20
-112.572484
11
28.776501
21
-112.652984
0
LINE
8
Shape2DView
10
28.776501
20
-112.652984
11
28.568064
21
-112.871484
0
LINE
8
Shape2DView
10
28.568064
20
-112.871484
11
28.448464
21
-113.363483
0
LINE
8
Shape2DView
10
30.007681
20
-109.309530
11
30.007681
21
-107.772303
0
LINE
8
Shape2DView
10
29.946162
20
-109.370488
11
30.007662
21
-109.309488
0
LINE
8
Shape2DView
10
30.007662
20
-107.773490
11
30.145962
21
-107.634490
0
LINE
8
Shape2DView
10
27.680409
20
-109.370384
11
29.946033
21
-109.370384
0
LINE
8
Shape2DView
10
30.146058
20
-107.634719
11
30.729463
21
-107.634719
0
LINE
8
Shape2DView
10
27.542165
20
-109.508488
11
27.680465
21
-109.370488
0
LINE
8
Shape2DView
10
30.729461
20
-107.634490
11
30.918523
21
-107.714615
0
LINE
8
Shape2DView
10
30.918523
20
-107.714615
11
30.998161
21
-107.903490
0
LINE
8
Shape2DView
10
27.542297
20
-110.222341
11
27.542297
21
-109.507967
0
LINE
8
Shape2DView
10
30.998280
20
-107.904594
11
30.998280
21
-109.309530
0
LINE
8
Shape2DView
10
27.680465
20
-110.361487
11
27.542165
21
-110.223487
0
LINE
8
Shape2DView
10
30.998161
20
-109.309488
11
31.059661
21
-109.370488
0
LINE
8
Shape2DView
10
33.164156
20
-110.362570
11
27.680409
21
-110.362570
0
LINE
8
Shape2DView
10
31.059663
20
-109.370384
11
33.164156
21
-109.370384
0
LINE
8
Shape2DView
10
33.302158
20
-110.223487
11
33.164158
21
-110.361487
0
LINE
8
Shape2DView
10
33.164158
20
-109.370488
11
33.302158
21
-109.508488
0
LINE
8
Shape2DView
10
33.302268
20
-109.507967
11
33.302268
21
-110.222341
0
LINE
8
Shape2DView
10
28.468464
20
-103.606495
11
28.276464
21
-103.452496
0
LINE
8
Shape2DView
10
29.051963
20
-104.097495
11
28.628764
21
-103.918495
0
LINE
8
Shape2DView
10
28.628764
20
-103.918495
11
28.468464
21
-103.606495
0
LINE
8
Shape2DView
10
28.276514
20
-103.451662
11
27.585159
21
-103.451662
0
LINE
8
Shape2DView
10
30.349962
20
-102.024497
11
30.053662
21
-102.732496
0
LINE
8
Shape2DView
10
30.053662
20
-102.732496
11
29.759562
21
-103.377496
0
LINE
8
Shape2DView
10
29.759562
20
-103.377496
11
29.479663
21
-103.823495
0
LINE
8
Shape2DView
10
29.479663
20
-103.823495
11
29.051963
21
-104.097495
0
LINE
8
Shape2DView
10
27.585165
20
-103.452496
11
27.462165
21
-103.583495
0
LINE
8
Shape2DView
10
32.062660
20
-100.802499
11
31.162861
21
-101.012498
0
LINE
8
Shape2DView
10
31.162861
20
-101.012498
11
30.669561
21
-101.461498
0
LINE
8
Shape2DView
10
30.669561
20
-101.461498
11
30.349962
21
-102.024497
0
LINE
8
Shape2DView
10
27.462165
20
-103.583495
11
27.663103
21
-104.227120
0
LINE
8
Shape2DView
10
27.663103
20
-104.227120
11
28.100365
21
-104.739494
0
LINE
8
Shape2DView
10
28.100365
20
-104.739494
11
28.501402
21
-104.966119
0
LINE
8
Shape2DView
10
28.501402
20
-104.966119
11
28.952164
21
-105.049493
0
LINE
8
Shape2DView
10
33.375958
20
-102.315497
11
33.201733
21
-101.699748
0
LINE
8
Shape2DView
10
33.201733
20
-101.699748
11
32.837759
21
-101.166498
0
LINE
8
Shape2DView
10
32.837759
20
-101.166498
11
32.485309
21
-100.904999
0
LINE
8
Shape2DView
10
32.485309
20
-100.904999
11
32.062660
21
-100.802499
0
LINE
8
Shape2DView
10
28.952164
20
-105.049493
11
29.488963
21
-104.959494
0
LINE
8
Shape2DView
10
29.488963
20
-104.959494
11
30.200962
21
-104.439494
0
LINE
8
Shape2DView
10
30.200962
20
-104.439494
11
30.841461
21
-103.229496
0
LINE
8
Shape2DView
10
33.260658
20
-102.446497
11
33.375958
21
-102.315497
0
LINE
8
Shape2DView
10
30.841461
20
-103.229496
11
31.295161
21
-102.184497
0
LINE
8
Shape2DView
10
31.295161
20
-102.184497
11
31.514860
21
-101.906497
0
LINE
8
Shape2DView
10
31.514860
20
-101.906497
11
31.862960
21
-101.762498
0
LINE
8
Shape2DView
10
32.615411
20
-102.446247
11
33.260729
21
-102.446247
0
LINE
8
Shape2DView
10
31.862960
20
-101.762498
11
32.231460
21
-101.919497
0
LINE
8
Shape2DView
10
32.231460
20
-101.919497
11
32.415959
21
-102.292497
0
LINE
8
Shape2DView
10
32.415959
20
-102.292497
11
32.615459
21
-102.446497
0
LINE
8
Shape2DView
10
27.680409
20
-106.290638
11
28.310116
21
-106.290638
0
LINE
8
Shape2DView
10
27.542165
20
-106.429492
11
27.680465
21
-106.290492
0
LINE
8
Shape2DView
10
28.310164
20
-106.290492
11
28.532964
21
-106.513492
0
LINE
8
Shape2DView
10
27.542297
20
-108.595156
11
27.542297
21
-106.428221
0
LINE
8
Shape2DView
10
28.532895
20
-106.512887
11
28.532895
21
-108.595156
0
LINE
8
Shape2DView
10
27.603665
20
-108.656489
11
27.542165
21
-108.594489
0
LINE
8
Shape2DView
10
28.532964
20
-108.594489
11
28.471664
21
-108.656489
0
LINE
8
Shape2DView
10
28.471777
20
-108.656010
11
27.603680
21
-108.656010
0
LINE
8
Shape2DView
10
28.429964
20
-102.377497
11
28.291664
21
-102.484497
0
LINE
8
Shape2DView
10
28.998163
20
-101.809498
11
28.722364
21
-101.918497
0
LINE
8
Shape2DView
10
28.722364
20
-101.918497
11
28.429964
21
-102.377497
0
LINE
8
Shape2DView
10
28.291596
20
-102.483288
11
27.608178
21
-102.483288
0
LINE
8
Shape2DView
10
29.005970
20
-101.808602
11
28.998032
21
-101.808602
0
LINE
8
Shape2DView
10
27.608165
20
-102.484497
11
27.477665
21
-102.308497
0
LINE
8
Shape2DView
10
29.197963
20
-101.617498
11
29.005963
21
-101.809498
0
LINE
8
Shape2DView
10
27.477665
20
-102.308497
11
27.719028
21
-101.670248
0
LINE
8
Shape2DView
10
27.719028
20
-101.670248
11
28.136865
21
-101.144498
0
LINE
8
Shape2DView
10
28.136865
20
-101.144498
11
28.537814
21
-100.894374
0
LINE
8
Shape2DView
10
28.537814
20
-100.894374
11
28.998163
21
-100.802499
0
LINE
8
Shape2DView
10
29.198057
20
-100.940769
11
29.198057
21
-101.618102
0
LINE
8
Shape2DView
10
28.998032
20
-100.803186
11
29.067353
21
-100.803186
0
LINE
8
Shape2DView
10
29.067463
20
-100.802499
11
29.197963
21
-100.941499
0
LINE
8
Shape2DView
10
30.007681
20
-98.525127
11
30.007681
21
-96.987899
0
LINE
8
Shape2DView
10
29.946162
20
-98.586502
11
30.007662
21
-98.525002
0
LINE
8
Shape2DView
10
30.007662
20
-96.989004
11
30.145962
21
-96.850804
0
LINE
8
Shape2DView
10
27.680409
20
-98.585981
11
29.946033
21
-98.585981
0
LINE
8
Shape2DView
10
30.146058
20
-96.850316
11
30.729463
21
-96.850316
0
LINE
8
Shape2DView
10
27.542165
20
-98.724801
11
27.680465
21
-98.586502
0
LINE
8
Shape2DView
10
30.729461
20
-96.850804
11
30.918523
21
-96.930554
0
LINE
8
Shape2DView
10
30.918523
20
-96.930554
11
30.998161
21
-97.119803
0
LINE
8
Shape2DView
10
27.542297
20
-99.437938
11
27.542297
21
-98.723564
0
LINE
8
Shape2DView
10
30.998280
20
-97.120191
11
30.998280
21
-98.525127
0
LINE
8
Shape2DView
10
27.680465
20
-99.577300
11
27.542165
21
-99.439001
0
LINE
8
Shape2DView
10
30.998161
20
-98.525002
11
31.059661
21
-98.586502
0
LINE
8
Shape2DView
10
33.164156
20
-99.578167
11
27.680409
21
-99.578167
0
LINE
8
Shape2DView
10
31.059663
20
-98.585981
11
33.164156
21
-98.585981
0
LINE
8
Shape2DView
10
33.302158
20
-99.439001
11
33.164158
21
-99.577300
0
LINE
8
Shape2DView
10
33.164158
20
-98.586502
11
33.302158
21
-98.724801
0
LINE
8
Shape2DView
10
33.302268
20
-98.723564
11
33.302268
21
-99.437938
0
LINE
8
Shape2DView
10
27.680409
20
-95.506235
11
28.310116
21
-95.506235
0
LINE
8
Shape2DView
10
27.542165
20
-95.645005
11
27.680465
21
-95.506805
0
LINE
8
Shape2DView
10
28.310164
20
-95.506805
11
28.532964
21
-95.729505
0
LINE
8
Shape2DView
10
27.542297
20
-97.810753
11
27.542297
21
-95.643818
0
LINE
8
Shape2DView
10
28.532895
20
-95.728484
11
28.532895
21
-97.810753
0
LINE
8
Shape2DView
10
27.603665
20
-97.872303
11
27.542165
21
-97.810803
0
LINE
8
Shape2DView
10
28.532964
20
-97.810803
11
28.471664
21
-97.872303
0
LINE
8
Shape2DView
10
28.471777
20
-97.871607
11
27.603680
21
-97.871607
0
LINE
8
Shape2DView
10
27.665063
20
-90.071700
11
28.418066
21
-90.071700
0
LINE
8
Shape2DView
10
27.542165
20
-90.187812
11
27.665165
21
-90.072812
0
LINE
8
Shape2DView
10
28.417964
20
-90.072812
11
28.532964
21
-90.187812
0
LINE
8
Shape2DView
10
27.542297
20
-94.164799
11
27.542297
21
-90.188116
0
LINE
8
Shape2DView
10
28.532895
20
-90.188116
11
28.532895
21
-94.164799
0
LINE
8
Shape2DView
10
27.665165
20
-94.281307
11
27.542165
21
-94.166007
0
LINE
8
Shape2DView
10
28.532964
20
-94.166007
11
28.417964
21
-94.281307
0
LINE
8
Shape2DView
10
28.418066
20
-94.281215
11
27.665063
21
-94.281215
0
LINE
8
Shape2DView
10
62.499921
20
101.000247
11
62.265978
21
103.317624
0
LINE
8
Shape2DView
10
62.265978
20
103.317624
11
61.595693
21
105.476000
0
LINE
8
Shape2DView
10
61.595693
20
105.476000
11
60.535301
21
107.429147
0
LINE
8
Shape2DView
10
60.535301
20
107.429147
11
59.131037
21
109.130837
0
LINE
8
Shape2DView
10
59.131037
20
109.130837
11
57.429134
21
110.534843
0
LINE
8
Shape2DView
10
57.429134
20
110.534843
11
55.475826
21
111.594939
0
LINE
8
Shape2DView
10
55.475826
20
111.594939
11
53.317349
21
112.264896
0
LINE
8
Shape2DView
10
53.317349
20
112.264896
11
50.999936
21
112.498488
0
LINE
8
Shape2DView
10
50.999936
20
112.498488
11
48.682523
21
112.264896
0
LINE
8
Shape2DView
10
48.682523
20
112.264896
11
46.524045
21
111.594939
0
LINE
8
Shape2DView
10
46.524045
20
111.594939
11
44.570738
21
110.534843
0
LINE
8
Shape2DView
10
44.570738
20
110.534843
11
42.868835
21
109.130837
0
LINE
8
Shape2DView
10
42.868835
20
109.130837
11
41.464570
21
107.429147
0
LINE
8
Shape2DView
10
41.464570
20
107.429147
11
40.404178
21
105.476000
0
LINE
8
Shape2DView
10
40.404178
20
105.476000
11
39.733894
21
103.317624
0
LINE
8
Shape2DView
10
39.733894
20
103.317624
11
39.499950
21
101.000247
0
LINE
8
Shape2DView
10
39.499950
20
101.000247
11
39.733894
21
98.682869
0
LINE
8
Shape2DView
10
39.733894
20
98.682869
11
40.404178
21
96.524493
0
LINE
8
Shape2DView
10
40.404178
20
96.524493
11
41.464570
21
94.571347
0
LINE
8
Shape2DView
10
41.464570
20
94.571347
11
42.868835
21
92.869657
0
LINE
8
Shape2DView
10
42.868835
20
92.869657
11
44.570738
21
91.465650
0
LINE
8
Shape2DView
10
44.570738
20
91.465650
11
46.524045
21
90.405555
0
LINE
8
Shape2DView
10
46.524045
20
90.405555
11
48.682523
21
89.735597
0
LINE
8
Shape2DView
10
48.682523
20
89.735597
11
50.999936
21
89.502006
0
LINE
8
Shape2DView
10
50.999936
20
89.502006
11
53.317349
21
89.735597
0
LINE
8
Shape2DView
10
53.317349
20
89.735597
11
55.475826
21
90.405555
0
LINE
8
Shape2DView
10
55.475826
20
90.405555
11
57.429134
21
91.465650
0
LINE
8
Shape2DView
10
57.429134
20
91.465650
11
59.131037
21
92.869657
0
LINE
8
Shape2DView
10
59.131037
20
92.869657
11
60.535301
21
94.571347
0
LINE
8
Shape2DView
10
60.535301
20
94.571347
11
61.595693
21
96.524493
0
LINE
8
Shape2DView
10
61.595693
20
96.524493
11
62.265978
21
98.682869
0
LINE
8
Shape2DView
10
62.265978
20
98.682869
11
62.499921
21
101.000247
0
LINE
8
Shape2DView
10
62.499921
20
101.000247
11
62.499921
21
101.000247
0
LINE
8
Shape2DView
10
29.878562
20
103.324244
11
30.040062
21
103.140244
0
LINE
8
Shape2DView
10
29.878564
20
103.846208
11
29.878564
21
103.324186
0
LINE
8
Shape2DView
10
30.040062
20
103.140244
11
30.796961
21
102.831245
0
LINE
8
Shape2DView
10
30.796961
20
102.831245
11
31.015261
21
102.572245
0
LINE
8
Shape2DView
10
30.086062
20
104.031243
11
29.878562
21
103.846243
0
LINE
8
Shape2DView
10
31.015261
20
102.572245
11
31.261061
21
102.426245
0
LINE
8
Shape2DView
10
32.013560
20
102.564245
11
31.722535
21
103.195744
0
LINE
8
Shape2DView
10
31.722535
20
103.195744
11
31.191061
21
103.662244
0
LINE
8
Shape2DView
10
31.191061
20
103.662244
11
30.086062
21
104.031243
0
LINE
8
Shape2DView
10
31.261011
20
102.426191
11
31.898656
21
102.426191
0
LINE
8
Shape2DView
10
31.898560
20
102.426245
11
32.013560
21
102.564245
0
LINE
8
Shape2DView
10
30.575061
20
93.517156
11
29.942975
21
93.419669
0
LINE
8
Shape2DView
10
29.942975
20
93.419669
11
29.383263
21
93.138357
0
LINE
8
Shape2DView
10
29.383263
20
93.138357
11
28.931564
21
92.633857
0
LINE
8
Shape2DView
10
31.811608
20
93.517152
11
30.574947
21
93.517152
0
LINE
8
Shape2DView
10
28.931564
20
92.633857
11
29.000563
21
92.526358
0
LINE
8
Shape2DView
10
31.949560
20
93.378857
11
31.811560
21
93.517156
0
LINE
8
Shape2DView
10
29.000678
20
92.526289
11
31.811608
21
92.526289
0
LINE
8
Shape2DView
10
31.949456
20
92.664666
11
31.949456
21
93.378775
0
LINE
8
Shape2DView
10
31.811560
20
92.526358
11
31.949560
21
92.664658
0
LINE
8
Shape2DView
10
26.189775
20
91.154955
11
26.189775
21
90.440581
0
LINE
8
Shape2DView
10
26.328067
20
91.293159
11
26.189767
21
91.154859
0
LINE
8
Shape2DView
10
26.189767
20
90.440660
11
26.328067
21
90.302361
0
LINE
8
Shape2DView
10
31.734614
20
91.293067
11
26.328072
21
91.293067
0
LINE
8
Shape2DView
10
26.328072
20
90.302469
11
31.811608
21
90.302469
0
LINE
8
Shape2DView
10
31.949560
20
91.078159
11
31.734560
21
91.293159
0
LINE
8
Shape2DView
10
31.811560
20
90.302361
11
31.949560
21
90.440660
0
LINE
8
Shape2DView
10
31.949456
20
90.440581
11
31.949456
21
91.078226
0
LINE
8
Shape2DView
10
27.748671
20
92.526289
11
26.397075
21
92.526289
0
LINE
8
Shape2DView
10
27.940765
20
92.703157
11
27.748765
21
92.526358
0
LINE
8
Shape2DView
10
26.397067
20
92.526358
11
26.212767
21
92.726157
0
LINE
8
Shape2DView
10
27.971565
20
93.017857
11
27.940765
21
92.703157
0
LINE
8
Shape2DView
10
26.212767
20
92.726049
11
26.258778
21
93.417404
0
LINE
8
Shape2DView
10
28.463064
20
93.693656
11
28.056565
21
93.318157
0
LINE
8
Shape2DView
10
28.056565
20
93.318157
11
27.971565
21
93.017857
0
LINE
8
Shape2DView
10
26.258767
20
93.417357
11
26.420067
21
93.663156
0
LINE
8
Shape2DView
10
31.796060
20
95.490854
11
30.654562
21
94.876555
0
LINE
8
Shape2DView
10
30.654562
20
94.876555
11
29.575363
21
94.296555
0
LINE
8
Shape2DView
10
29.575363
20
94.296555
11
29.078063
21
94.028656
0
LINE
8
Shape2DView
10
29.078063
20
94.028656
11
28.744164
21
93.847956
0
LINE
8
Shape2DView
10
28.744164
20
93.847956
11
28.463064
21
93.693656
0
LINE
8
Shape2DView
10
26.420067
20
93.663156
11
26.965966
21
93.953756
0
LINE
8
Shape2DView
10
26.965966
20
93.953756
11
27.516765
21
94.247456
0
LINE
8
Shape2DView
10
27.516765
20
94.247456
11
28.435364
21
94.738355
0
LINE
8
Shape2DView
10
28.435364
20
94.738355
11
28.900464
21
94.987755
0
LINE
8
Shape2DView
10
28.900464
20
94.987755
11
29.377263
21
95.244454
0
LINE
8
Shape2DView
10
29.377263
20
95.244454
11
29.814562
21
95.483154
0
LINE
8
Shape2DView
10
31.949560
20
95.744354
11
31.796060
21
95.490854
0
LINE
8
Shape2DView
10
29.814562
20
95.483154
11
30.253462
21
95.887253
0
LINE
8
Shape2DView
10
30.253462
20
95.887253
11
30.352262
21
96.266653
0
LINE
8
Shape2DView
10
31.949456
20
96.450848
11
31.949456
21
95.744412
0
LINE
8
Shape2DView
10
30.352168
20
96.266699
11
30.352168
21
96.450848
0
LINE
8
Shape2DView
10
31.834560
20
96.566152
11
31.949560
21
96.450853
0
LINE
8
Shape2DView
10
30.352262
20
96.450853
11
30.467562
21
96.566152
0
LINE
8
Shape2DView
10
30.467526
20
96.566207
11
31.834627
21
96.566207
0
LINE
8
Shape2DView
10
26.189775
20
98.642919
11
26.189775
21
97.928545
0
LINE
8
Shape2DView
10
26.328067
20
98.781150
11
26.189767
21
98.642850
0
LINE
8
Shape2DView
10
26.189767
20
97.928651
11
26.328067
21
97.790351
0
LINE
8
Shape2DView
10
31.734614
20
98.781031
11
26.328072
21
98.781031
0
LINE
8
Shape2DView
10
26.328072
20
97.790432
11
31.811608
21
97.790432
0
LINE
8
Shape2DView
10
31.949560
20
98.566150
11
31.734560
21
98.781150
0
LINE
8
Shape2DView
10
31.811560
20
97.790351
11
31.949560
21
97.928651
0
LINE
8
Shape2DView
10
31.949456
20
97.928545
11
31.949456
21
98.566190
0
LINE
8
Shape2DView
10
27.083066
20
101.496246
11
27.416865
21
101.109247
0
LINE
8
Shape2DView
10
27.416865
20
101.109247
11
27.981765
21
100.936247
0
LINE
8
Shape2DView
10
26.960266
20
101.565246
11
27.083066
21
101.496246
0
LINE
8
Shape2DView
10
27.981769
20
100.936324
11
30.132035
21
100.936324
0
LINE
8
Shape2DView
10
26.246078
20
101.565238
11
26.960214
21
101.565238
0
LINE
8
Shape2DView
10
30.139762
20
100.936247
11
30.132062
21
100.936247
0
LINE
8
Shape2DView
10
26.107767
20
101.397246
11
26.246067
21
101.565246
0
LINE
8
Shape2DView
10
30.139762
20
100.936247
11
30.701061
21
101.107247
0
LINE
8
Shape2DView
10
30.701061
20
101.107247
11
31.030561
21
101.496246
0
LINE
8
Shape2DView
10
27.935565
20
100.014248
11
27.434565
21
100.096248
0
LINE
8
Shape2DView
10
27.434565
20
100.096248
11
26.764766
21
100.412248
0
LINE
8
Shape2DView
10
26.764766
20
100.412248
11
26.354329
21
100.843247
0
LINE
8
Shape2DView
10
26.354329
20
100.843247
11
26.107767
21
101.397246
0
LINE
8
Shape2DView
10
31.030561
20
101.496246
11
31.161261
21
101.565246
0
LINE
8
Shape2DView
10
30.132062
20
100.014248
11
30.074662
21
100.014248
0
LINE
8
Shape2DView
10
30.074662
20
100.014248
11
29.965362
21
100.014248
0
LINE
8
Shape2DView
10
29.965362
20
100.014248
11
29.815762
21
100.014248
0
LINE
8
Shape2DView
10
29.815762
20
100.014248
11
29.406663
21
100.014248
0
LINE
8
Shape2DView
10
29.406663
20
100.014248
11
28.904363
21
100.014248
0
LINE
8
Shape2DView
10
28.904363
20
100.014248
11
28.429664
21
100.014248
0
LINE
8
Shape2DView
10
28.429664
20
100.014248
11
28.167664
21
100.014248
0
LINE
8
Shape2DView
10
28.167664
20
100.014248
11
28.027065
21
100.014248
0
LINE
8
Shape2DView
10
28.027065
20
100.014248
11
27.935565
21
100.014248
0
LINE
8
Shape2DView
10
31.161263
20
101.565238
11
31.875637
21
101.565238
0
LINE
8
Shape2DView
10
32.013560
20
101.397246
11
31.764310
21
100.837622
0
LINE
8
Shape2DView
10
31.764310
20
100.837622
11
31.347360
21
100.403248
0
LINE
8
Shape2DView
10
31.347360
20
100.403248
11
30.681561
21
100.094248
0
LINE
8
Shape2DView
10
30.681561
20
100.094248
11
30.132062
21
100.014248
0
LINE
8
Shape2DView
10
31.875560
20
101.565246
11
32.013560
21
101.397246
0
LINE
8
Shape2DView
10
27.564565
20
95.575354
11
28.170439
21
95.663329
0
LINE
8
Shape2DView
10
28.170439
20
95.663329
11
28.713464
21
95.919153
0
LINE
8
Shape2DView
10
28.713464
20
95.919153
11
29.215563
21
96.458653
0
LINE
8
Shape2DView
10
26.335560
20
95.575343
11
27.564522
21
95.575343
0
LINE
8
Shape2DView
10
29.215563
20
96.458653
11
29.146563
21
96.566152
0
LINE
8
Shape2DView
10
26.189767
20
95.713654
11
26.335567
21
95.575354
0
LINE
8
Shape2DView
10
29.146463
20
96.566207
11
26.335560
21
96.566207
0
LINE
8
Shape2DView
10
26.189775
20
96.427830
11
26.189775
21
95.713720
0
LINE
8
Shape2DView
10
26.335567
20
96.566152
11
26.189767
21
96.427853
0
LINE
8
Shape2DView
10
28.616504
20
108.753164
11
30.513564
21
109.291326
0
LINE
8
Shape2DView
10
28.524564
20
108.669237
11
28.616564
21
108.753237
0
LINE
8
Shape2DView
10
30.513562
20
109.291236
11
30.690061
21
109.160237
0
LINE
8
Shape2DView
10
28.478391
20
108.554198
11
28.524693
21
108.669291
0
LINE
8
Shape2DView
10
30.690041
20
109.160357
11
30.697713
21
108.930170
0
LINE
8
Shape2DView
10
28.570564
20
108.369238
11
28.478264
21
108.554238
0
LINE
8
Shape2DView
10
30.697761
20
108.930237
11
30.828261
21
108.753237
0
LINE
8
Shape2DView
10
31.772979
20
107.509360
11
28.570466
21
108.369254
0
LINE
8
Shape2DView
10
30.828153
20
108.753164
11
31.849708
21
108.477204
0
LINE
8
Shape2DView
10
31.949560
20
107.640238
11
31.773060
21
107.509239
0
LINE
8
Shape2DView
10
31.849760
20
108.477238
11
31.949560
21
108.346238
0
LINE
8
Shape2DView
10
31.949456
20
108.346236
11
31.949456
21
107.640328
0
LINE
8
Shape2DView
10
26.189775
20
106.115272
11
26.189775
21
105.400368
0
LINE
8
Shape2DView
10
26.328067
20
106.253240
11
26.189767
21
106.115241
0
LINE
8
Shape2DView
10
26.189767
20
105.400241
11
26.328067
21
105.262242
0
LINE
8
Shape2DView
10
31.734614
20
106.253119
11
26.328072
21
106.253119
0
LINE
8
Shape2DView
10
26.328072
20
105.262256
11
31.811608
21
105.262256
0
LINE
8
Shape2DView
10
31.949560
20
106.038241
11
31.734560
21
106.253240
0
LINE
8
Shape2DView
10
31.811560
20
105.262242
11
31.949560
21
105.400241
0
LINE
8
Shape2DView
10
31.949456
20
105.400368
11
31.949456
21
106.038278
0
LINE
8
Shape2DView
10
26.281767
20
110.013235
11
26.182067
21
109.882236
0
LINE
8
Shape2DView
10
31.772979
20
111.495302
11
26.281770
21
110.013108
0
LINE
8
Shape2DView
10
26.182075
20
109.882140
11
26.182075
21
109.107176
0
LINE
8
Shape2DView
10
31.949560
20
111.365234
11
31.773060
21
111.495234
0
LINE
8
Shape2DView
10
26.182067
20
109.107237
11
26.281767
21
108.968237
0
LINE
8
Shape2DView
10
31.949456
20
110.658162
11
31.949456
21
111.365128
0
LINE
8
Shape2DView
10
26.281770
20
108.968270
11
27.326397
21
108.707127
0
LINE
8
Shape2DView
10
31.849760
20
110.527235
11
31.949560
21
110.658235
0
LINE
8
Shape2DView
10
27.326266
20
108.707237
11
27.487565
21
108.784237
0
LINE
8
Shape2DView
10
27.871438
20
109.429174
11
31.849708
21
110.527193
0
LINE
8
Shape2DView
10
27.487528
20
108.784120
11
27.679615
21
109.260105
0
LINE
8
Shape2DView
10
27.679565
20
109.260237
11
27.871565
21
109.429236
0
LINE
8
Shape2DView
10
26.189775
20
112.840178
11
26.189775
21
113.555346
0
LINE
8
Shape2DView
10
26.328067
20
112.702232
11
26.189767
21
112.840232
0
LINE
8
Shape2DView
10
26.189767
20
113.555231
11
26.328067
21
113.693231
0
LINE
8
Shape2DView
10
31.811608
20
112.702330
11
26.328072
21
112.702330
0
LINE
8
Shape2DView
10
26.328072
20
113.693193
11
31.811608
21
113.693193
0
LINE
8
Shape2DView
10
31.949560
20
112.840232
11
31.811560
21
112.702232
0
LINE
8
Shape2DView
10
31.811560
20
113.693231
11
31.949560
21
113.555231
0
LINE
8
Shape2DView
10
31.949456
20
113.555346
11
31.949456
21
112.840178
0
LINE
8
Shape2DView
10
31.765260
20
116.819227
11
31.949560
21
116.688227
0
LINE
8
Shape2DView
10
29.177155
20
115.774139
11
31.765306
21
116.819242
0
LINE
8
Shape2DView
10
31.949456
20
116.688273
11
31.949456
21
115.958289
0
LINE
8
Shape2DView
10
29.054264
20
115.828228
11
29.177263
21
115.774228
0
LINE
8
Shape2DView
10
31.949560
20
115.958228
11
31.903560
21
115.882228
0
LINE
8
Shape2DView
10
27.718065
20
116.742227
11
28.181265
21
116.666477
0
LINE
8
Shape2DView
10
28.181265
20
116.666477
11
28.588064
21
116.445228
0
LINE
8
Shape2DView
10
28.588064
20
116.445228
11
29.054264
21
115.828228
0
LINE
8
Shape2DView
10
31.903683
20
115.882353
11
29.177155
21
114.799150
0
LINE
8
Shape2DView
10
26.189567
20
115.060229
11
26.323029
21
115.763228
0
LINE
8
Shape2DView
10
26.323029
20
115.763228
11
26.719666
21
116.349228
0
LINE
8
Shape2DView
10
26.719666
20
116.349228
11
27.179641
21
116.640602
0
LINE
8
Shape2DView
10
27.179641
20
116.640602
11
27.718065
21
116.742227
0
LINE
8
Shape2DView
10
29.177063
20
114.799229
11
29.108063
21
114.791230
0
LINE
8
Shape2DView
10
26.189563
20
114.714219
11
26.189563
21
115.060294
0
LINE
8
Shape2DView
10
29.108099
20
114.791213
11
28.393725
21
114.791213
0
LINE
8
Shape2DView
10
26.335567
20
114.568230
11
26.189567
21
114.714230
0
LINE
8
Shape2DView
10
28.393764
20
114.791230
11
28.301564
21
114.883230
0
LINE
8
Shape2DView
10
26.996197
20
114.568169
11
26.335560
21
114.568169
0
LINE
8
Shape2DView
10
28.301650
20
114.883288
11
28.301650
21
115.060294
0
LINE
8
Shape2DView
10
27.095766
20
114.668230
11
26.996066
21
114.568230
0
LINE
8
Shape2DView
10
28.301564
20
115.060229
11
28.194565
21
115.552228
0
LINE
8
Shape2DView
10
28.194565
20
115.552228
11
28.001202
21
115.770353
0
LINE
8
Shape2DView
10
28.001202
20
115.770353
11
27.718065
21
115.851228
0
LINE
8
Shape2DView
10
27.095680
20
115.060294
11
27.095680
21
114.668182
0
LINE
8
Shape2DView
10
27.718065
20
115.851228
11
27.423853
21
115.770728
0
LINE
8
Shape2DView
10
27.423853
20
115.770728
11
27.215366
21
115.552228
0
LINE
8
Shape2DView
10
27.215366
20
115.552228
11
27.095766
21
115.060229
0
LINE
8
Shape2DView
10
28.096765
20
103.140244
11
27.322366
21
102.816245
0
LINE
8
Shape2DView
10
27.322366
20
102.816245
11
27.121566
21
102.572245
0
LINE
8
Shape2DView
10
28.258264
20
103.324244
11
28.096765
21
103.140244
0
LINE
8
Shape2DView
10
27.121566
20
102.572245
11
26.883566
21
102.426245
0
LINE
8
Shape2DView
10
28.258258
20
103.846208
11
28.258258
21
103.324186
0
LINE
8
Shape2DView
10
26.883485
20
102.426191
11
26.238273
21
102.426191
0
LINE
8
Shape2DView
10
28.050765
20
104.031243
11
28.258264
21
103.846243
0
LINE
8
Shape2DView
10
26.238267
20
102.426245
11
26.123067
21
102.564245
0
LINE
8
Shape2DView
10
26.123067
20
102.564245
11
26.399192
21
103.174494
0
LINE
8
Shape2DView
10
26.399192
20
103.174494
11
26.902266
21
103.633243
0
LINE
8
Shape2DView
10
26.902266
20
103.633243
11
28.050765
21
104.031243
0
LINE
8
Shape2DView001
10
-10.134587
20
159.444092
11
-130.134884
21
159.444092
0
LINE
8
Shape2DView001
10
-10.134587
20
159.444092
11
-10.134587
21
134.244149
0
LINE
8
Shape2DView001
10
-130.134702
20
159.444581
11
-136.064972
21
159.150993
0
LINE
8
Shape2DView001
10
-136.064972
20
159.150993
11
-141.894799
21
158.281067
0
LINE
8
Shape2DView001
10
-141.894799
20
158.281067
11
-147.584837
21
156.851100
0
LINE
8
Shape2DView001
10
-147.584837
20
156.851100
11
-153.095743
21
154.877388
0
LINE
8
Shape2DView001
10
-153.095743
20
154.877388
11
-158.388174
21
152.376228
0
LINE
8
Shape2DView001
10
-158.388174
20
152.376228
11
-163.422785
21
149.363917
0
LINE
8
Shape2DView001
10
-163.422785
20
149.363917
11
-168.160235
21
145.856750
0
LINE
8
Shape2DView001
10
-168.160235
20
145.856750
11
-172.561178
21
141.871025
0
LINE
8
Shape2DView001
10
-172.561178
20
141.871025
11
-176.546906
21
137.470085
0
LINE
8
Shape2DView001
10
-176.546906
20
137.470085
11
-180.054077
21
132.732639
0
LINE
8
Shape2DView001
10
-180.054077
20
132.732639
11
-183.066393
21
127.698029
0
LINE
8
Shape2DView001
10
-183.066393
20
127.698029
11
-185.567557
21
122.405600
0
LINE
8
Shape2DView001
10
-185.567557
20
122.405600
11
-187.541273
21
116.894696
0
LINE
8
Shape2DView001
10
-187.541273
20
116.894696
11
-188.971245
21
111.204659
0
LINE
8
Shape2DView001
10
-188.971245
20
111.204659
11
-189.841176
21
105.374834
0
LINE
8
Shape2DView001
10
-189.841176
20
105.374834
11
-190.134768
21
99.444563
0
LINE
8
Shape2DView001
10
-16.234575
20
134.244149
11
-10.134587
21
134.244149
0
LINE
8
Shape2DView001
10
-190.134635
20
99.444605
11
-190.134635
21
-80.554649
0
LINE
8
Shape2DView001
10
-16.234575
20
98.930256
11
-16.234575
21
134.244149
0
LINE
8
Shape2DView001
10
-190.134768
20
-80.555210
11
-190.056692
21
-83.642797
0
LINE
8
Shape2DView001
10
-190.056692
20
-83.642797
11
-189.824987
21
-86.689850
0
LINE
8
Shape2DView001
10
-189.824987
20
-86.689850
11
-189.443422
21
-89.692601
0
LINE
8
Shape2DView001
10
-189.443422
20
-89.692601
11
-188.915767
21
-92.647279
0
LINE
8
Shape2DView001
10
-188.915767
20
-92.647279
11
-187.437268
21
-98.397339
0
LINE
8
Shape2DView001
10
-187.437268
20
-98.397339
11
-185.419649
21
-103.909870
0
LINE
8
Shape2DView001
10
-185.419649
20
-103.909870
11
-182.893069
21
-109.154713
0
LINE
8
Shape2DView001
10
-182.893069
20
-109.154713
11
-179.887687
21
-114.101709
0
LINE
8
Shape2DView001
10
-179.887687
20
-114.101709
11
-176.433663
21
-118.720698
0
LINE
8
Shape2DView001
10
-176.433663
20
-118.720698
11
-172.561156
21
-122.981522
0
LINE
8
Shape2DView001
10
-172.561156
20
-122.981522
11
-168.300325
21
-126.854022
0
LINE
8
Shape2DView001
10
-168.300325
20
-126.854022
11
-163.681329
21
-130.308037
0
LINE
8
Shape2DView001
10
-163.681329
20
-130.308037
11
-158.734327
21
-133.313410
0
LINE
8
Shape2DView001
10
-158.734327
20
-133.313410
11
-153.489480
21
-135.839980
0
LINE
8
Shape2DView001
10
-153.489480
20
-135.839980
11
-147.976945
21
-137.857589
0
LINE
8
Shape2DView001
10
-147.976945
20
-137.857589
11
-142.226883
21
-139.336078
0
LINE
8
Shape2DView001
10
-142.226883
20
-139.336078
11
-139.272203
21
-139.863727
0
LINE
8
Shape2DView001
10
-139.272203
20
-139.863727
11
-136.269452
21
-140.245287
0
LINE
8
Shape2DView001
10
-136.269452
20
-140.245287
11
-133.222398
21
-140.476986
0
LINE
8
Shape2DView001
10
-133.222398
20
-140.476986
11
-130.134811
21
-140.555056
0
LINE
8
Shape2DView001
10
-16.234575
20
98.930256
11
-10.134587
21
98.930256
0
LINE
8
Shape2DView001
10
-10.134587
20
-140.554136
11
-130.134884
21
-140.554136
0
LINE
8
Shape2DView001
10
-10.134587
20
98.930256
11
-10.134587
21
62.815999
0
LINE
8
Shape2DView001
10
-10.134587
20
-115.355251
11
-10.134587
21
-140.554136
0
LINE
8
Shape2DView001
10
-16.234575
20
62.815999
11
-10.134587
21
62.815999
0
LINE
8
Shape2DView001
10
-16.234575
20
-115.355251
11
-10.134587
21
-115.355251
0
LINE
8
Shape2DView001
10
-16.234575
20
27.501048
11
-16.234575
21
62.815999
0
LINE
8
Shape2DView001
10
-16.234575
20
-115.355251
11
-16.234575
21
-80.041358
0
LINE
8
Shape2DView001
10
-16.234575
20
27.501048
11
-10.134587
21
27.501048
0
LINE
8
Shape2DView001
10
-16.234575
20
-80.041358
11
-10.134587
21
-80.041358
0
LINE
8
Shape2DView001
10
-10.134587
20
27.501048
11
-10.134587
21
-8.611886
0
LINE
8
Shape2DView001
10
-10.134587
20
-43.925779
11
-10.134587
21
-80.041358
0
LINE
8
Shape2DView001
10
-16.234575
20
-8.611886
11
-10.134587
21
-8.611886
0
LINE
8
Shape2DView001
10
-16.234575
20
-43.925779
11
-10.134587
21
-43.925779
0
LINE
8
Shape2DView001
10
-16.234575
20
-43.925779
11
-16.234575
21
-8.611886
0
LINE
8
Shape2DView001
10
-41.269868
20
-106.998891
11
-38.940480
21
-106.997020
0
LINE
8
Shape2DView001
10
-38.940480
20
-106.997020
11
-36.725859
21
-106.545050
0
LINE
8
Shape2DView001
10
-36.725859
20
-106.545050
11
-34.676620
21
-105.684393
0
LINE
8
Shape2DView001
10
-34.676620
20
-105.684393
11
-32.843380
21
-104.456463
0
LINE
8
Shape2DView001
10
-32.843380
20
-104.456463
11
-31.276753
21
-102.902672
0
LINE
8
Shape2DView001
10
-31.276753
20
-102.902672
11
-30.027356
21
-101.064434
0
LINE
8
Shape2DView001
10
-30.027356
20
-101.064434
11
-29.145805
21
-98.983163
0
LINE
8
Shape2DView001
10
-29.145805
20
-98.983163
11
-28.682716
21
-96.700270
0
LINE
8
Shape2DView001
10
-28.682716
20
-96.700270
11
-28.684583
21
-94.370882
0
LINE
8
Shape2DView001
10
-28.684583
20
-94.370882
11
-29.136551
21
-92.156261
0
LINE
8
Shape2DView001
10
-29.136551
20
-92.156261
11
-29.997205
21
-90.107021
0
LINE
8
Shape2DView001
10
-29.997205
20
-90.107021
11
-31.225133
21
-88.273778
0
LINE
8
Shape2DView001
10
-31.225133
20
-88.273778
11
-32.778921
21
-86.707149
0
LINE
8
Shape2DView001
10
-32.778921
20
-86.707149
11
-34.617158
21
-85.457750
0
LINE
8
Shape2DView001
10
-34.617158
20
-85.457750
11
-36.698428
21
-84.576196
0
LINE
8
Shape2DView001
10
-36.698428
20
-84.576196
11
-38.981320
21
-84.113104
0
LINE
8
Shape2DView001
10
-38.981320
20
-84.113104
11
-41.310708
21
-84.114969
0
LINE
8
Shape2DView001
10
-41.310708
20
-84.114969
11
-43.525330
21
-84.566933
0
LINE
8
Shape2DView001
10
-43.525330
20
-84.566933
11
-45.574571
21
-85.427585
0
LINE
8
Shape2DView001
10
-45.574571
20
-85.427585
11
-47.407815
21
-86.655510
0
LINE
8
Shape2DView001
10
-47.407815
20
-86.655510
11
-48.974446
21
-88.209296
0
LINE
8
Shape2DView001
10
-48.974446
20
-88.209296
11
-50.223848
21
-90.047531
0
LINE
8
Shape2DView001
10
-50.223848
20
-90.047531
11
-51.105404
21
-92.128800
0
LINE
8
Shape2DView001
10
-51.105404
20
-92.128800
11
-51.568500
21
-94.411692
0
LINE
8
Shape2DView001
10
-51.568500
20
-94.411692
11
-51.566638
21
-96.741079
0
LINE
8
Shape2DView001
10
-51.566638
20
-96.741079
11
-51.114677
21
-98.955702
0
LINE
8
Shape2DView001
10
-51.114677
20
-98.955702
11
-50.254028
21
-101.004944
0
LINE
8
Shape2DView001
10
-50.254028
20
-101.004944
11
-49.026105
21
-102.838190
0
LINE
8
Shape2DView001
10
-49.026105
20
-102.838190
11
-47.472321
21
-104.404823
0
LINE
8
Shape2DView001
10
-47.472321
20
-104.404823
11
-45.634088
21
-105.654227
0
LINE
8
Shape2DView001
10
-45.634088
20
-105.654227
11
-43.552820
21
-106.535786
0
LINE
8
Shape2DView001
10
-43.552820
20
-106.535786
11
-41.269929
21
-106.998885
0
LINE
8
Shape2DView001
10
-72.028509
20
-121.861806
11
-71.776888
21
-121.776392
0
LINE
8
Shape2DView001
10
-71.776888
20
-121.776392
11
-71.629261
21
-121.555452
0
LINE
8
Shape2DView001
10
-71.629261
20
-121.555452
11
-71.646639
21
-121.290298
0
LINE
8
Shape2DView001
10
-71.646639
20
-121.290298
11
-71.821842
21
-121.090517
0
LINE
8
Shape2DView001
10
-72.386466
20
-121.655139
11
-72.028509
21
-121.861806
0
LINE
8
Shape2DView001
10
-132.344946
20
-121.654973
11
-72.386469
21
-121.654973
0
LINE
8
Shape2DView001
10
-132.702833
20
-121.861806
11
-132.344876
21
-121.655138
0
LINE
8
Shape2DView001
10
-132.909499
20
-121.090516
11
-133.084702
21
-121.290297
0
LINE
8
Shape2DView001
10
-133.084702
20
-121.290297
11
-133.102082
21
-121.555451
0
LINE
8
Shape2DView001
10
-133.102082
20
-121.555451
11
-132.954454
21
-121.776392
0
LINE
8
Shape2DView001
10
-132.954454
20
-121.776392
11
-132.702833
21
-121.861806
0
LINE
8
Shape2DView001
10
-132.908772
20
-116.019355
11
-132.908772
21
-121.091411
0
LINE
8
Shape2DView001
10
-132.344875
20
-115.454816
11
-132.774606
21
-115.254427
0
LINE
8
Shape2DView001
10
-132.774606
20
-115.254427
11
-133.109886
21
-115.589705
0
LINE
8
Shape2DView001
10
-133.109886
20
-115.589705
11
-132.909499
21
-116.019437
0
LINE
8
Shape2DView001
10
-132.344946
20
-115.455793
11
-72.386469
21
-115.455793
0
LINE
8
Shape2DView001
10
-71.821842
20
-116.019436
11
-71.621456
21
-115.589705
0
LINE
8
Shape2DView001
10
-71.621456
20
-115.589705
11
-71.956735
21
-115.254427
0
LINE
8
Shape2DView001
10
-71.956735
20
-115.254427
11
-72.386466
21
-115.454814
0
LINE
8
Shape2DView001
10
-71.821849
20
-116.019355
11
-71.821849
21
-121.091411
0
LINE
8
Shape2DView001
10
-157.917686
20
-86.825266
11
-157.917686
21
-84.327603
0
LINE
8
Shape2DView001
10
-158.062801
20
-86.989216
11
-157.917801
21
-86.825216
0
LINE
8
Shape2DView001
10
-157.917801
20
-84.327220
11
-157.809801
21
-84.066107
0
LINE
8
Shape2DView001
10
-157.809801
20
-84.066107
11
-157.548801
21
-83.958520
0
LINE
8
Shape2DView001
10
-164.158670
20
-86.989308
11
-158.062678
21
-86.989308
0
LINE
8
Shape2DView001
10
-157.548858
20
-83.959833
11
-155.889922
21
-83.959833
0
LINE
8
Shape2DView001
10
-164.526793
20
-87.357916
11
-164.412918
21
-87.097779
0
LINE
8
Shape2DView001
10
-164.412918
20
-87.097779
11
-164.158793
21
-86.989216
0
LINE
8
Shape2DView001
10
-155.889804
20
-83.958520
11
-155.451804
21
-84.135020
0
LINE
8
Shape2DView001
10
-155.451804
20
-84.135020
11
-155.275804
21
-84.572519
0
LINE
8
Shape2DView001
10
-164.526705
20
-89.262076
11
-164.526705
21
-87.357078
0
LINE
8
Shape2DView001
10
-155.275825
20
-84.573665
11
-155.275825
21
-86.825266
0
LINE
8
Shape2DView001
10
-164.158793
20
-89.631213
11
-164.412918
21
-89.522651
0
LINE
8
Shape2DView001
10
-164.412918
20
-89.522651
11
-164.526793
21
-89.262513
0
LINE
8
Shape2DView001
10
-155.275804
20
-86.825216
11
-155.111805
21
-86.989216
0
LINE
8
Shape2DView001
10
-149.500772
20
-89.632492
11
-164.158670
21
-89.632492
0
LINE
8
Shape2DView001
10
-155.111784
20
-86.989308
11
-149.500772
21
-86.989308
0
LINE
8
Shape2DView001
10
-149.131812
20
-89.262513
11
-149.239062
21
-89.523513
0
LINE
8
Shape2DView001
10
-149.239062
20
-89.523513
11
-149.500812
21
-89.631213
0
LINE
8
Shape2DView001
10
-149.500812
20
-86.989216
11
-149.239062
21
-87.096916
0
LINE
8
Shape2DView001
10
-149.239062
20
-87.096916
11
-149.131812
21
-87.357916
0
LINE
8
Shape2DView001
10
-149.131943
20
-87.357078
11
-149.131943
21
-89.262076
0
LINE
8
Shape2DView001
10
-164.158670
20
-79.308463
11
-162.458724
21
-79.308463
0
LINE
8
Shape2DView001
10
-164.526793
20
-79.677926
11
-164.412168
21
-79.424463
0
LINE
8
Shape2DView001
10
-164.412168
20
-79.424463
11
-164.158793
21
-79.309226
0
LINE
8
Shape2DView001
10
-162.458795
20
-79.309226
11
-162.055296
21
-79.486113
0
LINE
8
Shape2DView001
10
-162.055296
20
-79.486113
11
-161.885796
21
-79.903225
0
LINE
8
Shape2DView001
10
-164.526705
20
-84.941435
11
-164.526705
21
-79.678880
0
LINE
8
Shape2DView001
10
-161.885902
20
-79.903775
11
-161.885902
21
-84.941435
0
LINE
8
Shape2DView001
10
-164.363793
20
-85.084519
11
-164.526793
21
-84.941219
0
LINE
8
Shape2DView001
10
-161.885796
20
-84.941219
11
-162.028796
21
-85.084519
0
LINE
8
Shape2DView001
10
-162.028777
20
-85.084310
11
-164.363722
21
-85.084310
0
LINE
8
Shape2DView001
10
-164.487812
20
-73.768095
11
-164.487812
21
-75.651926
0
LINE
8
Shape2DView001
10
-164.118793
20
-73.378533
11
-164.374168
21
-73.497783
0
LINE
8
Shape2DView001
10
-164.374168
20
-73.497783
11
-164.487793
21
-73.767933
0
LINE
8
Shape2DView001
10
-164.487793
20
-75.651931
11
-164.373418
21
-75.912018
0
LINE
8
Shape2DView001
10
-164.373418
20
-75.912018
11
-164.118793
21
-76.020530
0
LINE
8
Shape2DView001
10
-149.701855
20
-73.379158
11
-164.118718
21
-73.379158
0
LINE
8
Shape2DView001
10
-164.118718
20
-76.019697
11
-149.496803
21
-76.019697
0
LINE
8
Shape2DView001
10
-149.128812
20
-73.972533
11
-149.380812
21
-73.476533
0
LINE
8
Shape2DView001
10
-149.380812
20
-73.476533
11
-149.701811
21
-73.378533
0
LINE
8
Shape2DView001
10
-149.496812
20
-76.020530
11
-149.235937
21
-75.912805
0
LINE
8
Shape2DView001
10
-149.235937
20
-75.912805
11
-149.128812
21
-75.651931
0
LINE
8
Shape2DView001
10
-149.128768
20
-75.651926
11
-149.128768
21
-73.971824
0
LINE
8
Shape2DView001
10
-151.380899
20
-65.084481
11
-149.721699
21
-65.084481
0
LINE
8
Shape2DView001
10
-151.749809
20
-65.453243
11
-151.641809
21
-65.192131
0
LINE
8
Shape2DView001
10
-151.641809
20
-65.192131
11
-151.380809
21
-65.084544
0
LINE
8
Shape2DView001
10
-149.721811
20
-65.084544
11
-149.302687
21
-65.258881
0
LINE
8
Shape2DView001
10
-149.302687
20
-65.258881
11
-149.128812
21
-65.677943
0
LINE
8
Shape2DView001
10
-151.749728
20
-71.352453
11
-151.749728
21
-65.452252
0
LINE
8
Shape2DView001
10
-149.128768
20
-65.677147
11
-149.128768
21
-71.352453
0
LINE
8
Shape2DView001
10
-151.606809
20
-71.515236
11
-151.749809
21
-71.351236
0
LINE
8
Shape2DView001
10
-149.128812
20
-71.351236
11
-149.271812
21
-71.515236
0
LINE
8
Shape2DView001
10
-149.271908
20
-71.516494
11
-151.606853
21
-71.516494
0
LINE
8
Shape2DView001
10
-164.487812
20
-59.922467
11
-164.487812
21
-61.827465
0
LINE
8
Shape2DView001
10
-164.118793
20
-59.554551
11
-164.373418
21
-59.663151
0
LINE
8
Shape2DView001
10
-164.373418
20
-59.663151
11
-164.487793
21
-59.923250
0
LINE
8
Shape2DView001
10
-164.487793
20
-61.827948
11
-164.373418
21
-62.088035
0
LINE
8
Shape2DView001
10
-164.373418
20
-62.088035
11
-164.118793
21
-62.196548
0
LINE
8
Shape2DView001
10
-149.701855
20
-59.554697
11
-164.118718
21
-59.554697
0
LINE
8
Shape2DView001
10
-164.118718
20
-62.195235
11
-149.496803
21
-62.195235
0
LINE
8
Shape2DView001
10
-149.128812
20
-60.127950
11
-149.294187
21
-59.724588
0
LINE
8
Shape2DView001
10
-149.294187
20
-59.724588
11
-149.701811
21
-59.554551
0
LINE
8
Shape2DView001
10
-149.496812
20
-62.196548
11
-149.235937
21
-62.088823
0
LINE
8
Shape2DView001
10
-149.235937
20
-62.088823
11
-149.128812
21
-61.827948
0
LINE
8
Shape2DView001
10
-149.128768
20
-61.827465
11
-149.128768
21
-60.128842
0
LINE
8
Shape2DView001
10
-164.487812
20
-55.876993
11
-164.487812
21
-53.993162
0
LINE
8
Shape2DView001
10
-164.118793
20
-56.265955
11
-164.374168
21
-56.146743
0
LINE
8
Shape2DView001
10
-164.374168
20
-56.146743
11
-164.487793
21
-55.876555
0
LINE
8
Shape2DView001
10
-164.487793
20
-53.992558
11
-164.373418
21
-53.732508
0
LINE
8
Shape2DView001
10
-164.373418
20
-53.732508
11
-164.118793
21
-53.623958
0
LINE
8
Shape2DView001
10
-149.496803
20
-56.265930
11
-164.118718
21
-56.265930
0
LINE
8
Shape2DView001
10
-164.118718
20
-53.622746
11
-149.496803
21
-53.622746
0
LINE
8
Shape2DView001
10
-149.128812
20
-55.876555
11
-149.235562
21
-56.147605
0
LINE
8
Shape2DView001
10
-149.235562
20
-56.147605
11
-149.496812
21
-56.265955
0
LINE
8
Shape2DView001
10
-149.496812
20
-53.623958
11
-149.235937
21
-53.731683
0
LINE
8
Shape2DView001
10
-149.235937
20
-53.731683
11
-149.128812
21
-53.992558
0
LINE
8
Shape2DView001
10
-149.128768
20
-53.993162
11
-149.128768
21
-55.876993
0
LINE
8
Shape2DView001
10
-164.216879
20
-50.900187
11
-164.216879
21
-49.958271
0
LINE
8
Shape2DView001
10
-163.847793
20
-51.268561
11
-164.108793
21
-51.161099
0
LINE
8
Shape2DView001
10
-164.108793
20
-51.161099
11
-164.216793
21
-50.899962
0
LINE
8
Shape2DView001
10
-164.216793
20
-49.957963
11
-164.050668
21
-48.729977
0
LINE
8
Shape2DView001
10
-164.050668
20
-48.729977
11
-163.562794
21
-47.592366
0
LINE
8
Shape2DView001
10
-163.562794
20
-47.592366
11
-162.585795
21
-46.457167
0
LINE
8
Shape2DView001
10
-162.585795
20
-46.457167
11
-161.345672
21
-45.743581
0
LINE
8
Shape2DView001
10
-161.345672
20
-45.743581
11
-159.936798
21
-45.493269
0
LINE
8
Shape2DView001
10
-162.066877
20
-51.267957
11
-163.847785
21
-51.267957
0
LINE
8
Shape2DView001
10
-159.936798
20
-45.493269
11
-158.527050
21
-45.743581
0
LINE
8
Shape2DView001
10
-158.527050
20
-45.743581
11
-157.286802
21
-46.457167
0
LINE
8
Shape2DView001
10
-157.286802
20
-46.457167
11
-156.309803
21
-47.592366
0
LINE
8
Shape2DView001
10
-156.309803
20
-47.592366
11
-155.822054
21
-48.729977
0
LINE
8
Shape2DView001
10
-155.822054
20
-48.729977
11
-155.656804
21
-49.957963
0
LINE
8
Shape2DView001
10
-161.800796
20
-51.023261
11
-161.879796
21
-51.199761
0
LINE
8
Shape2DView001
10
-161.879796
20
-51.199761
11
-162.066796
21
-51.268561
0
LINE
8
Shape2DView001
10
-155.656825
20
-49.958271
11
-155.656825
21
-50.839333
0
LINE
8
Shape2DView001
10
-161.800707
20
-49.958271
11
-161.800707
21
-51.024541
0
LINE
8
Shape2DView001
10
-155.656804
20
-50.838562
11
-155.763929
21
-51.099524
0
LINE
8
Shape2DView001
10
-155.763929
20
-51.099524
11
-156.024803
21
-51.207261
0
LINE
8
Shape2DView001
10
-159.936798
20
-47.869265
11
-160.704797
21
-48.056665
0
LINE
8
Shape2DView001
10
-160.704797
20
-48.056665
11
-161.396797
21
-48.665965
0
LINE
8
Shape2DView001
10
-161.396797
20
-48.665965
11
-161.698171
21
-49.279114
0
LINE
8
Shape2DView001
10
-161.698171
20
-49.279114
11
-161.800796
21
-49.957963
0
LINE
8
Shape2DView001
10
-156.024860
20
-51.207103
11
-157.806826
21
-51.207103
0
LINE
8
Shape2DView001
10
-158.052801
20
-49.957963
11
-158.226676
21
-49.080964
0
LINE
8
Shape2DView001
10
-158.226676
20
-49.080964
11
-158.732800
21
-48.351565
0
LINE
8
Shape2DView001
10
-158.732800
20
-48.351565
11
-159.288674
21
-47.996378
0
LINE
8
Shape2DView001
10
-159.288674
20
-47.996378
11
-159.936798
21
-47.869265
0
LINE
8
Shape2DView001
10
-157.806801
20
-51.207261
11
-157.983426
21
-51.138274
0
LINE
8
Shape2DView001
10
-157.983426
20
-51.138274
11
-158.052801
21
-50.961962
0
LINE
8
Shape2DView001
10
-158.052888
20
-50.961041
11
-158.052888
21
-49.958271
0
LINE
8
Shape2DView001
10
-157.917686
20
-39.422576
11
-157.917686
21
-36.924913
0
LINE
8
Shape2DView001
10
-158.062801
20
-39.586576
11
-157.917801
21
-39.422576
0
LINE
8
Shape2DView001
10
-157.917801
20
-36.924579
11
-157.809801
21
-36.663480
0
LINE
8
Shape2DView001
10
-157.809801
20
-36.663480
11
-157.548801
21
-36.555980
0
LINE
8
Shape2DView001
10
-164.158670
20
-39.586618
11
-158.062678
21
-39.586618
0
LINE
8
Shape2DView001
10
-157.548858
20
-36.557142
11
-155.889922
21
-36.557142
0
LINE
8
Shape2DView001
10
-164.526793
20
-39.955275
11
-164.412918
21
-39.695176
0
LINE
8
Shape2DView001
10
-164.412918
20
-39.695176
11
-164.158793
21
-39.586576
0
LINE
8
Shape2DView001
10
-155.889804
20
-36.555980
11
-155.451804
21
-36.732480
0
LINE
8
Shape2DView001
10
-155.451804
20
-36.732480
11
-155.275804
21
-37.169979
0
LINE
8
Shape2DView001
10
-164.526705
20
-41.859386
11
-164.526705
21
-39.954388
0
LINE
8
Shape2DView001
10
-155.275825
20
-37.170975
11
-155.275825
21
-39.422576
0
LINE
8
Shape2DView001
10
-164.158793
20
-42.228573
11
-164.412918
21
-42.120060
0
LINE
8
Shape2DView001
10
-164.412918
20
-42.120060
11
-164.526793
21
-41.859973
0
LINE
8
Shape2DView001
10
-155.275804
20
-39.422576
11
-155.111805
21
-39.586576
0
LINE
8
Shape2DView001
10
-149.500772
20
-42.229802
11
-164.158670
21
-42.229802
0
LINE
8
Shape2DView001
10
-155.111784
20
-39.586618
11
-149.500772
21
-39.586618
0
LINE
8
Shape2DView001
10
-149.131812
20
-41.859973
11
-149.239062
21
-42.120923
0
LINE
8
Shape2DView001
10
-149.239062
20
-42.120923
11
-149.500812
21
-42.228573
0
LINE
8
Shape2DView001
10
-149.500812
20
-39.586576
11
-149.239062
21
-39.694313
0
LINE
8
Shape2DView001
10
-149.239062
20
-39.694313
11
-149.131812
21
-39.955275
0
LINE
8
Shape2DView001
10
-149.131943
20
-39.954388
11
-149.131943
21
-41.859386
0
LINE
8
Shape2DView001
10
-164.158670
20
-31.905773
11
-162.458724
21
-31.905773
0
LINE
8
Shape2DView001
10
-164.526793
20
-32.275285
11
-164.412168
21
-32.021823
0
LINE
8
Shape2DView001
10
-164.412168
20
-32.021823
11
-164.158793
21
-31.906586
0
LINE
8
Shape2DView001
10
-162.458795
20
-31.906586
11
-162.055296
21
-32.083473
0
LINE
8
Shape2DView001
10
-162.055296
20
-32.083473
11
-161.885796
21
-32.500585
0
LINE
8
Shape2DView001
10
-164.526705
20
-37.538745
11
-164.526705
21
-32.276189
0
LINE
8
Shape2DView001
10
-161.885902
20
-32.501085
11
-161.885902
21
-37.538745
0
LINE
8
Shape2DView001
10
-164.363793
20
-37.681978
11
-164.526793
21
-37.538579
0
LINE
8
Shape2DView001
10
-161.885796
20
-37.538579
11
-162.028796
21
-37.681978
0
LINE
8
Shape2DView001
10
-162.028777
20
-37.681620
11
-164.363722
21
-37.681620
0
LINE
8
Shape2DView001
10
-164.487812
20
-26.365405
11
-164.487812
21
-28.249236
0
LINE
8
Shape2DView001
10
-164.118793
20
-25.975993
11
-164.374168
21
-26.095155
0
LINE
8
Shape2DView001
10
-164.374168
20
-26.095155
11
-164.487793
21
-26.365293
0
LINE
8
Shape2DView001
10
-164.487793
20
-28.249290
11
-164.373418
21
-28.509427
0
LINE
8
Shape2DView001
10
-164.373418
20
-28.509427
11
-164.118793
21
-28.617990
0
LINE
8
Shape2DView001
10
-149.701855
20
-25.976468
11
-164.118718
21
-25.976468
0
LINE
8
Shape2DView001
10
-164.118718
20
-28.617006
11
-149.496803
21
-28.617006
0
LINE
8
Shape2DView001
10
-149.128812
20
-26.569992
11
-149.380812
21
-26.073893
0
LINE
8
Shape2DView001
10
-149.380812
20
-26.073893
11
-149.701811
21
-25.975993
0
LINE
8
Shape2DView001
10
-149.496812
20
-28.617990
11
-149.235937
21
-28.510252
0
LINE
8
Shape2DView001
10
-149.235937
20
-28.510252
11
-149.128812
21
-28.249290
0
LINE
8
Shape2DView001
10
-149.128768
20
-28.249236
11
-149.128768
21
-26.569134
0
LINE
8
Shape2DView001
10
-151.380899
20
-17.681791
11
-149.721699
21
-17.681791
0
LINE
8
Shape2DView001
10
-151.749809
20
-18.050603
11
-151.641809
21
-17.789503
0
LINE
8
Shape2DView001
10
-151.641809
20
-17.789503
11
-151.380809
21
-17.682004
0
LINE
8
Shape2DView001
10
-149.721811
20
-17.682004
11
-149.302687
21
-17.856291
0
LINE
8
Shape2DView001
10
-149.302687
20
-17.856291
11
-149.128812
21
-18.275303
0
LINE
8
Shape2DView001
10
-151.749728
20
-23.949762
11
-151.749728
21
-18.049561
0
LINE
8
Shape2DView001
10
-149.128768
20
-18.274457
11
-149.128768
21
-23.949762
0
LINE
8
Shape2DView001
10
-151.606809
20
-24.112595
11
-151.749809
21
-23.948596
0
LINE
8
Shape2DView001
10
-149.128812
20
-23.948596
11
-149.271812
21
-24.112595
0
LINE
8
Shape2DView001
10
-149.271908
20
-24.113804
11
-151.606853
21
-24.113804
0
LINE
8
Shape2DView001
10
-162.023796
20
-10.841312
11
-161.265797
21
-11.780711
0
LINE
8
Shape2DView001
10
-161.265797
20
-11.780711
11
-160.500673
21
-12.198386
0
LINE
8
Shape2DView001
10
-160.500673
20
-12.198386
11
-159.626799
21
-12.336610
0
LINE
8
Shape2DView001
10
-162.350796
20
-10.636613
11
-162.023796
21
-10.841312
0
LINE
8
Shape2DView001
10
-159.626893
20
-12.337214
11
-153.995773
21
-12.337214
0
LINE
8
Shape2DView001
10
-164.276674
20
-10.635946
11
-162.350775
21
-10.635946
0
LINE
8
Shape2DView001
10
-153.995806
20
-12.336610
11
-153.954806
21
-12.336610
0
LINE
8
Shape2DView001
10
-164.644793
20
-11.107312
11
-164.575918
21
-10.780762
0
LINE
8
Shape2DView001
10
-164.575918
20
-10.780762
11
-164.276793
21
-10.636613
0
LINE
8
Shape2DView001
10
-153.954806
20
-12.336610
11
-152.879807
21
-12.120011
0
LINE
8
Shape2DView001
10
-152.879807
20
-12.120011
11
-152.297808
21
-11.758011
0
LINE
8
Shape2DView001
10
-152.297808
20
-11.758011
11
-151.578809
21
-10.841312
0
LINE
8
Shape2DView001
10
-159.750799
20
-14.794007
11
-161.309797
21
-14.512345
0
LINE
8
Shape2DView001
10
-161.309797
20
-14.512345
11
-162.754795
21
-13.826208
0
LINE
8
Shape2DView001
10
-162.754795
20
-13.826208
11
-163.634794
21
-13.046109
0
LINE
8
Shape2DView001
10
-163.634794
20
-13.046109
11
-164.249293
21
-12.135248
0
LINE
8
Shape2DView001
10
-164.249293
20
-12.135248
11
-164.644793
21
-11.107312
0
LINE
8
Shape2DView001
10
-151.578809
20
-10.841312
11
-151.230809
21
-10.636613
0
LINE
8
Shape2DView001
10
-153.995806
20
-14.794007
11
-154.141806
21
-14.794007
0
LINE
8
Shape2DView001
10
-154.141806
20
-14.794007
11
-154.326806
21
-14.794007
0
LINE
8
Shape2DView001
10
-154.326806
20
-14.794007
11
-154.720805
21
-14.794007
0
LINE
8
Shape2DView001
10
-154.720805
20
-14.794007
11
-155.595804
21
-14.794007
0
LINE
8
Shape2DView001
10
-155.595804
20
-14.794007
11
-157.247802
21
-14.794007
0
LINE
8
Shape2DView001
10
-157.247802
20
-14.794007
11
-158.676800
21
-14.794007
0
LINE
8
Shape2DView001
10
-158.676800
20
-14.794007
11
-159.220799
21
-14.794007
0
LINE
8
Shape2DView001
10
-159.220799
20
-14.794007
11
-159.502799
21
-14.794007
0
LINE
8
Shape2DView001
10
-159.502799
20
-14.794007
11
-159.638799
21
-14.794007
0
LINE
8
Shape2DView001
10
-159.638799
20
-14.794007
11
-159.704799
21
-14.794007
0
LINE
8
Shape2DView001
10
-159.704799
20
-14.794007
11
-159.750799
21
-14.794007
0
LINE
8
Shape2DView001
10
-151.230880
20
-10.635946
11
-149.325883
21
-10.635946
0
LINE
8
Shape2DView001
10
-148.957812
20
-11.107312
11
-149.367687
21
-12.168673
0
LINE
8
Shape2DView001
10
-149.367687
20
-12.168673
11
-150.010811
21
-13.104109
0
LINE
8
Shape2DView001
10
-150.010811
20
-13.104109
11
-150.896810
21
-13.868808
0
LINE
8
Shape2DView001
10
-150.896810
20
-13.868808
11
-151.856684
21
-14.365195
0
LINE
8
Shape2DView001
10
-151.856684
20
-14.365195
11
-152.890807
21
-14.668307
0
LINE
8
Shape2DView001
10
-152.890807
20
-14.668307
11
-153.995806
21
-14.794007
0
LINE
8
Shape2DView001
10
-149.325812
20
-10.636613
11
-149.026687
21
-10.780725
0
LINE
8
Shape2DView001
10
-149.026687
20
-10.780725
11
-148.957812
21
-11.107312
0
LINE
8
Shape2DView001
10
-162.350796
20
-8.403995
11
-162.023796
21
-8.199336
0
LINE
8
Shape2DView001
10
-164.276674
20
-8.402865
11
-162.350775
21
-8.402865
0
LINE
8
Shape2DView001
10
-162.023796
20
-8.199336
11
-161.265797
21
-7.260257
0
LINE
8
Shape2DView001
10
-161.265797
20
-7.260257
11
-160.500298
21
-6.842842
0
LINE
8
Shape2DView001
10
-160.500298
20
-6.842842
11
-159.626799
21
-6.704667
0
LINE
8
Shape2DView001
10
-164.644793
20
-7.933336
11
-164.575918
21
-8.259907
0
LINE
8
Shape2DView001
10
-164.575918
20
-8.259907
11
-164.276793
21
-8.403995
0
LINE
8
Shape2DView001
10
-159.626893
20
-6.704242
11
-153.995773
21
-6.704242
0
LINE
8
Shape2DView001
10
-159.750799
20
-4.246671
11
-161.309797
21
-4.528325
0
LINE
8
Shape2DView001
10
-161.309797
20
-4.528325
11
-162.754795
21
-5.214499
0
LINE
8
Shape2DView001
10
-162.754795
20
-5.214499
11
-163.634794
21
-5.994588
0
LINE
8
Shape2DView001
10
-163.634794
20
-5.994588
11
-164.249293
21
-6.905428
0
LINE
8
Shape2DView001
10
-164.249293
20
-6.905428
11
-164.644793
21
-7.933336
0
LINE
8
Shape2DView001
10
-153.995806
20
-6.704667
11
-153.954806
21
-6.704667
0
LINE
8
Shape2DView001
10
-153.995806
20
-4.246671
11
-154.141806
21
-4.246671
0
LINE
8
Shape2DView001
10
-154.141806
20
-4.246671
11
-154.326806
21
-4.246671
0
LINE
8
Shape2DView001
10
-154.326806
20
-4.246671
11
-154.720805
21
-4.246671
0
LINE
8
Shape2DView001
10
-154.720805
20
-4.246671
11
-155.595804
21
-4.246671
0
LINE
8
Shape2DView001
10
-155.595804
20
-4.246671
11
-157.247802
21
-4.246671
0
LINE
8
Shape2DView001
10
-157.247802
20
-4.246671
11
-158.676800
21
-4.246671
0
LINE
8
Shape2DView001
10
-158.676800
20
-4.246671
11
-159.220799
21
-4.246671
0
LINE
8
Shape2DView001
10
-159.220799
20
-4.246671
11
-159.502799
21
-4.246671
0
LINE
8
Shape2DView001
10
-159.502799
20
-4.246671
11
-159.638799
21
-4.246671
0
LINE
8
Shape2DView001
10
-159.638799
20
-4.246671
11
-159.704799
21
-4.246671
0
LINE
8
Shape2DView001
10
-159.704799
20
-4.246671
11
-159.750799
21
-4.246671
0
LINE
8
Shape2DView001
10
-153.954806
20
-6.704667
11
-152.879807
21
-6.921157
0
LINE
8
Shape2DView001
10
-152.879807
20
-6.921157
11
-152.297808
21
-7.282997
0
LINE
8
Shape2DView001
10
-152.297808
20
-7.282997
11
-151.578809
21
-8.199336
0
LINE
8
Shape2DView001
10
-148.957812
20
-7.933336
11
-149.355187
21
-6.902470
0
LINE
8
Shape2DView001
10
-149.355187
20
-6.902470
11
-149.973811
21
-5.989998
0
LINE
8
Shape2DView001
10
-149.973811
20
-5.989998
11
-150.884810
21
-5.194789
0
LINE
8
Shape2DView001
10
-150.884810
20
-5.194789
11
-151.878809
21
-4.682067
0
LINE
8
Shape2DView001
10
-151.878809
20
-4.682067
11
-152.950807
21
-4.372190
0
LINE
8
Shape2DView001
10
-152.950807
20
-4.372190
11
-153.995806
21
-4.246671
0
LINE
8
Shape2DView001
10
-151.578809
20
-8.199336
11
-151.230809
21
-8.403995
0
LINE
8
Shape2DView001
10
-149.325812
20
-8.403995
11
-149.026687
21
-8.259903
0
LINE
8
Shape2DView001
10
-149.026687
20
-8.259903
11
-148.957812
21
-7.933336
0
LINE
8
Shape2DView001
10
-151.230880
20
-8.402865
11
-149.325883
21
-8.402865
0
LINE
8
Shape2DView001
10
-164.487812
20
-0.581792
11
-164.487812
21
1.302039
0
LINE
8
Shape2DView001
10
-164.118793
20
-0.970008
11
-164.374168
21
-0.850807
0
LINE
8
Shape2DView001
10
-164.374168
20
-0.850807
11
-164.487793
21
-0.580675
0
LINE
8
Shape2DView001
10
-164.487793
20
1.303322
11
-164.373418
21
1.563433
0
LINE
8
Shape2DView001
10
-164.373418
20
1.563433
11
-164.118793
21
1.671992
0
LINE
8
Shape2DView001
10
-149.496803
20
-0.970729
11
-164.118718
21
-0.970729
0
LINE
8
Shape2DView001
10
-164.118718
20
1.672455
11
-149.496803
21
1.672455
0
LINE
8
Shape2DView001
10
-149.128812
20
-0.580675
11
-149.235562
21
-0.851688
0
LINE
8
Shape2DView001
10
-149.235562
20
-0.851688
11
-149.496812
21
-0.970008
0
LINE
8
Shape2DView001
10
-149.496812
20
1.671992
11
-149.235937
21
1.564247
0
LINE
8
Shape2DView001
10
-149.235937
20
1.564247
11
-149.128812
21
1.303322
0
LINE
8
Shape2DView001
10
-149.128768
20
1.302039
11
-149.128768
21
-0.581792
0
LINE
8
Shape2DView001
10
-164.216879
20
4.395014
11
-164.216879
21
5.336930
0
LINE
8
Shape2DView001
10
-163.847793
20
4.027319
11
-164.108793
21
4.134813
0
LINE
8
Shape2DView001
10
-164.108793
20
4.134813
11
-164.216793
21
4.395989
0
LINE
8
Shape2DView001
10
-164.216793
20
5.337987
11
-164.050668
21
6.565946
0
LINE
8
Shape2DView001
10
-164.050668
20
6.565946
11
-163.562794
21
7.703574
0
LINE
8
Shape2DView001
10
-163.562794
20
7.703574
11
-162.585795
21
8.838743
0
LINE
8
Shape2DView001
10
-162.585795
20
8.838743
11
-161.345672
21
9.552356
0
LINE
8
Shape2DView001
10
-161.345672
20
9.552356
11
-159.936798
21
9.802642
0
LINE
8
Shape2DView001
10
-162.066877
20
4.027244
11
-163.847785
21
4.027244
0
LINE
8
Shape2DView001
10
-159.936798
20
9.802642
11
-158.527050
21
9.552356
0
LINE
8
Shape2DView001
10
-158.527050
20
9.552356
11
-157.286802
21
8.838743
0
LINE
8
Shape2DView001
10
-157.286802
20
8.838743
11
-156.309803
21
7.703574
0
LINE
8
Shape2DView001
10
-156.309803
20
7.703574
11
-155.822054
21
6.565946
0
LINE
8
Shape2DView001
10
-155.822054
20
6.565946
11
-155.656804
21
5.337987
0
LINE
8
Shape2DView001
10
-161.800796
20
4.272649
11
-161.879796
21
4.096145
0
LINE
8
Shape2DView001
10
-161.879796
20
4.096145
11
-162.066796
21
4.027319
0
LINE
8
Shape2DView001
10
-155.656825
20
5.336930
11
-155.656825
21
4.458514
0
LINE
8
Shape2DView001
10
-161.800707
20
5.336930
11
-161.800707
21
4.273306
0
LINE
8
Shape2DView001
10
-155.656804
20
4.457318
11
-155.763929
21
4.196394
0
LINE
8
Shape2DView001
10
-155.763929
20
4.196394
11
-156.024803
21
4.088649
0
LINE
8
Shape2DView001
10
-159.936798
20
7.426645
11
-160.704797
21
7.239225
0
LINE
8
Shape2DView001
10
-160.704797
20
7.239225
11
-161.396797
21
6.629956
0
LINE
8
Shape2DView001
10
-161.396797
20
6.629956
11
-161.698171
21
6.016825
0
LINE
8
Shape2DView001
10
-161.698171
20
6.016825
11
-161.800796
21
5.337987
0
LINE
8
Shape2DView001
10
-156.024860
20
4.088098
11
-157.806826
21
4.088098
0
LINE
8
Shape2DView001
10
-158.052801
20
5.337987
11
-158.226676
21
6.214966
0
LINE
8
Shape2DView001
10
-158.226676
20
6.214966
11
-158.732800
21
6.944406
0
LINE
8
Shape2DView001
10
-158.732800
20
6.944406
11
-159.288674
21
7.299585
0
LINE
8
Shape2DView001
10
-159.288674
20
7.299585
11
-159.936798
21
7.426645
0
LINE
8
Shape2DView001
10
-157.806801
20
4.088649
11
-157.983426
21
4.157668
0
LINE
8
Shape2DView001
10
-157.983426
20
4.157668
11
-158.052801
21
4.333989
0
LINE
8
Shape2DView001
10
-158.052888
20
4.334160
11
-158.052888
21
5.336930
0
LINE
8
Shape2DView001
10
-41.269868
20
103.000444
11
-38.940480
21
103.002315
0
LINE
8
Shape2DView001
10
-38.940480
20
103.002315
11
-36.725859
21
103.454285
0
LINE
8
Shape2DView001
10
-36.725859
20
103.454285
11
-34.676620
21
104.314942
0
LINE
8
Shape2DView001
10
-34.676620
20
104.314942
11
-32.843380
21
105.542873
0
LINE
8
Shape2DView001
10
-32.843380
20
105.542873
11
-31.276753
21
107.096663
0
LINE
8
Shape2DView001
10
-31.276753
20
107.096663
11
-30.027356
21
108.934901
0
LINE
8
Shape2DView001
10
-30.027356
20
108.934901
11
-29.145805
21
111.016173
0
LINE
8
Shape2DView001
10
-29.145805
20
111.016173
11
-28.682716
21
113.299065
0
LINE
8
Shape2DView001
10
-28.682716
20
113.299065
11
-28.684583
21
115.628453
0
LINE
8
Shape2DView001
10
-28.684583
20
115.628453
11
-29.136551
21
117.843075
0
LINE
8
Shape2DView001
10
-29.136551
20
117.843075
11
-29.997205
21
119.892315
0
LINE
8
Shape2DView001
10
-29.997205
20
119.892315
11
-31.225133
21
121.725557
0
LINE
8
Shape2DView001
10
-31.225133
20
121.725557
11
-32.778921
21
123.292186
0
LINE
8
Shape2DView001
10
-32.778921
20
123.292186
11
-34.617158
21
124.541585
0
LINE
8
Shape2DView001
10
-34.617158
20
124.541585
11
-36.698428
21
125.423139
0
LINE
8
Shape2DView001
10
-36.698428
20
125.423139
11
-38.981320
21
125.886231
0
LINE
8
Shape2DView001
10
-38.981320
20
125.886231
11
-41.310708
21
125.884367
0
LINE
8
Shape2DView001
10
-41.310708
20
125.884367
11
-43.525330
21
125.432402
0
LINE
8
Shape2DView001
10
-43.525330
20
125.432402
11
-45.574571
21
124.571751
0
LINE
8
Shape2DView001
10
-45.574571
20
124.571751
11
-47.407815
21
123.343825
0
LINE
8
Shape2DView001
10
-47.407815
20
123.343825
11
-48.974446
21
121.790039
0
LINE
8
Shape2DView001
10
-48.974446
20
121.790039
11
-50.223848
21
119.951804
0
LINE
8
Shape2DView001
10
-50.223848
20
119.951804
11
-51.105404
21
117.870535
0
LINE
8
Shape2DView001
10
-51.105404
20
117.870535
11
-51.568500
21
115.587644
0
LINE
8
Shape2DView001
10
-51.568500
20
115.587644
11
-51.566638
21
113.258256
0
LINE
8
Shape2DView001
10
-51.566638
20
113.258256
11
-51.114677
21
111.043633
0
LINE
8
Shape2DView001
10
-51.114677
20
111.043633
11
-50.254028
21
108.994391
0
LINE
8
Shape2DView001
10
-50.254028
20
108.994391
11
-49.026105
21
107.161145
0
LINE
8
Shape2DView001
10
-49.026105
20
107.161145
11
-47.472321
21
105.594512
0
LINE
8
Shape2DView001
10
-47.472321
20
105.594512
11
-45.634088
21
104.345108
0
LINE
8
Shape2DView001
10
-45.634088
20
104.345108
11
-43.552820
21
103.463549
0
LINE
8
Shape2DView001
10
-43.552820
20
103.463549
11
-41.269929
21
103.000450
0
LINE
8
Shape2DView001
10
-164.487812
20
23.696344
11
-164.487812
21
25.580175
0
LINE
8
Shape2DView001
10
-164.118793
20
23.307345
11
-164.374168
21
23.426507
0
LINE
8
Shape2DView001
10
-164.374168
20
23.426507
11
-164.487793
21
23.696644
0
LINE
8
Shape2DView001
10
-164.487793
20
25.580642
11
-164.373418
21
25.840742
0
LINE
8
Shape2DView001
10
-164.373418
20
25.840742
11
-164.118793
21
25.949342
0
LINE
8
Shape2DView001
10
-149.496803
20
23.307407
11
-164.118718
21
23.307407
0
LINE
8
Shape2DView001
10
-164.118718
20
25.950591
11
-149.496803
21
25.950591
0
LINE
8
Shape2DView001
10
-149.128812
20
23.696644
11
-149.235562
21
23.425645
0
LINE
8
Shape2DView001
10
-149.235562
20
23.425645
11
-149.496812
21
23.307345
0
LINE
8
Shape2DView001
10
-149.496812
20
25.949342
11
-149.235937
21
25.841529
0
LINE
8
Shape2DView001
10
-149.235937
20
25.841529
11
-149.128812
21
25.580642
0
LINE
8
Shape2DView001
10
-149.128768
20
25.580175
11
-149.128768
21
23.696344
0
LINE
8
Shape2DView001
10
-164.216879
20
28.673151
11
-164.216879
21
29.615066
0
LINE
8
Shape2DView001
10
-163.847793
20
28.304639
11
-164.108793
21
28.412113
0
LINE
8
Shape2DView001
10
-164.108793
20
28.412113
11
-164.216793
21
28.673338
0
LINE
8
Shape2DView001
10
-164.216793
20
29.615337
11
-164.050668
21
30.843235
0
LINE
8
Shape2DView001
10
-164.050668
20
30.843235
11
-163.562794
21
31.980834
0
LINE
8
Shape2DView001
10
-163.562794
20
31.980834
11
-162.585795
21
33.116033
0
LINE
8
Shape2DView001
10
-162.585795
20
33.116033
11
-161.345672
21
33.829657
0
LINE
8
Shape2DView001
10
-161.345672
20
33.829657
11
-159.936798
21
34.079931
0
LINE
8
Shape2DView001
10
-162.066877
20
28.305380
11
-163.847785
21
28.305380
0
LINE
8
Shape2DView001
10
-159.936798
20
34.079931
11
-158.527050
21
33.829657
0
LINE
8
Shape2DView001
10
-158.527050
20
33.829657
11
-157.286802
21
33.116033
0
LINE
8
Shape2DView001
10
-157.286802
20
33.116033
11
-156.309803
21
31.980834
0
LINE
8
Shape2DView001
10
-156.309803
20
31.980834
11
-155.822054
21
30.843235
0
LINE
8
Shape2DView001
10
-155.822054
20
30.843235
11
-155.656804
21
29.615337
0
LINE
8
Shape2DView001
10
-161.800796
20
28.549938
11
-161.879796
21
28.373438
0
LINE
8
Shape2DView001
10
-161.879796
20
28.373438
11
-162.066796
21
28.304639
0
LINE
8
Shape2DView001
10
-155.656825
20
29.615066
11
-155.656825
21
28.734005
0
LINE
8
Shape2DView001
10
-161.800707
20
29.615066
11
-161.800707
21
28.548797
0
LINE
8
Shape2DView001
10
-155.656804
20
28.734638
11
-155.763929
21
28.473676
0
LINE
8
Shape2DView001
10
-155.763929
20
28.473676
11
-156.024803
21
28.365938
0
LINE
8
Shape2DView001
10
-159.936798
20
31.703934
11
-160.704797
21
31.516534
0
LINE
8
Shape2DView001
10
-160.704797
20
31.516534
11
-161.396797
21
30.907235
0
LINE
8
Shape2DView001
10
-161.396797
20
30.907235
11
-161.698171
21
30.294136
0
LINE
8
Shape2DView001
10
-161.698171
20
30.294136
11
-161.800796
21
29.615337
0
LINE
8
Shape2DView001
10
-156.024860
20
28.366234
11
-157.806826
21
28.366234
0
LINE
8
Shape2DView001
10
-158.052801
20
29.615337
11
-158.226676
21
30.492261
0
LINE
8
Shape2DView001
10
-158.226676
20
30.492261
11
-158.732800
21
31.221735
0
LINE
8
Shape2DView001
10
-158.732800
20
31.221735
11
-159.288674
21
31.576909
0
LINE
8
Shape2DView001
10
-159.288674
20
31.576909
11
-159.936798
21
31.703934
0
LINE
8
Shape2DView001
10
-157.806801
20
28.365938
11
-157.983426
21
28.434976
0
LINE
8
Shape2DView001
10
-157.983426
20
28.434976
11
-158.052801
21
28.611338
0
LINE
8
Shape2DView001
10
-158.052888
20
28.612296
11
-158.052888
21
29.615066
0
LINE
8
Shape2DView001
10
-164.487812
20
39.617891
11
-164.487812
21
37.713422
0
LINE
8
Shape2DView001
10
-164.118793
20
39.986624
11
-164.373418
21
39.878061
0
LINE
8
Shape2DView001
10
-164.373418
20
39.878061
11
-164.487793
21
39.617924
0
LINE
8
Shape2DView001
10
-164.487793
20
37.713327
11
-164.373418
21
37.453189
0
LINE
8
Shape2DView001
10
-164.373418
20
37.453189
11
-164.118793
21
37.344627
0
LINE
8
Shape2DView001
10
-149.701855
20
39.986720
11
-164.118718
21
39.986720
0
LINE
8
Shape2DView001
10
-164.118718
20
37.344594
11
-149.496803
21
37.344594
0
LINE
8
Shape2DView001
10
-149.128812
20
39.413325
11
-149.294187
21
39.816637
0
LINE
8
Shape2DView001
10
-149.294187
20
39.816637
11
-149.701811
21
39.986624
0
LINE
8
Shape2DView001
10
-149.496812
20
37.344627
11
-149.235937
21
37.452365
0
LINE
8
Shape2DView001
10
-149.235937
20
37.452365
11
-149.128812
21
37.713327
0
LINE
8
Shape2DView001
10
-149.128768
20
37.713422
11
-149.128768
21
39.413368
0
LINE
8
Shape2DView001
10
-152.793808
20
45.917316
11
-154.321056
21
45.705204
0
LINE
8
Shape2DView001
10
-154.321056
20
45.705204
11
-155.723804
21
45.076617
0
LINE
8
Shape2DView001
10
-155.723804
20
45.076617
11
-156.550428
21
44.410018
0
LINE
8
Shape2DView001
10
-156.550428
20
44.410018
11
-157.176802
21
43.561919
0
LINE
8
Shape2DView001
10
-149.496803
20
45.917348
11
-152.793772
21
45.917348
0
LINE
8
Shape2DView001
10
-157.176802
20
43.561919
11
-157.161677
21
43.365370
0
LINE
8
Shape2DView001
10
-157.161677
20
43.365370
11
-156.992802
21
43.275320
0
LINE
8
Shape2DView001
10
-149.128812
20
45.548617
11
-149.235937
21
45.809504
0
LINE
8
Shape2DView001
10
-149.235937
20
45.809504
11
-149.496812
21
45.917316
0
LINE
8
Shape2DView001
10
-156.992704
20
43.275222
11
-149.496803
21
43.275222
0
LINE
8
Shape2DView001
10
-149.128768
20
43.644050
11
-149.128768
21
45.548519
0
LINE
8
Shape2DView001
10
-149.496812
20
43.275320
11
-149.235937
21
43.383045
0
LINE
8
Shape2DView001
10
-149.235937
20
43.383045
11
-149.128812
21
43.643919
0
LINE
8
Shape2DView001
10
-160.330683
20
43.275222
11
-163.934833
21
43.275222
0
LINE
8
Shape2DView001
10
-159.818799
20
43.746619
11
-159.982548
21
43.411219
0
LINE
8
Shape2DView001
10
-159.982548
20
43.411219
11
-160.330798
21
43.275320
0
LINE
8
Shape2DView001
10
-163.934793
20
43.275320
11
-164.302668
21
43.433807
0
LINE
8
Shape2DView001
10
-164.302668
20
43.433807
11
-164.426793
21
43.807919
0
LINE
8
Shape2DView001
10
-159.736799
20
44.585918
11
-159.818799
21
43.746619
0
LINE
8
Shape2DView001
10
-164.426693
20
43.807827
11
-164.303662
21
45.651442
0
LINE
8
Shape2DView001
10
-158.425800
20
46.387916
11
-159.002925
21
45.988104
0
LINE
8
Shape2DView001
10
-159.002925
20
45.988104
11
-159.454799
21
45.480517
0
LINE
8
Shape2DView001
10
-159.454799
20
45.480517
11
-159.736799
21
44.585918
0
LINE
8
Shape2DView001
10
-164.303793
20
45.651317
11
-164.171293
21
46.027229
0
LINE
8
Shape2DView001
10
-164.171293
20
46.027229
11
-163.873793
21
46.306616
0
LINE
8
Shape2DView001
10
-149.537812
20
51.180610
11
-153.827806
21
48.872913
0
LINE
8
Shape2DView001
10
-153.827806
20
48.872913
11
-156.757802
21
47.296114
0
LINE
8
Shape2DView001
10
-156.757802
20
47.296114
11
-157.633801
21
46.822115
0
LINE
8
Shape2DView001
10
-157.633801
20
46.822115
11
-158.425800
21
46.387916
0
LINE
8
Shape2DView001
10
-163.873793
20
46.306616
11
-159.549799
21
48.612213
0
LINE
8
Shape2DView001
10
-159.549799
20
48.612213
11
-156.517803
21
50.237311
0
LINE
8
Shape2DView001
10
-156.517803
20
50.237311
11
-154.821805
21
51.159910
0
LINE
8
Shape2DView001
10
-149.128812
20
51.856609
11
-149.239937
21
51.458684
0
LINE
8
Shape2DView001
10
-149.239937
20
51.458684
11
-149.537812
21
51.180610
0
LINE
8
Shape2DView001
10
-154.821805
20
51.159910
11
-153.795806
21
52.019609
0
LINE
8
Shape2DView001
10
-153.795806
20
52.019609
11
-153.480807
21
52.616008
0
LINE
8
Shape2DView001
10
-153.480807
20
52.616008
11
-153.387807
21
53.249307
0
LINE
8
Shape2DView001
10
-149.128768
20
53.740538
11
-149.128768
21
51.856707
0
LINE
8
Shape2DView001
10
-153.387761
20
53.249207
11
-153.387761
21
53.740538
0
LINE
8
Shape2DView001
10
-149.434812
20
54.047906
11
-149.220312
21
53.955681
0
LINE
8
Shape2DView001
10
-149.220312
20
53.955681
11
-149.128812
21
53.740607
0
LINE
8
Shape2DView001
10
-153.387807
20
53.740607
11
-153.302557
21
53.956394
0
LINE
8
Shape2DView001
10
-153.302557
20
53.956394
11
-153.080807
21
54.047906
0
LINE
8
Shape2DView001
10
-153.080845
20
54.047983
11
-149.434891
21
54.047983
0
LINE
8
Shape2DView001
10
-160.821797
20
51.405909
11
-159.368424
21
51.594372
0
LINE
8
Shape2DView001
10
-159.368424
20
51.594372
11
-158.020801
21
52.156708
0
LINE
8
Shape2DView001
10
-158.020801
20
52.156708
11
-157.106177
21
52.852320
0
LINE
8
Shape2DView001
10
-157.106177
20
52.852320
11
-156.418803
21
53.761306
0
LINE
8
Shape2DView001
10
-164.098875
20
51.405857
11
-160.821749
21
51.405857
0
LINE
8
Shape2DView001
10
-156.418803
20
53.761306
11
-156.434678
21
53.950844
0
LINE
8
Shape2DView001
10
-156.434678
20
53.950844
11
-156.602803
21
54.047906
0
LINE
8
Shape2DView001
10
-164.487793
20
51.774609
11
-164.369418
21
51.513272
0
LINE
8
Shape2DView001
10
-164.369418
20
51.513272
11
-164.098793
21
51.405909
0
LINE
8
Shape2DView001
10
-156.602709
20
54.047983
11
-164.098875
21
54.047983
0
LINE
8
Shape2DView001
10
-164.487812
20
53.679419
11
-164.487812
21
51.774686
0
LINE
8
Shape2DView001
10
-164.098793
20
54.047906
11
-164.369418
21
53.940556
0
LINE
8
Shape2DView001
10
-164.369418
20
53.940556
11
-164.487793
21
53.679307
0
LINE
8
Shape2DView001
10
-158.016905
20
74.643918
11
-152.957814
21
76.077164
0
LINE
8
Shape2DView001
10
-158.261801
20
74.418580
11
-158.016801
21
74.643880
0
LINE
8
Shape2DView001
10
-152.957807
20
76.077278
11
-152.672808
21
76.054278
0
LINE
8
Shape2DView001
10
-152.672808
20
76.054278
11
-152.486808
21
75.729279
0
LINE
8
Shape2DView001
10
-158.384675
20
74.111312
11
-158.261909
21
74.418493
0
LINE
8
Shape2DView001
10
-152.486856
20
75.729237
11
-152.466747
21
75.114611
0
LINE
8
Shape2DView001
10
-158.138801
20
73.619881
11
-158.361550
21
73.812406
0
LINE
8
Shape2DView001
10
-158.361550
20
73.812406
11
-158.384800
21
74.111281
0
LINE
8
Shape2DView001
10
-152.466808
20
75.114580
11
-152.369683
21
74.818705
0
LINE
8
Shape2DView001
10
-152.369683
20
74.818705
11
-152.118808
21
74.643880
0
LINE
8
Shape2DView001
10
-149.598932
20
71.325782
11
-158.138878
21
73.619981
0
LINE
8
Shape2DView001
10
-152.118821
20
74.643918
11
-149.394939
21
73.906525
0
LINE
8
Shape2DView001
10
-149.128812
20
71.673884
11
-149.273062
21
71.384647
0
LINE
8
Shape2DView001
10
-149.273062
20
71.384647
11
-149.598811
21
71.325884
0
LINE
8
Shape2DView001
10
-149.394812
20
73.906581
11
-149.200312
21
73.778444
0
LINE
8
Shape2DView001
10
-149.200312
20
73.778444
11
-149.128812
21
73.558581
0
LINE
8
Shape2DView001
10
-149.128768
20
73.558598
11
-149.128768
21
71.673973
0
LINE
8
Shape2DView001
10
-164.488870
20
57.681237
11
-164.488870
21
60.344000
0
LINE
8
Shape2DView001
10
-164.119793
20
57.312602
11
-164.380793
21
57.420302
0
LINE
8
Shape2DView001
10
-164.380793
20
57.420302
11
-164.488793
21
57.681301
0
LINE
8
Shape2DView001
10
-164.488793
20
60.343898
11
-164.380793
21
60.614635
0
LINE
8
Shape2DView001
10
-164.380793
20
60.614635
11
-164.119793
21
60.732598
0
LINE
8
Shape2DView001
10
-149.484897
20
57.312673
11
-164.119777
21
57.312673
0
LINE
8
Shape2DView001
10
-164.119777
20
60.732673
11
-162.234887
21
60.732673
0
LINE
8
Shape2DView001
10
-149.116812
20
57.681301
11
-149.223937
21
57.420302
0
LINE
8
Shape2DView001
10
-149.223937
20
57.420302
11
-149.484812
21
57.312602
0
LINE
8
Shape2DView001
10
-162.234796
20
60.732598
11
-162.003546
21
60.646973
0
LINE
8
Shape2DView001
10
-162.003546
20
60.646973
11
-161.866796
21
60.425298
0
LINE
8
Shape2DView001
10
-149.116862
20
60.445865
11
-149.116862
21
57.681237
0
LINE
8
Shape2DView001
10
-161.866852
20
60.425227
11
-161.846744
21
60.261980
0
LINE
8
Shape2DView001
10
-149.484812
20
60.814598
11
-149.223937
21
60.706898
0
LINE
8
Shape2DView001
10
-149.223937
20
60.706898
11
-149.116812
21
60.445898
0
LINE
8
Shape2DView001
10
-161.846796
20
60.261898
11
-161.716046
21
60.039511
0
LINE
8
Shape2DView001
10
-161.716046
20
60.039511
11
-161.478797
21
59.954599
0
LINE
8
Shape2DView001
10
-151.020801
20
60.814693
11
-149.484897
21
60.814693
0
LINE
8
Shape2DView001
10
-161.478709
20
59.954534
11
-151.880696
21
59.954534
0
LINE
8
Shape2DView001
10
-151.348809
20
60.589298
11
-151.020810
21
60.814598
0
LINE
8
Shape2DView001
10
-151.880809
20
59.954599
11
-151.552809
21
60.179898
0
LINE
8
Shape2DView001
10
-151.552878
20
60.179959
11
-151.348884
21
60.589269
0
LINE
8
Shape2DView001
10
-162.132758
20
63.149374
11
-163.934833
21
63.149374
0
LINE
8
Shape2DView001
10
-161.764796
20
63.456594
11
-161.894421
21
63.234357
0
LINE
8
Shape2DView001
10
-161.894421
20
63.234357
11
-162.132796
21
63.149295
0
LINE
8
Shape2DView001
10
-163.934793
20
63.149295
11
-164.211543
21
63.270182
0
LINE
8
Shape2DView001
10
-164.211543
20
63.270182
11
-164.303793
21
63.559294
0
LINE
8
Shape2DView001
10
-159.761799
20
65.565892
11
-160.547798
21
65.398992
0
LINE
8
Shape2DView001
10
-160.547798
20
65.398992
11
-161.219797
21
64.836193
0
LINE
8
Shape2DView001
10
-161.219797
20
64.836193
11
-161.577046
21
64.170693
0
LINE
8
Shape2DView001
10
-161.577046
20
64.170693
11
-161.764796
21
63.456594
0
LINE
8
Shape2DView001
10
-164.303793
20
63.559294
11
-164.131356
21
64.513655
0
LINE
8
Shape2DView001
10
-164.131356
20
64.513655
11
-163.774044
21
65.414767
0
LINE
8
Shape2DView001
10
-163.774044
20
65.414767
11
-163.251357
21
66.231616
0
LINE
8
Shape2DView001
10
-163.251357
20
66.231616
11
-162.582795
21
66.933190
0
LINE
8
Shape2DView001
10
-162.582795
20
66.933190
11
-161.346047
21
67.696989
0
LINE
8
Shape2DView001
10
-161.346047
20
67.696989
11
-159.924799
21
67.982588
0
LINE
8
Shape2DView001
10
-157.901801
20
62.923895
11
-158.050801
21
64.212493
0
LINE
8
Shape2DView001
10
-158.050801
20
64.212493
11
-158.251801
21
64.732693
0
LINE
8
Shape2DView001
10
-158.251801
20
64.732693
11
-158.716800
21
65.271592
0
LINE
8
Shape2DView001
10
-158.716800
20
65.271592
11
-159.212299
21
65.499629
0
LINE
8
Shape2DView001
10
-159.212299
20
65.499629
11
-159.761799
21
65.565892
0
LINE
8
Shape2DView001
10
-159.924799
20
67.982588
11
-159.116050
21
67.909764
0
LINE
8
Shape2DView001
10
-159.116050
20
67.909764
11
-158.341801
21
67.685289
0
LINE
8
Shape2DView001
10
-158.341801
20
67.685289
11
-157.531552
21
67.243702
0
LINE
8
Shape2DView001
10
-157.531552
20
67.243702
11
-156.857802
21
66.651290
0
LINE
8
Shape2DView001
10
-157.532802
20
62.555295
11
-157.794176
21
62.662945
0
LINE
8
Shape2DView001
10
-157.794176
20
62.662945
11
-157.901801
21
62.923895
0
LINE
8
Shape2DView001
10
-156.857802
20
66.651290
11
-156.554053
21
66.523853
0
LINE
8
Shape2DView001
10
-156.554053
20
66.523853
11
-156.263803
21
66.671890
0
LINE
8
Shape2DView001
10
-155.853674
20
62.555385
11
-157.532718
21
62.555385
0
LINE
8
Shape2DView001
10
-156.263803
20
66.671890
11
-155.676804
21
67.267089
0
LINE
8
Shape2DView001
10
-155.676804
20
67.267089
11
-155.048805
21
67.641901
0
LINE
8
Shape2DView001
10
-155.048805
20
67.641901
11
-154.345806
21
67.876989
0
LINE
8
Shape2DView001
10
-154.345806
20
67.876989
11
-153.355807
21
67.982588
0
LINE
8
Shape2DView001
10
-155.485804
20
62.923895
11
-155.592929
21
62.663020
0
LINE
8
Shape2DView001
10
-155.592929
20
62.663020
11
-155.853804
21
62.555295
0
LINE
8
Shape2DView001
10
-153.355807
20
67.982588
11
-151.817809
21
67.745289
0
LINE
8
Shape2DView001
10
-151.817809
20
67.745289
11
-150.883560
21
67.264589
0
LINE
8
Shape2DView001
10
-150.883560
20
67.264589
11
-150.133811
21
66.532190
0
LINE
8
Shape2DView001
10
-150.133811
20
66.532190
11
-149.575562
21
65.555604
0
LINE
8
Shape2DView001
10
-149.575562
20
65.555604
11
-149.249812
21
64.480993
0
LINE
8
Shape2DView001
10
-149.249812
20
64.480993
11
-149.136812
21
63.661294
0
LINE
8
Shape2DView001
10
-153.539806
20
65.565892
11
-154.401805
21
65.358392
0
LINE
8
Shape2DView001
10
-154.401805
20
65.358392
11
-155.057805
21
64.689893
0
LINE
8
Shape2DView001
10
-155.057805
20
64.689893
11
-155.378304
21
63.826994
0
LINE
8
Shape2DView001
10
-155.378304
20
63.826994
11
-155.485804
21
62.923895
0
LINE
8
Shape2DView001
10
-149.136812
20
63.661294
11
-149.228937
21
63.372519
0
LINE
8
Shape2DView001
10
-149.228937
20
63.372519
11
-149.504812
21
63.251894
0
LINE
8
Shape2DView001
10
-151.778809
20
63.538594
11
-152.217808
21
64.848993
0
LINE
8
Shape2DView001
10
-152.217808
20
64.848993
11
-152.694808
21
65.352392
0
LINE
8
Shape2DView001
10
-152.694808
20
65.352392
11
-153.539806
21
65.565892
0
LINE
8
Shape2DView001
10
-149.504741
20
63.251767
11
-151.409738
21
63.251767
0
LINE
8
Shape2DView001
10
-151.409809
20
63.251894
11
-151.647559
21
63.333219
0
LINE
8
Shape2DView001
10
-151.647559
20
63.333219
11
-151.778809
21
63.538594
0
LINE
8
Shape2DView001
10
-75.078505
20
134.137872
11
-74.826884
21
134.223286
0
LINE
8
Shape2DView001
10
-74.826884
20
134.223286
11
-74.679257
21
134.444226
0
LINE
8
Shape2DView001
10
-74.679257
20
134.444226
11
-74.696635
21
134.709379
0
LINE
8
Shape2DView001
10
-74.696635
20
134.709379
11
-74.871838
21
134.909160
0
LINE
8
Shape2DView001
10
-75.436462
20
134.344538
11
-75.078505
21
134.137872
0
LINE
8
Shape2DView001
10
-132.344946
20
134.344161
11
-75.436317
21
134.344161
0
LINE
8
Shape2DView001
10
-132.702833
20
134.137872
11
-132.344876
21
134.344539
0
LINE
8
Shape2DView001
10
-132.909499
20
134.909161
11
-133.084702
21
134.709381
0
LINE
8
Shape2DView001
10
-133.084702
20
134.709381
11
-133.102082
21
134.444226
0
LINE
8
Shape2DView001
10
-133.102082
20
134.444226
11
-132.954454
21
134.223286
0
LINE
8
Shape2DView001
10
-132.954454
20
134.223286
11
-132.702833
21
134.137872
0
LINE
8
Shape2DView001
10
-132.908772
20
139.980308
11
-132.908772
21
134.909310
0
LINE
8
Shape2DView001
10
-132.344875
20
140.544862
11
-132.774606
21
140.745251
0
LINE
8
Shape2DView001
10
-132.774606
20
140.745251
11
-133.109886
21
140.409972
0
LINE
8
Shape2DView001
10
-133.109886
20
140.409972
11
-132.909499
21
139.980241
0
LINE
8
Shape2DView001
10
-132.344946
20
140.544135
11
-75.436317
21
140.544135
0
LINE
8
Shape2DView001
10
-74.871838
20
139.980241
11
-74.671453
21
140.409972
0
LINE
8
Shape2DView001
10
-74.671453
20
140.409972
11
-75.006732
21
140.745250
0
LINE
8
Shape2DView001
10
-75.006732
20
140.745250
11
-75.436462
21
140.544864
0
LINE
8
Shape2DView001
10
-74.871697
20
139.980308
11
-74.871697
21
134.909310
0
LINE
8
Shape2DView001
10
-164.242793
20
78.002576
11
-164.436543
21
77.874438
0
LINE
8
Shape2DView001
10
-164.436543
20
77.874438
11
-164.508793
21
77.654576
0
LINE
8
Shape2DView001
10
-149.598932
20
81.955140
11
-164.242808
21
78.002534
0
LINE
8
Shape2DView001
10
-164.508714
20
77.654608
11
-164.508714
21
75.585833
0
LINE
8
Shape2DView001
10
-149.128812
20
81.607271
11
-149.273062
21
81.896471
0
LINE
8
Shape2DView001
10
-149.273062
20
81.896471
11
-149.598811
21
81.955271
0
LINE
8
Shape2DView001
10
-164.508793
20
75.585879
11
-164.437293
21
75.348742
0
LINE
8
Shape2DView001
10
-164.437293
20
75.348742
11
-164.242793
21
75.217279
0
LINE
8
Shape2DView001
10
-149.128768
20
79.722588
11
-149.128768
21
81.607213
0
LINE
8
Shape2DView001
10
-164.242808
20
75.217269
11
-161.456749
21
74.521151
0
LINE
8
Shape2DView001
10
-149.394812
20
79.374574
11
-149.200312
21
79.502712
0
LINE
8
Shape2DView001
10
-149.200312
20
79.502712
11
-149.128812
21
79.722574
0
LINE
8
Shape2DView001
10
-161.456797
20
74.521280
11
-161.196797
21
74.546068
0
LINE
8
Shape2DView001
10
-161.196797
20
74.546068
11
-161.026797
21
74.725880
0
LINE
8
Shape2DView001
10
-160.002865
20
76.445992
11
-149.394939
21
79.374662
0
LINE
8
Shape2DView001
10
-161.026801
20
74.725938
11
-160.514833
21
75.995408
0
LINE
8
Shape2DView001
10
-160.514798
20
75.995278
11
-160.306423
21
76.280766
0
LINE
8
Shape2DView001
10
-160.306423
20
76.280766
11
-160.002798
21
76.445878
0
LINE
8
Shape2DView001
10
-164.487812
20
87.426452
11
-164.487812
21
85.542621
0
LINE
8
Shape2DView001
10
-164.118793
20
87.815863
11
-164.374168
21
87.696701
0
LINE
8
Shape2DView001
10
-164.374168
20
87.696701
11
-164.487793
21
87.426564
0
LINE
8
Shape2DView001
10
-164.487793
20
85.542566
11
-164.373418
21
85.282429
0
LINE
8
Shape2DView001
10
-164.373418
20
85.282429
11
-164.118793
21
85.173867
0
LINE
8
Shape2DView001
10
-149.701855
20
87.815918
11
-164.118718
21
87.815918
0
LINE
8
Shape2DView001
10
-164.118718
20
85.173792
11
-149.496803
21
85.173792
0
LINE
8
Shape2DView001
10
-149.128812
20
87.221864
11
-149.380812
21
87.717964
0
LINE
8
Shape2DView001
10
-149.380812
20
87.717964
11
-149.701811
21
87.815863
0
LINE
8
Shape2DView001
10
-149.496812
20
85.173867
11
-149.235937
21
85.281604
0
LINE
8
Shape2DView001
10
-149.235937
20
85.281604
11
-149.128812
21
85.542566
0
LINE
8
Shape2DView001
10
-149.128768
20
85.542621
11
-149.128768
21
87.221929
0
LINE
8
Shape2DView001
10
-151.380899
20
96.109801
11
-149.721699
21
96.109801
0
LINE
8
Shape2DView001
10
-151.749809
20
95.741254
11
-151.641809
21
96.002353
0
LINE
8
Shape2DView001
10
-151.641809
20
96.002353
11
-151.380809
21
96.109853
0
LINE
8
Shape2DView001
10
-149.721811
20
96.109853
11
-149.302687
21
95.935566
0
LINE
8
Shape2DView001
10
-149.302687
20
95.935566
11
-149.128812
21
95.516554
0
LINE
8
Shape2DView001
10
-151.749728
20
89.843153
11
-151.749728
21
95.741237
0
LINE
8
Shape2DView001
10
-149.128768
20
95.516606
11
-149.128768
21
89.843153
0
LINE
8
Shape2DView001
10
-151.606809
20
89.679261
11
-151.749809
21
89.843261
0
LINE
8
Shape2DView001
10
-149.128812
20
89.843261
11
-149.271812
21
89.679261
0
LINE
8
Shape2DView001
10
-149.271908
20
89.679376
11
-151.606853
21
89.679376
0
LINE
8
Shape2DView001
10
-151.380899
20
109.934263
11
-149.721699
21
109.934263
0
LINE
8
Shape2DView001
10
-151.749809
20
109.565236
11
-151.641809
21
109.826236
0
LINE
8
Shape2DView001
10
-151.641809
20
109.826236
11
-151.380809
21
109.934236
0
LINE
8
Shape2DView001
10
-149.721811
20
109.934236
11
-149.302687
21
109.759486
0
LINE
8
Shape2DView001
10
-149.302687
20
109.759486
11
-149.128812
21
109.340236
0
LINE
8
Shape2DView001
10
-151.749728
20
103.667350
11
-151.749728
21
109.565169
0
LINE
8
Shape2DView001
10
-149.128768
20
109.340274
11
-149.128768
21
103.667350
0
LINE
8
Shape2DView001
10
-151.606809
20
103.503244
11
-151.749809
21
103.667243
0
LINE
8
Shape2DView001
10
-149.128812
20
103.667243
11
-149.271812
21
103.503244
0
LINE
8
Shape2DView001
10
-149.271908
20
103.503308
11
-151.606853
21
103.503308
0
LINE
8
Shape2DView001
10
-164.487812
20
101.250120
11
-164.487812
21
99.366553
0
LINE
8
Shape2DView001
10
-164.118793
20
101.640246
11
-164.374168
21
101.520621
0
LINE
8
Shape2DView001
10
-164.374168
20
101.520621
11
-164.487793
21
101.250247
0
LINE
8
Shape2DView001
10
-164.487793
20
99.366549
11
-164.373418
21
99.106412
0
LINE
8
Shape2DView001
10
-164.373418
20
99.106412
11
-164.118793
21
98.997849
0
LINE
8
Shape2DView001
10
-149.701855
20
101.640115
11
-164.118718
21
101.640115
0
LINE
8
Shape2DView001
10
-164.118718
20
98.997724
11
-149.496803
21
98.997724
0
LINE
8
Shape2DView001
10
-149.128812
20
101.046247
11
-149.380812
21
101.542246
0
LINE
8
Shape2DView001
10
-149.380812
20
101.542246
11
-149.701811
21
101.640246
0
LINE
8
Shape2DView001
10
-149.496812
20
98.997849
11
-149.235937
21
99.105587
0
LINE
8
Shape2DView001
10
-149.235937
20
99.105587
11
-149.128812
21
99.366549
0
LINE
8
Shape2DView001
10
-149.128768
20
99.366553
11
-149.128768
21
101.046126
0
LINE
8
Shape2DView001
10
-158.062801
20
-86.989216
11
-157.917801
21
-86.825216
0
LINE
8
Shape2DView001
10
-157.917801
20
-84.327220
11
-157.809801
21
-84.066107
0
LINE
8
Shape2DView001
10
-157.809801
20
-84.066107
11
-157.548801
21
-83.958520
0
LINE
8
Shape2DView001
10
-164.526793
20
-87.357916
11
-164.412918
21
-87.097779
0
LINE
8
Shape2DView001
10
-164.412918
20
-87.097779
11
-164.158793
21
-86.989216
0
LINE
8
Shape2DView001
10
-164.158793
20
-89.631213
11
-164.412918
21
-89.522651
0
LINE
8
Shape2DView001
10
-164.412918
20
-89.522651
11
-164.526793
21
-89.262513
0
LINE
8
Shape2DView001
10
-164.526793
20
-79.677926
11
-164.412168
21
-79.424463
0
LINE
8
Shape2DView001
10
-164.412168
20
-79.424463
11
-164.158793
21
-79.309226
0
LINE
8
Shape2DView001
10
-164.363793
20
-85.084519
11
-164.526793
21
-84.941219
0
LINE
8
Shape2DView001
10
-164.118793
20
-73.378533
11
-164.374168
21
-73.497783
0
LINE
8
Shape2DView001
10
-164.374168
20
-73.497783
11
-164.487793
21
-73.767933
0
LINE
8
Shape2DView001
10
-164.487793
20
-75.651931
11
-164.373418
21
-75.912018
0
LINE
8
Shape2DView001
10
-164.373418
20
-75.912018
11
-164.118793
21
-76.020530
0
LINE
8
Shape2DView001
10
-151.749809
20
-65.453243
11
-151.641809
21
-65.192131
0
LINE
8
Shape2DView001
10
-151.641809
20
-65.192131
11
-151.380809
21
-65.084544
0
LINE
8
Shape2DView001
10
-151.606809
20
-71.515236
11
-151.749809
21
-71.351236
0
LINE
8
Shape2DView001
10
-164.118793
20
-59.554551
11
-164.373418
21
-59.663151
0
LINE
8
Shape2DView001
10
-164.373418
20
-59.663151
11
-164.487793
21
-59.923250
0
LINE
8
Shape2DView001
10
-164.487793
20
-61.827948
11
-164.373418
21
-62.088035
0
LINE
8
Shape2DView001
10
-164.373418
20
-62.088035
11
-164.118793
21
-62.196548
0
LINE
8
Shape2DView001
10
-164.118793
20
-56.265955
11
-164.374168
21
-56.146743
0
LINE
8
Shape2DView001
10
-164.374168
20
-56.146743
11
-164.487793
21
-55.876555
0
LINE
8
Shape2DView001
10
-164.487793
20
-53.992558
11
-164.373418
21
-53.732508
0
LINE
8
Shape2DView001
10
-164.373418
20
-53.732508
11
-164.118793
21
-53.623958
0
LINE
8
Shape2DView001
10
-163.847793
20
-51.268561
11
-164.108793
21
-51.161099
0
LINE
8
Shape2DView001
10
-164.108793
20
-51.161099
11
-164.216793
21
-50.899962
0
LINE
8
Shape2DView001
10
-164.216793
20
-49.957963
11
-164.050668
21
-48.729977
0
LINE
8
Shape2DView001
10
-164.050668
20
-48.729977
11
-163.562794
21
-47.592366
0
LINE
8
Shape2DView001
10
-163.562794
20
-47.592366
11
-162.585795
21
-46.457167
0
LINE
8
Shape2DView001
10
-162.585795
20
-46.457167
11
-161.345672
21
-45.743581
0
LINE
8
Shape2DView001
10
-161.345672
20
-45.743581
11
-159.936798
21
-45.493269
0
LINE
8
Shape2DView001
10
-158.052801
20
-49.957963
11
-158.226676
21
-49.080964
0
LINE
8
Shape2DView001
10
-158.226676
20
-49.080964
11
-158.732800
21
-48.351565
0
LINE
8
Shape2DView001
10
-158.732800
20
-48.351565
11
-159.288674
21
-47.996378
0
LINE
8
Shape2DView001
10
-159.288674
20
-47.996378
11
-159.936798
21
-47.869265
0
LINE
8
Shape2DView001
10
-157.806801
20
-51.207261
11
-157.983426
21
-51.138274
0
LINE
8
Shape2DView001
10
-157.983426
20
-51.138274
11
-158.052801
21
-50.961962
0
LINE
8
Shape2DView001
10
-158.062801
20
-39.586576
11
-157.917801
21
-39.422576
0
LINE
8
Shape2DView001
10
-157.917801
20
-36.924579
11
-157.809801
21
-36.663480
0
LINE
8
Shape2DView001
10
-157.809801
20
-36.663480
11
-157.548801
21
-36.555980
0
LINE
8
Shape2DView001
10
-164.526793
20
-39.955275
11
-164.412918
21
-39.695176
0
LINE
8
Shape2DView001
10
-164.412918
20
-39.695176
11
-164.158793
21
-39.586576
0
LINE
8
Shape2DView001
10
-164.158793
20
-42.228573
11
-164.412918
21
-42.120060
0
LINE
8
Shape2DView001
10
-164.412918
20
-42.120060
11
-164.526793
21
-41.859973
0
LINE
8
Shape2DView001
10
-164.526793
20
-32.275285
11
-164.412168
21
-32.021823
0
LINE
8
Shape2DView001
10
-164.412168
20
-32.021823
11
-164.158793
21
-31.906586
0
LINE
8
Shape2DView001
10
-164.363793
20
-37.681978
11
-164.526793
21
-37.538579
0
LINE
8
Shape2DView001
10
-164.118793
20
-25.975993
11
-164.374168
21
-26.095155
0
LINE
8
Shape2DView001
10
-164.374168
20
-26.095155
11
-164.487793
21
-26.365293
0
LINE
8
Shape2DView001
10
-164.487793
20
-28.249290
11
-164.373418
21
-28.509427
0
LINE
8
Shape2DView001
10
-164.373418
20
-28.509427
11
-164.118793
21
-28.617990
0
LINE
8
Shape2DView001
10
-151.749809
20
-18.050603
11
-151.641809
21
-17.789503
0
LINE
8
Shape2DView001
10
-151.641809
20
-17.789503
11
-151.380809
21
-17.682004
0
LINE
8
Shape2DView001
10
-151.606809
20
-24.112595
11
-151.749809
21
-23.948596
0
LINE
8
Shape2DView001
10
-153.995806
20
-12.336610
11
-153.954806
21
-12.336610
0
LINE
8
Shape2DView001
10
-164.644793
20
-11.107312
11
-164.575918
21
-10.780762
0
LINE
8
Shape2DView001
10
-164.575918
20
-10.780762
11
-164.276793
21
-10.636613
0
LINE
8
Shape2DView001
10
-153.954806
20
-12.336610
11
-152.879807
21
-12.120011
0
LINE
8
Shape2DView001
10
-152.879807
20
-12.120011
11
-152.297808
21
-11.758011
0
LINE
8
Shape2DView001
10
-152.297808
20
-11.758011
11
-151.578809
21
-10.841312
0
LINE
8
Shape2DView001
10
-159.750799
20
-14.794007
11
-161.309797
21
-14.512345
0
LINE
8
Shape2DView001
10
-161.309797
20
-14.512345
11
-162.754795
21
-13.826208
0
LINE
8
Shape2DView001
10
-162.754795
20
-13.826208
11
-163.634794
21
-13.046109
0
LINE
8
Shape2DView001
10
-163.634794
20
-13.046109
11
-164.249293
21
-12.135248
0
LINE
8
Shape2DView001
10
-164.249293
20
-12.135248
11
-164.644793
21
-11.107312
0
LINE
8
Shape2DView001
10
-151.578809
20
-10.841312
11
-151.230809
21
-10.636613
0
LINE
8
Shape2DView001
10
-164.644793
20
-7.933336
11
-164.575918
21
-8.259907
0
LINE
8
Shape2DView001
10
-164.575918
20
-8.259907
11
-164.276793
21
-8.403995
0
LINE
8
Shape2DView001
10
-159.750799
20
-4.246671
11
-161.309797
21
-4.528325
0
LINE
8
Shape2DView001
10
-161.309797
20
-4.528325
11
-162.754795
21
-5.214499
0
LINE
8
Shape2DView001
10
-162.754795
20
-5.214499
11
-163.634794
21
-5.994588
0
LINE
8
Shape2DView001
10
-163.634794
20
-5.994588
11
-164.249293
21
-6.905428
0
LINE
8
Shape2DView001
10
-164.249293
20
-6.905428
11
-164.644793
21
-7.933336
0
LINE
8
Shape2DView001
10
-153.995806
20
-4.246671
11
-154.141806
21
-4.246671
0
LINE
8
Shape2DView001
10
-154.141806
20
-4.246671
11
-154.326806
21
-4.246671
0
LINE
8
Shape2DView001
10
-154.326806
20
-4.246671
11
-154.720805
21
-4.246671
0
LINE
8
Shape2DView001
10
-154.720805
20
-4.246671
11
-155.595804
21
-4.246671
0
LINE
8
Shape2DView001
10
-155.595804
20
-4.246671
11
-157.247802
21
-4.246671
0
LINE
8
Shape2DView001
10
-157.247802
20
-4.246671
11
-158.676800
21
-4.246671
0
LINE
8
Shape2DView001
10
-158.676800
20
-4.246671
11
-159.220799
21
-4.246671
0
LINE
8
Shape2DView001
10
-159.220799
20
-4.246671
11
-159.502799
21
-4.246671
0
LINE
8
Shape2DView001
10
-159.502799
20
-4.246671
11
-159.638799
21
-4.246671
0
LINE
8
Shape2DView001
10
-159.638799
20
-4.246671
11
-159.704799
21
-4.246671
0
LINE
8
Shape2DView001
10
-159.704799
20
-4.246671
11
-159.750799
21
-4.246671
0
LINE
8
Shape2DView001
10
-153.954806
20
-6.704667
11
-152.879807
21
-6.921157
0
LINE
8
Shape2DView001
10
-152.879807
20
-6.921157
11
-152.297808
21
-7.282997
0
LINE
8
Shape2DView001
10
-152.297808
20
-7.282997
11
-151.578809
21
-8.199336
0
LINE
8
Shape2DView001
10
-151.578809
20
-8.199336
11
-151.230809
21
-8.403995
0
LINE
8
Shape2DView001
10
-164.118793
20
-0.970008
11
-164.374168
21
-0.850807
0
LINE
8
Shape2DView001
10
-164.374168
20
-0.850807
11
-164.487793
21
-0.580675
0
LINE
8
Shape2DView001
10
-164.487793
20
1.303322
11
-164.373418
21
1.563433
0
LINE
8
Shape2DView001
10
-164.373418
20
1.563433
11
-164.118793
21
1.671992
0
LINE
8
Shape2DView001
10
-163.847793
20
4.027319
11
-164.108793
21
4.134813
0
LINE
8
Shape2DView001
10
-164.108793
20
4.134813
11
-164.216793
21
4.395989
0
LINE
8
Shape2DView001
10
-164.216793
20
5.337987
11
-164.050668
21
6.565946
0
LINE
8
Shape2DView001
10
-164.050668
20
6.565946
11
-163.562794
21
7.703574
0
LINE
8
Shape2DView001
10
-163.562794
20
7.703574
11
-162.585795
21
8.838743
0
LINE
8
Shape2DView001
10
-162.585795
20
8.838743
11
-161.345672
21
9.552356
0
LINE
8
Shape2DView001
10
-161.345672
20
9.552356
11
-159.936798
21
9.802642
0
LINE
8
Shape2DView001
10
-158.052801
20
5.337987
11
-158.226676
21
6.214966
0
LINE
8
Shape2DView001
10
-158.226676
20
6.214966
11
-158.732800
21
6.944406
0
LINE
8
Shape2DView001
10
-158.732800
20
6.944406
11
-159.288674
21
7.299585
0
LINE
8
Shape2DView001
10
-159.288674
20
7.299585
11
-159.936798
21
7.426645
0
LINE
8
Shape2DView001
10
-157.806801
20
4.088649
11
-157.983426
21
4.157668
0
LINE
8
Shape2DView001
10
-157.983426
20
4.157668
11
-158.052801
21
4.333989
0
LINE
8
Shape2DView001
10
-164.118793
20
23.307345
11
-164.374168
21
23.426507
0
LINE
8
Shape2DView001
10
-164.374168
20
23.426507
11
-164.487793
21
23.696644
0
LINE
8
Shape2DView001
10
-164.487793
20
25.580642
11
-164.373418
21
25.840742
0
LINE
8
Shape2DView001
10
-164.373418
20
25.840742
11
-164.118793
21
25.949342
0
LINE
8
Shape2DView001
10
-163.847793
20
28.304639
11
-164.108793
21
28.412113
0
LINE
8
Shape2DView001
10
-164.108793
20
28.412113
11
-164.216793
21
28.673338
0
LINE
8
Shape2DView001
10
-164.216793
20
29.615337
11
-164.050668
21
30.843235
0
LINE
8
Shape2DView001
10
-164.050668
20
30.843235
11
-163.562794
21
31.980834
0
LINE
8
Shape2DView001
10
-163.562794
20
31.980834
11
-162.585795
21
33.116033
0
LINE
8
Shape2DView001
10
-162.585795
20
33.116033
11
-161.345672
21
33.829657
0
LINE
8
Shape2DView001
10
-161.345672
20
33.829657
11
-159.936798
21
34.079931
0
LINE
8
Shape2DView001
10
-158.052801
20
29.615337
11
-158.226676
21
30.492261
0
LINE
8
Shape2DView001
10
-158.226676
20
30.492261
11
-158.732800
21
31.221735
0
LINE
8
Shape2DView001
10
-158.732800
20
31.221735
11
-159.288674
21
31.576909
0
LINE
8
Shape2DView001
10
-159.288674
20
31.576909
11
-159.936798
21
31.703934
0
LINE
8
Shape2DView001
10
-157.806801
20
28.365938
11
-157.983426
21
28.434976
0
LINE
8
Shape2DView001
10
-157.983426
20
28.434976
11
-158.052801
21
28.611338
0
LINE
8
Shape2DView001
10
-164.118793
20
39.986624
11
-164.373418
21
39.878061
0
LINE
8
Shape2DView001
10
-164.373418
20
39.878061
11
-164.487793
21
39.617924
0
LINE
8
Shape2DView001
10
-164.487793
20
37.713327
11
-164.373418
21
37.453189
0
LINE
8
Shape2DView001
10
-164.373418
20
37.453189
11
-164.118793
21
37.344627
0
LINE
8
Shape2DView001
10
-152.793808
20
45.917316
11
-154.321056
21
45.705204
0
LINE
8
Shape2DView001
10
-154.321056
20
45.705204
11
-155.723804
21
45.076617
0
LINE
8
Shape2DView001
10
-155.723804
20
45.076617
11
-156.550428
21
44.410018
0
LINE
8
Shape2DView001
10
-156.550428
20
44.410018
11
-157.176802
21
43.561919
0
LINE
8
Shape2DView001
10
-157.176802
20
43.561919
11
-157.161677
21
43.365370
0
LINE
8
Shape2DView001
10
-157.161677
20
43.365370
11
-156.992802
21
43.275320
0
LINE
8
Shape2DView001
10
-163.934793
20
43.275320
11
-164.302668
21
43.433807
0
LINE
8
Shape2DView001
10
-164.302668
20
43.433807
11
-164.426793
21
43.807919
0
LINE
8
Shape2DView001
10
-164.303793
20
45.651317
11
-164.171293
21
46.027229
0
LINE
8
Shape2DView001
10
-164.171293
20
46.027229
11
-163.873793
21
46.306616
0
LINE
8
Shape2DView001
10
-163.873793
20
46.306616
11
-159.549799
21
48.612213
0
LINE
8
Shape2DView001
10
-159.549799
20
48.612213
11
-156.517803
21
50.237311
0
LINE
8
Shape2DView001
10
-156.517803
20
50.237311
11
-154.821805
21
51.159910
0
LINE
8
Shape2DView001
10
-154.821805
20
51.159910
11
-153.795806
21
52.019609
0
LINE
8
Shape2DView001
10
-153.795806
20
52.019609
11
-153.480807
21
52.616008
0
LINE
8
Shape2DView001
10
-153.480807
20
52.616008
11
-153.387807
21
53.249307
0
LINE
8
Shape2DView001
10
-153.387807
20
53.740607
11
-153.302557
21
53.956394
0
LINE
8
Shape2DView001
10
-153.302557
20
53.956394
11
-153.080807
21
54.047906
0
LINE
8
Shape2DView001
10
-164.487793
20
51.774609
11
-164.369418
21
51.513272
0
LINE
8
Shape2DView001
10
-164.369418
20
51.513272
11
-164.098793
21
51.405909
0
LINE
8
Shape2DView001
10
-164.098793
20
54.047906
11
-164.369418
21
53.940556
0
LINE
8
Shape2DView001
10
-164.369418
20
53.940556
11
-164.487793
21
53.679307
0
LINE
8
Shape2DView001
10
-158.261801
20
74.418580
11
-158.016801
21
74.643880
0
LINE
8
Shape2DView001
10
-158.138801
20
73.619881
11
-158.361550
21
73.812406
0
LINE
8
Shape2DView001
10
-158.361550
20
73.812406
11
-158.384800
21
74.111281
0
LINE
8
Shape2DView001
10
-164.119793
20
57.312602
11
-164.380793
21
57.420302
0
LINE
8
Shape2DView001
10
-164.380793
20
57.420302
11
-164.488793
21
57.681301
0
LINE
8
Shape2DView001
10
-164.488793
20
60.343898
11
-164.380793
21
60.614635
0
LINE
8
Shape2DView001
10
-164.380793
20
60.614635
11
-164.119793
21
60.732598
0
LINE
8
Shape2DView001
10
-151.348809
20
60.589298
11
-151.020810
21
60.814598
0
LINE
8
Shape2DView001
10
-151.880809
20
59.954599
11
-151.552809
21
60.179898
0
LINE
8
Shape2DView001
10
-163.934793
20
63.149295
11
-164.211543
21
63.270182
0
LINE
8
Shape2DView001
10
-164.211543
20
63.270182
11
-164.303793
21
63.559294
0
LINE
8
Shape2DView001
10
-164.303793
20
63.559294
11
-164.131356
21
64.513655
0
LINE
8
Shape2DView001
10
-164.131356
20
64.513655
11
-163.774044
21
65.414767
0
LINE
8
Shape2DView001
10
-163.774044
20
65.414767
11
-163.251357
21
66.231616
0
LINE
8
Shape2DView001
10
-163.251357
20
66.231616
11
-162.582795
21
66.933190
0
LINE
8
Shape2DView001
10
-162.582795
20
66.933190
11
-161.346047
21
67.696989
0
LINE
8
Shape2DView001
10
-161.346047
20
67.696989
11
-159.924799
21
67.982588
0
LINE
8
Shape2DView001
10
-157.901801
20
62.923895
11
-158.050801
21
64.212493
0
LINE
8
Shape2DView001
10
-158.050801
20
64.212493
11
-158.251801
21
64.732693
0
LINE
8
Shape2DView001
10
-158.251801
20
64.732693
11
-158.716800
21
65.271592
0
LINE
8
Shape2DView001
10
-158.716800
20
65.271592
11
-159.212299
21
65.499629
0
LINE
8
Shape2DView001
10
-159.212299
20
65.499629
11
-159.761799
21
65.565892
0
LINE
8
Shape2DView001
10
-157.532802
20
62.555295
11
-157.794176
21
62.662945
0
LINE
8
Shape2DView001
10
-157.794176
20
62.662945
11
-157.901801
21
62.923895
0
LINE
8
Shape2DView001
10
-156.857802
20
66.651290
11
-156.554053
21
66.523853
0
LINE
8
Shape2DView001
10
-156.554053
20
66.523853
11
-156.263803
21
66.671890
0
LINE
8
Shape2DView001
10
-156.263803
20
66.671890
11
-155.676804
21
67.267089
0
LINE
8
Shape2DView001
10
-155.676804
20
67.267089
11
-155.048805
21
67.641901
0
LINE
8
Shape2DView001
10
-155.048805
20
67.641901
11
-154.345806
21
67.876989
0
LINE
8
Shape2DView001
10
-154.345806
20
67.876989
11
-153.355807
21
67.982588
0
LINE
8
Shape2DView001
10
-151.778809
20
63.538594
11
-152.217808
21
64.848993
0
LINE
8
Shape2DView001
10
-152.217808
20
64.848993
11
-152.694808
21
65.352392
0
LINE
8
Shape2DView001
10
-152.694808
20
65.352392
11
-153.539806
21
65.565892
0
LINE
8
Shape2DView001
10
-151.409809
20
63.251894
11
-151.647559
21
63.333219
0
LINE
8
Shape2DView001
10
-151.647559
20
63.333219
11
-151.778809
21
63.538594
0
LINE
8
Shape2DView001
10
-164.242793
20
78.002576
11
-164.436543
21
77.874438
0
LINE
8
Shape2DView001
10
-164.436543
20
77.874438
11
-164.508793
21
77.654576
0
LINE
8
Shape2DView001
10
-164.508793
20
75.585879
11
-164.437293
21
75.348742
0
LINE
8
Shape2DView001
10
-164.437293
20
75.348742
11
-164.242793
21
75.217279
0
LINE
8
Shape2DView001
10
-164.118793
20
87.815863
11
-164.374168
21
87.696701
0
LINE
8
Shape2DView001
10
-164.374168
20
87.696701
11
-164.487793
21
87.426564
0
LINE
8
Shape2DView001
10
-164.487793
20
85.542566
11
-164.373418
21
85.282429
0
LINE
8
Shape2DView001
10
-164.373418
20
85.282429
11
-164.118793
21
85.173867
0
LINE
8
Shape2DView001
10
-151.749809
20
95.741254
11
-151.641809
21
96.002353
0
LINE
8
Shape2DView001
10
-151.641809
20
96.002353
11
-151.380809
21
96.109853
0
LINE
8
Shape2DView001
10
-151.606809
20
89.679261
11
-151.749809
21
89.843261
0
LINE
8
Shape2DView001
10
-151.749809
20
109.565236
11
-151.641809
21
109.826236
0
LINE
8
Shape2DView001
10
-151.641809
20
109.826236
11
-151.380809
21
109.934236
0
LINE
8
Shape2DView001
10
-151.606809
20
103.503244
11
-151.749809
21
103.667243
0
LINE
8
Shape2DView001
10
-164.118793
20
101.640246
11
-164.374168
21
101.520621
0
LINE
8
Shape2DView001
10
-164.374168
20
101.520621
11
-164.487793
21
101.250247
0
LINE
8
Shape2DView001
10
-164.487793
20
99.366549
11
-164.373418
21
99.106412
0
LINE
8
Shape2DView001
10
-164.373418
20
99.106412
11
-164.118793
21
98.997849
0
LINE
8
Shape2DView001
10
-158.062678
20
-86.989308
11
-158.062678
21
-86.989308
0
LINE
8
Shape2DView001
10
-155.889922
20
-83.959833
11
-155.889922
21
-83.959833
0
LINE
8
Shape2DView001
10
-149.500772
20
-86.989308
11
-149.500772
21
-86.989308
0
LINE
8
Shape2DView001
10
-162.458724
20
-79.308463
11
-162.458724
21
-79.308463
0
LINE
8
Shape2DView001
10
-149.701855
20
-73.379158
11
-149.701855
21
-73.379158
0
LINE
8
Shape2DView001
10
-149.721699
20
-65.084481
11
-149.721699
21
-65.084481
0
LINE
8
Shape2DView001
10
-149.701855
20
-59.554697
11
-149.701855
21
-59.554697
0
LINE
8
Shape2DView001
10
-149.496803
20
-53.622746
11
-149.496803
21
-53.622746
0
LINE
8
Shape2DView001
10
-158.062678
20
-39.586618
11
-158.062678
21
-39.586618
0
LINE
8
Shape2DView001
10
-155.889922
20
-36.557142
11
-155.889922
21
-36.557142
0
LINE
8
Shape2DView001
10
-149.500772
20
-39.586618
11
-149.500772
21
-39.586618
0
LINE
8
Shape2DView001
10
-162.458724
20
-31.905773
11
-162.458724
21
-31.905773
0
LINE
8
Shape2DView001
10
-149.701855
20
-25.976468
11
-149.701855
21
-25.976468
0
LINE
8
Shape2DView001
10
-149.721699
20
-17.681791
11
-149.721699
21
-17.681791
0
LINE
8
Shape2DView001
10
-162.350775
20
-10.635946
11
-162.350775
21
-10.635946
0
LINE
8
Shape2DView001
10
-153.995773
20
-12.337214
11
-153.995773
21
-12.337214
0
LINE
8
Shape2DView001
10
-149.325883
20
-10.635946
11
-149.325883
21
-10.635946
0
LINE
8
Shape2DView001
10
-149.496803
20
1.672455
11
-149.496803
21
1.672455
0
LINE
8
Shape2DView001
10
-149.496803
20
25.950591
11
-149.496803
21
25.950591
0
LINE
8
Shape2DView001
10
-149.701855
20
39.986720
11
-149.701855
21
39.986720
0
LINE
8
Shape2DView001
10
-149.496803
20
45.917348
11
-149.496803
21
45.917348
0
LINE
8
Shape2DView001
10
-149.434891
20
54.047983
11
-149.434891
21
54.047983
0
LINE
8
Shape2DView001
10
-156.602709
20
54.047983
11
-156.602709
21
54.047983
0
LINE
8
Shape2DView001
10
-152.957814
20
76.077164
11
-152.957814
21
76.077164
0
LINE
8
Shape2DView001
10
-162.234887
20
60.732673
11
-162.234887
21
60.732673
0
LINE
8
Shape2DView001
10
-149.484897
20
60.814693
11
-149.484897
21
60.814693
0
LINE
8
Shape2DView001
10
-151.880696
20
59.954534
11
-151.880696
21
59.954534
0
LINE
8
Shape2DView001
10
-149.598932
20
81.955140
11
-149.598932
21
81.955140
0
LINE
8
Shape2DView001
10
-149.701855
20
87.815918
11
-149.701855
21
87.815918
0
LINE
8
Shape2DView001
10
-149.721699
20
96.109801
11
-149.721699
21
96.109801
0
LINE
8
Shape2DView001
10
-149.721699
20
109.934263
11
-149.721699
21
109.934263
0
LINE
8
Shape2DView001
10
-149.701855
20
101.640115
11
-149.701855
21
101.640115
0
LINE
8
Shape2DView001
10
-155.889922
20
-83.959833
11
-155.889922
21
-83.959833
0
LINE
8
Shape2DView001
10
-149.500772
20
-86.989308
11
-149.500772
21
-86.989308
0
LINE
8
Shape2DView001
10
-162.458724
20
-79.308463
11
-162.458724
21
-79.308463
0
LINE
8
Shape2DView001
10
-149.701855
20
-73.379158
11
-149.701855
21
-73.379158
0
LINE
8
Shape2DView001
10
-149.721699
20
-65.084481
11
-149.721699
21
-65.084481
0
LINE
8
Shape2DView001
10
-149.701855
20
-59.554697
11
-149.701855
21
-59.554697
0
LINE
8
Shape2DView001
10
-149.496803
20
-53.622746
11
-149.496803
21
-53.622746
0
LINE
8
Shape2DView001
10
-155.889922
20
-36.557142
11
-155.889922
21
-36.557142
0
LINE
8
Shape2DView001
10
-149.500772
20
-39.586618
11
-149.500772
21
-39.586618
0
LINE
8
Shape2DView001
10
-162.458724
20
-31.905773
11
-162.458724
21
-31.905773
0
LINE
8
Shape2DView001
10
-149.701855
20
-25.976468
11
-149.701855
21
-25.976468
0
LINE
8
Shape2DView001
10
-149.721699
20
-17.681791
11
-149.721699
21
-17.681791
0
LINE
8
Shape2DView001
10
-153.995773
20
-12.337214
11
-153.995773
21
-12.337214
0
LINE
8
Shape2DView001
10
-149.325883
20
-10.635946
11
-149.325883
21
-10.635946
0
LINE
8
Shape2DView001
10
-149.496803
20
1.672455
11
-149.496803
21
1.672455
0
LINE
8
Shape2DView001
10
-149.496803
20
25.950591
11
-149.496803
21
25.950591
0
LINE
8
Shape2DView001
10
-149.701855
20
39.986720
11
-149.701855
21
39.986720
0
LINE
8
Shape2DView001
10
-149.496803
20
45.917348
11
-149.496803
21
45.917348
0
LINE
8
Shape2DView001
10
-162.234887
20
60.732673
11
-162.234887
21
60.732673
0
LINE
8
Shape2DView001
10
-151.880696
20
59.954534
11
-151.880696
21
59.954534
0
LINE
8
Shape2DView001
10
-149.701855
20
87.815918
11
-149.701855
21
87.815918
0
LINE
8
Shape2DView001
10
-149.721699
20
96.109801
11
-149.721699
21
96.109801
0
LINE
8
Shape2DView001
10
-149.721699
20
109.934263
11
-149.721699
21
109.934263
0
LINE
8
Shape2DView001
10
-149.701855
20
101.640115
11
-149.701855
21
101.640115
0
LINE
8
Shape2DView003
10
348.000728
20
-132.000168
11
286.712722
21
-132.000168
0
LINE
8
Shape2DView003
10
348.000728
20
-96.800046
11
348.000728
21
-132.000168
0
LINE
8
Shape2DView003
10
341.899444
20
183.200206
11
348.000728
21
183.200206
0
LINE
8
Shape2DView003
10
341.899444
20
218.000014
11
341.899444
21
183.200206
0
LINE
8
Shape2DView003
10
348.000728
20
183.200206
11
348.000728
21
147.800059
0
LINE
8
Shape2DView003
10
341.899444
20
218.000014
11
323.624696
21
218.000014
0
LINE
8
Shape2DView003
10
341.899444
20
147.800059
11
348.000728
21
147.800059
0
LINE
8
Shape2DView003
10
341.899444
20
147.800059
11
341.899444
21
113.200275
0
LINE
8
Shape2DView003
10
341.899444
20
113.200275
11
348.000728
21
113.200275
0
LINE
8
Shape2DView003
10
348.000728
20
113.200275
11
348.000728
21
77.800393
0
LINE
8
Shape2DView003
10
341.899444
20
77.800393
11
348.000728
21
77.800393
0
LINE
8
Shape2DView003
10
341.899444
20
77.800393
11
341.899444
21
43.200345
0
LINE
8
Shape2DView003
10
341.899444
20
43.200345
11
348.000728
21
43.200345
0
LINE
8
Shape2DView003
10
348.000728
20
43.200345
11
348.000728
21
7.800198
0
LINE
8
Shape2DView003
10
341.899444
20
7.800198
11
348.000728
21
7.800198
0
LINE
8
Shape2DView003
10
341.899444
20
7.800198
11
341.899444
21
-26.799321
0
LINE
8
Shape2DView003
10
341.899444
20
-26.799321
11
348.000728
21
-26.799321
0
LINE
8
Shape2DView003
10
348.000728
20
-26.799321
11
348.000728
21
-62.200527
0
LINE
8
Shape2DView003
10
341.899444
20
-62.200527
11
348.000728
21
-62.200527
0
LINE
8
Shape2DView003
10
341.899444
20
-62.200527
11
341.899444
21
-96.800046
0
LINE
8
Shape2DView003
10
341.899444
20
-96.800046
11
348.000728
21
-96.800046
0
LINE
8
Shape2DView003
10
323.624696
20
218.000014
11
323.624696
21
223.999963
0
LINE
8
Shape2DView003
10
304.749345
20
223.999963
11
323.624696
21
223.999963
0
LINE
8
Shape2DView003
10
304.749345
20
218.000014
11
304.749345
21
223.999963
0
LINE
8
Shape2DView003
10
304.749345
20
218.000014
11
286.675680
21
218.000014
0
LINE
8
Shape2DView003
10
286.675680
20
218.000014
11
286.675680
21
223.999963
0
LINE
8
Shape2DView003
10
267.800329
20
223.999963
11
286.675680
21
223.999963
0
LINE
8
Shape2DView003
10
267.800329
20
218.000014
11
267.800329
21
223.999963
0
LINE
8
Shape2DView003
10
265.643978
20
198.805047
11
267.998767
21
218.000014
0
LINE
8
Shape2DView003
10
265.643978
20
198.805047
11
259.687685
21
199.536089
0
LINE
8
Shape2DView003
10
259.687685
20
199.536089
11
257.810734
21
184.251130
0
LINE
8
Shape2DView003
10
263.765703
20
183.520087
11
257.810734
21
184.251130
0
LINE
8
Shape2DView003
10
260.270562
20
155.055189
11
263.765703
21
183.520087
0
LINE
8
Shape2DView003
10
260.270562
20
155.055189
11
254.315592
21
155.786232
0
LINE
8
Shape2DView003
10
254.315592
20
155.786232
11
252.438640
21
140.501272
0
LINE
8
Shape2DView003
10
225.024667
20
-132.000168
11
258.394668
21
139.770229
0
LINE
8
Shape2DView003
10
258.394668
20
139.770229
11
252.438640
21
140.501272
0
LINE
8
Shape2DView003
10
225.024667
20
-132.000168
11
225.024667
21
-137.998264
0
LINE
8
Shape2DView003
10
225.024667
20
-137.998264
11
286.712722
21
-137.998264
0
LINE
8
Shape2DView003
10
267.800329
20
218.000014
11
267.998767
21
218.000014
0
LINE
8
Shape2DView003
10
286.712722
20
-132.000168
11
286.712722
21
-137.998264
0
LINE
8
Shape2DView003
10
264.548604
20
-67.918165
11
269.580973
21
-68.537289
0
LINE
8
Shape2DView003
10
264.057165
20
-67.289866
11
263.805901
21
-67.691973
0
LINE
8
Shape2DView003
10
263.805901
20
-67.691973
11
264.097820
21
-68.065612
0
LINE
8
Shape2DView003
10
264.097820
20
-68.065612
11
264.548769
21
-67.919090
0
LINE
8
Shape2DView003
10
268.424745
20
-31.731148
11
264.057538
21
-67.291104
0
LINE
8
Shape2DView003
10
269.053136
20
-31.238785
11
268.651030
21
-30.987521
0
LINE
8
Shape2DView003
10
268.651030
20
-30.987521
11
268.277390
21
-31.279440
0
LINE
8
Shape2DView003
10
268.277390
20
-31.279440
11
268.423912
21
-31.730388
0
LINE
8
Shape2DView003
10
269.051807
20
-31.239024
11
274.086821
21
-31.855502
0
LINE
8
Shape2DView003
10
274.578946
20
-32.485210
11
270.210680
21
-68.045165
0
LINE
8
Shape2DView003
10
273.652905
20
6.236512
11
278.687920
21
5.617388
0
LINE
8
Shape2DView003
10
273.162154
20
6.864741
11
272.910890
21
6.462634
0
LINE
8
Shape2DView003
10
272.910890
20
6.462634
11
273.202809
21
6.088995
0
LINE
8
Shape2DView003
10
273.202809
20
6.088995
11
273.653758
21
6.235516
0
LINE
8
Shape2DView003
10
277.529046
20
42.424323
11
273.163427
21
6.863574
0
LINE
8
Shape2DView003
10
278.158125
20
42.915822
11
277.756018
21
43.167086
0
LINE
8
Shape2DView003
10
277.756018
20
43.167086
11
277.382379
21
42.875167
0
LINE
8
Shape2DView003
10
277.382379
20
42.875167
11
277.528900
21
42.424218
0
LINE
8
Shape2DView003
10
278.158754
20
42.915918
11
283.191122
21
42.297852
0
LINE
8
Shape2DView003
10
283.683247
20
41.668674
11
279.317627
21
6.109512
0
LINE
8
Shape2DView003
10
291.864153
20
154.545073
11
296.896522
21
153.927272
0
LINE
8
Shape2DView003
10
291.372131
20
155.173654
11
291.120867
21
154.771547
0
LINE
8
Shape2DView003
10
291.120867
20
154.771547
11
291.412786
21
154.397908
0
LINE
8
Shape2DView003
10
291.412786
20
154.397908
11
291.863735
21
154.544429
0
LINE
8
Shape2DView003
10
295.737648
20
190.733148
11
291.372029
21
155.174252
0
LINE
8
Shape2DView003
10
296.368102
20
191.224635
11
295.965995
21
191.475899
0
LINE
8
Shape2DView003
10
295.965995
20
191.475899
11
295.592356
21
191.183980
0
LINE
8
Shape2DView003
10
295.592356
20
191.183980
11
295.738878
21
190.733032
0
LINE
8
Shape2DView003
10
296.367356
20
191.225008
11
301.399724
21
190.607207
0
LINE
8
Shape2DView003
10
301.891849
20
189.978029
11
297.526229
21
154.418073
0
LINE
8
Shape2DView003
10
282.759852
20
80.390131
11
287.792221
21
79.772065
0
LINE
8
Shape2DView003
10
282.267142
20
81.019347
11
282.015879
21
80.617241
0
LINE
8
Shape2DView003
10
282.015879
20
80.617241
11
282.307798
21
80.243601
0
LINE
8
Shape2DView003
10
282.307798
20
80.243601
11
282.758746
21
80.390123
0
LINE
8
Shape2DView003
10
286.633347
20
116.579265
11
282.267728
21
81.019310
0
LINE
8
Shape2DView003
10
287.263113
20
117.070729
11
286.861007
21
117.321992
0
LINE
8
Shape2DView003
10
286.861007
20
117.321992
11
286.487367
21
117.030073
0
LINE
8
Shape2DView003
10
286.487367
20
117.030073
11
286.633889
21
116.579125
0
LINE
8
Shape2DView003
10
287.263055
20
117.070331
11
292.295423
21
116.452265
0
LINE
8
Shape2DView003
10
292.787548
20
115.823351
11
288.421928
21
80.263661
0
LINE
8
Shape2DView003
10
329.499585
20
128.000213
11
329.265946
21
130.317861
0
LINE
8
Shape2DView003
10
329.265946
20
130.317861
11
328.595859
21
132.476526
0
LINE
8
Shape2DView003
10
328.595859
20
132.476526
11
327.535568
21
134.429964
0
LINE
8
Shape2DView003
10
327.535568
20
134.429964
11
326.131317
21
136.131930
0
LINE
8
Shape2DView003
10
326.131317
20
136.131930
11
324.429350
21
137.536181
0
LINE
8
Shape2DView003
10
324.429350
20
137.536181
11
322.475913
21
138.596472
0
LINE
8
Shape2DView003
10
322.475913
20
138.596472
11
320.317248
21
139.266559
0
LINE
8
Shape2DView003
10
320.317248
20
139.266559
11
317.999599
21
139.500198
0
LINE
8
Shape2DView003
10
317.999599
20
139.500198
11
315.681951
21
139.266559
0
LINE
8
Shape2DView003
10
315.681951
20
139.266559
11
313.523286
21
138.596472
0
LINE
8
Shape2DView003
10
313.523286
20
138.596472
11
311.569848
21
137.536181
0
LINE
8
Shape2DView003
10
311.569848
20
137.536181
11
309.867882
21
136.131930
0
LINE
8
Shape2DView003
10
309.867882
20
136.131930
11
308.463631
21
134.429964
0
LINE
8
Shape2DView003
10
308.463631
20
134.429964
11
307.403340
21
132.476526
0
LINE
8
Shape2DView003
10
307.403340
20
132.476526
11
306.733253
21
130.317861
0
LINE
8
Shape2DView003
10
306.733253
20
130.317861
11
306.499614
21
128.000213
0
LINE
8
Shape2DView003
10
306.499614
20
128.000213
11
306.733253
21
125.682565
0
LINE
8
Shape2DView003
10
306.733253
20
125.682565
11
307.403340
21
123.523900
0
LINE
8
Shape2DView003
10
307.403340
20
123.523900
11
308.463631
21
121.570462
0
LINE
8
Shape2DView003
10
308.463631
20
121.570462
11
309.867882
21
119.868496
0
LINE
8
Shape2DView003
10
309.867882
20
119.868496
11
311.569848
21
118.464245
0
LINE
8
Shape2DView003
10
311.569848
20
118.464245
11
313.523286
21
117.403954
0
LINE
8
Shape2DView003
10
313.523286
20
117.403954
11
315.681951
21
116.733867
0
LINE
8
Shape2DView003
10
315.681951
20
116.733867
11
317.999599
21
116.500228
0
LINE
8
Shape2DView003
10
317.999599
20
116.500228
11
320.317248
21
116.733867
0
LINE
8
Shape2DView003
10
320.317248
20
116.733867
11
322.475913
21
117.403954
0
LINE
8
Shape2DView003
10
322.475913
20
117.403954
11
324.429350
21
118.464245
0
LINE
8
Shape2DView003
10
324.429350
20
118.464245
11
326.131317
21
119.868496
0
LINE
8
Shape2DView003
10
326.131317
20
119.868496
11
327.535568
21
121.570462
0
LINE
8
Shape2DView003
10
327.535568
20
121.570462
11
328.595859
21
123.523900
0
LINE
8
Shape2DView003
10
328.595859
20
123.523900
11
329.265946
21
125.682565
0
LINE
8
Shape2DView003
10
329.265946
20
125.682565
11
329.499585
21
128.000213
0
LINE
8
Shape2DView003
10
329.499585
20
128.000213
11
329.499585
21
128.000213
0
LINE
8
Shape2DView003
10
296.897151
20
153.926678
11
297.074091
21
153.728433
0
LINE
8
Shape2DView003
10
297.074091
20
153.728433
11
297.335150
21
153.678870
0
LINE
8
Shape2DView003
10
297.335150
20
153.678870
11
297.572435
21
153.798471
0
LINE
8
Shape2DView003
10
297.572435
20
153.798471
11
297.687877
21
154.037808
0
LINE
8
Shape2DView003
10
302.140871
20
190.307762
11
302.086759
21
190.567917
0
LINE
8
Shape2DView003
10
302.086759
20
190.567917
11
301.885457
21
190.741370
0
LINE
8
Shape2DView003
10
301.885457
20
190.741370
11
301.620162
21
190.756434
0
LINE
8
Shape2DView003
10
301.620162
20
190.756434
11
301.400518
21
190.606884
0
LINE
8
Shape2DView003
10
301.892122
20
189.977660
11
302.140871
21
190.307762
0
LINE
8
Shape2DView003
10
297.687877
20
154.037808
11
297.526375
21
154.418282
0
LINE
8
Shape2DView003
10
287.792162
20
79.772172
11
287.969102
21
79.573927
0
LINE
8
Shape2DView003
10
287.969102
20
79.573927
11
288.230162
21
79.524363
0
LINE
8
Shape2DView003
10
288.230162
20
79.524363
11
288.467447
21
79.643965
0
LINE
8
Shape2DView003
10
288.467447
20
79.643965
11
288.582888
21
79.883301
0
LINE
8
Shape2DView003
10
293.035883
20
116.152855
11
292.981771
21
116.413010
0
LINE
8
Shape2DView003
10
292.981771
20
116.413010
11
292.780469
21
116.586464
0
LINE
8
Shape2DView003
10
292.780469
20
116.586464
11
292.515173
21
116.601528
0
LINE
8
Shape2DView003
10
292.515173
20
116.601528
11
292.295529
21
116.451977
0
LINE
8
Shape2DView003
10
292.787133
20
115.822753
11
293.035883
21
116.152855
0
LINE
8
Shape2DView003
10
288.582888
20
79.883301
11
288.421387
21
80.263775
0
LINE
8
Shape2DView003
10
278.687174
20
5.617545
11
278.864114
21
5.419300
0
LINE
8
Shape2DView003
10
278.864114
20
5.419300
11
279.125173
21
5.369737
0
LINE
8
Shape2DView003
10
279.125173
20
5.369737
11
279.362458
21
5.489338
0
LINE
8
Shape2DView003
10
279.362458
20
5.489338
11
279.477900
21
5.728674
0
LINE
8
Shape2DView003
10
283.930894
20
41.998749
11
283.876782
21
42.258903
0
LINE
8
Shape2DView003
10
283.876782
20
42.258903
11
283.675480
21
42.432357
0
LINE
8
Shape2DView003
10
283.675480
20
42.432357
11
283.410184
21
42.447421
0
LINE
8
Shape2DView003
10
283.410184
20
42.447421
11
283.190541
21
42.297871
0
LINE
8
Shape2DView003
10
283.682145
20
41.668647
11
283.930894
21
41.998749
0
LINE
8
Shape2DView003
10
279.477900
20
5.728674
11
279.316398
21
6.109149
0
LINE
8
Shape2DView003
10
269.582185
20
-68.537042
11
269.759125
21
-68.735286
0
LINE
8
Shape2DView003
10
269.759125
20
-68.735286
11
270.020185
21
-68.784850
0
LINE
8
Shape2DView003
10
270.020185
20
-68.784850
11
270.257469
21
-68.665248
0
LINE
8
Shape2DView003
10
270.257469
20
-68.665248
11
270.372911
21
-68.425912
0
LINE
8
Shape2DView003
10
274.825906
20
-32.155858
11
274.771794
21
-31.895703
0
LINE
8
Shape2DView003
10
274.771794
20
-31.895703
11
274.570492
21
-31.722249
0
LINE
8
Shape2DView003
10
274.570492
20
-31.722249
11
274.305196
21
-31.707185
0
LINE
8
Shape2DView003
10
274.305196
20
-31.707185
11
274.085552
21
-31.856736
0
LINE
8
Shape2DView003
10
274.577156
20
-32.485960
11
274.825906
21
-32.155858
0
LINE
8
Shape2DView003
10
270.372911
20
-68.425912
11
270.211410
21
-68.045438
0
LINE
8
Shape2DView004
10
-204.053818
20
-131.000044
11
-223.792768
21
-131.000044
0
LINE
8
Shape2DView004
10
-238.392723
20
-131.000044
11
-267.871767
21
-131.000044
0
LINE
8
Shape2DView004
10
-282.471457
20
-131.000044
11
-304.053492
21
-131.000044
0
LINE
8
Shape2DView004
10
-204.053818
20
131.000097
11
-204.053818
21
-131.000044
0
LINE
8
Shape2DView004
10
-223.792768
20
131.000097
11
-204.053818
21
131.000097
0
LINE
8
Shape2DView004
10
-223.792768
20
124.900136
11
-223.792768
21
131.000097
0
LINE
8
Shape2DView004
10
-223.792768
20
124.900136
11
-238.392723
21
124.900136
0
LINE
8
Shape2DView004
10
-238.392723
20
124.900136
11
-238.392723
21
131.000097
0
LINE
8
Shape2DView004
10
-267.871767
20
131.000097
11
-238.392723
21
131.000097
0
LINE
8
Shape2DView004
10
-267.871767
20
124.900136
11
-267.871767
21
131.000097
0
LINE
8
Shape2DView004
10
-267.871767
20
124.900136
11
-282.471457
21
124.900136
0
LINE
8
Shape2DView004
10
-282.471457
20
124.900136
11
-282.471457
21
131.000097
0
LINE
8
Shape2DView004
10
-304.053492
20
131.000097
11
-282.471457
21
131.000097
0
LINE
8
Shape2DView004
10
-256.373783
20
0.000291
11
-304.053492
21
131.000097
0
LINE
8
Shape2DView004
10
-304.053492
20
-131.000044
11
-256.373783
21
0.000291
0
LINE
8
Shape2DView004
10
-282.471457
20
-131.000044
11
-282.471457
21
-124.898760
0
LINE
8
Shape2DView004
10
-282.471457
20
-124.898760
11
-267.871767
21
-124.898760
0
LINE
8
Shape2DView004
10
-267.871767
20
-131.000044
11
-267.871767
21
-124.898760
0
LINE
8
Shape2DView004
10
-238.392723
20
-131.000044
11
-238.392723
21
-124.898760
0
LINE
8
Shape2DView004
10
-238.392723
20
-124.898760
11
-223.792768
21
-124.898760
0
LINE
8
Shape2DView004
10
-223.792768
20
-131.000044
11
-223.792768
21
-124.898760
0
LINE
8
Shape2DView004
10
-223.792768
20
-131.000044
11
-223.792768
21
-124.898760
0
LINE
8
Shape2DView004
10
-223.792768
20
-124.898760
11
-238.392723
21
-124.898760
0
LINE
8
Shape2DView004
10
-267.871767
20
-131.000044
11
-267.871767
21
-124.898760
0
LINE
8
Shape2DView004
10
-267.871767
20
-124.898760
11
-282.471457
21
-124.898760
0
LINE
8
Shape2DView005
10
158.336786
20
-131.513335
11
158.336786
21
-137.511432
0
LINE
8
Shape2DView005
10
93.999990
20
-61.311528
11
93.999990
21
-96.712733
0
LINE
8
Shape2DView005
10
93.999990
20
8.686551
11
93.999990
21
-26.712009
0
LINE
8
Shape2DView005
10
93.999990
20
78.687010
11
93.999990
21
43.287128
0
LINE
8
Shape2DView005
10
93.999990
20
148.687206
11
93.999990
21
113.287323
0
LINE
8
Shape2DView005
10
93.999990
20
218.487111
11
93.999990
21
183.287254
0
LINE
8
Shape2DView005
10
100.099951
20
-131.513335
11
158.336786
21
-131.513335
0
LINE
8
Shape2DView005
10
100.099951
20
-96.712733
11
93.999990
21
-96.712733
0
LINE
8
Shape2DView005
10
100.099951
20
-61.311528
11
93.999990
21
-61.311528
0
LINE
8
Shape2DView005
10
100.099951
20
-26.712009
11
93.999990
21
-26.712009
0
LINE
8
Shape2DView005
10
100.099951
20
8.686551
11
93.999990
21
8.686551
0
LINE
8
Shape2DView005
10
100.099951
20
43.287128
11
93.999990
21
43.287128
0
LINE
8
Shape2DView005
10
100.099951
20
78.687010
11
93.999990
21
78.687010
0
LINE
8
Shape2DView005
10
100.099951
20
113.287323
11
93.999990
21
113.287323
0
LINE
8
Shape2DView005
10
100.099951
20
148.687206
11
93.999990
21
148.687206
0
LINE
8
Shape2DView005
10
100.099951
20
183.287254
11
93.999990
21
183.287254
0
LINE
8
Shape2DView005
10
93.999990
20
218.487111
11
113.799794
21
218.487111
0
LINE
8
Shape2DView005
10
100.099951
20
-96.712733
11
100.099951
21
-131.513335
0
LINE
8
Shape2DView005
10
100.099951
20
183.287254
11
100.099951
21
148.687206
0
LINE
8
Shape2DView005
10
100.099951
20
113.287323
11
100.099951
21
78.687010
0
LINE
8
Shape2DView005
10
100.099951
20
43.287128
11
100.099951
21
8.686551
0
LINE
8
Shape2DView005
10
216.974729
20
-137.511432
11
158.336786
21
-137.511432
0
LINE
8
Shape2DView005
10
216.974729
20
-131.513335
11
216.974729
21
-137.511432
0
LINE
8
Shape2DView005
10
100.099951
20
-26.712009
11
100.099951
21
-61.311528
0
LINE
8
Shape2DView005
10
113.799794
20
218.487111
11
113.799794
21
224.487060
0
LINE
8
Shape2DView005
10
134.199937
20
224.487060
11
113.799794
21
224.487060
0
LINE
8
Shape2DView005
10
134.199937
20
218.487111
11
134.199937
21
224.487060
0
LINE
8
Shape2DView005
10
134.199937
20
218.487111
11
153.799717
21
218.487111
0
LINE
8
Shape2DView005
10
153.799717
20
218.487111
11
153.799717
21
224.487060
0
LINE
8
Shape2DView005
10
174.199860
20
224.487060
11
153.799717
21
224.487060
0
LINE
8
Shape2DView005
10
174.199860
20
218.487111
11
174.199860
21
224.487060
0
LINE
8
Shape2DView005
10
176.356740
20
199.292144
11
173.999835
21
218.487111
0
LINE
8
Shape2DView005
10
176.356740
20
199.292144
11
182.311710
21
200.023187
0
LINE
8
Shape2DView005
10
182.311710
20
200.023187
11
184.188662
21
184.738227
0
LINE
8
Shape2DView005
10
178.233692
20
184.007184
11
184.188662
21
184.738227
0
LINE
8
Shape2DView005
10
181.728834
20
155.542287
11
178.233692
21
184.007184
0
LINE
8
Shape2DView005
10
181.728834
20
155.542287
11
187.683803
21
156.273065
0
LINE
8
Shape2DView005
10
187.683803
20
156.273065
11
189.560755
21
140.988105
0
LINE
8
Shape2DView005
10
183.604727
20
140.257327
11
189.560755
21
140.988105
0
LINE
8
Shape2DView005
10
216.974729
20
-131.513335
11
183.604727
21
140.257327
0
LINE
8
Shape2DView005
10
216.974729
20
-131.513335
11
216.974729
21
-131.513335
0
LINE
8
Shape2DView005
10
174.199860
20
218.487111
11
173.999835
21
218.487111
0
LINE
8
Shape2DView005
10
123.999844
20
116.987227
11
126.317489
21
117.220871
0
LINE
8
Shape2DView005
10
126.317489
20
117.220871
11
128.476151
21
117.890963
0
LINE
8
Shape2DView005
10
128.476151
20
117.890963
11
130.429585
21
118.951258
0
LINE
8
Shape2DView005
10
130.429585
20
118.951258
11
132.131547
21
120.355511
0
LINE
8
Shape2DView005
10
132.131547
20
120.355511
11
133.535794
21
122.057479
0
LINE
8
Shape2DView005
10
133.535794
20
122.057479
11
134.596080
21
124.010917
0
LINE
8
Shape2DView005
10
134.596080
20
124.010917
11
135.266163
21
126.169581
0
LINE
8
Shape2DView005
10
135.266163
20
126.169581
11
135.499799
21
128.487228
0
LINE
8
Shape2DView005
10
135.499799
20
128.487228
11
135.266157
21
130.804873
0
LINE
8
Shape2DView005
10
135.266157
20
130.804873
11
134.596069
21
132.963536
0
LINE
8
Shape2DView005
10
134.596069
20
132.963536
11
133.535777
21
134.916972
0
LINE
8
Shape2DView005
10
133.535777
20
134.916972
11
132.131526
21
136.618936
0
LINE
8
Shape2DView005
10
132.131526
20
136.618936
11
130.429560
21
138.023184
0
LINE
8
Shape2DView005
10
130.429560
20
138.023184
11
128.476123
21
139.083474
0
LINE
8
Shape2DView005
10
128.476123
20
139.083474
11
126.317459
21
139.753560
0
LINE
8
Shape2DView005
10
126.317459
20
139.753560
11
123.999813
21
139.987198
0
LINE
8
Shape2DView005
10
123.999813
20
139.987198
11
121.682167
21
139.753560
0
LINE
8
Shape2DView005
10
121.682167
20
139.753560
11
119.523504
21
139.083474
0
LINE
8
Shape2DView005
10
119.523504
20
139.083474
11
117.570067
21
138.023184
0
LINE
8
Shape2DView005
10
117.570067
20
138.023184
11
115.868101
21
136.618936
0
LINE
8
Shape2DView005
10
115.868101
20
136.618936
11
114.463850
21
134.916972
0
LINE
8
Shape2DView005
10
114.463850
20
134.916972
11
113.403558
21
132.963536
0
LINE
8
Shape2DView005
10
113.403558
20
132.963536
11
112.733469
21
130.804873
0
LINE
8
Shape2DView005
10
112.733469
20
130.804873
11
112.499828
21
128.487228
0
LINE
8
Shape2DView005
10
112.499828
20
128.487228
11
112.733463
21
126.169581
0
LINE
8
Shape2DView005
10
112.733463
20
126.169581
11
113.403546
21
124.010917
0
LINE
8
Shape2DView005
10
113.403546
20
124.010917
11
114.463833
21
122.057479
0
LINE
8
Shape2DView005
10
114.463833
20
122.057479
11
115.868079
21
120.355511
0
LINE
8
Shape2DView005
10
115.868079
20
120.355511
11
117.570042
21
118.951258
0
LINE
8
Shape2DView005
10
117.570042
20
118.951258
11
119.523476
21
117.890963
0
LINE
8
Shape2DView005
10
119.523476
20
117.890963
11
121.682137
21
117.220871
0
LINE
8
Shape2DView005
10
121.682137
20
117.220871
11
123.999783
21
116.987227
0
LINE
8
Shape2DView005
10
177.450675
20
-67.432291
11
177.670318
21
-67.581841
0
LINE
8
Shape2DView005
10
177.670318
20
-67.581841
11
177.935613
21
-67.566776
0
LINE
8
Shape2DView005
10
177.935613
20
-67.566776
11
178.136915
21
-67.393324
0
LINE
8
Shape2DView005
10
178.136915
20
-67.393324
11
178.191028
21
-67.133169
0
LINE
8
Shape2DView005
10
172.417893
20
-68.050457
11
177.450791
21
-67.431333
0
LINE
8
Shape2DView005
10
171.788034
20
-67.558638
11
171.641512
21
-68.009586
0
LINE
8
Shape2DView005
10
171.641512
20
-68.009586
11
172.015150
21
-68.301505
0
LINE
8
Shape2DView005
10
172.015150
20
-68.301505
11
172.417257
21
-68.050244
0
LINE
8
Shape2DView005
10
171.787656
20
-67.558332
11
167.421772
21
-31.998377
0
LINE
8
Shape2DView005
10
167.913891
20
-31.369936
11
167.462942
21
-31.223415
0
LINE
8
Shape2DView005
10
167.462942
20
-31.223415
11
167.171023
21
-31.597055
0
LINE
8
Shape2DView005
10
167.171023
20
-31.597055
11
167.422288
21
-31.999161
0
LINE
8
Shape2DView005
10
167.913897
20
-31.368670
11
172.946795
21
-30.752191
0
LINE
8
Shape2DView005
10
173.737033
20
-30.863115
11
173.621592
21
-30.623779
0
LINE
8
Shape2DView005
10
173.621592
20
-30.623779
11
173.384307
21
-30.504177
0
LINE
8
Shape2DView005
10
173.384307
20
-30.504177
11
173.123247
21
-30.553740
0
LINE
8
Shape2DView005
10
173.123247
20
-30.553740
11
172.946307
21
-30.751985
0
LINE
8
Shape2DView005
10
173.575530
20
-31.243590
11
173.737033
21
-30.863115
0
LINE
8
Shape2DView005
10
177.941857
20
-66.804271
11
173.575708
21
-31.244316
0
LINE
8
Shape2DView005
10
178.191028
20
-67.133169
11
177.942278
21
-66.803066
0
LINE
8
Shape2DView005
10
168.345686
20
6.722355
11
168.565329
21
6.572805
0
LINE
8
Shape2DView005
10
168.565329
20
6.572805
11
168.830625
21
6.587870
0
LINE
8
Shape2DView005
10
168.830625
20
6.587870
11
169.031927
21
6.761323
0
LINE
8
Shape2DView005
10
169.031927
20
6.761323
11
169.086039
21
7.021477
0
LINE
8
Shape2DView005
10
163.312798
20
6.104221
11
168.345696
21
6.723345
0
LINE
8
Shape2DView005
10
162.683045
20
6.595998
11
162.536523
21
6.145050
0
LINE
8
Shape2DView005
10
162.536523
20
6.145050
11
162.910162
21
5.853131
0
LINE
8
Shape2DView005
10
162.910162
20
5.853131
11
163.312269
21
6.104393
0
LINE
8
Shape2DView005
10
162.682826
20
6.596345
11
158.316678
21
42.155506
0
LINE
8
Shape2DView005
10
158.808903
20
42.784670
11
158.357954
21
42.931192
0
LINE
8
Shape2DView005
10
158.357954
20
42.931192
11
158.066035
21
42.557552
0
LINE
8
Shape2DView005
10
158.066035
20
42.557552
11
158.317300
21
42.155446
0
LINE
8
Shape2DView005
10
158.808802
20
42.784685
11
163.841700
21
43.402751
0
LINE
8
Shape2DView005
10
164.632045
20
43.291491
11
164.516603
21
43.530828
0
LINE
8
Shape2DView005
10
164.516603
20
43.530828
11
164.279318
21
43.650430
0
LINE
8
Shape2DView005
10
164.279318
20
43.650430
11
164.018259
21
43.600867
0
LINE
8
Shape2DView005
10
164.018259
20
43.600867
11
163.841319
21
43.402622
0
LINE
8
Shape2DView005
10
164.470541
20
42.911017
11
164.632045
21
43.291491
0
LINE
8
Shape2DView005
10
168.836762
20
7.350407
11
164.470878
21
42.910891
0
LINE
8
Shape2DView005
10
169.086039
20
7.021477
11
168.837289
21
7.351580
0
LINE
8
Shape2DView005
10
159.240698
20
80.876922
11
159.460341
21
80.727372
0
LINE
8
Shape2DView005
10
159.460341
20
80.727372
11
159.725636
21
80.742436
0
LINE
8
Shape2DView005
10
159.725636
20
80.742436
11
159.926938
21
80.915889
0
LINE
8
Shape2DView005
10
159.926938
20
80.915889
11
159.981051
21
81.176044
0
LINE
8
Shape2DView005
10
154.207704
20
80.258898
11
159.240866
21
80.876964
0
LINE
8
Shape2DView005
10
153.578056
20
80.750575
11
153.431535
21
80.299627
0
LINE
8
Shape2DView005
10
153.431535
20
80.299627
11
153.805173
21
80.007707
0
LINE
8
Shape2DView005
10
153.805173
20
80.007707
11
154.207280
21
80.258970
0
LINE
8
Shape2DView005
10
153.577732
20
80.750493
11
149.211847
21
116.310184
0
LINE
8
Shape2DView005
10
149.703914
20
116.938977
11
149.252965
21
117.085498
0
LINE
8
Shape2DView005
10
149.252965
20
117.085498
11
148.961046
21
116.711858
0
LINE
8
Shape2DView005
10
148.961046
20
116.711858
11
149.212311
21
116.309752
0
LINE
8
Shape2DView005
10
149.703707
20
116.939098
11
154.736870
21
117.557164
0
LINE
8
Shape2DView005
10
155.527056
20
117.446598
11
155.411615
21
117.685935
0
LINE
8
Shape2DView005
10
155.411615
20
117.685935
11
155.174330
21
117.805537
0
LINE
8
Shape2DView005
10
155.174330
20
117.805537
11
154.913270
21
117.755973
0
LINE
8
Shape2DView005
10
154.913270
20
117.755973
11
154.736330
21
117.557728
0
LINE
8
Shape2DView005
10
155.365553
20
117.066123
11
155.527056
21
117.446598
0
LINE
8
Shape2DView005
10
159.731668
20
81.506142
11
155.365783
21
117.065304
0
LINE
8
Shape2DView005
10
159.981051
20
81.176044
11
159.732301
21
81.506147
0
LINE
8
Shape2DView005
10
150.135709
20
155.031428
11
150.355352
21
154.881879
0
LINE
8
Shape2DView005
10
150.355352
20
154.881879
11
150.620648
21
154.896943
0
LINE
8
Shape2DView005
10
150.620648
20
154.896943
11
150.821950
21
155.070396
0
LINE
8
Shape2DView005
10
150.821950
20
155.070396
11
150.876062
21
155.330550
0
LINE
8
Shape2DView005
10
145.102873
20
154.413311
11
150.134713
21
155.031112
0
LINE
8
Shape2DView005
10
144.473068
20
154.905281
11
144.326546
21
154.454333
0
LINE
8
Shape2DView005
10
144.326546
20
154.454333
11
144.700185
21
154.162414
0
LINE
8
Shape2DView005
10
144.700185
20
154.162414
11
145.102292
21
154.413676
0
LINE
8
Shape2DView005
10
144.472901
20
154.905171
11
140.106753
21
190.465126
0
LINE
8
Shape2DView005
10
140.598925
20
191.093883
11
140.147977
21
191.240405
0
LINE
8
Shape2DView005
10
140.147977
20
191.240405
11
139.856058
21
190.866765
0
LINE
8
Shape2DView005
10
139.856058
20
190.866765
11
140.107323
21
190.464659
0
LINE
8
Shape2DView005
10
140.598877
20
191.094040
11
145.631775
21
191.712106
0
LINE
8
Shape2DView005
10
146.422068
20
191.600504
11
146.306626
21
191.839841
0
LINE
8
Shape2DView005
10
146.306626
20
191.839841
11
146.069341
21
191.959443
0
LINE
8
Shape2DView005
10
146.069341
20
191.959443
11
145.808282
21
191.909880
0
LINE
8
Shape2DView005
10
145.808282
20
191.909880
11
145.631341
21
191.711635
0
LINE
8
Shape2DView005
10
146.260564
20
191.220030
11
146.422068
21
191.600504
0
LINE
8
Shape2DView005
10
150.626837
20
155.661084
11
146.260689
21
191.220246
0
LINE
8
Shape2DView005
10
150.876062
20
155.330550
11
150.627312
21
155.660653
0
LINE
8
Shape2DView005
10
167.913897
20
-31.368670
11
172.946795
21
-30.752191
0
LINE
8
Shape2DView005
10
167.583789
20
-31.205353
11
167.225832
21
-31.412020
0
LINE
8
Shape2DView005
10
167.225832
20
-31.412020
11
167.225832
21
-31.825352
0
LINE
8
Shape2DView005
10
167.225832
20
-31.825352
11
167.583789
21
-32.032018
0
LINE
8
Shape2DView005
10
167.583789
20
-32.032018
11
167.941745
21
-31.825352
0
LINE
8
Shape2DView005
10
167.941745
20
-31.825352
11
167.941745
21
-31.412020
0
LINE
8
Shape2DView005
10
167.941745
20
-31.412020
11
167.583789
21
-31.205353
0
LINE
8
Shape2DView005
10
167.583789
20
-31.205353
11
167.583789
21
-31.205353
0
LINE
8
Shape2DView005
10
167.583788
20
-31.205353
11
167.322270
21
-31.298604
0
LINE
8
Shape2DView005
10
167.322270
20
-31.298604
11
167.178753
21
-31.536281
0
LINE
8
Shape2DView005
10
167.178753
20
-31.536281
11
167.217994
21
-31.811141
0
LINE
8
Shape2DView005
10
167.217994
20
-31.811141
11
167.422288
21
-31.999161
0
LINE
8
Shape2DView005
10
167.421772
20
-31.998377
11
171.787656
21
-67.558332
0
LINE
8
Shape2DView005
10
171.788034
20
-67.558638
11
171.642042
21
-67.766170
0
LINE
8
Shape2DView005
10
171.642042
20
-67.766170
11
171.644810
21
-68.019892
0
LINE
8
Shape2DView005
10
171.644810
20
-68.019892
11
171.795293
21
-68.224190
0
LINE
8
Shape2DView005
10
171.795293
20
-68.224190
11
172.036782
21
-68.302073
0
LINE
8
Shape2DView005
10
177.450791
20
-67.431333
11
177.450791
21
-67.431333
0
LINE
8
Shape2DView005
10
158.808802
20
42.784685
11
163.841700
21
43.402751
0
LINE
8
Shape2DView005
10
158.478800
20
42.949253
11
158.120844
21
42.742587
0
LINE
8
Shape2DView005
10
158.120844
20
42.742587
11
158.120844
21
42.329254
0
LINE
8
Shape2DView005
10
158.120844
20
42.329254
11
158.478800
21
42.122588
0
LINE
8
Shape2DView005
10
158.478800
20
42.122588
11
158.836757
21
42.329254
0
LINE
8
Shape2DView005
10
158.836757
20
42.329254
11
158.836757
21
42.742587
0
LINE
8
Shape2DView005
10
158.836757
20
42.742587
11
158.478800
21
42.949253
0
LINE
8
Shape2DView005
10
158.478800
20
42.949253
11
158.478800
21
42.949253
0
LINE
8
Shape2DView005
10
158.478800
20
42.949253
11
158.217282
21
42.856002
0
LINE
8
Shape2DView005
10
158.217282
20
42.856002
11
158.073765
21
42.618325
0
LINE
8
Shape2DView005
10
158.073765
20
42.618325
11
158.113007
21
42.343466
0
LINE
8
Shape2DView005
10
158.113007
20
42.343466
11
158.317300
21
42.155446
0
LINE
8
Shape2DView005
10
158.316678
20
42.155506
11
162.682826
21
6.596345
0
LINE
8
Shape2DView005
10
162.683045
20
6.595998
11
162.537054
21
6.388467
0
LINE
8
Shape2DView005
10
162.537054
20
6.388467
11
162.539822
21
6.134744
0
LINE
8
Shape2DView005
10
162.539822
20
6.134744
11
162.690305
21
5.930447
0
LINE
8
Shape2DView005
10
162.690305
20
5.930447
11
162.931794
21
5.852564
0
LINE
8
Shape2DView005
10
168.345696
20
6.723345
11
168.345696
21
6.723345
0
LINE
8
Shape2DView005
10
149.703707
20
116.939098
11
154.736870
21
117.557164
0
LINE
8
Shape2DView005
10
149.373812
20
117.103560
11
149.015856
21
116.896893
0
LINE
8
Shape2DView005
10
149.015856
20
116.896893
11
149.015856
21
116.483561
0
LINE
8
Shape2DView005
10
149.015856
20
116.483561
11
149.373812
21
116.276895
0
LINE
8
Shape2DView005
10
149.373812
20
116.276895
11
149.731768
21
116.483561
0
LINE
8
Shape2DView005
10
149.731768
20
116.483561
11
149.731768
21
116.896893
0
LINE
8
Shape2DView005
10
149.731768
20
116.896893
11
149.373812
21
117.103559
0
LINE
8
Shape2DView005
10
149.373812
20
117.103559
11
149.373812
21
117.103560
0
LINE
8
Shape2DView005
10
149.373811
20
117.103560
11
149.112293
21
117.010308
0
LINE
8
Shape2DView005
10
149.112293
20
117.010308
11
148.968777
21
116.772631
0
LINE
8
Shape2DView005
10
148.968777
20
116.772631
11
149.008018
21
116.497772
0
LINE
8
Shape2DView005
10
149.008018
20
116.497772
11
149.212311
21
116.309752
0
LINE
8
Shape2DView005
10
149.211847
20
116.310184
11
153.577732
21
80.750493
0
LINE
8
Shape2DView005
10
153.578056
20
80.750575
11
153.432065
21
80.543043
0
LINE
8
Shape2DView005
10
153.432065
20
80.543043
11
153.434833
21
80.289321
0
LINE
8
Shape2DView005
10
153.434833
20
80.289321
11
153.585316
21
80.085023
0
LINE
8
Shape2DView005
10
153.585316
20
80.085023
11
153.826805
21
80.007140
0
LINE
8
Shape2DView005
10
159.240866
20
80.876964
11
159.240866
21
80.876964
0
LINE
8
Shape2DView005
10
140.598877
20
191.094040
11
145.631775
21
191.712106
0
LINE
8
Shape2DView005
10
140.268823
20
191.258466
11
139.910867
21
191.051800
0
LINE
8
Shape2DView005
10
139.910867
20
191.051800
11
139.910867
21
190.638468
0
LINE
8
Shape2DView005
10
139.910867
20
190.638468
11
140.268823
21
190.431801
0
LINE
8
Shape2DView005
10
140.268823
20
190.431801
11
140.626780
21
190.638468
0
LINE
8
Shape2DView005
10
140.626780
20
190.638468
11
140.626780
21
191.051800
0
LINE
8
Shape2DView005
10
140.626780
20
191.051800
11
140.268823
21
191.258466
0
LINE
8
Shape2DView005
10
140.268823
20
191.258466
11
140.268823
21
191.258466
0
LINE
8
Shape2DView005
10
140.268823
20
191.258466
11
140.007305
21
191.165215
0
LINE
8
Shape2DView005
10
140.007305
20
191.165215
11
139.863788
21
190.927538
0
LINE
8
Shape2DView005
10
139.863788
20
190.927538
11
139.903029
21
190.652679
0
LINE
8
Shape2DView005
10
139.903029
20
190.652679
11
140.107323
21
190.464659
0
LINE
8
Shape2DView005
10
140.106753
20
190.465126
11
144.472901
21
154.905171
0
LINE
8
Shape2DView005
10
144.473068
20
154.905281
11
144.327077
21
154.697750
0
LINE
8
Shape2DView005
10
144.327077
20
154.697750
11
144.329845
21
154.444028
0
LINE
8
Shape2DView005
10
144.329845
20
154.444028
11
144.480328
21
154.239730
0
LINE
8
Shape2DView005
10
144.480328
20
154.239730
11
144.721817
21
154.161847
0
LINE
8
Shape2DView005
10
150.134713
20
155.031112
11
150.134713
21
155.031112
0
LINE
8
Shape2DView005
10
177.450675
20
-67.432291
11
177.780775
21
-67.596874
0
LINE
8
Shape2DView005
10
173.326781
20
-30.500155
11
172.946307
21
-30.751985
0
LINE
8
Shape2DView005
10
168.345686
20
6.722355
11
168.675786
21
6.557773
0
LINE
8
Shape2DView005
10
164.221792
20
43.654452
11
163.841319
21
43.402622
0
LINE
8
Shape2DView005
10
159.240698
20
80.876922
11
159.570798
21
80.712340
0
LINE
8
Shape2DView005
10
155.116804
20
117.809559
11
154.736330
21
117.557728
0
LINE
8
Shape2DView005
10
150.135709
20
155.031428
11
150.465809
21
154.866846
0
LINE
8
Shape2DView005
10
146.011815
20
191.963465
11
145.631341
21
191.711635
0
LINE
8
Shape2DView006
10
-266.697018
20
181.000198
11
-266.697018
21
175.000250
0
LINE
8
Shape2DView006
10
-231.297665
20
175.000250
11
-266.697018
21
175.000250
0
LINE
8
Shape2DView006
10
-231.297665
20
181.000198
11
-231.297665
21
175.000250
0
LINE
8
Shape2DView006
10
-231.297665
20
181.000198
11
-196.697881
21
181.000198
0
LINE
8
Shape2DView006
10
-196.697881
20
181.000198
11
-196.697881
21
175.000250
0
LINE
8
Shape2DView006
10
-161.297734
20
175.000250
11
-196.697881
21
175.000250
0
LINE
8
Shape2DView006
10
-161.297734
20
181.000198
11
-161.297734
21
175.000250
0
LINE
8
Shape2DView006
10
-161.297734
20
181.000198
11
-126.697951
21
181.000198
0
LINE
8
Shape2DView006
10
-126.697951
20
181.000198
11
-126.697951
21
175.000250
0
LINE
8
Shape2DView006
10
-91.297539
20
175.000250
11
-126.697951
21
175.000250
0
LINE
8
Shape2DView006
10
-91.297539
20
181.000198
11
-91.297539
21
175.000250
0
LINE
8
Shape2DView006
10
-91.297539
20
181.000198
11
-56.697756
21
181.000198
0
LINE
8
Shape2DView006
10
-56.697756
20
181.000198
11
-56.697756
21
175.000250
0
LINE
8
Shape2DView006
10
-21.297662
20
175.000250
11
-56.697756
21
175.000250
0
LINE
8
Shape2DView006
10
-21.297662
20
181.000198
11
-21.297662
21
175.000250
0
LINE
8
Shape2DView006
10
-21.297662
20
181.000198
11
13.302281
21
181.000198
0
LINE
8
Shape2DView006
10
13.302281
20
181.000198
11
13.302281
21
175.000250
0
LINE
8
Shape2DView006
10
48.502297
20
175.000250
11
13.302281
21
175.000250
0
LINE
8
Shape2DView006
10
48.502297
20
181.000198
11
48.502297
21
175.000250
0
LINE
8
Shape2DView006
10
48.502297
20
216.914165
11
48.502297
21
252.229117
0
LINE
8
Shape2DView006
10
48.502297
20
252.229117
11
54.502246
21
252.229117
0
LINE
8
Shape2DView006
10
48.502297
20
216.914165
11
54.502246
21
216.914165
0
LINE
8
Shape2DView006
10
54.502246
20
288.343003
11
54.502246
21
252.229117
0
LINE
8
Shape2DView006
10
54.502246
20
216.914165
11
54.502246
21
181.000198
0
LINE
8
Shape2DView006
10
48.502297
20
181.000198
11
54.502246
21
181.000198
0
LINE
8
Shape2DView006
10
48.502297
20
288.343003
11
54.502246
21
288.343003
0
LINE
8
Shape2DView006
10
48.502297
20
288.343003
11
48.502297
21
323.657002
0
LINE
8
Shape2DView006
10
48.502297
20
323.657002
11
54.502246
21
323.657002
0
LINE
8
Shape2DView006
10
54.502246
20
359.770994
11
54.502246
21
323.657002
0
LINE
8
Shape2DView006
10
48.502297
20
359.770994
11
54.502246
21
359.770994
0
LINE
8
Shape2DView006
10
48.502297
20
359.770994
11
48.502297
21
395.085945
0
LINE
8
Shape2DView006
10
48.502297
20
395.085945
11
54.502246
21
395.085945
0
LINE
8
Shape2DView006
10
54.502246
20
430.999912
11
54.502246
21
395.085945
0
LINE
8
Shape2DView006
10
13.702277
20
430.999912
11
13.702277
21
436.999861
0
LINE
8
Shape2DView006
10
-21.697685
20
436.999861
11
13.702277
21
436.999861
0
LINE
8
Shape2DView006
10
-21.697685
20
430.999912
11
-21.697685
21
436.999861
0
LINE
8
Shape2DView006
10
-21.697685
20
430.999912
11
-56.297706
21
430.999912
0
LINE
8
Shape2DView006
10
-56.297706
20
430.999912
11
-56.297706
21
436.999861
0
LINE
8
Shape2DView006
10
-91.697589
20
436.999861
11
-56.297706
21
436.999861
0
LINE
8
Shape2DView006
10
-91.697589
20
430.999912
11
-91.697589
21
436.999861
0
LINE
8
Shape2DView006
10
-91.697589
20
430.999912
11
-126.297901
21
430.999912
0
LINE
8
Shape2DView006
10
-126.297901
20
430.999912
11
-126.297901
21
436.999861
0
LINE
8
Shape2DView006
10
-161.697784
20
436.999861
11
-126.297901
21
436.999861
0
LINE
8
Shape2DView006
10
-161.697784
20
430.999912
11
-161.697784
21
436.999861
0
LINE
8
Shape2DView006
10
-161.697784
20
430.999912
11
-196.297832
21
430.999912
0
LINE
8
Shape2DView006
10
-196.297832
20
430.999912
11
-196.297832
21
436.999861
0
LINE
8
Shape2DView006
10
-231.697714
20
436.999861
11
-196.297832
21
436.999861
0
LINE
8
Shape2DView006
10
-231.697714
20
430.999912
11
-231.697714
21
436.999861
0
LINE
8
Shape2DView006
10
-231.697714
20
430.999912
11
-266.297498
21
430.999912
0
LINE
8
Shape2DView006
10
-266.297498
20
430.999912
11
-266.297498
21
436.999861
0
LINE
8
Shape2DView006
10
-301.497620
20
436.999861
11
-266.297498
21
436.999861
0
LINE
8
Shape2DView006
10
-301.497620
20
430.999912
11
-301.497620
21
436.999861
0
LINE
8
Shape2DView006
10
-301.497620
20
430.999912
11
-307.498363
21
430.999912
0
LINE
8
Shape2DView006
10
-307.498363
20
395.085945
11
-307.498363
21
430.999912
0
LINE
8
Shape2DView006
10
-301.497620
20
395.085945
11
-307.498363
21
395.085945
0
LINE
8
Shape2DView006
10
-301.497620
20
395.085945
11
-301.497620
21
359.770994
0
LINE
8
Shape2DView006
10
-301.497620
20
359.770994
11
-307.498363
21
359.770994
0
LINE
8
Shape2DView006
10
-307.498363
20
323.657002
11
-307.498363
21
359.770994
0
LINE
8
Shape2DView006
10
-301.497620
20
323.657002
11
-307.498363
21
323.657002
0
LINE
8
Shape2DView006
10
-301.497620
20
323.657002
11
-301.497620
21
288.343003
0
LINE
8
Shape2DView006
10
-301.497620
20
288.343003
11
-307.498363
21
288.343003
0
LINE
8
Shape2DView006
10
-307.498363
20
252.229117
11
-307.498363
21
288.343003
0
LINE
8
Shape2DView006
10
-301.497620
20
252.229117
11
-307.498363
21
252.229117
0
LINE
8
Shape2DView006
10
-301.497620
20
252.229117
11
-301.497620
21
216.914165
0
LINE
8
Shape2DView006
10
-301.497620
20
216.914165
11
-307.498363
21
216.914165
0
LINE
8
Shape2DView006
10
-307.498363
20
181.000198
11
-307.498363
21
216.914165
0
LINE
8
Shape2DView006
10
13.702277
20
430.999912
11
54.502246
21
430.999912
0
LINE
8
Shape2DView006
10
-266.697018
20
181.000198
11
-307.498363
21
181.000198
0
LINE
8
Shape2DView007
10
371.998406
20
-80.181587
11
371.998406
21
-42.626676
0
LINE
8
Shape2DView007
10
366.000310
20
-42.626676
11
371.998406
21
-42.626676
0
LINE
8
Shape2DView007
10
355.999072
20
218.664117
11
355.999072
21
-80.181587
0
LINE
8
Shape2DView007
10
366.000310
20
218.664117
11
355.999072
21
218.664117
0
LINE
8
Shape2DView007
10
366.000310
20
218.664117
11
366.000310
21
181.508198
0
LINE
8
Shape2DView007
10
366.000310
20
181.508198
11
371.998406
21
181.508198
0
LINE
8
Shape2DView007
10
371.998406
20
143.752203
11
371.998406
21
181.508198
0
LINE
8
Shape2DView007
10
366.000310
20
143.752203
11
371.998406
21
143.752203
0
LINE
8
Shape2DView007
10
366.000310
20
143.752203
11
366.000310
21
106.797367
0
LINE
8
Shape2DView007
10
366.000310
20
106.797367
11
371.998406
21
106.797367
0
LINE
8
Shape2DView007
10
371.998406
20
69.041108
11
371.998406
21
106.797367
0
LINE
8
Shape2DView007
10
366.000310
20
69.041108
11
371.998406
21
69.041108
0
LINE
8
Shape2DView007
10
366.000310
20
69.041108
11
366.000310
21
32.086271
0
LINE
8
Shape2DView007
10
366.000310
20
32.086271
11
371.998406
21
32.086271
0
LINE
8
Shape2DView007
10
371.998406
20
-5.669723
11
371.998406
21
32.086271
0
LINE
8
Shape2DView007
10
366.000310
20
-5.669723
11
371.998406
21
-5.669723
0
LINE
8
Shape2DView007
10
366.000310
20
-5.669723
11
366.000310
21
-42.626676
0
LINE
8
Shape2DView007
10
355.999072
20
-80.181587
11
371.998406
21
-80.181587
 0 
ENDSEC
 0 
EOF