999
"DXF R12 Output" (www.mydxf.blogspot.com)
 0 
SECTION
 2 
HEADER
 9 
$ACADVER
 1 
AC1009
 9 
$EXTMIN
 10 
 0 
 20 
 0 
 9 
$EXTMAX
 10 
 8.5 
 20 
 11 
 0 
ENDSEC
 0 
SECTION
 2 
ENTITIES
0
LINE
8
Layer 1
10
365.032930
20
399.867635
11
245.033270
21
399.867635
0
LINE
8
Layer 1
10
365.032930
20
399.867635
11
365.032930
21
382.867626
0
LINE
8
Layer 1
10
245.033010
20
399.867708
11
239.102746
21
399.574111
0
LINE
8
Layer 1
10
239.102746
20
399.574111
11
233.272927
21
398.704177
0
LINE
8
Layer 1
10
233.272927
20
398.704177
11
227.582896
21
397.274203
0
LINE
8
Layer 1
10
227.582896
20
397.274203
11
222.071997
21
395.300487
0
LINE
8
Layer 1
10
222.071997
20
395.300487
11
216.779574
21
392.799324
0
LINE
8
Layer 1
10
216.779574
20
392.799324
11
211.744969
21
389.787011
0
LINE
8
Layer 1
10
211.744969
20
389.787011
11
207.007527
21
386.279845
0
LINE
8
Layer 1
10
207.007527
20
386.279845
11
202.606589
21
382.294123
0
LINE
8
Layer 1
10
202.606589
20
382.294123
11
198.620865
21
377.893187
0
LINE
8
Layer 1
10
198.620865
20
377.893187
11
195.113698
21
373.155745
0
LINE
8
Layer 1
10
195.113698
20
373.155745
11
192.101384
21
368.121142
0
LINE
8
Layer 1
10
192.101384
20
368.121142
11
189.600219
21
362.828719
0
LINE
8
Layer 1
10
189.600219
20
362.828719
11
187.626501
21
357.317821
0
LINE
8
Layer 1
10
187.626501
20
357.317821
11
186.196526
21
351.627791
0
LINE
8
Layer 1
10
186.196526
20
351.627791
11
185.326590
21
345.797972
0
LINE
8
Layer 1
10
185.326590
20
345.797972
11
185.032990
21
339.867708
0
LINE
8
Layer 1
10
185.033710
20
339.867808
11
185.033710
21
159.868060
0
LINE
8
Layer 1
10
185.032990
20
159.867710
11
185.326589
21
153.937445
0
LINE
8
Layer 1
10
185.326589
20
153.937445
11
186.196524
21
148.107626
0
LINE
8
Layer 1
10
186.196524
20
148.107626
11
187.626499
21
142.417595
0
LINE
8
Layer 1
10
187.626499
20
142.417595
11
189.600217
21
136.906696
0
LINE
8
Layer 1
10
189.600217
20
136.906696
11
192.101381
21
131.614273
0
LINE
8
Layer 1
10
192.101381
20
131.614273
11
195.113695
21
126.579668
0
LINE
8
Layer 1
10
195.113695
20
126.579668
11
198.620862
21
121.842226
0
LINE
8
Layer 1
10
198.620862
20
121.842226
11
202.606586
21
117.441289
0
LINE
8
Layer 1
10
202.606586
20
117.441289
11
207.007524
21
113.455566
0
LINE
8
Layer 1
10
207.007524
20
113.455566
11
211.744967
21
109.948399
0
LINE
8
Layer 1
10
211.744967
20
109.948399
11
216.779572
21
106.936086
0
LINE
8
Layer 1
10
216.779572
20
106.936086
11
222.071995
21
104.434923
0
LINE
8
Layer 1
10
222.071995
20
104.434923
11
227.582894
21
102.461206
0
LINE
8
Layer 1
10
227.582894
20
102.461206
11
233.272925
21
101.031232
0
LINE
8
Layer 1
10
233.272925
20
101.031232
11
239.102745
21
100.161298
0
LINE
8
Layer 1
10
239.102745
20
100.161298
11
245.033010
21
99.867700
0
LINE
8
Layer 1
10
365.032930
20
99.868500
11
245.033270
21
99.868500
0
LINE
8
Layer 1
10
365.032930
20
116.867980
11
365.032930
21
99.868500
0
LINE
8
Layer 1
10
365.032930
20
116.867980
11
345.033070
21
116.867980
0
LINE
8
Layer 1
10
345.033070
20
116.867980
11
345.033070
21
124.868980
0
LINE
8
Layer 1
10
345.033070
20
124.868980
11
365.032930
21
124.868980
0
LINE
8
Layer 1
10
365.032930
20
136.285750
11
365.032930
21
124.868980
0
LINE
8
Layer 1
10
365.032930
20
136.285750
11
357.032990
21
136.285750
0
LINE
8
Layer 1
10
357.032990
20
136.285750
11
357.032990
21
156.285600
0
LINE
8
Layer 1
10
357.032990
20
156.285600
11
365.032930
21
156.285600
0
LINE
8
Layer 1
10
365.032930
20
177.857080
11
365.032930
21
156.285600
0
LINE
8
Layer 1
10
365.032930
20
177.857080
11
357.032990
21
177.857080
0
LINE
8
Layer 1
10
357.032990
20
177.857080
11
357.032990
21
197.856930
0
LINE
8
Layer 1
10
357.032990
20
197.856930
11
365.032930
21
197.856930
0
LINE
8
Layer 1
10
365.032930
20
219.425770
11
365.032930
21
197.856930
0
LINE
8
Layer 1
10
365.032930
20
219.425770
11
357.032990
21
219.425770
0
LINE
8
Layer 1
10
357.032990
20
219.425770
11
357.032990
21
239.425620
0
LINE
8
Layer 1
10
357.032990
20
239.425620
11
365.032930
21
239.425620
0
LINE
8
Layer 1
10
365.032930
20
260.996830
11
365.032930
21
239.425620
0
LINE
8
Layer 1
10
365.032930
20
260.996830
11
357.032990
21
260.996830
0
LINE
8
Layer 1
10
357.032990
20
260.996830
11
357.032990
21
280.996690
0
LINE
8
Layer 1
10
357.032990
20
280.996690
11
365.032930
21
280.996690
0
LINE
8
Layer 1
10
365.032930
20
302.566849
11
365.032930
21
280.996690
0
LINE
8
Layer 1
10
365.032930
20
302.566849
11
357.032990
21
302.566849
0
LINE
8
Layer 1
10
357.032990
20
302.566849
11
357.032990
21
322.566704
0
LINE
8
Layer 1
10
357.032990
20
322.566704
11
365.032930
21
322.566704
0
LINE
8
Layer 1
10
365.032930
20
344.136596
11
365.032930
21
322.566704
0
LINE
8
Layer 1
10
365.032930
20
344.136596
11
357.032990
21
344.136596
0
LINE
8
Layer 1
10
357.032990
20
344.136596
11
357.032990
21
364.136714
0
LINE
8
Layer 1
10
357.032990
20
364.136714
11
365.032930
21
364.136714
0
LINE
8
Layer 1
10
365.032930
20
374.867685
11
365.032930
21
364.136714
0
LINE
8
Layer 1
10
345.033070
20
374.867685
11
365.032930
21
374.867685
0
LINE
8
Layer 1
10
345.033070
20
382.867626
11
345.033070
21
374.867685
0
LINE
8
Layer 1
10
365.032930
20
382.867626
11
345.033070
21
382.867626
0
LINE
8
Layer 1
10
325.032950
20
124.868980
11
325.032950
21
116.867980
0
LINE
8
Layer 1
10
305.033100
20
124.868980
11
325.032950
21
124.868980
0
LINE
8
Layer 1
10
325.032950
20
116.867980
11
305.033100
21
116.867980
0
LINE
8
Layer 1
10
305.033100
20
116.867980
11
305.033100
21
124.868980
0
LINE
8
Layer 1
10
346.533000
20
179.867700
11
346.431868
21
181.390985
0
LINE
8
Layer 1
10
346.431868
20
181.390985
11
346.134922
21
182.868253
0
LINE
8
Layer 1
10
346.134922
20
182.868253
11
345.651838
21
184.282744
0
LINE
8
Layer 1
10
345.651838
20
184.282744
11
344.992292
21
185.617700
0
LINE
8
Layer 1
10
344.992292
20
185.617700
11
344.165960
21
186.856362
0
LINE
8
Layer 1
10
344.165960
20
186.856362
11
343.182516
21
187.981970
0
LINE
8
Layer 1
10
343.182516
20
187.981970
11
342.051638
21
188.977767
0
LINE
8
Layer 1
10
342.051638
20
188.977767
11
340.783000
21
189.826992
0
LINE
8
Layer 1
10
340.783000
20
189.826992
11
339.413230
21
190.501052
0
LINE
8
Layer 1
10
339.413230
20
190.501052
11
337.985406
21
190.982523
0
LINE
8
Layer 1
10
337.985406
20
190.982523
11
336.518879
21
191.271406
0
LINE
8
Layer 1
10
336.518879
20
191.271406
11
335.033000
21
191.367700
0
LINE
8
Layer 1
10
335.033000
20
191.367700
11
333.547121
21
191.271406
0
LINE
8
Layer 1
10
333.547121
20
191.271406
11
332.080594
21
190.982523
0
LINE
8
Layer 1
10
332.080594
20
190.982523
11
330.652770
21
190.501052
0
LINE
8
Layer 1
10
330.652770
20
190.501052
11
329.283000
21
189.826992
0
LINE
8
Layer 1
10
329.283000
20
189.826992
11
328.014362
21
188.977767
0
LINE
8
Layer 1
10
328.014362
20
188.977767
11
326.883484
21
187.981970
0
LINE
8
Layer 1
10
326.883484
20
187.981970
11
325.900040
21
186.856362
0
LINE
8
Layer 1
10
325.900040
20
186.856362
11
325.073708
21
185.617700
0
LINE
8
Layer 1
10
325.073708
20
185.617700
11
324.414162
21
184.282744
0
LINE
8
Layer 1
10
324.414162
20
184.282744
11
323.931078
21
182.868253
0
LINE
8
Layer 1
10
323.931078
20
182.868253
11
323.634132
21
181.390985
0
LINE
8
Layer 1
10
323.634132
20
181.390985
11
323.533000
21
179.867700
0
LINE
8
Layer 1
10
323.533000
20
179.867700
11
323.634132
21
178.344415
0
LINE
8
Layer 1
10
323.634132
20
178.344415
11
323.931078
21
176.867147
0
LINE
8
Layer 1
10
323.931078
20
176.867147
11
324.414162
21
175.452656
0
LINE
8
Layer 1
10
324.414162
20
175.452656
11
325.073708
21
174.117700
0
LINE
8
Layer 1
10
325.073708
20
174.117700
11
325.900040
21
172.879038
0
LINE
8
Layer 1
10
325.900040
20
172.879038
11
326.883484
21
171.753430
0
LINE
8
Layer 1
10
326.883484
20
171.753430
11
328.014362
21
170.757633
0
LINE
8
Layer 1
10
328.014362
20
170.757633
11
329.283000
21
169.908408
0
LINE
8
Layer 1
10
329.283000
20
169.908408
11
330.652770
21
169.234348
0
LINE
8
Layer 1
10
330.652770
20
169.234348
11
332.080594
21
168.752877
0
LINE
8
Layer 1
10
332.080594
20
168.752877
11
333.547121
21
168.463994
0
LINE
8
Layer 1
10
333.547121
20
168.463994
11
335.033000
21
168.367700
0
LINE
8
Layer 1
10
335.033000
20
168.367700
11
336.518879
21
168.463994
0
LINE
8
Layer 1
10
336.518879
20
168.463994
11
337.985406
21
168.752877
0
LINE
8
Layer 1
10
337.985406
20
168.752877
11
339.413230
21
169.234348
0
LINE
8
Layer 1
10
339.413230
20
169.234348
11
340.783000
21
169.908408
0
LINE
8
Layer 1
10
340.783000
20
169.908408
11
342.051638
21
170.757633
0
LINE
8
Layer 1
10
342.051638
20
170.757633
11
343.182516
21
171.753430
0
LINE
8
Layer 1
10
343.182516
20
171.753430
11
344.165960
21
172.879038
0
LINE
8
Layer 1
10
344.165960
20
172.879038
11
344.992292
21
174.117700
0
LINE
8
Layer 1
10
344.992292
20
174.117700
11
345.651838
21
175.452656
0
LINE
8
Layer 1
10
345.651838
20
175.452656
11
346.134922
21
176.867147
0
LINE
8
Layer 1
10
346.134922
20
176.867147
11
346.431868
21
178.344415
0
LINE
8
Layer 1
10
346.431868
20
178.344415
11
346.533000
21
179.867700
0
LINE
8
Layer 1
10
346.533000
20
179.867700
11
346.533000
21
179.867700
0
LINE
8
Layer 1
10
285.032980
20
124.868980
11
285.032980
21
116.867980
0
LINE
8
Layer 1
10
265.033130
20
124.868980
11
285.032980
21
124.868980
0
LINE
8
Layer 1
10
285.032980
20
116.867980
11
265.033130
21
116.867980
0
LINE
8
Layer 1
10
265.033130
20
116.867980
11
265.033130
21
124.868980
0
LINE
8
Layer 1
10
217.249370
20
153.597430
11
217.249370
21
156.095100
0
LINE
8
Layer 1
10
217.104990
20
153.433600
11
217.250010
21
153.597590
0
LINE
8
Layer 1
10
217.250010
20
156.095600
11
217.357133
21
156.356757
0
LINE
8
Layer 1
10
217.357133
20
156.356757
11
217.617990
21
156.464300
0
LINE
8
Layer 1
10
211.007850
20
153.433390
11
217.103850
21
153.433390
0
LINE
8
Layer 1
10
217.617150
20
156.465520
11
219.278730
21
156.465520
0
LINE
8
Layer 1
10
210.640000
20
153.064910
11
210.754377
21
153.325039
0
LINE
8
Layer 1
10
210.754377
20
153.325039
11
211.008990
21
153.433600
0
LINE
8
Layer 1
10
219.277990
20
156.464300
11
219.715000
21
156.287800
0
LINE
8
Layer 1
10
219.715000
20
156.287800
11
219.892010
21
155.850310
0
LINE
8
Layer 1
10
210.640080
20
151.160620
11
210.640080
21
153.065620
0
LINE
8
Layer 1
10
219.892560
20
155.849040
11
219.892560
21
153.597430
0
LINE
8
Layer 1
10
211.008990
20
150.791610
11
210.754378
21
150.900171
0
LINE
8
Layer 1
10
210.754378
20
150.900171
11
210.640000
21
151.160300
0
LINE
8
Layer 1
10
219.892010
20
153.597590
11
220.055990
21
153.433600
0
LINE
8
Layer 1
10
225.665770
20
150.792850
11
211.007850
21
150.792850
0
LINE
8
Layer 1
10
220.056600
20
153.433390
11
225.665770
21
153.433390
0
LINE
8
Layer 1
10
226.036000
20
151.160300
11
225.927624
21
150.899297
0
LINE
8
Layer 1
10
225.927624
20
150.899297
11
225.666990
21
150.791610
0
LINE
8
Layer 1
10
225.666990
20
153.433600
11
225.928002
21
153.326471
0
LINE
8
Layer 1
10
225.928002
20
153.326471
11
226.036000
21
153.064910
0
LINE
8
Layer 1
10
226.036190
20
153.065620
11
226.036190
21
151.160620
0
LINE
8
Layer 1
10
211.007850
20
161.114250
11
212.709120
21
161.114250
0
LINE
8
Layer 1
10
210.640000
20
160.744910
11
210.755870
21
160.998406
0
LINE
8
Layer 1
10
210.755870
20
160.998406
11
211.008990
21
161.113610
0
LINE
8
Layer 1
10
212.707990
20
161.113610
11
213.112370
21
160.937167
0
LINE
8
Layer 1
10
213.112370
20
160.937167
11
213.282000
21
160.519600
0
LINE
8
Layer 1
10
210.640080
20
155.481270
11
210.640080
21
160.743830
0
LINE
8
Layer 1
10
213.283270
20
160.518930
11
213.283270
21
155.481270
0
LINE
8
Layer 1
10
210.803990
20
155.338310
11
210.640000
21
155.481610
0
LINE
8
Layer 1
10
213.282000
20
155.481610
11
213.137990
21
155.338310
0
LINE
8
Layer 1
10
213.137750
20
155.338390
11
210.804120
21
155.338390
0
LINE
8
Layer 1
10
210.679770
20
166.654620
11
210.679770
21
164.770790
0
LINE
8
Layer 1
10
211.047990
20
167.044300
11
210.793504
21
166.925498
0
LINE
8
Layer 1
10
210.793504
20
166.925498
11
210.680010
21
166.654910
0
LINE
8
Layer 1
10
210.680010
20
164.770890
11
210.794250
21
164.510852
0
LINE
8
Layer 1
10
210.794250
20
164.510852
11
211.047990
21
164.402300
0
LINE
8
Layer 1
10
225.464690
20
167.043560
11
211.047540
21
167.043560
0
LINE
8
Layer 1
10
211.047540
20
164.403020
11
225.671060
21
164.403020
0
LINE
8
Layer 1
10
226.038990
20
166.450310
11
225.786000
21
166.946400
0
LINE
8
Layer 1
10
225.786000
20
166.946400
11
225.466010
21
167.044300
0
LINE
8
Layer 1
10
225.671010
20
164.402300
11
225.931875
21
164.509461
0
LINE
8
Layer 1
10
225.931875
20
164.509461
11
226.038990
21
164.770890
0
LINE
8
Layer 1
10
226.038830
20
164.770790
11
226.038830
21
166.450890
0
LINE
8
Layer 1
10
223.787230
20
175.338250
11
225.446170
21
175.338250
0
LINE
8
Layer 1
10
223.418000
20
174.969600
11
223.525126
21
175.230758
0
LINE
8
Layer 1
10
223.525126
20
175.230758
11
223.786010
21
175.338300
0
LINE
8
Layer 1
10
225.446010
20
175.338300
11
225.864750
21
175.164033
0
LINE
8
Layer 1
10
225.864750
20
175.164033
11
226.038990
21
174.744890
0
LINE
8
Layer 1
10
223.416810
20
169.072910
11
223.416810
21
174.970480
0
LINE
8
Layer 1
10
226.038830
20
174.745580
11
226.038830
21
169.072910
0
LINE
8
Layer 1
10
223.561010
20
168.907600
11
223.418000
21
169.071620
0
LINE
8
Layer 1
10
226.038990
20
169.071620
11
225.896010
21
168.907600
0
LINE
8
Layer 1
10
225.895960
20
168.908870
11
223.559690
21
168.908870
0
LINE
8
Layer 1
10
210.679770
20
180.500270
11
210.679770
21
178.595270
0
LINE
8
Layer 1
10
211.047990
20
180.868300
11
210.793871
21
180.759739
0
LINE
8
Layer 1
10
210.793871
20
180.759739
11
210.680010
21
180.499610
0
LINE
8
Layer 1
10
210.680010
20
178.594900
11
210.794250
21
178.334859
0
LINE
8
Layer 1
10
210.794250
20
178.334859
11
211.047990
21
178.226310
0
LINE
8
Layer 1
10
225.464690
20
180.868040
11
211.047540
21
180.868040
0
LINE
8
Layer 1
10
211.047540
20
178.227500
11
225.671060
21
178.227500
0
LINE
8
Layer 1
10
226.038990
20
180.294900
11
225.873243
21
180.698307
0
LINE
8
Layer 1
10
225.873243
20
180.698307
11
225.466010
21
180.868300
0
LINE
8
Layer 1
10
225.671010
20
178.226310
11
225.931875
21
178.333468
0
LINE
8
Layer 1
10
225.931875
20
178.333468
11
226.038990
21
178.594900
0
LINE
8
Layer 1
10
226.038830
20
178.595270
11
226.038830
21
180.293890
0
LINE
8
Layer 1
10
210.679770
20
184.545750
11
210.679770
21
186.429580
0
LINE
8
Layer 1
10
211.047990
20
184.156910
11
210.793504
21
184.275705
0
LINE
8
Layer 1
10
210.793504
20
184.275705
11
210.680010
21
184.546300
0
LINE
8
Layer 1
10
210.680010
20
186.430290
11
210.794250
21
186.690395
0
LINE
8
Layer 1
10
210.794250
20
186.690395
11
211.047990
21
186.798910
0
LINE
8
Layer 1
10
225.671060
20
184.156810
11
211.047540
21
184.156810
0
LINE
8
Layer 1
10
211.047540
20
186.800000
11
225.671060
21
186.800000
0
LINE
8
Layer 1
10
226.038990
20
184.546300
11
225.931496
21
184.275259
0
LINE
8
Layer 1
10
225.931496
20
184.275259
11
225.671010
21
184.156910
0
LINE
8
Layer 1
10
225.671010
20
186.798910
11
225.931875
21
186.691737
0
LINE
8
Layer 1
10
225.931875
20
186.691737
11
226.038990
21
186.430290
0
LINE
8
Layer 1
10
226.038830
20
186.429580
11
226.038830
21
184.545750
0
LINE
8
Layer 1
10
210.952290
20
189.522560
11
210.952290
21
190.464470
0
LINE
8
Layer 1
10
211.320010
20
189.154310
11
211.058617
21
189.261243
0
LINE
8
Layer 1
10
211.058617
20
189.261243
11
210.950990
21
189.522900
0
LINE
8
Layer 1
10
210.950990
20
190.464900
11
211.115994
21
191.692889
0
LINE
8
Layer 1
10
211.115994
20
191.692889
11
211.604990
21
192.830510
0
LINE
8
Layer 1
10
211.604990
20
192.830510
11
212.580990
21
193.965710
0
LINE
8
Layer 1
10
212.580990
20
193.965710
11
213.821627
21
194.679335
0
LINE
8
Layer 1
10
213.821627
20
194.679335
11
215.231000
21
194.929610
0
LINE
8
Layer 1
10
213.100710
20
189.154790
11
211.320060
21
189.154790
0
LINE
8
Layer 1
10
215.231000
20
194.929610
11
216.640370
21
194.679256
0
LINE
8
Layer 1
10
216.640370
20
194.679256
11
217.880990
21
193.965710
0
LINE
8
Layer 1
10
217.880990
20
193.965710
11
218.857010
21
192.830510
0
LINE
8
Layer 1
10
218.857010
20
192.830510
11
219.345624
21
191.692889
0
LINE
8
Layer 1
10
219.345624
20
191.692889
11
219.511010
21
190.464900
0
LINE
8
Layer 1
10
213.367010
20
189.399610
11
213.287255
21
189.223102
0
LINE
8
Layer 1
10
213.287255
20
189.223102
11
213.101000
21
189.154310
0
LINE
8
Layer 1
10
219.511560
20
190.464470
11
219.511560
21
189.583410
0
LINE
8
Layer 1
10
213.367940
20
190.464470
11
213.367940
21
189.400850
0
LINE
8
Layer 1
10
219.511010
20
189.584310
11
219.404259
21
189.323349
0
LINE
8
Layer 1
10
219.404259
20
189.323349
11
219.143000
21
189.215620
0
LINE
8
Layer 1
10
215.231000
20
192.553600
11
214.462990
21
192.366190
0
LINE
8
Layer 1
10
214.462990
20
192.366190
11
213.770000
21
191.756910
0
LINE
8
Layer 1
10
213.770000
20
191.756910
11
213.469130
21
191.143755
0
LINE
8
Layer 1
10
213.469130
20
191.143755
11
213.367010
21
190.464900
0
LINE
8
Layer 1
10
219.143790
20
189.215640
11
217.360500
21
189.215640
0
LINE
8
Layer 1
10
217.114990
20
190.464900
11
216.940747
21
191.341916
0
LINE
8
Layer 1
10
216.940747
20
191.341916
11
216.434990
21
192.071400
0
LINE
8
Layer 1
10
216.434990
20
192.071400
11
215.878752
21
192.426579
0
LINE
8
Layer 1
10
215.878752
20
192.426579
11
215.231000
21
192.553600
0
LINE
8
Layer 1
10
217.361000
20
189.215620
11
217.184370
21
189.285015
0
LINE
8
Layer 1
10
217.184370
20
189.285015
11
217.114990
21
189.460910
0
LINE
8
Layer 1
10
217.114440
20
189.461700
11
217.114440
21
190.464470
0
LINE
8
Layer 1
10
217.249370
20
201.000180
11
217.249370
21
203.497850
0
LINE
8
Layer 1
10
217.104990
20
200.836300
11
217.250010
21
201.000320
0
LINE
8
Layer 1
10
217.250010
20
203.498300
11
217.357133
21
203.759402
0
LINE
8
Layer 1
10
217.357133
20
203.759402
11
217.617990
21
203.866890
0
LINE
8
Layer 1
10
211.007850
20
200.836140
11
217.103850
21
200.836140
0
LINE
8
Layer 1
10
217.617150
20
203.865620
11
219.278730
21
203.865620
0
LINE
8
Layer 1
10
210.640000
20
200.467600
11
210.754377
21
200.727734
0
LINE
8
Layer 1
10
210.754377
20
200.727734
11
211.008990
21
200.836300
0
LINE
8
Layer 1
10
219.277990
20
203.866890
11
219.715000
21
203.690410
0
LINE
8
Layer 1
10
219.715000
20
203.690410
11
219.892010
21
203.252900
0
LINE
8
Layer 1
10
210.640080
20
198.563370
11
210.640080
21
200.468370
0
LINE
8
Layer 1
10
219.892560
20
203.251790
11
219.892560
21
201.000180
0
LINE
8
Layer 1
10
211.008990
20
198.194300
11
210.754378
21
198.302856
0
LINE
8
Layer 1
10
210.754378
20
198.302856
11
210.640000
21
198.562890
0
LINE
8
Layer 1
10
219.892010
20
201.000320
11
220.055990
21
200.836300
0
LINE
8
Layer 1
10
225.665770
20
198.195600
11
211.007850
21
198.195600
0
LINE
8
Layer 1
10
220.056600
20
200.836140
11
225.665770
21
200.836140
0
LINE
8
Layer 1
10
226.036000
20
198.562890
11
225.927624
21
198.301983
0
LINE
8
Layer 1
10
225.927624
20
198.301983
11
225.666990
21
198.194300
0
LINE
8
Layer 1
10
225.666990
20
200.836300
11
225.928002
21
200.729129
0
LINE
8
Layer 1
10
225.928002
20
200.729129
11
226.036000
21
200.467600
0
LINE
8
Layer 1
10
226.036190
20
200.468370
11
226.036190
21
198.563370
0
LINE
8
Layer 1
10
211.007850
20
208.517000
11
212.709120
21
208.517000
0
LINE
8
Layer 1
10
210.640000
20
208.147610
11
210.755870
21
208.401076
0
LINE
8
Layer 1
10
210.755870
20
208.401076
11
211.008990
21
208.516310
0
LINE
8
Layer 1
10
212.707990
20
208.516310
11
213.112370
21
208.339825
0
LINE
8
Layer 1
10
213.112370
20
208.339825
11
213.282000
21
207.922290
0
LINE
8
Layer 1
10
210.640080
20
202.884020
11
210.640080
21
208.146580
0
LINE
8
Layer 1
10
213.283270
20
207.921680
11
213.283270
21
202.884020
0
LINE
8
Layer 1
10
210.803990
20
202.740900
11
210.640000
21
202.884310
0
LINE
8
Layer 1
10
213.282000
20
202.884310
11
213.137990
21
202.740900
0
LINE
8
Layer 1
10
213.137750
20
202.741140
11
210.804120
21
202.741140
0
LINE
8
Layer 1
10
210.679770
20
214.057370
11
210.679770
21
212.173540
0
LINE
8
Layer 1
10
211.047990
20
214.446940
11
210.793504
21
214.328168
0
LINE
8
Layer 1
10
210.793504
20
214.328168
11
210.680010
21
214.057610
0
LINE
8
Layer 1
10
210.680010
20
212.173620
11
210.794250
21
211.913509
0
LINE
8
Layer 1
10
210.794250
20
211.913509
11
211.047990
21
211.804950
0
LINE
8
Layer 1
10
225.464690
20
214.446310
11
211.047540
21
214.446310
0
LINE
8
Layer 1
10
211.047540
20
211.805770
11
225.671060
21
211.805770
0
LINE
8
Layer 1
10
226.038990
20
213.852950
11
225.786000
21
214.349050
0
LINE
8
Layer 1
10
225.786000
20
214.349050
11
225.466010
21
214.446950
0
LINE
8
Layer 1
10
225.671010
20
211.804950
11
225.931875
21
211.912129
0
LINE
8
Layer 1
10
225.931875
20
211.912129
11
226.038990
21
212.173620
0
LINE
8
Layer 1
10
226.038830
20
212.173540
11
226.038830
21
213.853640
0
LINE
8
Layer 1
10
223.787230
20
222.741000
11
225.446170
21
222.741000
0
LINE
8
Layer 1
10
223.418000
20
222.372270
11
223.525126
21
222.633420
0
LINE
8
Layer 1
10
223.525126
20
222.633420
11
223.786010
21
222.740940
0
LINE
8
Layer 1
10
225.446010
20
222.740940
11
225.864750
21
222.566705
0
LINE
8
Layer 1
10
225.864750
20
222.566705
11
226.038990
21
222.147610
0
LINE
8
Layer 1
10
223.416810
20
216.473020
11
223.416810
21
222.373220
0
LINE
8
Layer 1
10
226.038830
20
222.148330
11
226.038830
21
216.473020
0
LINE
8
Layer 1
10
223.561010
20
216.310270
11
223.418000
21
216.474290
0
LINE
8
Layer 1
10
226.038990
20
216.474290
11
225.896010
21
216.310270
0
LINE
8
Layer 1
10
225.895960
20
216.308970
11
223.559690
21
216.308970
0
LINE
8
Layer 1
10
213.143990
20
229.581610
11
213.902000
21
228.642180
0
LINE
8
Layer 1
10
213.902000
20
228.642180
11
214.667009
21
228.224559
0
LINE
8
Layer 1
10
214.667009
20
228.224559
11
215.540010
21
228.086290
0
LINE
8
Layer 1
10
212.815990
20
229.786290
11
213.143990
21
229.581610
0
LINE
8
Layer 1
10
215.540170
20
228.085580
11
221.173150
21
228.085580
0
LINE
8
Layer 1
10
210.891440
20
229.786850
11
212.814960
21
229.786850
0
LINE
8
Layer 1
10
221.172010
20
228.086290
11
221.213010
21
228.086290
0
LINE
8
Layer 1
10
210.522000
20
229.315630
11
210.591745
21
229.642201
0
LINE
8
Layer 1
10
210.591745
20
229.642201
11
210.890990
21
229.786290
0
LINE
8
Layer 1
10
221.212990
20
228.086290
11
222.286990
21
228.302910
0
LINE
8
Layer 1
10
222.286990
20
228.302910
11
222.868990
21
228.664940
0
LINE
8
Layer 1
10
222.868990
20
228.664940
11
223.588000
21
229.581610
0
LINE
8
Layer 1
10
215.417000
20
225.628950
11
213.857621
21
225.910604
0
LINE
8
Layer 1
10
213.857621
20
225.910604
11
212.413000
21
226.596770
0
LINE
8
Layer 1
10
212.413000
20
226.596770
11
211.531990
21
227.376870
0
LINE
8
Layer 1
10
211.531990
20
227.376870
11
210.917878
21
228.287709
0
LINE
8
Layer 1
10
210.917878
20
228.287709
11
210.522000
21
229.315630
0
LINE
8
Layer 1
10
223.588000
20
229.581610
11
223.937010
21
229.786290
0
LINE
8
Layer 1
10
221.172010
20
225.628950
11
221.025000
21
225.628950
0
LINE
8
Layer 1
10
221.025000
20
225.628950
11
220.840010
21
225.628950
0
LINE
8
Layer 1
10
220.840010
20
225.628950
11
220.447000
21
225.628950
0
LINE
8
Layer 1
10
220.447000
20
225.628950
11
219.570990
21
225.628950
0
LINE
8
Layer 1
10
219.570990
20
225.628950
11
217.919010
21
225.628950
0
LINE
8
Layer 1
10
217.919010
20
225.628950
11
216.489990
21
225.628950
0
LINE
8
Layer 1
10
216.489990
20
225.628950
11
215.946990
21
225.628950
0
LINE
8
Layer 1
10
215.946990
20
225.628950
11
215.665000
21
225.628950
0
LINE
8
Layer 1
10
215.665000
20
225.628950
11
215.529000
21
225.628950
0
LINE
8
Layer 1
10
215.529000
20
225.628950
11
215.463000
21
225.628950
0
LINE
8
Layer 1
10
215.463000
20
225.628950
11
215.417000
21
225.628950
0
LINE
8
Layer 1
10
223.938040
20
229.786850
11
225.843040
21
229.786850
0
LINE
8
Layer 1
10
226.209990
20
229.315630
11
225.799753
21
228.254269
0
LINE
8
Layer 1
10
225.799753
20
228.254269
11
225.157000
21
227.318840
0
LINE
8
Layer 1
10
225.157000
20
227.318840
11
224.269990
21
226.554090
0
LINE
8
Layer 1
10
224.269990
20
226.554090
11
223.310504
21
226.057737
0
LINE
8
Layer 1
10
223.310504
20
226.057737
11
222.276010
21
225.754600
0
LINE
8
Layer 1
10
222.276010
20
225.754600
11
221.172010
21
225.628950
0
LINE
8
Layer 1
10
225.842010
20
229.786290
11
226.141121
21
229.642115
0
LINE
8
Layer 1
10
226.141121
20
229.642115
11
226.209990
21
229.315630
0
LINE
8
Layer 1
10
212.815990
20
232.018900
11
213.143990
21
232.223610
0
LINE
8
Layer 1
10
210.891440
20
232.019930
11
212.814960
21
232.019930
0
LINE
8
Layer 1
10
213.143990
20
232.223610
11
213.902000
21
233.162690
0
LINE
8
Layer 1
10
213.902000
20
233.162690
11
214.667009
21
233.580103
0
LINE
8
Layer 1
10
214.667009
20
233.580103
11
215.540010
21
233.718290
0
LINE
8
Layer 1
10
210.522000
20
232.489590
11
210.591745
21
232.163056
0
LINE
8
Layer 1
10
210.591745
20
232.163056
11
210.890990
21
232.018900
0
LINE
8
Layer 1
10
215.540170
20
233.718560
11
221.173150
21
233.718560
0
LINE
8
Layer 1
10
215.417000
20
236.176300
11
213.857621
21
235.894642
0
LINE
8
Layer 1
10
213.857621
20
235.894642
11
212.413000
21
235.208510
0
LINE
8
Layer 1
10
212.413000
20
235.208510
11
211.531990
21
234.428410
0
LINE
8
Layer 1
10
211.531990
20
234.428410
11
210.917878
21
233.517538
0
LINE
8
Layer 1
10
210.917878
20
233.517538
11
210.522000
21
232.489590
0
LINE
8
Layer 1
10
221.172010
20
233.718290
11
221.213010
21
233.718290
0
LINE
8
Layer 1
10
221.172010
20
236.176300
11
221.025000
21
236.176300
0
LINE
8
Layer 1
10
221.025000
20
236.176300
11
220.840010
21
236.176300
0
LINE
8
Layer 1
10
220.840010
20
236.176300
11
220.447000
21
236.176300
0
LINE
8
Layer 1
10
220.447000
20
236.176300
11
219.570990
21
236.176300
0
LINE
8
Layer 1
10
219.570990
20
236.176300
11
217.919010
21
236.176300
0
LINE
8
Layer 1
10
217.919010
20
236.176300
11
216.489990
21
236.176300
0
LINE
8
Layer 1
10
216.489990
20
236.176300
11
215.946990
21
236.176300
0
LINE
8
Layer 1
10
215.946990
20
236.176300
11
215.665000
21
236.176300
0
LINE
8
Layer 1
10
215.665000
20
236.176300
11
215.529000
21
236.176300
0
LINE
8
Layer 1
10
215.529000
20
236.176300
11
215.463000
21
236.176300
0
LINE
8
Layer 1
10
215.463000
20
236.176300
11
215.417000
21
236.176300
0
LINE
8
Layer 1
10
221.212990
20
233.718290
11
222.286990
21
233.501810
0
LINE
8
Layer 1
10
222.286990
20
233.501810
11
222.868990
21
233.139910
0
LINE
8
Layer 1
10
222.868990
20
233.139910
11
223.588000
21
232.223610
0
LINE
8
Layer 1
10
226.209990
20
232.489590
11
225.812251
21
233.520466
0
LINE
8
Layer 1
10
225.812251
20
233.520466
11
225.193990
21
234.432910
0
LINE
8
Layer 1
10
225.193990
20
234.432910
11
224.282000
21
235.228190
0
LINE
8
Layer 1
10
224.282000
20
235.228190
11
223.288505
21
235.740900
0
LINE
8
Layer 1
10
223.288505
20
235.740900
11
222.217010
21
236.050810
0
LINE
8
Layer 1
10
222.217010
20
236.050810
11
221.172010
21
236.176300
0
LINE
8
Layer 1
10
223.588000
20
232.223610
11
223.937010
21
232.018900
0
LINE
8
Layer 1
10
225.842010
20
232.018900
11
226.141121
21
232.163090
0
LINE
8
Layer 1
10
226.141121
20
232.163090
11
226.209990
21
232.489590
0
LINE
8
Layer 1
10
223.938040
20
232.019930
11
225.843040
21
232.019930
0
LINE
8
Layer 1
10
210.679770
20
239.841020
11
210.679770
21
241.727500
0
LINE
8
Layer 1
10
211.047990
20
239.452900
11
210.793504
21
239.571705
0
LINE
8
Layer 1
10
210.793504
20
239.571705
11
210.680010
21
239.842310
0
LINE
8
Layer 1
10
210.680010
20
241.726300
11
210.794250
21
241.986384
0
LINE
8
Layer 1
10
210.794250
20
241.986384
11
211.047990
21
242.094900
0
LINE
8
Layer 1
10
225.671060
20
239.452080
11
211.047540
21
239.452080
0
LINE
8
Layer 1
10
211.047540
20
242.095270
11
225.671060
21
242.095270
0
LINE
8
Layer 1
10
226.038990
20
239.842310
11
225.931496
21
239.571247
0
LINE
8
Layer 1
10
225.931496
20
239.571247
11
225.671010
21
239.452900
0
LINE
8
Layer 1
10
225.671010
20
242.094900
11
225.931875
21
241.987737
0
LINE
8
Layer 1
10
225.931875
20
241.987737
11
226.038990
21
241.726300
0
LINE
8
Layer 1
10
226.038830
20
241.727500
11
226.038830
21
239.841020
0
LINE
8
Layer 1
10
210.952290
20
244.817830
11
210.952290
21
245.759750
0
LINE
8
Layer 1
10
211.320010
20
244.450300
11
211.058617
21
244.557243
0
LINE
8
Layer 1
10
211.058617
20
244.557243
11
210.950990
21
244.818910
0
LINE
8
Layer 1
10
210.950990
20
245.760910
11
211.115994
21
246.988900
0
LINE
8
Layer 1
10
211.115994
20
246.988900
11
211.604990
21
248.126500
0
LINE
8
Layer 1
10
211.604990
20
248.126500
11
212.580990
21
249.261690
0
LINE
8
Layer 1
10
212.580990
20
249.261690
11
213.821627
21
249.975326
0
LINE
8
Layer 1
10
213.821627
20
249.975326
11
215.231000
21
250.225590
0
LINE
8
Layer 1
10
213.100710
20
244.450060
11
211.320060
21
244.450060
0
LINE
8
Layer 1
10
215.231000
20
250.225590
11
216.640370
21
249.975248
0
LINE
8
Layer 1
10
216.640370
20
249.975248
11
217.880990
21
249.261690
0
LINE
8
Layer 1
10
217.880990
20
249.261690
11
218.857010
21
248.126500
0
LINE
8
Layer 1
10
218.857010
20
248.126500
11
219.345624
21
246.988900
0
LINE
8
Layer 1
10
219.345624
20
246.988900
11
219.511010
21
245.760910
0
LINE
8
Layer 1
10
213.367010
20
244.695590
11
213.287255
21
244.519110
0
LINE
8
Layer 1
10
213.287255
20
244.519110
11
213.101000
21
244.450300
0
LINE
8
Layer 1
10
219.511560
20
245.759750
11
219.511560
21
244.881330
0
LINE
8
Layer 1
10
213.367940
20
245.759750
11
213.367940
21
244.696120
0
LINE
8
Layer 1
10
219.511010
20
244.880300
11
219.404259
21
244.619330
0
LINE
8
Layer 1
10
219.404259
20
244.619330
11
219.143000
21
244.511600
0
LINE
8
Layer 1
10
215.231000
20
247.849610
11
214.462990
21
247.662210
0
LINE
8
Layer 1
10
214.462990
20
247.662210
11
213.770000
21
247.052900
0
LINE
8
Layer 1
10
213.770000
20
247.052900
11
213.469130
21
246.439755
0
LINE
8
Layer 1
10
213.469130
20
246.439755
11
213.367010
21
245.760910
0
LINE
8
Layer 1
10
219.143790
20
244.510910
11
217.360500
21
244.510910
0
LINE
8
Layer 1
10
217.114990
20
245.760910
11
216.940747
21
246.637919
0
LINE
8
Layer 1
10
216.940747
20
246.637919
11
216.434990
21
247.367410
0
LINE
8
Layer 1
10
216.434990
20
247.367410
11
215.878752
21
247.722581
0
LINE
8
Layer 1
10
215.878752
20
247.722581
11
215.231000
21
247.849610
0
LINE
8
Layer 1
10
217.361000
20
244.511600
11
217.184370
21
244.580995
0
LINE
8
Layer 1
10
217.184370
20
244.580995
11
217.114990
21
244.756890
0
LINE
8
Layer 1
10
217.114440
20
244.756970
11
217.114440
21
245.759750
0
LINE
8
Layer 1
10
346.533000
20
319.867708
11
346.431868
21
321.390993
0
LINE
8
Layer 1
10
346.431868
20
321.390993
11
346.134922
21
322.868261
0
LINE
8
Layer 1
10
346.134922
20
322.868261
11
345.651838
21
324.282752
0
LINE
8
Layer 1
10
345.651838
20
324.282752
11
344.992292
21
325.617708
0
LINE
8
Layer 1
10
344.992292
20
325.617708
11
344.165960
21
326.856370
0
LINE
8
Layer 1
10
344.165960
20
326.856370
11
343.182516
21
327.981978
0
LINE
8
Layer 1
10
343.182516
20
327.981978
11
342.051638
21
328.977775
0
LINE
8
Layer 1
10
342.051638
20
328.977775
11
340.783000
21
329.827000
0
LINE
8
Layer 1
10
340.783000
20
329.827000
11
339.413230
21
330.501060
0
LINE
8
Layer 1
10
339.413230
20
330.501060
11
337.985406
21
330.982531
0
LINE
8
Layer 1
10
337.985406
20
330.982531
11
336.518879
21
331.271414
0
LINE
8
Layer 1
10
336.518879
20
331.271414
11
335.033000
21
331.367708
0
LINE
8
Layer 1
10
335.033000
20
331.367708
11
333.547121
21
331.271414
0
LINE
8
Layer 1
10
333.547121
20
331.271414
11
332.080594
21
330.982531
0
LINE
8
Layer 1
10
332.080594
20
330.982531
11
330.652770
21
330.501060
0
LINE
8
Layer 1
10
330.652770
20
330.501060
11
329.283000
21
329.827000
0
LINE
8
Layer 1
10
329.283000
20
329.827000
11
328.014362
21
328.977775
0
LINE
8
Layer 1
10
328.014362
20
328.977775
11
326.883484
21
327.981978
0
LINE
8
Layer 1
10
326.883484
20
327.981978
11
325.900040
21
326.856370
0
LINE
8
Layer 1
10
325.900040
20
326.856370
11
325.073708
21
325.617708
0
LINE
8
Layer 1
10
325.073708
20
325.617708
11
324.414162
21
324.282752
0
LINE
8
Layer 1
10
324.414162
20
324.282752
11
323.931078
21
322.868261
0
LINE
8
Layer 1
10
323.931078
20
322.868261
11
323.634132
21
321.390993
0
LINE
8
Layer 1
10
323.634132
20
321.390993
11
323.533000
21
319.867708
0
LINE
8
Layer 1
10
323.533000
20
319.867708
11
323.634132
21
318.344423
0
LINE
8
Layer 1
10
323.634132
20
318.344423
11
323.931078
21
316.867155
0
LINE
8
Layer 1
10
323.931078
20
316.867155
11
324.414162
21
315.452664
0
LINE
8
Layer 1
10
324.414162
20
315.452664
11
325.073708
21
314.117708
0
LINE
8
Layer 1
10
325.073708
20
314.117708
11
325.900040
21
312.879046
0
LINE
8
Layer 1
10
325.900040
20
312.879046
11
326.883484
21
311.753438
0
LINE
8
Layer 1
10
326.883484
20
311.753438
11
328.014362
21
310.757641
0
LINE
8
Layer 1
10
328.014362
20
310.757641
11
329.283000
21
309.908416
0
LINE
8
Layer 1
10
329.283000
20
309.908416
11
330.652770
21
309.234356
0
LINE
8
Layer 1
10
330.652770
20
309.234356
11
332.080594
21
308.752885
0
LINE
8
Layer 1
10
332.080594
20
308.752885
11
333.547121
21
308.464002
0
LINE
8
Layer 1
10
333.547121
20
308.464002
11
335.033000
21
308.367708
0
LINE
8
Layer 1
10
335.033000
20
308.367708
11
336.518879
21
308.464002
0
LINE
8
Layer 1
10
336.518879
20
308.464002
11
337.985406
21
308.752885
0
LINE
8
Layer 1
10
337.985406
20
308.752885
11
339.413230
21
309.234356
0
LINE
8
Layer 1
10
339.413230
20
309.234356
11
340.783000
21
309.908416
0
LINE
8
Layer 1
10
340.783000
20
309.908416
11
342.051638
21
310.757641
0
LINE
8
Layer 1
10
342.051638
20
310.757641
11
343.182516
21
311.753438
0
LINE
8
Layer 1
10
343.182516
20
311.753438
11
344.165960
21
312.879046
0
LINE
8
Layer 1
10
344.165960
20
312.879046
11
344.992292
21
314.117708
0
LINE
8
Layer 1
10
344.992292
20
314.117708
11
345.651838
21
315.452664
0
LINE
8
Layer 1
10
345.651838
20
315.452664
11
346.134922
21
316.867155
0
LINE
8
Layer 1
10
346.134922
20
316.867155
11
346.431868
21
318.344423
0
LINE
8
Layer 1
10
346.431868
20
318.344423
11
346.533000
21
319.867708
0
LINE
8
Layer 1
10
346.533000
20
319.867708
11
346.533000
21
319.867708
0
LINE
8
Layer 1
10
305.033100
20
374.867685
11
325.032950
21
374.867685
0
LINE
8
Layer 1
10
305.033100
20
382.867626
11
305.033100
21
374.867685
0
LINE
8
Layer 1
10
325.032950
20
382.867626
11
305.033100
21
382.867626
0
LINE
8
Layer 1
10
325.032950
20
374.867685
11
325.032950
21
382.867626
0
LINE
8
Layer 1
10
210.679770
20
264.119710
11
210.679770
21
266.003540
0
LINE
8
Layer 1
10
211.047990
20
263.730300
11
210.793504
21
263.849425
0
LINE
8
Layer 1
10
210.793504
20
263.849425
11
210.680010
21
264.119600
0
LINE
8
Layer 1
10
210.680010
20
266.003600
11
210.794250
21
266.263737
0
LINE
8
Layer 1
10
210.794250
20
266.263737
11
211.047990
21
266.372300
0
LINE
8
Layer 1
10
225.671060
20
263.730240
11
211.047540
21
263.730240
0
LINE
8
Layer 1
10
211.047540
20
266.372370
11
225.671060
21
266.372370
0
LINE
8
Layer 1
10
226.038990
20
264.119600
11
225.931496
21
263.848600
0
LINE
8
Layer 1
10
225.931496
20
263.848600
11
225.671010
21
263.730300
0
LINE
8
Layer 1
10
225.671010
20
266.372300
11
225.931875
21
266.264750
0
LINE
8
Layer 1
10
225.931875
20
266.264750
11
226.038990
21
266.003600
0
LINE
8
Layer 1
10
226.038830
20
266.003540
11
226.038830
21
264.119710
0
LINE
8
Layer 1
10
210.952290
20
269.096260
11
210.952290
21
270.038180
0
LINE
8
Layer 1
10
211.320010
20
268.727600
11
211.058617
21
268.834925
0
LINE
8
Layer 1
10
211.058617
20
268.834925
11
210.950990
21
269.096300
0
LINE
8
Layer 1
10
210.950990
20
270.038300
11
211.115994
21
271.266250
0
LINE
8
Layer 1
10
211.115994
20
271.266250
11
211.604990
21
272.403900
0
LINE
8
Layer 1
10
211.604990
20
272.403900
11
212.580990
21
273.539000
0
LINE
8
Layer 1
10
212.580990
20
273.539000
11
213.821627
21
274.252625
0
LINE
8
Layer 1
10
213.821627
20
274.252625
11
215.231000
21
274.502900
0
LINE
8
Layer 1
10
213.100710
20
268.727690
11
211.320060
21
268.727690
0
LINE
8
Layer 1
10
215.231000
20
274.502900
11
216.640370
21
274.252550
0
LINE
8
Layer 1
10
216.640370
20
274.252550
11
217.880990
21
273.539000
0
LINE
8
Layer 1
10
217.880990
20
273.539000
11
218.857010
21
272.403900
0
LINE
8
Layer 1
10
218.857010
20
272.403900
11
219.345624
21
271.266250
0
LINE
8
Layer 1
10
219.345624
20
271.266250
11
219.511010
21
270.038300
0
LINE
8
Layer 1
10
213.367010
20
268.972900
11
213.287255
21
268.796438
0
LINE
8
Layer 1
10
213.287255
20
268.796438
11
213.101000
21
268.727600
0
LINE
8
Layer 1
10
219.511560
20
270.038180
11
219.511560
21
269.157640
0
LINE
8
Layer 1
10
213.367940
20
270.038180
11
213.367940
21
268.972960
0
LINE
8
Layer 1
10
219.511010
20
269.157600
11
219.404259
21
268.896713
0
LINE
8
Layer 1
10
219.404259
20
268.896713
11
219.143000
21
268.788900
0
LINE
8
Layer 1
10
215.231000
20
272.126900
11
214.462990
21
271.939500
0
LINE
8
Layer 1
10
214.462990
20
271.939500
11
213.770000
21
271.330300
0
LINE
8
Layer 1
10
213.770000
20
271.330300
11
213.469130
21
270.717150
0
LINE
8
Layer 1
10
213.469130
20
270.717150
11
213.367010
21
270.038300
0
LINE
8
Layer 1
10
219.143790
20
268.788810
11
217.360500
21
268.788810
0
LINE
8
Layer 1
10
217.114990
20
270.038300
11
216.940747
21
270.915262
0
LINE
8
Layer 1
10
216.940747
20
270.915262
11
216.434990
21
271.644700
0
LINE
8
Layer 1
10
216.434990
20
271.644700
11
215.878752
21
271.999875
0
LINE
8
Layer 1
10
215.878752
20
271.999875
11
215.231000
21
272.126900
0
LINE
8
Layer 1
10
217.361000
20
268.788900
11
217.184370
21
268.858016
0
LINE
8
Layer 1
10
217.184370
20
268.858016
11
217.114990
21
269.034300
0
LINE
8
Layer 1
10
217.114440
20
269.034350
11
217.114440
21
270.038180
0
LINE
8
Layer 1
10
210.679770
20
280.041010
11
210.679770
21
278.136280
0
LINE
8
Layer 1
10
211.047990
20
280.409600
11
210.793871
21
280.301038
0
LINE
8
Layer 1
10
210.793871
20
280.301038
11
210.680010
21
280.040900
0
LINE
8
Layer 1
10
210.680010
20
278.136300
11
210.794250
21
277.876163
0
LINE
8
Layer 1
10
210.794250
20
277.876163
11
211.047990
21
277.767600
0
LINE
8
Layer 1
10
225.464690
20
280.409580
11
211.047540
21
280.409580
0
LINE
8
Layer 1
10
211.047540
20
277.767710
11
225.671060
21
277.767710
0
LINE
8
Layer 1
10
226.038990
20
279.836300
11
225.873243
21
280.239613
0
LINE
8
Layer 1
10
225.873243
20
280.239613
11
225.466010
21
280.409600
0
LINE
8
Layer 1
10
225.671010
20
277.767600
11
225.931875
21
277.875150
0
LINE
8
Layer 1
10
225.931875
20
277.875150
11
226.038990
21
278.136300
0
LINE
8
Layer 1
10
226.038830
20
278.136280
11
226.038830
21
279.836230
0
LINE
8
Layer 1
10
222.374010
20
286.340300
11
220.846746
21
286.128313
0
LINE
8
Layer 1
10
220.846746
20
286.128313
11
219.443990
21
285.499700
0
LINE
8
Layer 1
10
219.443990
20
285.499700
11
218.616620
21
284.833012
0
LINE
8
Layer 1
10
218.616620
20
284.833012
11
217.991000
21
283.984900
0
LINE
8
Layer 1
10
225.671060
20
286.340210
11
222.374350
21
286.340210
0
LINE
8
Layer 1
10
217.991000
20
283.984900
11
218.006124
21
283.788387
0
LINE
8
Layer 1
10
218.006124
20
283.788387
11
218.174990
21
283.698300
0
LINE
8
Layer 1
10
226.038990
20
285.971600
11
225.932246
21
286.232562
0
LINE
8
Layer 1
10
225.932246
20
286.232562
11
225.671010
21
286.340300
0
LINE
8
Layer 1
10
218.175420
20
283.698350
11
218.215120
21
283.698350
0
LINE
8
Layer 1
10
226.038830
20
284.066910
11
226.038830
21
285.971650
0
LINE
8
Layer 1
10
218.215100
20
283.698350
11
225.671060
21
283.698350
0
LINE
8
Layer 1
10
225.671010
20
283.698300
11
225.931875
21
283.805838
0
LINE
8
Layer 1
10
225.931875
20
283.805838
11
226.038990
21
284.066900
0
LINE
8
Layer 1
10
214.836370
20
283.698350
11
211.232750
21
283.698350
0
LINE
8
Layer 1
10
215.349000
20
284.169600
11
215.184880
21
283.834237
0
LINE
8
Layer 1
10
215.184880
20
283.834237
11
214.837010
21
283.698300
0
LINE
8
Layer 1
10
211.232010
20
283.698300
11
210.864621
21
283.856862
0
LINE
8
Layer 1
10
210.864621
20
283.856862
11
210.740990
21
284.230900
0
LINE
8
Layer 1
10
215.431000
20
285.008900
11
215.349000
21
284.169600
0
LINE
8
Layer 1
10
210.740620
20
284.230960
11
210.864980
21
286.074310
0
LINE
8
Layer 1
10
216.742010
20
286.810900
11
216.164758
21
286.411088
0
LINE
8
Layer 1
10
216.164758
20
286.411088
11
215.711990
21
285.903500
0
LINE
8
Layer 1
10
215.711990
20
285.903500
11
215.431000
21
285.008900
0
LINE
8
Layer 1
10
210.864000
20
286.074300
11
210.996159
21
286.450250
0
LINE
8
Layer 1
10
210.996159
20
286.450250
11
211.294000
21
286.729600
0
LINE
8
Layer 1
10
225.630000
20
291.603600
11
221.339990
21
289.295900
0
LINE
8
Layer 1
10
221.339990
20
289.295900
11
218.410000
21
287.719200
0
LINE
8
Layer 1
10
218.410000
20
287.719200
11
217.533010
21
287.245100
0
LINE
8
Layer 1
10
217.533010
20
287.245100
11
216.742010
21
286.810900
0
LINE
8
Layer 1
10
211.294000
20
286.729600
11
215.618010
21
289.035200
0
LINE
8
Layer 1
10
215.618010
20
289.035200
11
218.648990
21
290.660400
0
LINE
8
Layer 1
10
218.648990
20
290.660400
11
220.346000
21
291.582900
0
LINE
8
Layer 1
10
226.038990
20
292.279600
11
225.927116
21
291.881713
0
LINE
8
Layer 1
10
225.927116
20
291.881713
11
225.630000
21
291.603600
0
LINE
8
Layer 1
10
220.346000
20
291.582900
11
221.371000
21
292.442700
0
LINE
8
Layer 1
10
221.371000
20
292.442700
11
221.686990
21
293.039000
0
LINE
8
Layer 1
10
221.686990
20
293.039000
11
221.779990
21
293.672300
0
LINE
8
Layer 1
10
226.038830
20
294.163680
11
226.038830
21
292.279580
0
LINE
8
Layer 1
10
221.779040
20
293.672350
11
221.779040
21
294.163680
0
LINE
8
Layer 1
10
225.732000
20
294.470900
11
225.946999
21
294.378701
0
LINE
8
Layer 1
10
225.946999
20
294.378701
11
226.038990
21
294.163600
0
LINE
8
Layer 1
10
221.779990
20
294.163600
11
221.865615
21
294.379388
0
LINE
8
Layer 1
10
221.865615
20
294.379388
11
222.086990
21
294.470900
0
LINE
8
Layer 1
10
222.085960
20
294.470860
11
225.731920
21
294.470860
0
LINE
8
Layer 1
10
210.679770
20
298.104380
11
210.679770
21
300.766879
0
LINE
8
Layer 1
10
211.047990
20
297.735600
11
210.786999
21
297.843150
0
LINE
8
Layer 1
10
210.786999
20
297.843150
11
210.679000
21
298.104300
0
LINE
8
Layer 1
10
210.679000
20
300.766899
11
210.786620
21
301.037637
0
LINE
8
Layer 1
10
210.786620
20
301.037637
11
211.047990
21
301.155599
0
LINE
8
Layer 1
10
225.681650
20
297.735550
11
211.047540
21
297.735550
0
LINE
8
Layer 1
10
211.047540
20
301.155559
11
212.931370
21
301.155559
0
LINE
8
Layer 1
10
226.051000
20
298.104300
11
225.944127
21
297.843300
0
LINE
8
Layer 1
10
225.944127
20
297.843300
11
225.681990
21
297.735600
0
LINE
8
Layer 1
10
212.932010
20
301.155599
11
213.163751
21
301.070011
0
LINE
8
Layer 1
10
213.163751
20
301.070011
11
213.301000
21
300.848299
0
LINE
8
Layer 1
10
226.052060
20
300.869009
11
226.052060
21
298.104380
0
LINE
8
Layer 1
10
213.301790
20
300.848379
11
213.320290
21
300.684859
0
LINE
8
Layer 1
10
225.681990
20
301.237599
11
225.943749
21
301.130087
0
LINE
8
Layer 1
10
225.943749
20
301.130087
11
226.051000
21
300.868899
0
LINE
8
Layer 1
10
213.321000
20
300.684899
11
213.451001
21
300.462511
0
LINE
8
Layer 1
10
213.451001
20
300.462511
11
213.689010
21
300.377599
0
LINE
8
Layer 1
10
224.147060
20
301.237579
11
225.681650
21
301.237579
0
LINE
8
Layer 1
10
213.688080
20
300.377679
11
223.287170
21
300.377679
0
LINE
8
Layer 1
10
223.819000
20
301.012299
11
224.146000
21
301.237599
0
LINE
8
Layer 1
10
223.286000
20
300.377599
11
223.614010
21
300.602899
0
LINE
8
Layer 1
10
223.615250
20
300.602839
11
223.818980
21
301.012419
0
LINE
8
Layer 1
10
214.346000
20
291.828900
11
215.799009
21
292.017550
0
LINE
8
Layer 1
10
215.799009
20
292.017550
11
217.147010
21
292.579700
0
LINE
8
Layer 1
10
217.147010
20
292.579700
11
218.061497
21
293.275388
0
LINE
8
Layer 1
10
218.061497
20
293.275388
11
218.748000
21
294.184300
0
LINE
8
Layer 1
10
211.068710
20
291.828990
11
214.346900
21
291.828990
0
LINE
8
Layer 1
10
218.748000
20
294.184300
11
218.732876
21
294.373837
0
LINE
8
Layer 1
10
218.732876
20
294.373837
11
218.564010
21
294.470900
0
LINE
8
Layer 1
10
210.680010
20
292.197600
11
210.797879
21
291.936337
0
LINE
8
Layer 1
10
210.797879
20
291.936337
11
211.067990
21
291.828900
0
LINE
8
Layer 1
10
218.564350
20
294.470860
11
218.522050
21
294.470860
0
LINE
8
Layer 1
10
210.679770
20
294.102290
11
210.679770
21
292.197560
0
LINE
8
Layer 1
10
218.522020
20
294.470860
11
211.068710
21
294.470860
0
LINE
8
Layer 1
10
211.067990
20
294.470900
11
210.797500
21
294.363512
0
LINE
8
Layer 1
10
210.797500
20
294.363512
11
210.680010
21
294.102300
0
LINE
8
Layer 1
10
217.151480
20
315.066819
11
222.210310
21
316.500339
0
LINE
8
Layer 1
10
216.906000
20
314.841609
11
217.151000
21
315.066909
0
LINE
8
Layer 1
10
222.209990
20
316.500309
11
222.495000
21
316.477309
0
LINE
8
Layer 1
10
222.495000
20
316.477309
11
222.680000
21
316.152309
0
LINE
8
Layer 1
10
216.781060
20
314.534219
11
216.905420
21
314.841659
0
LINE
8
Layer 1
10
222.681270
20
316.152409
11
222.699770
21
315.537519
0
LINE
8
Layer 1
10
217.028000
20
314.042909
11
216.805249
21
314.235434
0
LINE
8
Layer 1
10
216.805249
20
314.235434
11
216.781990
21
314.534309
0
LINE
8
Layer 1
10
222.701010
20
315.537609
11
222.798500
21
315.241734
0
LINE
8
Layer 1
10
222.798500
20
315.241734
11
223.048990
21
315.066909
0
LINE
8
Layer 1
10
225.567870
20
311.748939
11
217.027120
21
314.042889
0
LINE
8
Layer 1
10
223.049040
20
315.066819
11
225.774250
21
314.329689
0
LINE
8
Layer 1
10
226.038990
20
312.096899
11
225.894621
21
311.807661
0
LINE
8
Layer 1
10
225.894621
20
311.807661
11
225.568010
21
311.748899
0
LINE
8
Layer 1
10
225.773010
20
314.329609
11
225.967496
21
314.201472
0
LINE
8
Layer 1
10
225.967496
20
314.201472
11
226.038990
21
313.981609
0
LINE
8
Layer 1
10
226.038830
20
313.981499
11
226.038830
21
312.096869
0
LINE
8
Layer 1
10
213.034560
20
303.572259
11
211.232750
21
303.572259
0
LINE
8
Layer 1
10
213.402990
20
303.879599
11
213.272871
21
303.657361
0
LINE
8
Layer 1
10
213.272871
20
303.657361
11
213.034010
21
303.572299
0
LINE
8
Layer 1
10
211.232010
20
303.572299
11
210.956130
21
303.693111
0
LINE
8
Layer 1
10
210.956130
20
303.693111
11
210.864000
21
303.982299
0
LINE
8
Layer 1
10
215.406000
20
305.988899
11
214.620000
21
305.821999
0
LINE
8
Layer 1
10
214.620000
20
305.821999
11
213.948010
21
305.259299
0
LINE
8
Layer 1
10
213.948010
20
305.259299
11
213.590750
21
304.593712
0
LINE
8
Layer 1
10
213.590750
20
304.593712
11
213.402990
21
303.879599
0
LINE
8
Layer 1
10
210.864000
20
303.982299
11
211.036420
21
304.936662
0
LINE
8
Layer 1
10
211.036420
20
304.936662
11
211.393621
21
305.837774
0
LINE
8
Layer 1
10
211.393621
20
305.837774
11
211.916011
21
306.654624
0
LINE
8
Layer 1
10
211.916011
20
306.654624
11
212.584000
21
307.356199
0
LINE
8
Layer 1
10
212.584000
20
307.356199
11
213.821126
21
308.120036
0
LINE
8
Layer 1
10
213.821126
20
308.120036
11
215.242010
21
308.405599
0
LINE
8
Layer 1
10
217.265990
20
303.346899
11
217.117000
21
304.635599
0
LINE
8
Layer 1
10
217.117000
20
304.635599
11
216.914990
21
305.155699
0
LINE
8
Layer 1
10
216.914990
20
305.155699
11
216.450990
21
305.694599
0
LINE
8
Layer 1
10
216.450990
20
305.694599
11
215.955124
21
305.922637
0
LINE
8
Layer 1
10
215.955124
20
305.922637
11
215.406000
21
305.988899
0
LINE
8
Layer 1
10
215.242010
20
308.405599
11
216.051243
21
308.332736
0
LINE
8
Layer 1
10
216.051243
20
308.332736
11
216.825990
21
308.108299
0
LINE
8
Layer 1
10
216.825990
20
308.108299
11
217.635875
21
307.666712
0
LINE
8
Layer 1
10
217.635875
20
307.666712
11
218.310010
21
307.074299
0
LINE
8
Layer 1
10
217.634000
20
302.978299
11
217.373131
21
303.085799
0
LINE
8
Layer 1
10
217.373131
20
303.085799
11
217.265990
21
303.346899
0
LINE
8
Layer 1
10
218.310010
20
307.074299
11
218.613376
21
306.946899
0
LINE
8
Layer 1
10
218.613376
20
306.946899
11
218.904000
21
307.094899
0
LINE
8
Layer 1
10
219.313120
20
302.978269
11
217.633020
21
302.978269
0
LINE
8
Layer 1
10
218.904000
20
307.094899
11
219.491000
21
307.690099
0
LINE
8
Layer 1
10
219.491000
20
307.690099
11
220.118624
21
308.064949
0
LINE
8
Layer 1
10
220.118624
20
308.064949
11
220.821990
21
308.299999
0
LINE
8
Layer 1
10
220.821990
20
308.299999
11
221.812010
21
308.405599
0
LINE
8
Layer 1
10
219.682010
20
303.346899
11
219.574134
21
303.086024
0
LINE
8
Layer 1
10
219.574134
20
303.086024
11
219.314000
21
302.978299
0
LINE
8
Layer 1
10
221.812010
20
308.405599
11
223.350000
21
308.168299
0
LINE
8
Layer 1
10
223.350000
20
308.168299
11
224.283500
21
307.687649
0
LINE
8
Layer 1
10
224.283500
20
307.687649
11
225.034000
21
306.955299
0
LINE
8
Layer 1
10
225.034000
20
306.955299
11
225.591875
21
305.978624
0
LINE
8
Layer 1
10
225.591875
20
305.978624
11
225.918000
21
304.903999
0
LINE
8
Layer 1
10
225.918000
20
304.903999
11
226.031000
21
304.084299
0
LINE
8
Layer 1
10
221.627990
20
305.988899
11
220.765000
21
305.781399
0
LINE
8
Layer 1
10
220.765000
20
305.781399
11
220.110000
21
305.112899
0
LINE
8
Layer 1
10
220.110000
20
305.112899
11
219.788755
21
304.250074
0
LINE
8
Layer 1
10
219.788755
20
304.250074
11
219.682010
21
303.346899
0
LINE
8
Layer 1
10
226.031000
20
304.084299
11
225.938749
21
303.795561
0
LINE
8
Layer 1
10
225.938749
20
303.795561
11
225.661990
21
303.674899
0
LINE
8
Layer 1
10
223.389000
20
303.961599
11
222.950010
21
305.271999
0
LINE
8
Layer 1
10
222.950010
20
305.271999
11
222.472010
21
305.775399
0
LINE
8
Layer 1
10
222.472010
20
305.775399
11
221.627990
21
305.988899
0
LINE
8
Layer 1
10
225.663120
20
303.674919
11
223.758120
21
303.674919
0
LINE
8
Layer 1
10
223.757990
20
303.674899
11
223.520256
21
303.756303
0
LINE
8
Layer 1
10
223.520256
20
303.756303
11
223.389000
21
303.961599
0
LINE
8
Layer 1
10
265.033130
20
374.867685
11
285.032980
21
374.867685
0
LINE
8
Layer 1
10
265.033130
20
382.867626
11
265.033130
21
374.867685
0
LINE
8
Layer 1
10
285.032980
20
382.867626
11
265.033130
21
382.867626
0
LINE
8
Layer 1
10
285.032980
20
374.867685
11
285.032980
21
382.867626
0
LINE
8
Layer 1
10
210.924990
20
318.425599
11
210.730874
21
318.297467
0
LINE
8
Layer 1
10
210.730874
20
318.297467
11
210.659000
21
318.077609
0
LINE
8
Layer 1
10
225.567870
20
322.378579
11
210.925830
21
318.425709
0
LINE
8
Layer 1
10
210.658600
20
318.077519
11
210.658600
21
316.008999
0
LINE
8
Layer 1
10
226.038990
20
322.030709
11
225.894621
21
322.319825
0
LINE
8
Layer 1
10
225.894621
20
322.319825
11
225.568010
21
322.378699
0
LINE
8
Layer 1
10
210.659000
20
316.008909
11
210.730499
21
315.771809
0
LINE
8
Layer 1
10
210.730499
20
315.771809
11
210.924990
21
315.640309
0
LINE
8
Layer 1
10
226.038830
20
320.145759
11
226.038830
21
322.030659
0
LINE
8
Layer 1
10
210.925830
20
315.640169
11
213.709250
21
314.944319
0
LINE
8
Layer 1
10
225.773010
20
319.797609
11
225.967496
21
319.925609
0
LINE
8
Layer 1
10
225.967496
20
319.925609
11
226.038990
21
320.145709
0
LINE
8
Layer 1
10
213.709990
20
314.944299
11
213.969994
21
314.969088
0
LINE
8
Layer 1
10
213.969994
20
314.969088
11
214.139990
21
315.148909
0
LINE
8
Layer 1
10
215.164460
20
316.868899
11
225.774250
21
319.797569
0
LINE
8
Layer 1
10
214.140520
20
315.148839
11
214.651170
21
316.418309
0
LINE
8
Layer 1
10
214.651990
20
316.418309
11
214.861125
21
316.703796
0
LINE
8
Layer 1
10
214.861125
20
316.703796
11
215.164010
21
316.868909
0
LINE
8
Layer 1
10
210.679770
20
327.849639
11
210.679770
21
325.965799
0
LINE
8
Layer 1
10
211.047990
20
328.238709
11
210.793504
21
328.119580
0
LINE
8
Layer 1
10
210.793504
20
328.119580
11
210.680010
21
327.849709
0
LINE
8
Layer 1
10
210.680010
20
325.965709
11
210.794250
21
325.705454
0
LINE
8
Layer 1
10
210.794250
20
325.705454
11
211.047990
21
325.596699
0
LINE
8
Layer 1
10
225.464690
20
328.238569
11
211.047540
21
328.238569
0
LINE
8
Layer 1
10
211.047540
20
325.596709
11
225.671060
21
325.596709
0
LINE
8
Layer 1
10
226.038990
20
327.644709
11
225.786000
21
328.140709
0
LINE
8
Layer 1
10
225.786000
20
328.140709
11
225.466010
21
328.238709
0
LINE
8
Layer 1
10
225.671010
20
325.596699
11
225.931875
21
325.704704
0
LINE
8
Layer 1
10
225.931875
20
325.704704
11
226.038990
21
325.965709
0
LINE
8
Layer 1
10
226.038830
20
325.965799
11
226.038830
21
327.644589
0
LINE
8
Layer 1
10
223.787230
20
336.532729
11
225.446170
21
336.532729
0
LINE
8
Layer 1
10
223.418000
20
336.164709
11
223.525126
21
336.425584
0
LINE
8
Layer 1
10
223.525126
20
336.425584
11
223.786010
21
336.532709
0
LINE
8
Layer 1
10
225.446010
20
336.532709
11
225.864750
21
336.358459
0
LINE
8
Layer 1
10
225.864750
20
336.358459
11
226.038990
21
335.939709
0
LINE
8
Layer 1
10
223.416810
20
330.266609
11
223.416810
21
336.164699
0
LINE
8
Layer 1
10
226.038830
20
335.939799
11
226.038830
21
330.266609
0
LINE
8
Layer 1
10
223.561010
20
330.102709
11
223.418000
21
330.266709
0
LINE
8
Layer 1
10
226.038990
20
330.266709
11
225.896010
21
330.102709
0
LINE
8
Layer 1
10
225.895960
20
330.102829
11
223.559690
21
330.102829
0
LINE
8
Layer 1
10
223.787230
20
350.356679
11
225.446170
21
350.356679
0
LINE
8
Layer 1
10
223.418000
20
349.988709
11
223.525126
21
350.249580
0
LINE
8
Layer 1
10
223.525126
20
350.249580
11
223.786010
21
350.356709
0
LINE
8
Layer 1
10
225.446010
20
350.356709
11
225.864750
21
350.182459
0
LINE
8
Layer 1
10
225.864750
20
350.182459
11
226.038990
21
349.763709
0
LINE
8
Layer 1
10
223.416810
20
344.090819
11
223.416810
21
349.988649
0
LINE
8
Layer 1
10
226.038830
20
349.763749
11
226.038830
21
344.090819
0
LINE
8
Layer 1
10
223.561010
20
343.926699
11
223.418000
21
344.090709
0
LINE
8
Layer 1
10
226.038990
20
344.090709
11
225.896010
21
343.926699
0
LINE
8
Layer 1
10
225.895960
20
343.926779
11
223.559690
21
343.926779
0
LINE
8
Layer 1
10
210.679770
20
341.673589
11
210.679770
21
339.789749
0
LINE
8
Layer 1
10
211.047990
20
342.062709
11
210.793504
21
341.943580
0
LINE
8
Layer 1
10
210.793504
20
341.943580
11
210.680010
21
341.673709
0
LINE
8
Layer 1
10
210.680010
20
339.789709
11
210.794250
21
339.529450
0
LINE
8
Layer 1
10
210.794250
20
339.529450
11
211.047990
21
339.420699
0
LINE
8
Layer 1
10
225.464690
20
342.062789
11
211.047540
21
342.062789
0
LINE
8
Layer 1
10
211.047540
20
339.420659
11
225.671060
21
339.420659
0
LINE
8
Layer 1
10
226.038990
20
341.468709
11
225.786000
21
341.964709
0
LINE
8
Layer 1
10
225.786000
20
341.964709
11
225.466010
21
342.062709
0
LINE
8
Layer 1
10
225.671010
20
339.420699
11
225.931875
21
339.528704
0
LINE
8
Layer 1
10
225.931875
20
339.528704
11
226.038990
21
339.789709
0
LINE
8
Layer 1
10
226.038830
20
339.789749
11
226.038830
21
341.468799
0
LINE
8
Layer 1
10
8.130641
20
371.449606
11
0.132291
21
371.449606
0
LINE
8
Layer 1
10
94.773746
20
109.742820
11
59.150247
21
399.867708
0
LINE
8
Layer 1
10
59.150247
20
399.867708
11
46.984705
21
399.867708
0
LINE
8
Layer 1
10
46.984705
20
399.867708
11
46.984705
21
387.047587
0
LINE
8
Layer 1
10
46.984705
20
387.047587
11
14.840481
21
387.047587
0
LINE
8
Layer 1
10
14.840481
20
387.047587
11
14.840481
21
399.867708
0
LINE
8
Layer 1
10
14.840481
20
399.867708
11
8.130641
21
399.867708
0
LINE
8
Layer 1
10
8.130641
20
371.449606
11
8.130641
21
363.135604
0
LINE
8
Layer 1
10
8.130641
20
399.867708
11
8.130641
21
391.449724
0
LINE
8
Layer 1
10
8.130641
20
363.135604
11
30.130751
21
363.135604
0
LINE
8
Layer 1
10
30.130981
20
325.135657
11
32.647713
21
325.302745
0
LINE
8
Layer 1
10
32.647713
20
325.302745
11
35.088416
21
325.793351
0
LINE
8
Layer 1
10
35.088416
20
325.793351
11
37.425402
21
326.591489
0
LINE
8
Layer 1
10
37.425402
20
326.591489
11
39.630981
21
327.681174
0
LINE
8
Layer 1
10
39.630981
20
327.681174
11
41.677465
21
329.046419
0
LINE
8
Layer 1
10
41.677465
20
329.046419
11
43.537166
21
330.671239
0
LINE
8
Layer 1
10
43.537166
20
330.671239
11
45.182395
21
332.539647
0
LINE
8
Layer 1
10
45.182395
20
332.539647
11
46.585464
21
334.635657
0
LINE
8
Layer 1
10
46.585464
20
334.635657
11
47.699128
21
336.898755
0
LINE
8
Layer 1
10
47.699128
20
336.898755
11
48.494602
21
339.257769
0
LINE
8
Layer 1
10
48.494602
20
339.257769
11
48.971886
21
341.680727
0
LINE
8
Layer 1
10
48.971886
20
341.680727
11
49.130981
21
344.135657
0
LINE
8
Layer 1
10
49.130981
20
344.135657
11
48.971886
21
346.590587
0
LINE
8
Layer 1
10
48.971886
20
346.590587
11
48.494602
21
349.013545
0
LINE
8
Layer 1
10
48.494602
20
349.013545
11
47.699128
21
351.372559
0
LINE
8
Layer 1
10
47.699128
20
351.372559
11
46.585464
21
353.635657
0
LINE
8
Layer 1
10
46.585464
20
353.635657
11
45.182395
21
355.731667
0
LINE
8
Layer 1
10
45.182395
20
355.731667
11
43.537166
21
357.600075
0
LINE
8
Layer 1
10
43.537166
20
357.600075
11
41.677465
21
359.224895
0
LINE
8
Layer 1
10
41.677465
20
359.224895
11
39.630981
21
360.590140
0
LINE
8
Layer 1
10
39.630981
20
360.590140
11
37.425402
21
361.679825
0
LINE
8
Layer 1
10
37.425402
20
361.679825
11
35.088416
21
362.477963
0
LINE
8
Layer 1
10
35.088416
20
362.477963
11
32.647713
21
362.968569
0
LINE
8
Layer 1
10
32.647713
20
362.968569
11
30.130981
21
363.135657
0
LINE
8
Layer 1
10
8.130641
20
289.669800
11
8.130641
21
325.135617
0
LINE
8
Layer 1
10
8.130641
20
249.688880
11
8.130641
21
269.669690
0
LINE
8
Layer 1
10
8.130641
20
209.707700
11
8.130641
21
229.689030
0
LINE
8
Layer 1
10
8.130641
20
169.723860
11
8.130641
21
189.705200
0
LINE
8
Layer 1
10
8.130641
20
129.742680
11
8.130641
21
149.724010
0
LINE
8
Layer 1
10
8.130641
20
325.135617
11
30.130751
21
325.135617
0
LINE
8
Layer 1
10
8.130641
20
289.669800
11
0.132291
21
289.669800
0
LINE
8
Layer 1
10
8.130641
20
269.669690
11
0.132291
21
269.669690
0
LINE
8
Layer 1
10
8.130641
20
249.688880
11
0.132291
21
249.688880
0
LINE
8
Layer 1
10
8.130641
20
229.689030
11
0.132291
21
229.689030
0
LINE
8
Layer 1
10
8.130641
20
209.707700
11
0.132291
21
209.707700
0
LINE
8
Layer 1
10
8.130641
20
189.705200
11
0.132291
21
189.705200
0
LINE
8
Layer 1
10
8.130641
20
169.723860
11
0.132291
21
169.723860
0
LINE
8
Layer 1
10
8.130641
20
149.724010
11
0.132291
21
149.724010
0
LINE
8
Layer 1
10
8.130641
20
129.742680
11
0.132291
21
129.742680
0
LINE
8
Layer 1
10
0.132292
20
289.669800
11
0.132292
21
269.669690
0
LINE
8
Layer 1
10
0.132292
20
249.688880
11
0.132292
21
229.689030
0
LINE
8
Layer 1
10
0.132292
20
209.707700
11
0.132292
21
189.705200
0
LINE
8
Layer 1
10
0.132292
20
169.723860
11
0.132292
21
149.724010
0
LINE
8
Layer 1
10
0.132292
20
129.742680
11
0.132292
21
109.742820
0
LINE
8
Layer 1
10
8.130641
20
391.449724
11
0.132291
21
391.449724
0
LINE
8
Layer 1
10
0.132292
20
391.449724
11
0.132292
21
371.449606
0
LINE
8
Layer 1
10
0.132292
20
109.742820
11
94.773746
21
109.742820
0
LINE
8
Layer 1
10
163.851170
20
137.717220
11
171.852170
21
137.717220
0
LINE
8
Layer 1
10
77.208059
20
399.423737
11
112.831560
21
109.300970
0
LINE
8
Layer 1
10
112.831560
20
109.300970
11
124.999750
21
109.300970
0
LINE
8
Layer 1
10
124.999750
20
109.300970
11
124.999750
21
122.117380
0
LINE
8
Layer 1
10
124.999750
20
122.117380
11
157.141330
21
122.117380
0
LINE
8
Layer 1
10
157.141330
20
122.117380
11
157.141330
21
109.300970
0
LINE
8
Layer 1
10
157.141330
20
109.300970
11
163.851170
21
109.300970
0
LINE
8
Layer 1
10
163.851170
20
137.717220
11
163.851170
21
146.030430
0
LINE
8
Layer 1
10
163.851170
20
109.300970
11
163.851170
21
117.717360
0
LINE
8
Layer 1
10
163.851170
20
146.030430
11
141.851060
21
146.030430
0
LINE
8
Layer 1
10
141.851990
20
184.030940
11
139.910393
21
183.931532
0
LINE
8
Layer 1
10
139.910393
20
183.931532
11
138.024966
21
183.642522
0
LINE
8
Layer 1
10
138.024966
20
183.642522
11
136.205243
21
183.173451
0
LINE
8
Layer 1
10
136.205243
20
183.173451
11
134.460758
21
182.533860
0
LINE
8
Layer 1
10
134.460758
20
182.533860
11
132.801045
21
181.733288
0
LINE
8
Layer 1
10
132.801045
20
181.733288
11
131.235637
21
180.781277
0
LINE
8
Layer 1
10
131.235637
20
180.781277
11
129.774069
21
179.687367
0
LINE
8
Layer 1
10
129.774069
20
179.687367
11
128.425873
21
178.461100
0
LINE
8
Layer 1
10
128.425873
20
178.461100
11
127.200583
21
177.112014
0
LINE
8
Layer 1
10
127.200583
20
177.112014
11
126.107734
21
175.649652
0
LINE
8
Layer 1
10
126.107734
20
175.649652
11
125.156859
21
174.083554
0
LINE
8
Layer 1
10
125.156859
20
174.083554
11
124.357492
21
172.423261
0
LINE
8
Layer 1
10
124.357492
20
172.423261
11
123.719166
21
170.678313
0
LINE
8
Layer 1
10
123.719166
20
170.678313
11
123.251415
21
168.858250
0
LINE
8
Layer 1
10
123.251415
20
168.858250
11
122.963773
21
166.972614
0
LINE
8
Layer 1
10
122.963773
20
166.972614
11
122.865774
21
165.030945
0
LINE
8
Layer 1
10
122.865774
20
165.030945
11
122.963773
21
163.089276
0
LINE
8
Layer 1
10
122.963773
20
163.089276
11
123.251415
21
161.203640
0
LINE
8
Layer 1
10
123.251415
20
161.203640
11
123.719166
21
159.383577
0
LINE
8
Layer 1
10
123.719166
20
159.383577
11
124.357492
21
157.638629
0
LINE
8
Layer 1
10
124.357492
20
157.638629
11
125.156859
21
155.978336
0
LINE
8
Layer 1
10
125.156859
20
155.978336
11
126.107734
21
154.412238
0
LINE
8
Layer 1
10
126.107734
20
154.412238
11
127.200583
21
152.949876
0
LINE
8
Layer 1
10
127.200583
20
152.949876
11
128.425873
21
151.600790
0
LINE
8
Layer 1
10
128.425873
20
151.600790
11
129.774069
21
150.374523
0
LINE
8
Layer 1
10
129.774069
20
150.374523
11
131.235637
21
149.280613
0
LINE
8
Layer 1
10
131.235637
20
149.280613
11
132.801045
21
148.328602
0
LINE
8
Layer 1
10
132.801045
20
148.328602
11
134.460758
21
147.528030
0
LINE
8
Layer 1
10
134.460758
20
147.528030
11
136.205243
21
146.888439
0
LINE
8
Layer 1
10
136.205243
20
146.888439
11
138.024966
21
146.419368
0
LINE
8
Layer 1
10
138.024966
20
146.419368
11
139.910393
21
146.130358
0
LINE
8
Layer 1
10
139.910393
20
146.130358
11
141.851990
21
146.030950
0
LINE
8
Layer 1
10
163.851170
20
219.497280
11
163.851170
21
184.029880
0
LINE
8
Layer 1
10
163.851170
20
259.478470
11
163.851170
21
239.497130
0
LINE
8
Layer 1
10
163.851170
20
299.460180
11
163.851170
21
279.478320
0
LINE
8
Layer 1
10
163.851170
20
339.441637
11
163.851170
21
319.459775
0
LINE
8
Layer 1
10
163.851170
20
379.423618
11
163.851170
21
359.441756
0
LINE
8
Layer 1
10
163.851170
20
184.029880
11
141.851060
21
184.029880
0
LINE
8
Layer 1
10
163.851170
20
219.497280
11
171.852170
21
219.497280
0
LINE
8
Layer 1
10
163.851170
20
239.497130
11
171.852170
21
239.497130
0
LINE
8
Layer 1
10
163.851170
20
259.478470
11
171.852170
21
259.478470
0
LINE
8
Layer 1
10
163.851170
20
279.478320
11
171.852170
21
279.478320
0
LINE
8
Layer 1
10
163.851170
20
299.460180
11
171.852170
21
299.460180
0
LINE
8
Layer 1
10
163.851170
20
319.459775
11
171.852170
21
319.459775
0
LINE
8
Layer 1
10
163.851170
20
339.441637
11
171.852170
21
339.441637
0
LINE
8
Layer 1
10
163.851170
20
359.441756
11
171.852170
21
359.441756
0
LINE
8
Layer 1
10
163.851170
20
379.423618
11
171.852170
21
379.423618
0
LINE
8
Layer 1
10
171.852170
20
219.497280
11
171.852170
21
239.497130
0
LINE
8
Layer 1
10
171.852170
20
259.478470
11
171.852170
21
279.478320
0
LINE
8
Layer 1
10
171.852170
20
299.460180
11
171.852170
21
319.459775
0
LINE
8
Layer 1
10
171.852170
20
339.441637
11
171.852170
21
359.441756
0
LINE
8
Layer 1
10
171.852170
20
379.423618
11
171.852170
21
399.423737
0
LINE
8
Layer 1
10
163.851170
20
117.717360
11
171.852170
21
117.717360
0
LINE
8
Layer 1
10
171.852170
20
117.717360
11
171.852170
21
137.717220
0
LINE
8
Layer 1
10
171.852170
20
399.423737
11
77.208059
21
399.423737
0
LINE
8
Layer 1
10
30.281220
20
7.476100
11
50.320770
21
7.476100
0
LINE
8
Layer 1
10
50.320770
20
15.476050
11
50.320770
21
7.476100
0
LINE
8
Layer 1
10
70.320620
20
15.476050
11
50.320770
21
15.476050
0
LINE
8
Layer 1
10
70.320620
20
7.476100
11
70.320620
21
15.476050
0
LINE
8
Layer 1
10
70.320620
20
7.476100
11
90.362810
21
7.476100
0
LINE
8
Layer 1
10
90.362810
20
15.476050
11
90.362810
21
7.476100
0
LINE
8
Layer 1
10
110.362650
20
15.476050
11
90.362810
21
15.476050
0
LINE
8
Layer 1
10
110.362650
20
7.476100
11
110.362650
21
15.476050
0
LINE
8
Layer 1
10
110.362650
20
7.476100
11
130.402990
21
7.476100
0
LINE
8
Layer 1
10
130.402990
20
15.476050
11
130.402990
21
7.476100
0
LINE
8
Layer 1
10
150.403100
20
15.476050
11
130.402990
21
15.476050
0
LINE
8
Layer 1
10
150.403100
20
7.476100
11
150.403100
21
15.476050
0
LINE
8
Layer 1
10
150.403100
20
7.476100
11
170.443700
21
7.476100
0
LINE
8
Layer 1
10
170.443700
20
15.476050
11
170.443700
21
7.476100
0
LINE
8
Layer 1
10
190.443570
20
15.476050
11
170.443700
21
15.476050
0
LINE
8
Layer 1
10
190.443570
20
7.476100
11
190.443570
21
15.476050
0
LINE
8
Layer 1
10
190.443570
20
7.476100
11
210.484170
21
7.476100
0
LINE
8
Layer 1
10
210.484170
20
15.476050
11
210.484170
21
7.476100
0
LINE
8
Layer 1
10
230.484290
20
15.476050
11
210.484170
21
15.476050
0
LINE
8
Layer 1
10
230.484290
20
7.476100
11
230.484290
21
15.476050
0
LINE
8
Layer 1
10
230.484290
20
7.476100
11
250.525150
21
7.476100
0
LINE
8
Layer 1
10
250.525150
20
15.476050
11
250.525150
21
7.476100
0
LINE
8
Layer 1
10
270.525270
20
15.476050
11
250.525150
21
15.476050
0
LINE
8
Layer 1
10
270.525270
20
7.476100
11
270.525270
21
15.476050
0
LINE
8
Layer 1
10
270.525270
20
7.476100
11
276.281280
21
7.476100
0
LINE
8
Layer 1
10
276.281280
20
27.858020
11
276.281280
21
7.476100
0
LINE
8
Layer 1
10
268.281340
20
27.858020
11
276.281280
21
27.858020
0
LINE
8
Layer 1
10
268.281340
20
47.858130
11
268.281340
21
27.858020
0
LINE
8
Layer 1
10
276.281280
20
47.858130
11
268.281340
21
47.858130
0
LINE
8
Layer 1
10
276.281280
20
67.476190
11
276.281280
21
47.858130
0
LINE
8
Layer 1
10
268.281340
20
67.476190
11
276.281280
21
67.476190
0
LINE
8
Layer 1
10
268.281340
20
87.476050
11
268.281340
21
67.476190
0
LINE
8
Layer 1
10
18.282370
20
87.476050
11
268.281340
21
87.476050
0
LINE
8
Layer 1
10
18.282370
20
87.476050
11
18.282370
21
67.476190
0
LINE
8
Layer 1
10
18.282370
20
67.476190
11
10.281370
21
67.476190
0
LINE
8
Layer 1
10
10.281370
20
47.858130
11
10.281370
21
67.476190
0
LINE
8
Layer 1
10
10.281370
20
47.858130
11
18.282370
21
47.858130
0
LINE
8
Layer 1
10
18.282370
20
47.858130
11
18.282370
21
27.858020
0
LINE
8
Layer 1
10
18.282370
20
27.858020
11
10.281370
21
27.858020
0
LINE
8
Layer 1
10
10.281370
20
15.476050
11
10.281370
21
27.858020
0
LINE
8
Layer 1
10
30.281220
20
15.476050
11
10.281370
21
15.476050
0
LINE
8
Layer 1
10
30.281220
20
7.476100
11
30.281220
21
15.476050
0
LINE
8
Layer 1
10
40.281260
20
25.976120
11
41.804545
21
26.077252
0
LINE
8
Layer 1
10
41.804545
20
26.077252
11
43.281813
21
26.374198
0
LINE
8
Layer 1
10
43.281813
20
26.374198
11
44.696304
21
26.857282
0
LINE
8
Layer 1
10
44.696304
20
26.857282
11
46.031260
21
27.516828
0
LINE
8
Layer 1
10
46.031260
20
27.516828
11
47.269922
21
28.343160
0
LINE
8
Layer 1
10
47.269922
20
28.343160
11
48.395530
21
29.326604
0
LINE
8
Layer 1
10
48.395530
20
29.326604
11
49.391327
21
30.457482
0
LINE
8
Layer 1
10
49.391327
20
30.457482
11
50.240552
21
31.726120
0
LINE
8
Layer 1
10
50.240552
20
31.726120
11
50.914612
21
33.095890
0
LINE
8
Layer 1
10
50.914612
20
33.095890
11
51.396083
21
34.523714
0
LINE
8
Layer 1
10
51.396083
20
34.523714
11
51.684966
21
35.990241
0
LINE
8
Layer 1
10
51.684966
20
35.990241
11
51.781260
21
37.476120
0
LINE
8
Layer 1
10
51.781260
20
37.476120
11
51.684966
21
38.961999
0
LINE
8
Layer 1
10
51.684966
20
38.961999
11
51.396083
21
40.428526
0
LINE
8
Layer 1
10
51.396083
20
40.428526
11
50.914612
21
41.856350
0
LINE
8
Layer 1
10
50.914612
20
41.856350
11
50.240552
21
43.226120
0
LINE
8
Layer 1
10
50.240552
20
43.226120
11
49.391327
21
44.494758
0
LINE
8
Layer 1
10
49.391327
20
44.494758
11
48.395530
21
45.625636
0
LINE
8
Layer 1
10
48.395530
20
45.625636
11
47.269922
21
46.609080
0
LINE
8
Layer 1
10
47.269922
20
46.609080
11
46.031260
21
47.435412
0
LINE
8
Layer 1
10
46.031260
20
47.435412
11
44.696304
21
48.094958
0
LINE
8
Layer 1
10
44.696304
20
48.094958
11
43.281813
21
48.578042
0
LINE
8
Layer 1
10
43.281813
20
48.578042
11
41.804545
21
48.874988
0
LINE
8
Layer 1
10
41.804545
20
48.874988
11
40.281260
21
48.976120
0
LINE
8
Layer 1
10
40.281260
20
48.976120
11
38.757975
21
48.874988
0
LINE
8
Layer 1
10
38.757975
20
48.874988
11
37.280707
21
48.578042
0
LINE
8
Layer 1
10
37.280707
20
48.578042
11
35.866216
21
48.094958
0
LINE
8
Layer 1
10
35.866216
20
48.094958
11
34.531260
21
47.435412
0
LINE
8
Layer 1
10
34.531260
20
47.435412
11
33.292598
21
46.609080
0
LINE
8
Layer 1
10
33.292598
20
46.609080
11
32.166990
21
45.625636
0
LINE
8
Layer 1
10
32.166990
20
45.625636
11
31.171193
21
44.494758
0
LINE
8
Layer 1
10
31.171193
20
44.494758
11
30.321968
21
43.226120
0
LINE
8
Layer 1
10
30.321968
20
43.226120
11
29.647908
21
41.856350
0
LINE
8
Layer 1
10
29.647908
20
41.856350
11
29.166437
21
40.428526
0
LINE
8
Layer 1
10
29.166437
20
40.428526
11
28.877554
21
38.961999
0
LINE
8
Layer 1
10
28.877554
20
38.961999
11
28.781260
21
37.476120
0
LINE
8
Layer 1
10
28.781260
20
37.476120
11
28.877554
21
35.990241
0
LINE
8
Layer 1
10
28.877554
20
35.990241
11
29.166437
21
34.523714
0
LINE
8
Layer 1
10
29.166437
20
34.523714
11
29.647908
21
33.095890
0
LINE
8
Layer 1
10
29.647908
20
33.095890
11
30.321968
21
31.726120
0
LINE
8
Layer 1
10
30.321968
20
31.726120
11
31.171193
21
30.457482
0
LINE
8
Layer 1
10
31.171193
20
30.457482
11
32.166990
21
29.326604
0
LINE
8
Layer 1
10
32.166990
20
29.326604
11
33.292598
21
28.343160
0
LINE
8
Layer 1
10
33.292598
20
28.343160
11
34.531260
21
27.516828
0
LINE
8
Layer 1
10
34.531260
20
27.516828
11
35.866216
21
26.857282
0
LINE
8
Layer 1
10
35.866216
20
26.857282
11
37.280707
21
26.374198
0
LINE
8
Layer 1
10
37.280707
20
26.374198
11
38.757975
21
26.077252
0
LINE
8
Layer 1
10
38.757975
20
26.077252
11
40.281260
21
25.976120
0
LINE
8
Layer 1
10
40.281260
20
25.976120
11
40.281260
21
25.976120
0
LINE
8
Layer 1
10
36.991060
20
56.019210
11
36.991060
21
55.396110
0
LINE
8
Layer 1
10
36.851750
20
56.164120
11
36.989950
21
56.019130
0
LINE
8
Layer 1
10
36.989950
20
55.396120
11
36.767250
21
55.174120
0
LINE
8
Layer 1
10
34.686540
20
56.164200
11
36.850830
21
56.164200
0
LINE
8
Layer 1
10
36.766160
20
55.174130
11
34.686540
21
55.174130
0
LINE
8
Layer 1
10
34.624440
20
56.103120
11
34.685940
21
56.164120
0
LINE
8
Layer 1
10
34.685950
20
55.174120
11
34.624450
21
55.228120
0
LINE
8
Layer 1
10
34.625680
20
55.228100
11
34.625680
21
56.103080
0
LINE
8
Layer 1
10
39.789950
20
56.068120
11
39.889750
21
55.922120
0
LINE
8
Layer 1
10
39.221440
20
56.636120
11
39.350130
21
56.336120
0
LINE
8
Layer 1
10
39.350130
20
56.336120
11
39.789950
21
56.068120
0
LINE
8
Layer 1
10
39.890890
20
55.922110
11
39.890890
21
55.246090
0
LINE
8
Layer 1
10
39.021950
20
56.828120
11
39.221440
21
56.636120
0
LINE
8
Layer 1
10
39.889750
20
55.246120
11
39.720740
21
55.108120
0
LINE
8
Layer 1
10
38.345720
20
56.828040
11
39.023060
21
56.828040
0
LINE
8
Layer 1
10
39.720740
20
55.108120
11
39.102754
21
55.341620
0
LINE
8
Layer 1
10
39.102754
20
55.341620
11
38.586550
21
55.737120
0
LINE
8
Layer 1
10
38.586550
20
55.737120
11
38.315229
21
56.153245
0
LINE
8
Layer 1
10
38.315229
20
56.153245
11
38.215440
21
56.636120
0
LINE
8
Layer 1
10
38.215440
20
56.698120
11
38.345940
21
56.828120
0
LINE
8
Layer 1
10
38.216080
20
56.636220
11
38.216080
21
56.698120
0
LINE
8
Layer 1
10
47.772830
20
56.019210
11
47.772830
21
55.396110
0
LINE
8
Layer 1
10
47.635750
20
56.164120
11
47.773940
21
56.019130
0
LINE
8
Layer 1
10
47.773940
20
55.396120
11
47.551240
21
55.174120
0
LINE
8
Layer 1
10
45.470950
20
56.164200
11
47.635240
21
56.164200
0
LINE
8
Layer 1
10
47.550580
20
55.174130
11
45.470950
21
55.174130
0
LINE
8
Layer 1
10
45.408430
20
56.103120
11
45.469930
21
56.164120
0
LINE
8
Layer 1
10
45.469950
20
55.174120
11
45.408450
21
55.228120
0
LINE
8
Layer 1
10
45.407450
20
55.228100
11
45.407450
21
56.103080
0
LINE
8
Layer 1
10
50.728220
20
59.382060
11
51.479640
21
59.382060
0
LINE
8
Layer 1
10
50.612260
20
59.267120
11
50.727460
21
59.382120
0
LINE
8
Layer 1
10
51.480250
20
59.382120
11
51.595240
21
59.267120
0
LINE
8
Layer 1
10
50.611810
20
55.289220
11
50.611810
21
59.267230
0
LINE
8
Layer 1
10
51.596060
20
59.267230
11
51.596060
21
55.289220
0
LINE
8
Layer 1
10
50.727460
20
55.174120
11
50.612260
21
55.289120
0
LINE
8
Layer 1
10
51.595240
20
55.289120
11
51.480250
21
55.174120
0
LINE
8
Layer 1
10
51.479640
20
55.174130
11
50.728220
21
55.174130
0
LINE
8
Layer 1
10
27.698890
20
60.934110
11
28.413270
21
60.934110
0
LINE
8
Layer 1
10
27.559450
20
60.795120
11
27.697750
21
60.934120
0
LINE
8
Layer 1
10
28.411940
20
60.934120
11
28.550240
21
60.795120
0
LINE
8
Layer 1
10
27.558660
20
55.312240
11
27.558660
21
60.795200
0
LINE
8
Layer 1
10
28.550850
20
60.795200
11
28.550850
21
55.312240
0
LINE
8
Layer 1
10
27.697750
20
55.174120
11
27.559450
21
55.312120
0
LINE
8
Layer 1
10
28.550240
20
55.312120
11
28.411940
21
55.174120
0
LINE
8
Layer 1
10
28.413270
20
55.174130
11
27.698890
21
55.174130
0
LINE
8
Layer 1
10
31.675950
20
55.358120
11
31.545460
21
55.174120
0
LINE
8
Layer 1
10
30.630470
20
57.946170
11
31.675580
21
55.358010
0
LINE
8
Layer 1
10
31.545930
20
55.174130
11
30.815680
21
55.174130
0
LINE
8
Layer 1
10
30.685240
20
58.069120
11
30.631440
21
57.946130
0
LINE
8
Layer 1
10
30.815730
20
55.174120
11
30.738930
21
55.220120
0
LINE
8
Layer 1
10
31.599250
20
59.405120
11
31.524309
21
58.941995
0
LINE
8
Layer 1
10
31.524309
20
58.941995
11
31.302750
21
58.535120
0
LINE
8
Layer 1
10
31.302750
20
58.535120
11
30.685240
21
58.069120
0
LINE
8
Layer 1
10
30.738950
20
55.220170
11
29.656810
21
57.946170
0
LINE
8
Layer 1
10
29.917240
20
60.934120
11
30.620383
21
60.800370
0
LINE
8
Layer 1
10
30.620383
20
60.800370
11
31.206150
21
60.404120
0
LINE
8
Layer 1
10
31.206150
20
60.404120
11
31.497980
21
59.943995
0
LINE
8
Layer 1
10
31.497980
20
59.943995
11
31.599250
21
59.405120
0
LINE
8
Layer 1
10
29.656250
20
57.946130
11
29.648250
21
58.015130
0
LINE
8
Layer 1
10
29.572140
20
60.934110
11
29.916100
21
60.934110
0
LINE
8
Layer 1
10
29.648870
20
58.015220
11
29.648870
21
58.730130
0
LINE
8
Layer 1
10
29.425750
20
60.788120
11
29.571740
21
60.934120
0
LINE
8
Layer 1
10
29.648450
20
58.730120
11
29.740450
21
58.822120
0
LINE
8
Layer 1
10
29.426620
20
60.127130
11
29.426620
21
60.788060
0
LINE
8
Layer 1
10
29.741470
20
58.822200
11
29.916100
21
58.822200
0
LINE
8
Layer 1
10
29.525440
20
60.028120
11
29.425740
21
60.127120
0
LINE
8
Layer 1
10
29.917240
20
58.822120
11
30.408940
21
58.929120
0
LINE
8
Layer 1
10
30.408940
20
58.929120
11
30.627701
21
59.122499
0
LINE
8
Layer 1
10
30.627701
20
59.122499
11
30.708230
21
59.405120
0
LINE
8
Layer 1
10
29.916100
20
60.028170
11
29.524520
21
60.028170
0
LINE
8
Layer 1
10
30.708230
20
59.405120
11
30.627772
21
59.699370
0
LINE
8
Layer 1
10
30.627772
20
59.699370
11
30.408940
21
59.908120
0
LINE
8
Layer 1
10
30.408940
20
59.908120
11
29.917240
21
60.028120
0
LINE
8
Layer 1
10
33.972160
20
58.468190
11
35.506740
21
58.468190
0
LINE
8
Layer 1
10
33.910250
20
58.530120
11
33.971750
21
58.468120
0
LINE
8
Layer 1
10
35.507750
20
58.468120
11
35.645940
21
58.330120
0
LINE
8
Layer 1
10
33.911310
20
60.795990
11
33.911310
21
58.530100
0
LINE
8
Layer 1
10
35.646970
20
58.330080
11
35.646970
21
57.747200
0
LINE
8
Layer 1
10
33.771950
20
60.934120
11
33.910250
21
60.796120
0
LINE
8
Layer 1
10
35.645940
20
57.747120
11
35.566040
21
57.557495
0
LINE
8
Layer 1
10
35.566040
20
57.557495
11
35.376940
21
57.478120
0
LINE
8
Layer 1
10
33.056700
20
60.934110
11
33.771080
21
60.934110
0
LINE
8
Layer 1
10
35.377100
20
57.478120
11
33.972160
21
57.478120
0
LINE
8
Layer 1
10
32.919440
20
60.796120
11
33.057730
21
60.934120
0
LINE
8
Layer 1
10
33.971740
20
57.478120
11
33.910240
21
57.416120
0
LINE
8
Layer 1
10
32.919120
20
55.312240
11
32.919120
21
60.795990
0
LINE
8
Layer 1
10
33.911310
20
57.416210
11
33.911310
21
55.312240
0
LINE
8
Layer 1
10
33.057730
20
55.174120
11
32.919440
21
55.312120
0
LINE
8
Layer 1
10
33.910250
20
55.312120
11
33.771950
21
55.174120
0
LINE
8
Layer 1
10
33.771080
20
55.174130
11
33.056700
21
55.174130
0
LINE
8
Layer 1
10
39.674750
20
60.008120
11
39.828240
21
60.200120
0
LINE
8
Layer 1
10
39.183240
20
59.424120
11
39.362330
21
59.847120
0
LINE
8
Layer 1
10
39.362330
20
59.847120
11
39.674750
21
60.008120
0
LINE
8
Layer 1
10
39.827390
20
60.200150
11
39.827390
21
60.891240
0
LINE
8
Layer 1
10
41.256750
20
58.126120
11
40.548140
21
58.422120
0
LINE
8
Layer 1
10
40.548140
20
58.422120
11
39.903540
21
58.716120
0
LINE
8
Layer 1
10
39.903540
20
58.716120
11
39.456950
21
58.996120
0
LINE
8
Layer 1
10
39.456950
20
58.996120
11
39.183240
21
59.424120
0
LINE
8
Layer 1
10
39.828240
20
60.891120
11
39.697740
21
61.014130
0
LINE
8
Layer 1
10
42.477930
20
56.413120
11
42.267850
21
57.313120
0
LINE
8
Layer 1
10
42.267850
20
57.313120
11
41.819250
21
57.806120
0
LINE
8
Layer 1
10
41.819250
20
57.806120
11
41.256750
21
58.126120
0
LINE
8
Layer 1
10
39.697740
20
61.014130
11
39.053519
21
60.812875
0
LINE
8
Layer 1
10
39.053519
20
60.812875
11
38.541440
21
60.376120
0
LINE
8
Layer 1
10
38.541440
20
60.376120
11
38.314754
21
59.974870
0
LINE
8
Layer 1
10
38.314754
20
59.974870
11
38.230950
21
59.524120
0
LINE
8
Layer 1
10
40.964940
20
55.100120
11
41.580701
21
55.274245
0
LINE
8
Layer 1
10
41.580701
20
55.274245
11
42.114630
21
55.638120
0
LINE
8
Layer 1
10
42.114630
20
55.638120
11
42.375866
21
55.990745
0
LINE
8
Layer 1
10
42.375866
20
55.990745
11
42.477930
21
56.413120
0
LINE
8
Layer 1
10
38.230950
20
59.524120
11
38.321350
21
58.987120
0
LINE
8
Layer 1
10
38.321350
20
58.987120
11
38.840720
21
58.275120
0
LINE
8
Layer 1
10
38.840720
20
58.275120
11
40.050930
21
57.635120
0
LINE
8
Layer 1
10
40.834450
20
55.215120
11
40.964940
21
55.100120
0
LINE
8
Layer 1
10
40.050940
20
57.635120
11
41.095860
21
57.181120
0
LINE
8
Layer 1
10
41.095860
20
57.181120
11
41.374140
21
56.961120
0
LINE
8
Layer 1
10
41.374140
20
56.961120
11
41.517950
21
56.613120
0
LINE
8
Layer 1
10
40.835450
20
55.861250
11
40.835450
21
55.215140
0
LINE
8
Layer 1
10
41.517950
20
56.613120
11
41.361150
21
56.245120
0
LINE
8
Layer 1
10
41.361150
20
56.245120
11
40.987930
21
56.060120
0
LINE
8
Layer 1
10
40.987930
20
56.060120
11
40.834450
21
55.861120
0
LINE
8
Layer 1
10
36.991060
20
60.795990
11
36.991060
21
60.166020
0
LINE
8
Layer 1
10
36.851750
20
60.934120
11
36.989950
21
60.796120
0
LINE
8
Layer 1
10
36.989950
20
60.166120
11
36.767250
21
59.943120
0
LINE
8
Layer 1
10
34.686540
20
60.934110
11
36.850830
21
60.934110
0
LINE
8
Layer 1
10
36.766160
20
59.943240
11
34.686540
21
59.943240
0
LINE
8
Layer 1
10
34.624440
20
60.872120
11
34.685940
21
60.934120
0
LINE
8
Layer 1
10
34.685950
20
59.943120
11
34.624450
21
60.004120
0
LINE
8
Layer 1
10
34.625680
20
60.004100
11
34.625680
21
60.872190
0
LINE
8
Layer 1
10
40.903450
20
60.046120
11
40.795950
21
60.184120
0
LINE
8
Layer 1
10
41.471750
20
59.478120
11
41.361740
21
59.754120
0
LINE
8
Layer 1
10
41.361740
20
59.754120
11
40.903450
21
60.046120
0
LINE
8
Layer 1
10
40.795770
20
60.184010
11
40.795770
21
60.868230
0
LINE
8
Layer 1
10
41.470450
20
59.470170
11
41.470450
21
59.478170
0
LINE
8
Layer 1
10
40.795950
20
60.868120
11
40.972450
21
60.998120
0
LINE
8
Layer 1
10
41.663760
20
59.278120
11
41.471750
21
59.470130
0
LINE
8
Layer 1
10
40.972450
20
60.998120
11
41.610782
21
60.757120
0
LINE
8
Layer 1
10
41.610782
20
60.757120
11
42.136540
21
60.339120
0
LINE
8
Layer 1
10
42.136540
20
60.339120
11
42.386334
21
59.938245
0
LINE
8
Layer 1
10
42.386334
20
59.938245
11
42.477930
21
59.478120
0
LINE
8
Layer 1
10
42.340930
20
59.278080
11
41.663600
21
59.278080
0
LINE
8
Layer 1
10
42.478520
20
59.478110
11
42.478520
21
59.409010
0
LINE
8
Layer 1
10
42.477930
20
59.409120
11
42.339740
21
59.278120
0
LINE
8
Layer 1
10
44.756580
20
58.468190
11
46.291160
21
58.468190
0
LINE
8
Layer 1
10
44.694240
20
58.530120
11
44.755740
21
58.468120
0
LINE
8
Layer 1
10
46.291740
20
58.468120
11
46.429930
21
58.330120
0
LINE
8
Layer 1
10
44.693080
20
60.795990
11
44.693080
21
58.530100
0
LINE
8
Layer 1
10
46.428740
20
58.330080
11
46.428740
21
57.747200
0
LINE
8
Layer 1
10
44.555940
20
60.934120
11
44.694240
21
60.796120
0
LINE
8
Layer 1
10
46.429930
20
57.747120
11
46.350030
21
57.557495
0
LINE
8
Layer 1
10
46.350030
20
57.557495
11
46.160930
21
57.478120
0
LINE
8
Layer 1
10
43.841120
20
60.934110
11
44.555490
21
60.934110
0
LINE
8
Layer 1
10
46.161520
20
57.478120
11
44.756580
21
57.478120
0
LINE
8
Layer 1
10
43.703460
20
60.796120
11
43.841750
21
60.934120
0
LINE
8
Layer 1
10
44.755730
20
57.478120
11
44.694230
21
57.416120
0
LINE
8
Layer 1
10
43.703540
20
55.312240
11
43.703540
21
60.795990
0
LINE
8
Layer 1
10
44.693080
20
57.416210
11
44.693080
21
55.312240
0
LINE
8
Layer 1
10
43.841750
20
55.174120
11
43.703460
21
55.312120
0
LINE
8
Layer 1
10
44.694240
20
55.312120
11
44.555940
21
55.174120
0
LINE
8
Layer 1
10
44.555490
20
55.174130
11
43.841120
21
55.174130
0
LINE
8
Layer 1
10
47.772830
20
60.795990
11
47.772830
21
60.166020
0
LINE
8
Layer 1
10
47.635750
20
60.934120
11
47.773940
21
60.796120
0
LINE
8
Layer 1
10
47.773940
20
60.166120
11
47.551240
21
59.943120
0
LINE
8
Layer 1
10
45.470950
20
60.934110
11
47.635240
21
60.934110
0
LINE
8
Layer 1
10
47.550580
20
59.943240
11
45.470950
21
59.943240
0
LINE
8
Layer 1
10
45.408430
20
60.872120
11
45.469930
21
60.934120
0
LINE
8
Layer 1
10
45.469950
20
59.943120
11
45.408450
21
60.004120
0
LINE
8
Layer 1
10
45.407450
20
60.004100
11
45.407450
21
60.872190
0
LINE
8
Layer 1
10
53.207370
20
60.811080
11
53.207370
21
60.058070
0
LINE
8
Layer 1
10
53.092940
20
60.934120
11
53.207950
21
60.811120
0
LINE
8
Layer 1
10
53.207950
20
60.058120
11
53.092940
21
59.943120
0
LINE
8
Layer 1
10
49.114270
20
60.934110
11
53.093600
21
60.934110
0
LINE
8
Layer 1
10
53.093600
20
59.943240
11
49.114270
21
59.943240
0
LINE
8
Layer 1
10
48.999440
20
60.811120
11
49.114740
21
60.934120
0
LINE
8
Layer 1
10
49.114740
20
59.943120
11
48.999440
21
60.058120
0
LINE
8
Layer 1
10
49.000490
20
60.058070
11
49.000490
21
60.811080
0
LINE
8
Layer 1
10
246.281240
20
25.976120
11
247.804525
21
26.077252
0
LINE
8
Layer 1
10
247.804525
20
26.077252
11
249.281793
21
26.374198
0
LINE
8
Layer 1
10
249.281793
20
26.374198
11
250.696284
21
26.857282
0
LINE
8
Layer 1
10
250.696284
20
26.857282
11
252.031240
21
27.516828
0
LINE
8
Layer 1
10
252.031240
20
27.516828
11
253.269902
21
28.343160
0
LINE
8
Layer 1
10
253.269902
20
28.343160
11
254.395510
21
29.326604
0
LINE
8
Layer 1
10
254.395510
20
29.326604
11
255.391307
21
30.457482
0
LINE
8
Layer 1
10
255.391307
20
30.457482
11
256.240532
21
31.726120
0
LINE
8
Layer 1
10
256.240532
20
31.726120
11
256.914592
21
33.095890
0
LINE
8
Layer 1
10
256.914592
20
33.095890
11
257.396063
21
34.523714
0
LINE
8
Layer 1
10
257.396063
20
34.523714
11
257.684946
21
35.990241
0
LINE
8
Layer 1
10
257.684946
20
35.990241
11
257.781240
21
37.476120
0
LINE
8
Layer 1
10
257.781240
20
37.476120
11
257.684946
21
38.961999
0
LINE
8
Layer 1
10
257.684946
20
38.961999
11
257.396063
21
40.428526
0
LINE
8
Layer 1
10
257.396063
20
40.428526
11
256.914592
21
41.856350
0
LINE
8
Layer 1
10
256.914592
20
41.856350
11
256.240532
21
43.226120
0
LINE
8
Layer 1
10
256.240532
20
43.226120
11
255.391307
21
44.494758
0
LINE
8
Layer 1
10
255.391307
20
44.494758
11
254.395510
21
45.625636
0
LINE
8
Layer 1
10
254.395510
20
45.625636
11
253.269902
21
46.609080
0
LINE
8
Layer 1
10
253.269902
20
46.609080
11
252.031240
21
47.435412
0
LINE
8
Layer 1
10
252.031240
20
47.435412
11
250.696284
21
48.094958
0
LINE
8
Layer 1
10
250.696284
20
48.094958
11
249.281793
21
48.578042
0
LINE
8
Layer 1
10
249.281793
20
48.578042
11
247.804525
21
48.874988
0
LINE
8
Layer 1
10
247.804525
20
48.874988
11
246.281240
21
48.976120
0
LINE
8
Layer 1
10
246.281240
20
48.976120
11
244.757955
21
48.874988
0
LINE
8
Layer 1
10
244.757955
20
48.874988
11
243.280687
21
48.578042
0
LINE
8
Layer 1
10
243.280687
20
48.578042
11
241.866196
21
48.094958
0
LINE
8
Layer 1
10
241.866196
20
48.094958
11
240.531240
21
47.435412
0
LINE
8
Layer 1
10
240.531240
20
47.435412
11
239.292578
21
46.609080
0
LINE
8
Layer 1
10
239.292578
20
46.609080
11
238.166970
21
45.625636
0
LINE
8
Layer 1
10
238.166970
20
45.625636
11
237.171173
21
44.494758
0
LINE
8
Layer 1
10
237.171173
20
44.494758
11
236.321948
21
43.226120
0
LINE
8
Layer 1
10
236.321948
20
43.226120
11
235.647888
21
41.856350
0
LINE
8
Layer 1
10
235.647888
20
41.856350
11
235.166417
21
40.428526
0
LINE
8
Layer 1
10
235.166417
20
40.428526
11
234.877534
21
38.961999
0
LINE
8
Layer 1
10
234.877534
20
38.961999
11
234.781240
21
37.476120
0
LINE
8
Layer 1
10
234.781240
20
37.476120
11
234.877534
21
35.990241
0
LINE
8
Layer 1
10
234.877534
20
35.990241
11
235.166417
21
34.523714
0
LINE
8
Layer 1
10
235.166417
20
34.523714
11
235.647888
21
33.095890
0
LINE
8
Layer 1
10
235.647888
20
33.095890
11
236.321948
21
31.726120
0
LINE
8
Layer 1
10
236.321948
20
31.726120
11
237.171173
21
30.457482
0
LINE
8
Layer 1
10
237.171173
20
30.457482
11
238.166970
21
29.326604
0
LINE
8
Layer 1
10
238.166970
20
29.326604
11
239.292578
21
28.343160
0
LINE
8
Layer 1
10
239.292578
20
28.343160
11
240.531240
21
27.516828
0
LINE
8
Layer 1
10
240.531240
20
27.516828
11
241.866196
21
26.857282
0
LINE
8
Layer 1
10
241.866196
20
26.857282
11
243.280687
21
26.374198
0
LINE
8
Layer 1
10
243.280687
20
26.374198
11
244.757955
21
26.077252
0
LINE
8
Layer 1
10
244.757955
20
26.077252
11
246.281240
21
25.976120
0
LINE
8
Layer 1
10
246.281240
20
25.976120
11
246.281240
21
25.976120
0
LINE
8
Layer 1
10
246.605240
20
58.597120
11
246.421240
21
58.436120
0
LINE
8
Layer 1
10
247.127370
20
58.597040
11
246.605350
21
58.597040
0
LINE
8
Layer 1
10
246.421240
20
58.436120
11
246.112240
21
57.679120
0
LINE
8
Layer 1
10
246.112240
20
57.679120
11
245.853240
21
57.461120
0
LINE
8
Layer 1
10
247.312240
20
58.390120
11
247.127240
21
58.597120
0
LINE
8
Layer 1
10
245.853240
20
57.461120
11
245.707240
21
57.215120
0
LINE
8
Layer 1
10
245.845240
20
56.462120
11
246.476740
21
56.753620
0
LINE
8
Layer 1
10
246.476740
20
56.753620
11
246.943240
21
57.285120
0
LINE
8
Layer 1
10
246.943240
20
57.285120
11
247.312240
21
58.390120
0
LINE
8
Layer 1
10
245.707350
20
57.215120
11
245.707350
21
56.577210
0
LINE
8
Layer 1
10
245.707240
20
56.577120
11
245.845240
21
56.462120
0
LINE
8
Layer 1
10
236.798240
20
57.901120
11
236.700615
21
58.533495
0
LINE
8
Layer 1
10
236.700615
20
58.533495
11
236.419240
21
59.093120
0
LINE
8
Layer 1
10
236.419240
20
59.093120
11
235.915240
21
59.544120
0
LINE
8
Layer 1
10
236.798300
20
56.664000
11
236.798300
21
57.901190
0
LINE
8
Layer 1
10
235.915240
20
59.544120
11
235.807240
21
59.475120
0
LINE
8
Layer 1
10
236.660240
20
56.526130
11
236.798240
21
56.664120
0
LINE
8
Layer 1
10
235.945290
20
56.526150
11
236.660190
21
56.526150
0
LINE
8
Layer 1
10
235.807170
20
59.475190
11
235.807170
21
56.664000
0
LINE
8
Layer 1
10
235.807240
20
56.664120
11
235.945240
21
56.526130
0
LINE
8
Layer 1
10
234.436370
20
62.286130
11
233.721200
21
62.286130
0
LINE
8
Layer 1
10
234.574240
20
62.148120
11
234.436240
21
62.286120
0
LINE
8
Layer 1
10
233.721240
20
62.286120
11
233.583240
21
62.148120
0
LINE
8
Layer 1
10
234.574210
20
56.741260
11
234.574210
21
62.148020
0
LINE
8
Layer 1
10
233.583350
20
62.148020
11
233.583350
21
56.664000
0
LINE
8
Layer 1
10
234.359240
20
56.526130
11
234.574240
21
56.741120
0
LINE
8
Layer 1
10
233.583240
20
56.664120
11
233.721240
21
56.526130
0
LINE
8
Layer 1
10
233.721200
20
56.526150
11
234.359370
21
56.526150
0
LINE
8
Layer 1
10
235.807170
20
60.727200
11
235.807170
21
62.079220
0
LINE
8
Layer 1
10
235.984240
20
60.535120
11
235.807240
21
60.727120
0
LINE
8
Layer 1
10
235.807240
20
62.079120
11
236.007240
21
62.263130
0
LINE
8
Layer 1
10
236.299240
20
60.504120
11
235.984240
21
60.535120
0
LINE
8
Layer 1
10
236.007200
20
62.263110
11
236.698290
21
62.217110
0
LINE
8
Layer 1
10
236.974240
20
60.013120
11
236.599240
21
60.419120
0
LINE
8
Layer 1
10
236.599240
20
60.419120
11
236.299240
21
60.504120
0
LINE
8
Layer 1
10
236.698240
20
62.217120
11
236.944240
21
62.056120
0
LINE
8
Layer 1
10
238.772240
20
56.680120
11
238.157240
21
57.821120
0
LINE
8
Layer 1
10
238.157240
20
57.821120
11
237.577240
21
58.901120
0
LINE
8
Layer 1
10
237.577240
20
58.901120
11
237.309240
21
59.398120
0
LINE
8
Layer 1
10
237.309240
20
59.398120
11
237.129240
21
59.732120
0
LINE
8
Layer 1
10
237.129240
20
59.732120
11
236.974240
21
60.013120
0
LINE
8
Layer 1
10
236.944240
20
62.056120
11
237.235240
21
61.510120
0
LINE
8
Layer 1
10
237.235240
20
61.510120
11
237.528240
21
60.959120
0
LINE
8
Layer 1
10
237.528240
20
60.959120
11
238.019240
21
60.041120
0
LINE
8
Layer 1
10
238.019240
20
60.041120
11
238.268240
21
59.575120
0
LINE
8
Layer 1
10
238.268240
20
59.575120
11
238.525240
21
59.099120
0
LINE
8
Layer 1
10
238.525240
20
59.099120
11
238.764240
21
58.661120
0
LINE
8
Layer 1
10
239.025240
20
56.526130
11
238.772240
21
56.680120
0
LINE
8
Layer 1
10
238.764240
20
58.661120
11
239.168240
21
58.223120
0
LINE
8
Layer 1
10
239.168240
20
58.223120
11
239.547240
21
58.124120
0
LINE
8
Layer 1
10
239.732270
20
56.526150
11
239.025300
21
56.526150
0
LINE
8
Layer 1
10
239.547320
20
58.124230
11
239.732270
21
58.124230
0
LINE
8
Layer 1
10
239.847240
20
56.641120
11
239.732240
21
56.526130
0
LINE
8
Layer 1
10
239.732240
20
58.124120
11
239.847240
21
58.008130
0
LINE
8
Layer 1
10
239.847360
20
58.008080
11
239.847360
21
56.641240
0
LINE
8
Layer 1
10
241.924340
20
62.286130
11
241.209170
21
62.286130
0
LINE
8
Layer 1
10
242.062240
20
62.148120
11
241.924240
21
62.286120
0
LINE
8
Layer 1
10
241.209240
20
62.286120
11
241.071240
21
62.148120
0
LINE
8
Layer 1
10
242.062190
20
56.741260
11
242.062190
21
62.148020
0
LINE
8
Layer 1
10
241.071320
20
62.148020
11
241.071320
21
56.664000
0
LINE
8
Layer 1
10
241.847240
20
56.526130
11
242.062240
21
56.741120
0
LINE
8
Layer 1
10
241.071240
20
56.664120
11
241.209240
21
56.526130
0
LINE
8
Layer 1
10
241.209170
20
56.526150
11
241.847350
21
56.526150
0
LINE
8
Layer 1
10
244.777240
20
61.393120
11
244.390240
21
61.059120
0
LINE
8
Layer 1
10
244.390240
20
61.059120
11
244.217240
21
60.494120
0
LINE
8
Layer 1
10
244.846240
20
61.516120
11
244.777240
21
61.393120
0
LINE
8
Layer 1
10
244.217220
20
60.494110
11
244.217220
21
58.344100
0
LINE
8
Layer 1
10
244.846130
20
62.230040
11
244.846130
21
61.516190
0
LINE
8
Layer 1
10
244.217240
20
58.336120
11
244.217240
21
58.344120
0
LINE
8
Layer 1
10
244.678240
20
62.368120
11
244.846240
21
62.230120
0
LINE
8
Layer 1
10
244.217240
20
58.336120
11
244.388240
21
57.775130
0
LINE
8
Layer 1
10
244.388240
20
57.775130
11
244.777240
21
57.445120
0
LINE
8
Layer 1
10
243.295240
20
60.540120
11
243.377240
21
61.041120
0
LINE
8
Layer 1
10
243.377240
20
61.041120
11
243.693240
21
61.711120
0
LINE
8
Layer 1
10
243.693240
20
61.711120
11
244.124240
21
62.121745
0
LINE
8
Layer 1
10
244.124240
20
62.121745
11
244.678240
21
62.368120
0
LINE
8
Layer 1
10
244.777240
20
57.445120
11
244.846240
21
57.315120
0
LINE
8
Layer 1
10
243.295240
20
58.344120
11
243.295240
21
58.401120
0
LINE
8
Layer 1
10
243.295240
20
58.401120
11
243.295240
21
58.511130
0
LINE
8
Layer 1
10
243.295240
20
58.511130
11
243.295240
21
58.660130
0
LINE
8
Layer 1
10
243.295240
20
58.660130
11
243.295240
21
59.069120
0
LINE
8
Layer 1
10
243.295240
20
59.069120
11
243.295240
21
59.572130
0
LINE
8
Layer 1
10
243.295240
20
59.572130
11
243.295240
21
60.046120
0
LINE
8
Layer 1
10
243.295240
20
60.046120
11
243.295240
21
60.308130
0
LINE
8
Layer 1
10
243.295240
20
60.308130
11
243.295240
21
60.449120
0
LINE
8
Layer 1
10
243.295240
20
60.449120
11
243.295240
21
60.540120
0
LINE
8
Layer 1
10
244.846130
20
57.315140
11
244.846130
21
56.600230
0
LINE
8
Layer 1
10
244.678240
20
56.462120
11
244.118615
21
56.711620
0
LINE
8
Layer 1
10
244.118615
20
56.711620
11
243.684240
21
57.129120
0
LINE
8
Layer 1
10
243.684240
20
57.129120
11
243.375240
21
57.794120
0
LINE
8
Layer 1
10
243.375240
20
57.794120
11
243.295240
21
58.344120
0
LINE
8
Layer 1
10
244.846240
20
56.600120
11
244.678240
21
56.462120
0
LINE
8
Layer 1
10
238.856240
20
60.911120
11
238.944240
21
60.305620
0
LINE
8
Layer 1
10
238.944240
20
60.305620
11
239.200240
21
59.763120
0
LINE
8
Layer 1
10
239.200240
20
59.763120
11
239.739240
21
59.260120
0
LINE
8
Layer 1
10
238.856230
20
62.140080
11
238.856230
21
60.911090
0
LINE
8
Layer 1
10
239.739240
20
59.260120
11
239.847240
21
59.329120
0
LINE
8
Layer 1
10
238.994240
20
62.286120
11
238.856240
21
62.140120
0
LINE
8
Layer 1
10
239.709250
20
62.286130
11
238.994340
21
62.286130
0
LINE
8
Layer 1
10
239.847360
20
59.329140
11
239.847360
21
62.140080
0
LINE
8
Layer 1
10
239.847240
20
62.140120
11
239.709240
21
62.286120
0
LINE
8
Layer 1
10
252.034330
20
59.859110
11
252.572230
21
57.962040
0
LINE
8
Layer 1
10
251.950240
20
59.951120
11
252.034240
21
59.859120
0
LINE
8
Layer 1
10
252.572240
20
57.962120
11
252.441240
21
57.786120
0
LINE
8
Layer 1
10
251.835370
20
59.998010
11
251.950200
21
59.951210
0
LINE
8
Layer 1
10
252.441260
20
57.786090
11
252.211340
21
57.778090
0
LINE
8
Layer 1
10
251.650240
20
59.905120
11
251.835240
21
59.998120
0
LINE
8
Layer 1
10
252.211240
20
57.778120
11
252.034240
21
57.648130
0
LINE
8
Layer 1
10
250.790260
20
56.703160
11
251.650160
21
59.905140
0
LINE
8
Layer 1
10
252.034330
20
57.648250
11
251.758370
21
56.626160
0
LINE
8
Layer 1
10
250.921240
20
56.526130
11
250.790240
21
56.703120
0
LINE
8
Layer 1
10
251.758240
20
56.626120
11
251.627240
21
56.526120
0
LINE
8
Layer 1
10
251.627140
20
56.526150
11
250.921230
21
56.526150
0
LINE
8
Layer 1
10
249.396170
20
62.286130
11
248.681270
21
62.286130
0
LINE
8
Layer 1
10
249.534240
20
62.148120
11
249.396240
21
62.286120
0
LINE
8
Layer 1
10
248.681240
20
62.286120
11
248.543240
21
62.148120
0
LINE
8
Layer 1
10
249.534290
20
56.741260
11
249.534290
21
62.148020
0
LINE
8
Layer 1
10
248.543160
20
62.148020
11
248.543160
21
56.664000
0
LINE
8
Layer 1
10
249.319240
20
56.526130
11
249.534240
21
56.741120
0
LINE
8
Layer 1
10
248.543240
20
56.664120
11
248.681240
21
56.526130
0
LINE
8
Layer 1
10
248.681270
20
56.526150
11
249.319180
21
56.526150
0
LINE
8
Layer 1
10
253.294240
20
62.194120
11
253.163240
21
62.294120
0
LINE
8
Layer 1
10
254.776210
20
56.703160
11
253.294280
21
62.194050
0
LINE
8
Layer 1
10
253.163310
20
62.294070
11
252.388350
21
62.294070
0
LINE
8
Layer 1
10
254.646240
20
56.526130
11
254.776240
21
56.703120
0
LINE
8
Layer 1
10
252.388240
20
62.294120
11
252.249240
21
62.194120
0
LINE
8
Layer 1
10
253.939330
20
56.526150
11
254.646300
21
56.526150
0
LINE
8
Layer 1
10
252.249180
20
62.194050
11
251.988300
21
61.150010
0
LINE
8
Layer 1
10
253.808240
20
56.626120
11
253.939240
21
56.526120
0
LINE
8
Layer 1
10
251.988240
20
61.150120
11
252.065240
21
60.988120
0
LINE
8
Layer 1
10
252.710340
20
60.604170
11
253.808360
21
56.626160
0
LINE
8
Layer 1
10
252.065290
20
60.988080
11
252.541280
21
60.795990
0
LINE
8
Layer 1
10
252.541240
20
60.796120
11
252.710240
21
60.604120
0
LINE
8
Layer 1
10
256.121350
20
62.286130
11
256.836260
21
62.286130
0
LINE
8
Layer 1
10
255.983240
20
62.148120
11
256.121240
21
62.286120
0
LINE
8
Layer 1
10
256.836240
20
62.286120
11
256.974240
21
62.148120
0
LINE
8
Layer 1
10
255.983240
20
56.664000
11
255.983240
21
62.148020
0
LINE
8
Layer 1
10
256.974370
20
62.148020
11
256.974370
21
56.664000
0
LINE
8
Layer 1
10
256.121240
20
56.526130
11
255.983240
21
56.664120
0
LINE
8
Layer 1
10
256.974240
20
56.664120
11
256.836240
21
56.526130
0
LINE
8
Layer 1
10
256.836260
20
56.526150
11
256.121350
21
56.526150
0
LINE
8
Layer 1
10
260.100240
20
56.711120
11
259.969240
21
56.526130
0
LINE
8
Layer 1
10
259.055320
20
59.299250
11
260.100160
21
56.711090
0
LINE
8
Layer 1
10
259.969190
20
56.526150
11
259.239200
21
56.526150
0
LINE
8
Layer 1
10
259.109240
20
59.422120
11
259.055240
21
59.299120
0
LINE
8
Layer 1
10
259.239240
20
56.526130
11
259.163240
21
56.572130
0
LINE
8
Layer 1
10
260.023240
20
60.758120
11
259.947490
21
60.294995
0
LINE
8
Layer 1
10
259.947490
20
60.294995
11
259.726240
21
59.888120
0
LINE
8
Layer 1
10
259.726240
20
59.888120
11
259.109240
21
59.422120
0
LINE
8
Layer 1
10
259.163270
20
56.572190
11
258.080330
21
59.299250
0
LINE
8
Layer 1
10
258.341240
20
62.286120
11
259.044240
21
62.153120
0
LINE
8
Layer 1
10
259.044240
20
62.153120
11
259.630240
21
61.756120
0
LINE
8
Layer 1
10
259.630240
20
61.756120
11
259.921615
21
61.296495
0
LINE
8
Layer 1
10
259.921615
20
61.296495
11
260.023240
21
60.758120
0
LINE
8
Layer 1
10
258.080240
20
59.299120
11
258.072240
21
59.368120
0
LINE
8
Layer 1
10
257.995130
20
62.286130
11
258.341210
21
62.286130
0
LINE
8
Layer 1
10
258.072120
20
59.368040
11
258.072120
21
60.082150
0
LINE
8
Layer 1
10
257.849240
20
62.140120
11
257.995240
21
62.286120
0
LINE
8
Layer 1
10
258.072240
20
60.082120
11
258.164240
21
60.174120
0
LINE
8
Layer 1
10
257.849350
20
61.480210
11
257.849350
21
62.140080
0
LINE
8
Layer 1
10
258.164200
20
60.174220
11
258.341210
21
60.174220
0
LINE
8
Layer 1
10
257.949240
20
61.380120
11
257.849240
21
61.480130
0
LINE
8
Layer 1
10
258.341240
20
60.174120
11
258.833240
21
60.281120
0
LINE
8
Layer 1
10
258.833240
20
60.281120
11
259.051365
21
60.474620
0
LINE
8
Layer 1
10
259.051365
20
60.474620
11
259.132240
21
60.758120
0
LINE
8
Layer 1
10
258.341210
20
61.380190
11
257.949360
21
61.380190
0
LINE
8
Layer 1
10
259.132240
20
60.758120
11
259.051740
21
61.052370
0
LINE
8
Layer 1
10
259.051740
20
61.052370
11
258.833240
21
61.261120
0
LINE
8
Layer 1
10
258.833240
20
61.261120
11
258.341240
21
61.380120
0
LINE
8
Layer 1
10
246.421240
20
60.379130
11
246.097240
21
61.154120
0
LINE
8
Layer 1
10
246.097240
20
61.154120
11
245.853240
21
61.354130
0
LINE
8
Layer 1
10
246.605240
20
60.218120
11
246.421240
21
60.379130
0
LINE
8
Layer 1
10
245.853240
20
61.354130
11
245.707240
21
61.592120
0
LINE
8
Layer 1
10
247.127370
20
60.218140
11
246.605350
21
60.218140
0
LINE
8
Layer 1
10
245.707350
20
61.592130
11
245.707350
21
62.238240
0
LINE
8
Layer 1
10
247.312240
20
60.425120
11
247.127240
21
60.218120
0
LINE
8
Layer 1
10
245.707240
20
62.238120
11
245.845240
21
62.353120
0
LINE
8
Layer 1
10
245.845240
20
62.353120
11
246.455490
21
62.076870
0
LINE
8
Layer 1
10
246.455490
20
62.076870
11
246.914240
21
61.574120
0
LINE
8
Layer 1
10
246.914240
20
61.574120
11
247.312240
21
60.425120
 0 
ENDSEC
 0 
EOF