999
"DXF R12 Output" (www.mydxf.blogspot.com)
 0 
SECTION
 2 
HEADER
 9 
$ACADVER
 1 
AC1009
 9 
$EXTMIN
 10 
 0 
 20 
 0 
 9 
$EXTMAX
 10 
 8.5 
 20 
 11 
 0 
ENDSEC
 0 
SECTION
 2 
ENTITIES
0
LINE
8
Layer 1
10
0.793749
20
297.793749
11
-0.793749
21
296.206251
0
LINE
8
Layer 1
10
0.000000
20
298.322915
11
0.000000
21
295.677085
0
LINE
8
Layer 1
10
2.116664
20
295.941668
11
1.058332
21
294.883336
0
LINE
8
Layer 1
10
1.587498
20
296.470834
11
0.529166
21
295.412502
0
LINE
8
Layer 1
10
1.058332
20
297.000000
11
0.000000
21
295.941668
0
LINE
8
Shape2DView
10
232.999727
20
-62.999567
11
232.999727
21
-42.960051
0
LINE
8
Shape2DView
10
224.999796
20
-42.960051
11
232.999727
21
-42.960051
0
LINE
8
Shape2DView
10
224.999796
20
-22.960222
11
224.999796
21
-42.960051
0
LINE
8
Shape2DView
10
232.999727
20
-22.960222
11
224.999796
21
-22.960222
0
LINE
8
Shape2DView
10
232.999727
20
-22.960222
11
232.999727
21
-2.918060
0
LINE
8
Shape2DView
10
224.999796
20
-2.918060
11
232.999727
21
-2.918060
0
LINE
8
Shape2DView
10
224.999796
20
17.081769
11
224.999796
21
-2.918060
0
LINE
8
Shape2DView
10
232.999727
20
17.081769
11
224.999796
21
17.081769
0
LINE
8
Shape2DView
10
232.999727
20
17.081769
11
232.999727
21
37.122079
0
LINE
8
Shape2DView
10
224.999796
20
37.122079
11
232.999727
21
37.122079
0
LINE
8
Shape2DView
10
224.999796
20
57.122173
11
224.999796
21
37.122079
0
LINE
8
Shape2DView
10
232.999727
20
57.122173
11
224.999796
21
57.122173
0
LINE
8
Shape2DView
10
232.999727
20
57.122173
11
232.999727
21
77.162748
0
LINE
8
Shape2DView
10
224.999796
20
77.162748
11
232.999727
21
77.162748
0
LINE
8
Shape2DView
10
224.999796
20
97.162577
11
224.999796
21
77.162748
0
LINE
8
Shape2DView
10
232.999727
20
97.162577
11
224.999796
21
97.162577
0
LINE
8
Shape2DView
10
232.999727
20
97.162577
11
232.999727
21
117.203152
0
LINE
8
Shape2DView
10
224.999796
20
117.203152
11
232.999727
21
117.203152
0
LINE
8
Shape2DView
10
224.999796
20
137.203245
11
224.999796
21
117.203152
0
LINE
8
Shape2DView
10
232.999727
20
137.203245
11
224.999796
21
137.203245
0
LINE
8
Shape2DView
10
232.999727
20
137.203245
11
232.999727
21
157.244084
0
LINE
8
Shape2DView
10
224.999796
20
157.244084
11
232.999727
21
157.244084
0
LINE
8
Shape2DView
10
224.999796
20
177.244178
11
224.999796
21
157.244084
0
LINE
8
Shape2DView
10
232.999727
20
177.244178
11
224.999796
21
177.244178
0
LINE
8
Shape2DView
10
232.999727
20
177.244178
11
232.999727
21
183.000181
0
LINE
8
Shape2DView
10
212.617840
20
183.000181
11
232.999727
21
183.000181
0
LINE
8
Shape2DView
10
212.617840
20
175.000250
11
212.617840
21
183.000181
0
LINE
8
Shape2DView
10
192.617747
20
175.000250
11
212.617840
21
175.000250
0
LINE
8
Shape2DView
10
192.617747
20
183.000181
11
192.617747
21
175.000250
0
LINE
8
Shape2DView
10
172.999711
20
183.000181
11
192.617747
21
183.000181
0
LINE
8
Shape2DView
10
172.999711
20
175.000250
11
172.999711
21
183.000181
0
LINE
8
Shape2DView
10
152.999882
20
175.000250
11
172.999711
21
175.000250
0
LINE
8
Shape2DView
10
152.999882
20
-74.998406
11
152.999882
21
175.000250
0
LINE
8
Shape2DView
10
152.999882
20
-74.998406
11
172.999711
21
-74.998406
0
LINE
8
Shape2DView
10
172.999711
20
-74.998406
11
172.999711
21
-82.999396
0
LINE
8
Shape2DView
10
192.617747
20
-82.999396
11
172.999711
21
-82.999396
0
LINE
8
Shape2DView
10
192.617747
20
-82.999396
11
192.617747
21
-74.998406
0
LINE
8
Shape2DView
10
192.617747
20
-74.998406
11
212.617840
21
-74.998406
0
LINE
8
Shape2DView
10
212.617840
20
-74.998406
11
212.617840
21
-82.999396
0
LINE
8
Shape2DView
10
224.999796
20
-82.999396
11
212.617840
21
-82.999396
0
LINE
8
Shape2DView
10
224.999796
20
-62.999567
11
224.999796
21
-82.999396
0
LINE
8
Shape2DView
10
232.999727
20
-62.999567
11
224.999796
21
-62.999567
0
LINE
8
Shape2DView
10
214.499730
20
-52.999559
11
214.265786
21
-50.682181
0
LINE
8
Shape2DView
10
214.265786
20
-50.682181
11
213.595502
21
-48.523806
0
LINE
8
Shape2DView
10
213.595502
20
-48.523806
11
212.535110
21
-46.570659
0
LINE
8
Shape2DView
10
212.535110
20
-46.570659
11
211.130845
21
-44.868969
0
LINE
8
Shape2DView
10
211.130845
20
-44.868969
11
209.428942
21
-43.464963
0
LINE
8
Shape2DView
10
209.428942
20
-43.464963
11
207.475635
21
-42.404867
0
LINE
8
Shape2DView
10
207.475635
20
-42.404867
11
205.317157
21
-41.734910
0
LINE
8
Shape2DView
10
205.317157
20
-41.734910
11
202.999744
21
-41.501318
0
LINE
8
Shape2DView
10
202.999744
20
-41.501318
11
200.682331
21
-41.734910
0
LINE
8
Shape2DView
10
200.682331
20
-41.734910
11
198.523854
21
-42.404867
0
LINE
8
Shape2DView
10
198.523854
20
-42.404867
11
196.570546
21
-43.464963
0
LINE
8
Shape2DView
10
196.570546
20
-43.464963
11
194.868643
21
-44.868969
0
LINE
8
Shape2DView
10
194.868643
20
-44.868969
11
193.464379
21
-46.570659
0
LINE
8
Shape2DView
10
193.464379
20
-46.570659
11
192.403987
21
-48.523806
0
LINE
8
Shape2DView
10
192.403987
20
-48.523806
11
191.733702
21
-50.682181
0
LINE
8
Shape2DView
10
191.733702
20
-50.682181
11
191.499759
21
-52.999559
0
LINE
8
Shape2DView
10
191.499759
20
-52.999559
11
191.733702
21
-55.316937
0
LINE
8
Shape2DView
10
191.733702
20
-55.316937
11
192.403987
21
-57.475313
0
LINE
8
Shape2DView
10
192.403987
20
-57.475313
11
193.464379
21
-59.428459
0
LINE
8
Shape2DView
10
193.464379
20
-59.428459
11
194.868643
21
-61.130149
0
LINE
8
Shape2DView
10
194.868643
20
-61.130149
11
196.570546
21
-62.534156
0
LINE
8
Shape2DView
10
196.570546
20
-62.534156
11
198.523854
21
-63.594251
0
LINE
8
Shape2DView
10
198.523854
20
-63.594251
11
200.682331
21
-64.264209
0
LINE
8
Shape2DView
10
200.682331
20
-64.264209
11
202.999744
21
-64.497800
0
LINE
8
Shape2DView
10
202.999744
20
-64.497800
11
205.317157
21
-64.264209
0
LINE
8
Shape2DView
10
205.317157
20
-64.264209
11
207.475635
21
-63.594251
0
LINE
8
Shape2DView
10
207.475635
20
-63.594251
11
209.428942
21
-62.534156
0
LINE
8
Shape2DView
10
209.428942
20
-62.534156
11
211.130845
21
-61.130149
0
LINE
8
Shape2DView
10
211.130845
20
-61.130149
11
212.535110
21
-59.428459
0
LINE
8
Shape2DView
10
212.535110
20
-59.428459
11
213.595502
21
-57.475313
0
LINE
8
Shape2DView
10
213.595502
20
-57.475313
11
214.265786
21
-55.316937
0
LINE
8
Shape2DView
10
214.265786
20
-55.316937
11
214.499730
21
-52.999559
0
LINE
8
Shape2DView
10
214.499730
20
-52.999559
11
214.499730
21
-52.999559
0
LINE
8
Shape2DView
10
184.456684
20
-56.289742
11
185.079777
21
-56.289742
0
LINE
8
Shape2DView
10
184.311768
20
-56.429055
11
184.456768
21
-56.290855
0
LINE
8
Shape2DView
10
185.079767
20
-56.290855
11
185.301767
21
-56.513555
0
LINE
8
Shape2DView
10
184.311693
20
-58.594260
11
184.311693
21
-56.429971
0
LINE
8
Shape2DView
10
185.301762
20
-56.514638
11
185.301762
21
-58.594260
0
LINE
8
Shape2DView
10
184.372768
20
-58.656352
11
184.311768
21
-58.594852
0
LINE
8
Shape2DView
10
185.301767
20
-58.594852
11
185.247767
21
-58.656352
0
LINE
8
Shape2DView
10
185.247787
20
-58.655114
11
184.372811
21
-58.655114
0
LINE
8
Shape2DView
10
184.407768
20
-53.490859
11
184.553767
21
-53.391059
0
LINE
8
Shape2DView
10
183.839768
20
-54.059358
11
184.139768
21
-53.930658
0
LINE
8
Shape2DView
10
184.139768
20
-53.930658
11
184.407768
21
-53.490859
0
LINE
8
Shape2DView
10
184.553786
20
-53.389913
11
185.229796
21
-53.389913
0
LINE
8
Shape2DView
10
183.647769
20
-54.258858
11
183.839768
21
-54.059358
0
LINE
8
Shape2DView
10
185.229767
20
-53.391059
11
185.367767
21
-53.560058
0
LINE
8
Shape2DView
10
183.647854
20
-54.935077
11
183.647854
21
-54.257745
0
LINE
8
Shape2DView
10
185.367767
20
-53.560058
11
185.134267
21
-54.178045
0
LINE
8
Shape2DView
10
185.134267
20
-54.178045
11
184.738767
21
-54.694257
0
LINE
8
Shape2DView
10
184.738767
20
-54.694257
11
184.322643
21
-54.965569
0
LINE
8
Shape2DView
10
184.322643
20
-54.965569
11
183.839768
21
-55.065357
0
LINE
8
Shape2DView
10
183.777769
20
-55.065357
11
183.647769
21
-54.934857
0
LINE
8
Shape2DView
10
183.839677
20
-55.064723
11
183.777764
21
-55.064723
0
LINE
8
Shape2DView
10
184.456684
20
-45.507985
11
185.079777
21
-45.507985
0
LINE
8
Shape2DView
10
184.311768
20
-45.645068
11
184.456768
21
-45.506869
0
LINE
8
Shape2DView
10
185.079767
20
-45.506869
11
185.301767
21
-45.729568
0
LINE
8
Shape2DView
10
184.311693
20
-47.809857
11
184.311693
21
-45.645568
0
LINE
8
Shape2DView
10
185.301762
20
-45.730235
11
185.301762
21
-47.809857
0
LINE
8
Shape2DView
10
184.372768
20
-47.872366
11
184.311768
21
-47.810866
0
LINE
8
Shape2DView
10
185.301767
20
-47.810866
11
185.247767
21
-47.872366
0
LINE
8
Shape2DView
10
185.247787
20
-47.873357
11
184.372811
21
-47.873357
0
LINE
8
Shape2DView
10
181.093834
20
-42.552593
11
181.093834
21
-41.801177
0
LINE
8
Shape2DView
10
181.208772
20
-42.668572
11
181.093772
21
-42.553372
0
LINE
8
Shape2DView
10
181.093772
20
-41.800573
11
181.208772
21
-41.685573
0
LINE
8
Shape2DView
10
185.186669
20
-42.669010
11
181.208663
21
-42.669010
0
LINE
8
Shape2DView
10
181.208663
20
-41.684761
11
185.186669
21
-41.684761
0
LINE
8
Shape2DView
10
185.301767
20
-42.553372
11
185.186767
21
-42.668572
0
LINE
8
Shape2DView
10
185.186767
20
-41.685573
11
185.301767
21
-41.800573
0
LINE
8
Shape2DView
10
185.301762
20
-41.801177
11
185.301762
21
-42.552593
0
LINE
8
Shape2DView
10
179.541790
20
-65.581897
11
179.541790
21
-64.867523
0
LINE
8
Shape2DView
10
179.680774
20
-65.721343
11
179.541774
21
-65.583043
0
LINE
8
Shape2DView
10
179.541774
20
-64.868844
11
179.680774
21
-64.730544
0
LINE
8
Shape2DView
10
185.163650
20
-65.722126
11
179.680697
21
-65.722126
0
LINE
8
Shape2DView
10
179.680697
20
-64.729940
11
185.163650
21
-64.729940
0
LINE
8
Shape2DView
10
185.301767
20
-65.583043
11
185.163767
21
-65.721343
0
LINE
8
Shape2DView
10
185.163767
20
-64.730544
11
185.301767
21
-64.868844
0
LINE
8
Shape2DView
10
185.301762
20
-64.867523
11
185.301762
21
-65.581897
0
LINE
8
Shape2DView
10
185.117767
20
-61.604848
11
185.301767
21
-61.735348
0
LINE
8
Shape2DView
10
182.529726
20
-62.650318
11
185.117877
21
-61.605215
0
LINE
8
Shape2DView
10
185.301762
20
-61.734861
11
185.301762
21
-62.465110
0
LINE
8
Shape2DView
10
182.406770
20
-62.595547
11
182.529770
21
-62.649347
0
LINE
8
Shape2DView
10
185.301767
20
-62.465047
11
185.255766
21
-62.541847
0
LINE
8
Shape2DView
10
181.070772
20
-61.681548
11
181.533896
21
-61.757048
0
LINE
8
Shape2DView
10
181.533896
20
-61.757048
11
181.940771
21
-61.978048
0
LINE
8
Shape2DView
10
181.940771
20
-61.978048
11
182.406770
21
-62.595547
0
LINE
8
Shape2DView
10
185.255725
20
-62.541839
11
182.529726
21
-63.623983
0
LINE
8
Shape2DView
10
179.541774
20
-63.363546
11
179.675524
21
-62.660409
0
LINE
8
Shape2DView
10
179.675524
20
-62.660409
11
180.071773
21
-62.074648
0
LINE
8
Shape2DView
10
180.071773
20
-62.074648
11
180.531898
21
-61.782810
0
LINE
8
Shape2DView
10
180.531898
20
-61.782810
11
181.070772
21
-61.681548
0
LINE
8
Shape2DView
10
182.529770
20
-63.624546
11
182.460770
21
-63.632346
0
LINE
8
Shape2DView
10
179.541790
20
-63.708650
11
179.541790
21
-63.364692
0
LINE
8
Shape2DView
10
182.460670
20
-63.631921
11
181.745767
21
-63.631921
0
LINE
8
Shape2DView
10
179.687774
20
-63.855045
11
179.541774
21
-63.709046
0
LINE
8
Shape2DView
10
181.745771
20
-63.632346
11
181.653771
21
-63.540346
0
LINE
8
Shape2DView
10
180.348769
20
-63.854170
11
179.687840
21
-63.854170
0
LINE
8
Shape2DView
10
181.653692
20
-63.539317
11
181.653692
21
-63.364692
0
LINE
8
Shape2DView
10
180.447773
20
-63.755345
11
180.348773
21
-63.855045
0
LINE
8
Shape2DView
10
181.653771
20
-63.363546
11
181.546771
21
-62.871847
0
LINE
8
Shape2DView
10
181.546771
20
-62.871847
11
181.353397
21
-62.653084
0
LINE
8
Shape2DView
10
181.353397
20
-62.653084
11
181.070772
21
-62.572547
0
LINE
8
Shape2DView
10
180.447723
20
-63.364692
11
180.447723
21
-63.756275
0
LINE
8
Shape2DView
10
181.070772
20
-62.572547
11
180.776522
21
-62.652972
0
LINE
8
Shape2DView
10
180.776522
20
-62.652972
11
180.567772
21
-62.871847
0
LINE
8
Shape2DView
10
180.567772
20
-62.871847
11
180.447773
21
-63.363546
0
LINE
8
Shape2DView
10
182.007704
20
-59.308634
11
182.007704
21
-57.774053
0
LINE
8
Shape2DView
10
181.945771
20
-59.370551
11
182.007771
21
-59.309051
0
LINE
8
Shape2DView
10
182.007771
20
-57.773053
11
182.145771
21
-57.634853
0
LINE
8
Shape2DView
10
179.679903
20
-59.369489
11
181.945792
21
-59.369489
0
LINE
8
Shape2DView
10
182.145816
20
-57.633824
11
182.728693
21
-57.633824
0
LINE
8
Shape2DView
10
179.541774
20
-59.508851
11
179.679774
21
-59.370551
0
LINE
8
Shape2DView
10
182.728770
20
-57.634853
11
182.918395
21
-57.714603
0
LINE
8
Shape2DView
10
182.918395
20
-57.714603
11
182.997769
21
-57.903853
0
LINE
8
Shape2DView
10
179.541790
20
-60.224092
11
179.541790
21
-59.509718
0
LINE
8
Shape2DView
10
182.997774
20
-57.903699
11
182.997774
21
-59.308634
0
LINE
8
Shape2DView
10
179.679774
20
-60.361350
11
179.541774
21
-60.223050
0
LINE
8
Shape2DView
10
182.997769
20
-59.309051
11
183.059769
21
-59.370551
0
LINE
8
Shape2DView
10
185.163650
20
-60.361675
11
179.679903
21
-60.361675
0
LINE
8
Shape2DView
10
183.059686
20
-59.369489
11
185.163650
21
-59.369489
0
LINE
8
Shape2DView
10
185.301767
20
-60.223050
11
185.163767
21
-60.361350
0
LINE
8
Shape2DView
10
185.163767
20
-59.370551
11
185.301767
21
-59.508851
0
LINE
8
Shape2DView
10
185.301762
20
-59.509718
11
185.301762
21
-60.224092
0
LINE
8
Shape2DView
10
180.467773
20
-53.606058
11
180.275773
21
-53.452559
0
LINE
8
Shape2DView
10
181.051772
20
-54.097558
11
180.628772
21
-53.918458
0
LINE
8
Shape2DView
10
180.628772
20
-53.918458
11
180.467773
21
-53.606058
0
LINE
8
Shape2DView
10
180.275744
20
-53.453413
11
179.584653
21
-53.453413
0
LINE
8
Shape2DView
10
182.349770
20
-52.024060
11
182.053771
21
-52.732659
0
LINE
8
Shape2DView
10
182.053771
20
-52.732659
11
181.759771
21
-53.377259
0
LINE
8
Shape2DView
10
181.759771
20
-53.377259
11
181.479771
21
-53.823858
0
LINE
8
Shape2DView
10
181.479771
20
-53.823858
11
181.051772
21
-54.097558
0
LINE
8
Shape2DView
10
179.584774
20
-53.452559
11
179.461774
21
-53.583058
0
LINE
8
Shape2DView
10
184.062768
20
-50.802862
11
183.162769
21
-51.012961
0
LINE
8
Shape2DView
10
183.162769
20
-51.012961
11
182.669770
21
-51.461561
0
LINE
8
Shape2DView
10
182.669770
20
-51.461561
11
182.349770
21
-52.024060
0
LINE
8
Shape2DView
10
179.461774
20
-53.583058
11
179.663024
21
-54.227283
0
LINE
8
Shape2DView
10
179.663024
20
-54.227283
11
180.099773
21
-54.739357
0
LINE
8
Shape2DView
10
180.099773
20
-54.739357
11
180.501023
21
-54.966044
0
LINE
8
Shape2DView
10
180.501023
20
-54.966044
11
180.951772
21
-55.049856
0
LINE
8
Shape2DView
10
185.375767
20
-52.315860
11
185.201642
21
-51.700098
0
LINE
8
Shape2DView
10
185.201642
20
-51.700098
11
184.837767
21
-51.166161
0
LINE
8
Shape2DView
10
184.837767
20
-51.166161
11
184.485143
21
-50.904937
0
LINE
8
Shape2DView
10
184.485143
20
-50.904937
11
184.062768
21
-50.802862
0
LINE
8
Shape2DView
10
180.951772
20
-55.049856
11
181.488771
21
-54.959457
0
LINE
8
Shape2DView
10
181.488771
20
-54.959457
11
182.200771
21
-54.440057
0
LINE
8
Shape2DView
10
182.200771
20
-54.440057
11
182.840770
21
-53.229859
0
LINE
8
Shape2DView
10
185.260767
20
-52.446360
11
185.375767
21
-52.315860
0
LINE
8
Shape2DView
10
182.840770
20
-53.229859
11
183.294769
21
-52.184960
0
LINE
8
Shape2DView
10
183.294769
20
-52.184960
11
183.514769
21
-51.906660
0
LINE
8
Shape2DView
10
183.514769
20
-51.906660
11
183.862768
21
-51.762861
0
LINE
8
Shape2DView
10
184.614640
20
-52.445351
11
185.260752
21
-52.445351
0
LINE
8
Shape2DView
10
183.862768
20
-51.762861
11
184.230768
21
-51.919660
0
LINE
8
Shape2DView
10
184.230768
20
-51.919660
11
184.415768
21
-52.292860
0
LINE
8
Shape2DView
10
184.415768
20
-52.292860
11
184.614767
21
-52.446360
0
LINE
8
Shape2DView
10
179.679903
20
-56.289742
11
180.309875
21
-56.289742
0
LINE
8
Shape2DView
10
179.541774
20
-56.429055
11
179.679774
21
-56.290855
0
LINE
8
Shape2DView
10
180.309773
20
-56.290855
11
180.532773
21
-56.513555
0
LINE
8
Shape2DView
10
179.541790
20
-58.594260
11
179.541790
21
-56.429971
0
LINE
8
Shape2DView
10
180.532654
20
-56.514638
11
180.532654
21
-58.594260
0
LINE
8
Shape2DView
10
179.603774
20
-58.656352
11
179.541774
21
-58.594852
0
LINE
8
Shape2DView
10
180.532773
20
-58.594852
11
180.471773
21
-58.656352
0
LINE
8
Shape2DView
10
180.471800
20
-58.655114
11
179.603703
21
-58.655114
0
LINE
8
Shape2DView
10
180.429773
20
-52.377360
11
180.291773
21
-52.484860
0
LINE
8
Shape2DView
10
180.997772
20
-51.809061
11
180.721772
21
-51.919060
0
LINE
8
Shape2DView
10
180.721772
20
-51.919060
11
180.429773
21
-52.377360
0
LINE
8
Shape2DView
10
180.291883
20
-52.485039
11
179.607672
21
-52.485039
0
LINE
8
Shape2DView
10
181.005728
20
-51.810352
11
180.997791
21
-51.810352
0
LINE
8
Shape2DView
10
179.607774
20
-52.484860
11
179.477774
21
-52.308360
0
LINE
8
Shape2DView
10
181.197772
20
-51.617061
11
181.005772
21
-51.809061
0
LINE
8
Shape2DView
10
179.477774
20
-52.308360
11
179.718774
21
-51.670023
0
LINE
8
Shape2DView
10
179.718774
20
-51.670023
11
180.136773
21
-51.144261
0
LINE
8
Shape2DView
10
180.136773
20
-51.144261
11
180.537648
21
-50.894474
0
LINE
8
Shape2DView
10
180.537648
20
-50.894474
11
180.997772
21
-50.802862
0
LINE
8
Shape2DView
10
181.197815
20
-50.939874
11
181.197815
21
-51.617207
0
LINE
8
Shape2DView
10
180.997791
20
-50.802291
11
181.066847
21
-50.802291
0
LINE
8
Shape2DView
10
181.066772
20
-50.802862
11
181.197772
21
-50.941062
0
LINE
8
Shape2DView
10
182.007704
20
-48.524231
11
182.007704
21
-46.989650
0
LINE
8
Shape2DView
10
181.945771
20
-48.586565
11
182.007771
21
-48.525065
0
LINE
8
Shape2DView
10
182.007771
20
-46.989067
11
182.145771
21
-46.850867
0
LINE
8
Shape2DView
10
179.679903
20
-48.587731
11
181.945792
21
-48.587731
0
LINE
8
Shape2DView
10
182.145816
20
-46.852067
11
182.728693
21
-46.852067
0
LINE
8
Shape2DView
10
179.541774
20
-48.724864
11
179.679774
21
-48.586565
0
LINE
8
Shape2DView
10
182.728770
20
-46.850867
11
182.918395
21
-46.930617
0
LINE
8
Shape2DView
10
182.918395
20
-46.930617
11
182.997769
21
-47.119866
0
LINE
8
Shape2DView
10
179.541790
20
-49.439689
11
179.541790
21
-48.725314
0
LINE
8
Shape2DView
10
182.997774
20
-47.119296
11
182.997774
21
-48.524231
0
LINE
8
Shape2DView
10
179.679774
20
-49.577363
11
179.541774
21
-49.439064
0
LINE
8
Shape2DView
10
182.997769
20
-48.525065
11
183.059769
21
-48.586565
0
LINE
8
Shape2DView
10
185.163650
20
-49.577272
11
179.679903
21
-49.577272
0
LINE
8
Shape2DView
10
183.059686
20
-48.587731
11
185.163650
21
-48.587731
0
LINE
8
Shape2DView
10
185.301767
20
-49.439064
11
185.163767
21
-49.577363
0
LINE
8
Shape2DView
10
185.163767
20
-48.586565
11
185.301767
21
-48.724864
0
LINE
8
Shape2DView
10
185.301762
20
-48.725314
11
185.301762
21
-49.439689
0
LINE
8
Shape2DView
10
179.679903
20
-45.507985
11
180.309875
21
-45.507985
0
LINE
8
Shape2DView
10
179.541774
20
-45.645068
11
179.679774
21
-45.506869
0
LINE
8
Shape2DView
10
180.309773
20
-45.506869
11
180.532773
21
-45.729568
0
LINE
8
Shape2DView
10
179.541790
20
-47.809857
11
179.541790
21
-45.645568
0
LINE
8
Shape2DView
10
180.532654
20
-45.730235
11
180.532654
21
-47.809857
0
LINE
8
Shape2DView
10
179.603774
20
-47.872366
11
179.541774
21
-47.810866
0
LINE
8
Shape2DView
10
180.532773
20
-47.810866
11
180.471773
21
-47.872366
0
LINE
8
Shape2DView
10
180.471800
20
-47.873357
11
179.603703
21
-47.873357
0
LINE
8
Shape2DView
10
179.664822
20
-40.073450
11
180.417825
21
-40.073450
0
LINE
8
Shape2DView
10
179.541774
20
-40.187875
11
179.664774
21
-40.072875
0
LINE
8
Shape2DView
10
180.417773
20
-40.072875
11
180.532773
21
-40.187875
0
LINE
8
Shape2DView
10
179.541790
20
-44.166549
11
179.541790
21
-40.187221
0
LINE
8
Shape2DView
10
180.532654
20
-40.187221
11
180.532654
21
-44.166549
0
LINE
8
Shape2DView
10
179.664774
20
-44.281370
11
179.541774
21
-44.166070
0
LINE
8
Shape2DView
10
180.532773
20
-44.166070
11
180.417773
21
-44.281370
0
LINE
8
Shape2DView
10
180.417825
20
-44.280320
11
179.664822
21
-44.280320
0
LINE
8
Shape2DView
10
214.499730
20
153.000181
11
214.265786
21
155.317559
0
LINE
8
Shape2DView
10
214.265786
20
155.317559
11
213.595502
21
157.475935
0
LINE
8
Shape2DView
10
213.595502
20
157.475935
11
212.535110
21
159.429081
0
LINE
8
Shape2DView
10
212.535110
20
159.429081
11
211.130845
21
161.130771
0
LINE
8
Shape2DView
10
211.130845
20
161.130771
11
209.428942
21
162.534778
0
LINE
8
Shape2DView
10
209.428942
20
162.534778
11
207.475635
21
163.594873
0
LINE
8
Shape2DView
10
207.475635
20
163.594873
11
205.317157
21
164.264831
0
LINE
8
Shape2DView
10
205.317157
20
164.264831
11
202.999744
21
164.498422
0
LINE
8
Shape2DView
10
202.999744
20
164.498422
11
200.682331
21
164.264831
0
LINE
8
Shape2DView
10
200.682331
20
164.264831
11
198.523854
21
163.594873
0
LINE
8
Shape2DView
10
198.523854
20
163.594873
11
196.570546
21
162.534778
0
LINE
8
Shape2DView
10
196.570546
20
162.534778
11
194.868643
21
161.130771
0
LINE
8
Shape2DView
10
194.868643
20
161.130771
11
193.464379
21
159.429081
0
LINE
8
Shape2DView
10
193.464379
20
159.429081
11
192.403987
21
157.475935
0
LINE
8
Shape2DView
10
192.403987
20
157.475935
11
191.733702
21
155.317559
0
LINE
8
Shape2DView
10
191.733702
20
155.317559
11
191.499759
21
153.000181
0
LINE
8
Shape2DView
10
191.499759
20
153.000181
11
191.733702
21
150.682804
0
LINE
8
Shape2DView
10
191.733702
20
150.682804
11
192.403987
21
148.524428
0
LINE
8
Shape2DView
10
192.403987
20
148.524428
11
193.464379
21
146.571281
0
LINE
8
Shape2DView
10
193.464379
20
146.571281
11
194.868643
21
144.869591
0
LINE
8
Shape2DView
10
194.868643
20
144.869591
11
196.570546
21
143.465585
0
LINE
8
Shape2DView
10
196.570546
20
143.465585
11
198.523854
21
142.405489
0
LINE
8
Shape2DView
10
198.523854
20
142.405489
11
200.682331
21
141.735532
0
LINE
8
Shape2DView
10
200.682331
20
141.735532
11
202.999744
21
141.501940
0
LINE
8
Shape2DView
10
202.999744
20
141.501940
11
205.317157
21
141.735532
0
LINE
8
Shape2DView
10
205.317157
20
141.735532
11
207.475635
21
142.405489
0
LINE
8
Shape2DView
10
207.475635
20
142.405489
11
209.428942
21
143.465585
0
LINE
8
Shape2DView
10
209.428942
20
143.465585
11
211.130845
21
144.869591
0
LINE
8
Shape2DView
10
211.130845
20
144.869591
11
212.535110
21
146.571281
0
LINE
8
Shape2DView
10
212.535110
20
146.571281
11
213.595502
21
148.524428
0
LINE
8
Shape2DView
10
213.595502
20
148.524428
11
214.265786
21
150.682804
0
LINE
8
Shape2DView
10
214.265786
20
150.682804
11
214.499730
21
153.000181
0
LINE
8
Shape2DView
10
214.499730
20
153.000181
11
214.499730
21
153.000181
0
LINE
8
Shape2DView
10
181.878771
20
153.324181
11
182.039771
21
153.140181
0
LINE
8
Shape2DView
10
181.878852
20
153.846310
11
181.878852
21
153.324287
0
LINE
8
Shape2DView
10
182.039771
20
153.140181
11
182.796770
21
152.831182
0
LINE
8
Shape2DView
10
182.796770
20
152.831182
11
183.014769
21
152.572182
0
LINE
8
Shape2DView
10
182.085771
20
154.031180
11
181.878771
21
153.846180
0
LINE
8
Shape2DView
10
183.014769
20
152.572182
11
183.260769
21
152.426182
0
LINE
8
Shape2DView
10
184.013768
20
152.564182
11
183.722269
21
153.195681
0
LINE
8
Shape2DView
10
183.722269
20
153.195681
11
183.190769
21
153.662181
0
LINE
8
Shape2DView
10
183.190769
20
153.662181
11
182.085771
21
154.031180
0
LINE
8
Shape2DView
10
183.260769
20
152.426293
11
183.898679
21
152.426293
0
LINE
8
Shape2DView
10
183.898768
20
152.426182
11
184.013768
21
152.564182
0
LINE
8
Shape2DView
10
182.574770
20
143.517193
11
181.942396
21
143.419568
0
LINE
8
Shape2DView
10
181.942396
20
143.419568
11
181.382771
21
143.138194
0
LINE
8
Shape2DView
10
181.382771
20
143.138194
11
180.931772
21
142.634195
0
LINE
8
Shape2DView
10
183.811896
20
143.517254
11
182.574705
21
143.517254
0
LINE
8
Shape2DView
10
180.931772
20
142.634195
11
181.000772
21
142.526195
0
LINE
8
Shape2DView
10
183.949768
20
143.379194
11
183.811769
21
143.517193
0
LINE
8
Shape2DView
10
183.949743
20
142.664238
11
183.949743
21
143.379141
0
LINE
8
Shape2DView
10
181.000701
20
142.526126
11
183.811896
21
142.526126
0
LINE
8
Shape2DView
10
183.811769
20
142.526195
11
183.949768
21
142.664195
0
LINE
8
Shape2DView
10
178.189771
20
141.155321
11
178.189771
21
140.440153
0
LINE
8
Shape2DView
10
178.327775
20
141.293196
11
178.189776
21
141.155196
0
LINE
8
Shape2DView
10
178.189776
20
140.440197
11
178.327775
21
140.302198
0
LINE
8
Shape2DView
10
183.734637
20
141.293169
11
178.327884
21
141.293169
0
LINE
8
Shape2DView
10
178.327884
20
140.302306
11
183.811896
21
140.302306
0
LINE
8
Shape2DView
10
183.949768
20
141.078196
11
183.734769
21
141.293196
0
LINE
8
Shape2DView
10
183.811769
20
140.302198
11
183.949768
21
140.440197
0
LINE
8
Shape2DView
10
183.949743
20
140.440153
11
183.949743
21
141.078328
0
LINE
8
Shape2DView
10
179.748694
20
142.526126
11
178.396675
21
142.526126
0
LINE
8
Shape2DView
10
179.940773
20
142.703194
11
179.748773
21
142.526195
0
LINE
8
Shape2DView
10
178.396775
20
142.526195
11
178.212776
21
142.726194
0
LINE
8
Shape2DView
10
179.971773
20
143.018194
11
179.940773
21
142.703194
0
LINE
8
Shape2DView
10
178.212790
20
142.726151
11
178.258828
21
143.417241
0
LINE
8
Shape2DView
10
180.462773
20
143.693193
11
180.056773
21
143.318194
0
LINE
8
Shape2DView
10
180.056773
20
143.318194
11
179.971773
21
143.018194
0
LINE
8
Shape2DView
10
178.258775
20
143.417194
11
178.419775
21
143.663193
0
LINE
8
Shape2DView
10
183.795768
20
145.491191
11
182.654770
21
144.876192
0
LINE
8
Shape2DView
10
182.654770
20
144.876192
11
181.574771
21
144.296192
0
LINE
8
Shape2DView
10
181.574771
20
144.296192
11
181.077772
21
144.028193
0
LINE
8
Shape2DView
10
181.077772
20
144.028193
11
180.743772
21
143.848193
0
LINE
8
Shape2DView
10
180.743772
20
143.848193
11
180.462773
21
143.693193
0
LINE
8
Shape2DView
10
178.419775
20
143.663193
11
178.965774
21
143.954193
0
LINE
8
Shape2DView
10
178.965774
20
143.954193
11
179.516774
21
144.247193
0
LINE
8
Shape2DView
10
179.516774
20
144.247193
11
180.434773
21
144.738192
0
LINE
8
Shape2DView
10
180.434773
20
144.738192
11
180.900772
21
144.987191
0
LINE
8
Shape2DView
10
180.900772
20
144.987191
11
181.376771
21
145.244191
0
LINE
8
Shape2DView
10
181.376771
20
145.244191
11
181.814771
21
145.483191
0
LINE
8
Shape2DView
10
183.949768
20
145.744191
11
183.795768
21
145.491191
0
LINE
8
Shape2DView
10
181.814771
20
145.483191
11
182.252770
21
145.887190
0
LINE
8
Shape2DView
10
182.252770
20
145.887190
11
182.351770
21
146.266190
0
LINE
8
Shape2DView
10
183.949743
20
146.451215
11
183.949743
21
145.744249
0
LINE
8
Shape2DView
10
182.351662
20
146.266271
11
182.351662
21
146.451215
0
LINE
8
Shape2DView
10
183.834768
20
146.566189
11
183.949768
21
146.451190
0
LINE
8
Shape2DView
10
182.351770
20
146.451190
11
182.467770
21
146.566189
0
LINE
8
Shape2DView
10
182.467814
20
146.566308
11
183.834650
21
146.566308
0
LINE
8
Shape2DView
10
178.189771
20
148.643285
11
178.189771
21
147.928117
0
LINE
8
Shape2DView
10
178.327775
20
148.781187
11
178.189776
21
148.643187
0
LINE
8
Shape2DView
10
178.189776
20
147.928188
11
178.327775
21
147.790188
0
LINE
8
Shape2DView
10
183.734637
20
148.781133
11
178.327884
21
148.781133
0
LINE
8
Shape2DView
10
178.327884
20
147.790269
11
183.811896
21
147.790269
0
LINE
8
Shape2DView
10
183.949768
20
148.566187
11
183.734769
21
148.781187
0
LINE
8
Shape2DView
10
183.811769
20
147.790188
11
183.949768
21
147.928188
0
LINE
8
Shape2DView
10
183.949743
20
147.928117
11
183.949743
21
148.566291
0
LINE
8
Shape2DView
10
179.082774
20
151.496183
11
179.416774
21
151.109184
0
LINE
8
Shape2DView
10
179.416774
20
151.109184
11
179.981773
21
150.936184
0
LINE
8
Shape2DView
10
178.959775
20
151.565183
11
179.082774
21
151.496183
0
LINE
8
Shape2DView
10
179.981792
20
150.936161
11
182.131793
21
150.936161
0
LINE
8
Shape2DView
10
178.245863
20
151.565075
11
178.959708
21
151.565075
0
LINE
8
Shape2DView
10
182.139771
20
150.936184
11
182.131770
21
150.936184
0
LINE
8
Shape2DView
10
178.107775
20
151.397183
11
178.245775
21
151.565183
0
LINE
8
Shape2DView
10
182.139771
20
150.936184
11
182.700770
21
151.107184
0
LINE
8
Shape2DView
10
182.700770
20
151.107184
11
183.030769
21
151.496183
0
LINE
8
Shape2DView
10
179.935773
20
150.014185
11
179.434774
21
150.096185
0
LINE
8
Shape2DView
10
179.434774
20
150.096185
11
178.764775
21
150.412185
0
LINE
8
Shape2DView
10
178.764775
20
150.412185
11
178.354150
21
150.843184
0
LINE
8
Shape2DView
10
178.354150
20
150.843184
11
178.107775
21
151.397183
0
LINE
8
Shape2DView
10
183.030769
20
151.496183
11
183.160769
21
151.565183
0
LINE
8
Shape2DView
10
182.131770
20
150.014185
11
182.074771
21
150.014185
0
LINE
8
Shape2DView
10
182.074771
20
150.014185
11
181.964771
21
150.014185
0
LINE
8
Shape2DView
10
181.964771
20
150.014185
11
181.815771
21
150.014185
0
LINE
8
Shape2DView
10
181.815771
20
150.014185
11
181.406771
21
150.014185
0
LINE
8
Shape2DView
10
181.406771
20
150.014185
11
180.903772
21
150.014185
0
LINE
8
Shape2DView
10
180.903772
20
150.014185
11
180.429773
21
150.014185
0
LINE
8
Shape2DView
10
180.429773
20
150.014185
11
180.167773
21
150.014185
0
LINE
8
Shape2DView
10
180.167773
20
150.014185
11
180.026773
21
150.014185
0
LINE
8
Shape2DView
10
180.026773
20
150.014185
11
179.935773
21
150.014185
0
LINE
8
Shape2DView
10
183.160757
20
151.565075
11
183.875660
21
151.565075
0
LINE
8
Shape2DView
10
184.013768
20
151.397183
11
183.764268
21
150.837559
0
LINE
8
Shape2DView
10
183.764268
20
150.837559
11
183.346769
21
150.403185
0
LINE
8
Shape2DView
10
183.346769
20
150.403185
11
182.681770
21
150.094185
0
LINE
8
Shape2DView
10
182.681770
20
150.094185
11
182.131770
21
150.014185
0
LINE
8
Shape2DView
10
183.875768
20
151.565183
11
184.013768
21
151.397183
0
LINE
8
Shape2DView
10
179.564774
20
145.575191
11
180.170273
21
145.663191
0
LINE
8
Shape2DView
10
180.170273
20
145.663191
11
180.712772
21
145.919190
0
LINE
8
Shape2DView
10
180.712772
20
145.919190
11
181.215772
21
146.458190
0
LINE
8
Shape2DView
10
178.335821
20
145.575180
11
179.564809
21
145.575180
0
LINE
8
Shape2DView
10
181.215772
20
146.458190
11
181.146772
21
146.566189
0
LINE
8
Shape2DView
10
178.189776
20
145.713191
11
178.335775
21
145.575191
0
LINE
8
Shape2DView
10
178.189771
20
146.428196
11
178.189771
21
145.713293
0
LINE
8
Shape2DView
10
181.146751
20
146.566308
11
178.335821
21
146.566308
0
LINE
8
Shape2DView
10
178.335775
20
146.566189
11
178.189776
21
146.428190
0
LINE
8
Shape2DView
10
180.616791
20
158.753266
11
182.513851
21
159.291163
0
LINE
8
Shape2DView
10
180.524773
20
158.669174
11
180.616772
21
158.753174
0
LINE
8
Shape2DView
10
182.513770
20
159.291173
11
182.689770
21
159.160174
0
LINE
8
Shape2DView
10
180.477885
20
158.554299
11
180.524716
21
158.669128
0
LINE
8
Shape2DView
10
182.689799
20
159.160194
11
182.697736
21
158.930272
0
LINE
8
Shape2DView
10
180.570773
20
158.369175
11
180.477773
21
158.554175
0
LINE
8
Shape2DView
10
182.697770
20
158.930174
11
182.827770
21
158.753174
0
LINE
8
Shape2DView
10
183.772737
20
157.509197
11
180.570754
21
158.369091
0
LINE
8
Shape2DView
10
182.827647
20
158.753266
11
183.849731
21
158.477306
0
LINE
8
Shape2DView
10
183.949768
20
157.640175
11
183.772768
21
157.509176
0
LINE
8
Shape2DView
10
183.849768
20
158.477175
11
183.949768
21
158.346175
0
LINE
8
Shape2DView
10
183.949743
20
158.346073
11
183.949743
21
157.640165
0
LINE
8
Shape2DView
10
178.189771
20
156.115109
11
178.189771
21
155.400205
0
LINE
8
Shape2DView
10
178.327775
20
156.253177
11
178.189776
21
156.115178
0
LINE
8
Shape2DView
10
178.189776
20
155.400178
11
178.327775
21
155.262179
0
LINE
8
Shape2DView
10
183.734637
20
156.253221
11
178.327884
21
156.253221
0
LINE
8
Shape2DView
10
178.327884
20
155.262093
11
183.811896
21
155.262093
0
LINE
8
Shape2DView
10
183.949768
20
156.038178
11
183.734769
21
156.253177
0
LINE
8
Shape2DView
10
183.811769
20
155.262179
11
183.949768
21
155.400178
0
LINE
8
Shape2DView
10
183.949743
20
155.400205
11
183.949743
21
156.038115
0
LINE
8
Shape2DView
10
178.281775
20
160.013173
11
178.181776
21
159.882173
0
LINE
8
Shape2DView
10
183.772737
20
161.495139
11
178.281846
21
160.013210
0
LINE
8
Shape2DView
10
178.181834
20
159.882241
11
178.181834
21
159.107278
0
LINE
8
Shape2DView
10
183.949768
20
161.365171
11
183.772768
21
161.495171
0
LINE
8
Shape2DView
10
178.181776
20
159.107174
11
178.281775
21
158.968174
0
LINE
8
Shape2DView
10
183.949743
20
160.658263
11
183.949743
21
161.365229
0
LINE
8
Shape2DView
10
178.281846
20
158.968107
11
179.325891
21
158.707228
0
LINE
8
Shape2DView
10
183.849768
20
160.527172
11
183.949768
21
160.658172
0
LINE
8
Shape2DView
10
179.325774
20
158.707174
11
179.487774
21
158.784174
0
LINE
8
Shape2DView
10
179.871725
20
159.429275
11
183.849731
21
160.527295
0
LINE
8
Shape2DView
10
179.487816
20
158.784222
11
179.679903
21
159.260207
0
LINE
8
Shape2DView
10
179.679774
20
159.260174
11
179.871773
21
159.429173
0
LINE
8
Shape2DView
10
178.189771
20
162.840279
11
178.189771
21
163.555183
0
LINE
8
Shape2DView
10
178.327775
20
162.702169
11
178.189776
21
162.840169
0
LINE
8
Shape2DView
10
178.189776
20
163.555168
11
178.327775
21
163.693168
0
LINE
8
Shape2DView
10
183.811896
20
162.702167
11
178.327884
21
162.702167
0
LINE
8
Shape2DView
10
178.327884
20
163.693295
11
183.811896
21
163.693295
0
LINE
8
Shape2DView
10
183.949768
20
162.840169
11
183.811769
21
162.702169
0
LINE
8
Shape2DView
10
183.811769
20
163.693168
11
183.949768
21
163.555168
0
LINE
8
Shape2DView
10
183.949743
20
163.555183
11
183.949743
21
162.840279
0
LINE
8
Shape2DView
10
183.764769
20
166.819164
11
183.949768
21
166.688164
0
LINE
8
Shape2DView
10
181.176649
20
165.774240
11
183.764800
21
166.819079
0
LINE
8
Shape2DView
10
183.949743
20
166.688110
11
183.949743
21
165.958126
0
LINE
8
Shape2DView
10
181.053772
20
165.828165
11
181.176772
21
165.774165
0
LINE
8
Shape2DView
10
183.949768
20
165.958165
11
183.903768
21
165.882165
0
LINE
8
Shape2DView
10
179.717774
20
166.742164
11
180.180898
21
166.666414
0
LINE
8
Shape2DView
10
180.180898
20
166.666414
11
180.587773
21
166.445165
0
LINE
8
Shape2DView
10
180.587773
20
166.445165
11
181.053772
21
165.828165
0
LINE
8
Shape2DView
10
183.903706
20
165.882190
11
181.176649
21
164.799252
0
LINE
8
Shape2DView
10
178.189776
20
165.060166
11
178.322775
21
165.763165
0
LINE
8
Shape2DView
10
178.322775
20
165.763165
11
178.719775
21
166.349165
0
LINE
8
Shape2DView
10
178.719775
20
166.349165
11
179.179399
21
166.640539
0
LINE
8
Shape2DView
10
179.179399
20
166.640539
11
179.717774
21
166.742164
0
LINE
8
Shape2DView
10
181.176772
20
164.799167
11
181.107772
21
164.791167
0
LINE
8
Shape2DView
10
178.189771
20
164.714056
11
178.189771
21
165.060131
0
LINE
8
Shape2DView
10
181.107857
20
164.791050
11
180.393748
21
164.791050
0
LINE
8
Shape2DView
10
178.335775
20
164.568167
11
178.189776
21
164.714167
0
LINE
8
Shape2DView
10
180.393773
20
164.791167
11
180.301773
21
164.883166
0
LINE
8
Shape2DView
10
178.995691
20
164.568271
11
178.335821
21
164.568271
0
LINE
8
Shape2DView
10
180.301673
20
164.883125
11
180.301673
21
165.060131
0
LINE
8
Shape2DView
10
179.095774
20
164.668167
11
178.995775
21
164.568167
0
LINE
8
Shape2DView
10
180.301773
20
165.060166
11
180.194773
21
165.552165
0
LINE
8
Shape2DView
10
180.194773
20
165.552165
11
180.001273
21
165.770290
0
LINE
8
Shape2DView
10
180.001273
20
165.770290
11
179.717774
21
165.851165
0
LINE
8
Shape2DView
10
179.095704
20
165.060131
11
179.095704
21
164.668283
0
LINE
8
Shape2DView
10
179.717774
20
165.851165
11
179.423524
21
165.770665
0
LINE
8
Shape2DView
10
179.423524
20
165.770665
11
179.214774
21
165.552165
0
LINE
8
Shape2DView
10
179.214774
20
165.552165
11
179.095774
21
165.060166
0
LINE
8
Shape2DView
10
180.096773
20
153.140181
11
179.321774
21
152.816182
0
LINE
8
Shape2DView
10
179.321774
20
152.816182
11
179.121774
21
152.572182
0
LINE
8
Shape2DView
10
180.257773
20
153.324181
11
180.096773
21
153.140181
0
LINE
8
Shape2DView
10
179.121774
20
152.572182
11
178.883775
21
152.426182
0
LINE
8
Shape2DView
10
180.257752
20
153.846310
11
180.257752
21
153.324287
0
LINE
8
Shape2DView
10
178.883773
20
152.426293
11
178.237661
21
152.426293
0
LINE
8
Shape2DView
10
180.050773
20
154.031180
11
180.257773
21
153.846180
0
LINE
8
Shape2DView
10
178.237775
20
152.426182
11
178.122775
21
152.564182
0
LINE
8
Shape2DView
10
178.122775
20
152.564182
11
178.399025
21
153.174431
0
LINE
8
Shape2DView
10
178.399025
20
153.174431
11
178.901775
21
153.633181
0
LINE
8
Shape2DView
10
178.901775
20
153.633181
11
180.050773
21
154.031180
0
LINE
8
Shape2DView001
10
-124.999857
20
-134.934393
11
-124.999857
21
-156.003138
0
LINE
8
Shape2DView001
10
-124.999857
20
-156.003138
11
-132.999789
21
-156.003138
0
LINE
8
Shape2DView001
10
-112.999960
20
-175.000197
11
-92.959385
21
-175.000197
0
LINE
8
Shape2DView001
10
-112.999960
20
-175.000197
11
-112.999960
21
-182.998541
0
LINE
8
Shape2DView001
10
-92.959385
20
-175.000197
11
-92.959385
21
-182.998541
0
LINE
8
Shape2DView001
10
-112.999960
20
-182.998541
11
-132.999789
21
-182.998541
0
LINE
8
Shape2DView001
10
-72.959291
20
-182.998541
11
-92.959385
21
-182.998541
0
LINE
8
Shape2DView001
10
-132.999789
20
-156.003138
11
-132.999789
21
-182.998541
0
LINE
8
Shape2DView001
10
-72.959291
20
-175.000197
11
-72.959291
21
-182.998541
0
LINE
8
Shape2DView001
10
-72.959291
20
-175.000197
11
-52.918717
21
-175.000197
0
LINE
8
Shape2DView001
10
-52.918717
20
-175.000197
11
-52.918717
21
-182.998541
0
LINE
8
Shape2DView001
10
-124.999857
20
-134.934393
11
-132.999789
21
-134.934393
0
LINE
8
Shape2DView001
10
-32.918888
20
-182.998541
11
-52.918717
21
-182.998541
0
LINE
8
Shape2DView001
10
-132.999789
20
-114.934564
11
-132.999789
21
-134.934393
0
LINE
8
Shape2DView001
10
-32.918888
20
-175.000197
11
-32.918888
21
-182.998541
0
LINE
8
Shape2DView001
10
-124.999857
20
-114.934564
11
-132.999789
21
-114.934564
0
LINE
8
Shape2DView001
10
-32.918888
20
-175.000197
11
-12.878181
21
-175.000197
0
LINE
8
Shape2DView001
10
-124.999857
20
-93.910799
11
-124.999857
21
-114.934564
0
LINE
8
Shape2DView001
10
-12.878181
20
-175.000197
11
-12.878181
21
-182.998541
0
LINE
8
Shape2DView001
10
-124.999857
20
-93.910799
11
-132.999789
21
-93.910799
0
LINE
8
Shape2DView001
10
7.121781
20
-182.998541
11
-12.878181
21
-182.998541
0
LINE
8
Shape2DView001
10
-132.999789
20
-73.910970
11
-132.999789
21
-93.910799
0
LINE
8
Shape2DView001
10
7.121781
20
-175.000197
11
7.121781
21
-182.998541
0
LINE
8
Shape2DView001
10
-124.999857
20
-73.910970
11
-132.999789
21
-73.910970
0
LINE
8
Shape2DView001
10
7.121781
20
-175.000197
11
27.162355
21
-175.000197
0
LINE
8
Shape2DView001
10
-124.999857
20
-52.887205
11
-124.999857
21
-73.910970
0
LINE
8
Shape2DView001
10
27.162355
20
-175.000197
11
27.162355
21
-182.998541
0
LINE
8
Shape2DView001
10
-124.999857
20
-52.887205
11
-132.999789
21
-52.887205
0
LINE
8
Shape2DView001
10
47.162449
20
-182.998541
11
27.162355
21
-182.998541
0
LINE
8
Shape2DView001
10
-132.999789
20
-32.887376
11
-132.999789
21
-52.887205
0
LINE
8
Shape2DView001
10
47.162449
20
-175.000197
11
47.162449
21
-182.998541
0
LINE
8
Shape2DView001
10
-124.999857
20
-32.887376
11
-132.999789
21
-32.887376
0
LINE
8
Shape2DView001
10
47.162449
20
-175.000197
11
67.203024
21
-175.000197
0
LINE
8
Shape2DView001
10
-124.999857
20
-11.863611
11
-124.999857
21
-32.887376
0
LINE
8
Shape2DView001
10
67.203024
20
-175.000197
11
67.203024
21
-182.998541
0
LINE
8
Shape2DView001
10
-124.999857
20
-11.863611
11
-132.999789
21
-11.863611
0
LINE
8
Shape2DView001
10
87.202853
20
-182.998541
11
67.203024
21
-182.998541
0
LINE
8
Shape2DView001
10
-132.999789
20
8.136218
11
-132.999789
21
-11.863611
0
LINE
8
Shape2DView001
10
87.202853
20
-175.000197
11
87.202853
21
-182.998541
0
LINE
8
Shape2DView001
10
-124.999857
20
8.136218
11
-132.999789
21
8.136218
0
LINE
8
Shape2DView001
10
87.202853
20
-175.000197
11
107.243957
21
-175.000197
0
LINE
8
Shape2DView001
10
-124.999857
20
29.162629
11
-124.999857
21
8.136218
0
LINE
8
Shape2DView001
10
107.243957
20
-175.000197
11
107.243957
21
-182.998541
0
LINE
8
Shape2DView001
10
-124.999857
20
29.162629
11
-132.999789
21
29.162629
0
LINE
8
Shape2DView001
10
127.243786
20
-182.998541
11
107.243957
21
-182.998541
0
LINE
8
Shape2DView001
10
-132.999789
20
49.161400
11
-132.999789
21
29.162629
0
LINE
8
Shape2DView001
10
127.243786
20
-175.000197
11
127.243786
21
-182.998541
0
LINE
8
Shape2DView001
10
-124.999857
20
49.161400
11
-132.999789
21
49.161400
0
LINE
8
Shape2DView001
10
127.243786
20
-175.000197
11
132.999789
21
-175.000197
0
LINE
8
Shape2DView001
10
-124.999857
20
70.185694
11
-124.999857
21
49.161400
0
LINE
8
Shape2DView001
10
132.999789
20
-156.003138
11
132.999789
21
-175.000197
0
LINE
8
Shape2DView001
10
-124.999857
20
70.185694
11
-132.999789
21
70.185694
0
LINE
8
Shape2DView001
10
124.999857
20
-156.003138
11
132.999789
21
-156.003138
0
LINE
8
Shape2DView001
10
-132.999789
20
90.185788
11
-132.999789
21
70.185694
0
LINE
8
Shape2DView001
10
124.999857
20
-156.003138
11
124.999857
21
-134.934393
0
LINE
8
Shape2DView001
10
-124.999857
20
90.185788
11
-132.999789
21
90.185788
0
LINE
8
Shape2DView001
10
124.999857
20
-134.934393
11
132.999789
21
-134.934393
0
LINE
8
Shape2DView001
10
-124.999857
20
111.210347
11
-124.999857
21
90.185788
0
LINE
8
Shape2DView001
10
132.999789
20
-114.934564
11
132.999789
21
-134.934393
0
LINE
8
Shape2DView001
10
-124.999857
20
111.210347
11
-132.999789
21
111.210347
0
LINE
8
Shape2DView001
10
124.999857
20
-114.934564
11
132.999789
21
-114.934564
0
LINE
8
Shape2DView001
10
-132.999789
20
131.210176
11
-132.999789
21
111.210347
0
LINE
8
Shape2DView001
10
124.999857
20
-114.934564
11
124.999857
21
-93.910799
0
LINE
8
Shape2DView001
10
-124.999857
20
131.210176
11
-132.999789
21
131.210176
0
LINE
8
Shape2DView001
10
124.999857
20
-93.910799
11
132.999789
21
-93.910799
0
LINE
8
Shape2DView001
10
-124.999857
20
152.234205
11
-124.999857
21
131.210176
0
LINE
8
Shape2DView001
10
132.999789
20
-73.910970
11
132.999789
21
-93.910799
0
LINE
8
Shape2DView001
10
-124.999857
20
152.234205
11
-132.999789
21
152.234205
0
LINE
8
Shape2DView001
10
124.999857
20
-73.910970
11
132.999789
21
-73.910970
0
LINE
8
Shape2DView001
10
-132.999789
20
172.234034
11
-132.999789
21
152.234205
0
LINE
8
Shape2DView001
10
124.999857
20
-73.910970
11
124.999857
21
-52.887205
0
LINE
8
Shape2DView001
10
-124.999857
20
172.234034
11
-132.999789
21
172.234034
0
LINE
8
Shape2DView001
10
124.999857
20
-52.887205
11
132.999789
21
-52.887205
0
LINE
8
Shape2DView001
10
-124.999857
20
175.000250
11
-124.999857
21
172.234034
0
LINE
8
Shape2DView001
10
132.999789
20
-32.887376
11
132.999789
21
-52.887205
0
LINE
8
Shape2DView001
10
-113.580984
20
175.000250
11
-124.999857
21
175.000250
0
LINE
8
Shape2DView001
10
124.999857
20
-32.887376
11
132.999789
21
-32.887376
0
LINE
8
Shape2DView001
10
-113.580984
20
175.000250
11
-113.580984
21
183.000181
0
LINE
8
Shape2DView001
10
124.999857
20
-32.887376
11
124.999857
21
-11.863611
0
LINE
8
Shape2DView001
10
-113.580984
20
183.000181
11
-93.580890
21
183.000181
0
LINE
8
Shape2DView001
10
124.999857
20
-11.863611
11
132.999789
21
-11.863611
0
LINE
8
Shape2DView001
10
-93.580890
20
175.000250
11
-93.580890
21
183.000181
0
LINE
8
Shape2DView001
10
132.999789
20
8.136218
11
132.999789
21
-11.863611
0
LINE
8
Shape2DView001
10
-72.010761
20
175.000250
11
-93.580890
21
175.000250
0
LINE
8
Shape2DView001
10
124.999857
20
8.136218
11
132.999789
21
8.136218
0
LINE
8
Shape2DView001
10
-72.010761
20
175.000250
11
-72.010761
21
183.000181
0
LINE
8
Shape2DView001
10
124.999857
20
8.136218
11
124.999857
21
29.162629
0
LINE
8
Shape2DView001
10
-72.010761
20
183.000181
11
-52.010932
21
183.000181
0
LINE
8
Shape2DView001
10
124.999857
20
29.162629
11
132.999789
21
29.162629
0
LINE
8
Shape2DView001
10
-52.010932
20
175.000250
11
-52.010932
21
183.000181
0
LINE
8
Shape2DView001
10
132.999789
20
49.161400
11
132.999789
21
29.162629
0
LINE
8
Shape2DView001
10
-30.440803
20
175.000250
11
-52.010932
21
175.000250
0
LINE
8
Shape2DView001
10
124.999857
20
49.161400
11
132.999789
21
49.161400
0
LINE
8
Shape2DView001
10
-30.440803
20
175.000250
11
-30.440803
21
183.000181
0
LINE
8
Shape2DView001
10
124.999857
20
49.161400
11
124.999857
21
70.185694
0
LINE
8
Shape2DView001
10
-30.440803
20
183.000181
11
-10.440895
21
183.000181
0
LINE
8
Shape2DView001
10
124.999857
20
70.185694
11
132.999789
21
70.185694
0
LINE
8
Shape2DView001
10
-10.440895
20
175.000250
11
-10.440895
21
183.000181
0
LINE
8
Shape2DView001
10
132.999789
20
90.185788
11
132.999789
21
70.185694
0
LINE
8
Shape2DView001
10
11.129075
20
175.000250
11
-10.440895
21
175.000250
0
LINE
8
Shape2DView001
10
124.999857
20
90.185788
11
132.999789
21
90.185788
0
LINE
8
Shape2DView001
10
11.129075
20
175.000250
11
11.129075
21
183.000181
0
LINE
8
Shape2DView001
10
124.999857
20
90.185788
11
124.999857
21
111.210347
0
LINE
8
Shape2DView001
10
11.129075
20
183.000181
11
31.128984
21
183.000181
0
LINE
8
Shape2DView001
10
124.999857
20
111.210347
11
132.999789
21
111.210347
0
LINE
8
Shape2DView001
10
31.128984
20
175.000250
11
31.128984
21
183.000181
0
LINE
8
Shape2DView001
10
132.999789
20
131.210176
11
132.999789
21
111.210347
0
LINE
8
Shape2DView001
10
52.699113
20
175.000250
11
31.128984
21
175.000250
0
LINE
8
Shape2DView001
10
124.999857
20
131.210176
11
132.999789
21
131.210176
0
LINE
8
Shape2DView001
10
52.699113
20
175.000250
11
52.699113
21
183.000181
0
LINE
8
Shape2DView001
10
124.999857
20
131.210176
11
124.999857
21
152.234205
0
LINE
8
Shape2DView001
10
52.699113
20
183.000181
11
72.698942
21
183.000181
0
LINE
8
Shape2DView001
10
124.999857
20
152.234205
11
132.999789
21
152.234205
0
LINE
8
Shape2DView001
10
72.698942
20
175.000250
11
72.698942
21
183.000181
0
LINE
8
Shape2DView001
10
132.999789
20
172.234034
11
132.999789
21
152.234205
0
LINE
8
Shape2DView001
10
94.269071
20
175.000250
11
72.698942
21
175.000250
0
LINE
8
Shape2DView001
10
124.999857
20
172.234034
11
132.999789
21
172.234034
0
LINE
8
Shape2DView001
10
94.269071
20
175.000250
11
94.269071
21
183.000181
0
LINE
8
Shape2DView001
10
124.999857
20
172.234034
11
124.999857
21
175.000250
0
LINE
8
Shape2DView001
10
94.269071
20
183.000181
11
114.268900
21
183.000181
0
LINE
8
Shape2DView001
10
124.999857
20
175.000250
11
114.268900
21
175.000250
0
LINE
8
Shape2DView001
10
114.268900
20
175.000250
11
114.268900
21
183.000181
0
LINE
8
Shape2DView001
10
102.999781
20
-112.315193
11
94.999849
21
-112.315193
0
LINE
8
Shape2DView001
10
94.999849
20
-112.315193
11
94.999849
21
-132.315022
0
LINE
8
Shape2DView001
10
94.999849
20
-132.315022
11
102.999781
21
-132.315022
0
LINE
8
Shape2DView001
10
102.999781
20
-132.315022
11
102.999781
21
-112.315193
0
LINE
8
Shape2DView001
10
102.999781
20
-10.532758
11
94.999849
21
-10.532758
0
LINE
8
Shape2DView001
10
94.999849
20
-10.532758
11
94.999849
21
-30.532587
0
LINE
8
Shape2DView001
10
94.999849
20
-30.532587
11
102.999781
21
-30.532587
0
LINE
8
Shape2DView001
10
102.999781
20
-30.532587
11
102.999781
21
-10.532758
0
LINE
8
Shape2DView001
10
102.999781
20
29.448379
11
94.999849
21
29.448379
0
LINE
8
Shape2DView001
10
94.999849
20
29.448379
11
94.999849
21
9.448550
0
LINE
8
Shape2DView001
10
94.999849
20
9.448550
11
102.999781
21
9.448550
0
LINE
8
Shape2DView001
10
102.999781
20
9.448550
11
102.999781
21
29.448379
0
LINE
8
Shape2DView001
10
102.999781
20
69.429516
11
94.999849
21
69.429516
0
LINE
8
Shape2DView001
10
94.999849
20
69.429516
11
94.999849
21
49.429422
0
LINE
8
Shape2DView001
10
94.999849
20
49.429422
11
102.999781
21
49.429422
0
LINE
8
Shape2DView001
10
102.999781
20
49.429422
11
102.999781
21
69.429516
0
LINE
8
Shape2DView001
10
102.999781
20
109.411182
11
94.999849
21
109.411182
0
LINE
8
Shape2DView001
10
94.999849
20
109.411182
11
94.999849
21
89.411089
0
LINE
8
Shape2DView001
10
94.999849
20
89.411089
11
102.999781
21
89.411089
0
LINE
8
Shape2DView001
10
102.999781
20
89.411089
11
102.999781
21
109.411182
0
LINE
8
Shape2DView001
10
102.999781
20
149.393113
11
94.999849
21
149.393113
0
LINE
8
Shape2DView001
10
94.999849
20
149.393113
11
94.999849
21
129.393284
0
LINE
8
Shape2DView001
10
94.999849
20
129.393284
11
102.999781
21
129.393284
0
LINE
8
Shape2DView001
10
102.999781
20
129.393284
11
102.999781
21
149.393113
0
LINE
8
Shape2DView001
10
-102.999781
20
-132.315022
11
-102.999781
21
-112.315193
0
LINE
8
Shape2DView001
10
-94.999849
20
-132.315022
11
-102.999781
21
-132.315022
0
LINE
8
Shape2DView001
10
-102.999781
20
-112.315193
11
-94.999849
21
-112.315193
0
LINE
8
Shape2DView001
10
-94.999849
20
-112.315193
11
-94.999849
21
-132.315022
0
LINE
8
Shape2DView001
10
-102.999781
20
-30.532587
11
-102.999781
21
-10.532758
0
LINE
8
Shape2DView001
10
-94.999849
20
-30.532587
11
-102.999781
21
-30.532587
0
LINE
8
Shape2DView001
10
-102.999781
20
-10.532758
11
-94.999849
21
-10.532758
0
LINE
8
Shape2DView001
10
-94.999849
20
-10.532758
11
-94.999849
21
-30.532587
0
LINE
8
Shape2DView001
10
-102.999781
20
9.448550
11
-102.999781
21
29.448379
0
LINE
8
Shape2DView001
10
-94.999849
20
9.448550
11
-102.999781
21
9.448550
0
LINE
8
Shape2DView001
10
-102.999781
20
29.448379
11
-94.999849
21
29.448379
0
LINE
8
Shape2DView001
10
-94.999849
20
29.448379
11
-94.999849
21
9.448550
0
LINE
8
Shape2DView001
10
-102.999781
20
49.429422
11
-102.999781
21
69.429516
0
LINE
8
Shape2DView001
10
-94.999849
20
49.429422
11
-102.999781
21
49.429422
0
LINE
8
Shape2DView001
10
-102.999781
20
69.429516
11
-94.999849
21
69.429516
0
LINE
8
Shape2DView001
10
-94.999849
20
69.429516
11
-94.999849
21
49.429422
0
LINE
8
Shape2DView001
10
-102.999781
20
89.411089
11
-102.999781
21
109.411182
0
LINE
8
Shape2DView001
10
-94.999849
20
89.411089
11
-102.999781
21
89.411089
0
LINE
8
Shape2DView001
10
-102.999781
20
109.411182
11
-94.999849
21
109.411182
0
LINE
8
Shape2DView001
10
-94.999849
20
109.411182
11
-94.999849
21
89.411089
0
LINE
8
Shape2DView001
10
-102.999781
20
129.393284
11
-102.999781
21
149.393113
0
LINE
8
Shape2DView001
10
-94.999849
20
129.393284
11
-102.999781
21
129.393284
0
LINE
8
Shape2DView001
10
-102.999781
20
149.393113
11
-94.999849
21
149.393113
0
LINE
8
Shape2DView001
10
-94.999849
20
149.393113
11
-94.999849
21
129.393284
0
LINE
8
Shape2DView002
10
433.000663
20
-175.000197
11
433.000663
21
-182.998541
0
LINE
8
Shape2DView002
10
473.000321
20
-175.000197
11
473.000321
21
-182.998541
0
LINE
8
Shape2DView002
10
433.000663
20
175.000250
11
433.000663
21
183.000181
0
LINE
8
Shape2DView002
10
453.000492
20
183.000181
11
433.000663
21
183.000181
0
LINE
8
Shape2DView002
10
472.616675
20
175.000250
11
472.616675
21
183.000181
0
LINE
8
Shape2DView002
10
512.999979
20
156.005307
11
512.999979
21
134.936298
0
LINE
8
Shape2DView002
10
504.998989
20
134.936298
11
512.999979
21
134.936298
0
LINE
8
Shape2DView002
10
512.999979
20
156.005307
11
504.998989
21
156.005307
0
LINE
8
Shape2DView002
10
504.998989
20
156.005307
11
504.998989
21
175.000250
0
LINE
8
Shape2DView002
10
472.616675
20
175.000250
11
453.000492
21
175.000250
0
LINE
8
Shape2DView002
10
504.998989
20
175.000250
11
492.616504
21
175.000250
0
LINE
8
Shape2DView002
10
504.998989
20
114.936204
11
504.998989
21
134.936298
0
LINE
8
Shape2DView002
10
512.999979
20
-172.232659
11
504.998989
21
-172.232659
0
LINE
8
Shape2DView002
10
504.998989
20
-172.232659
11
504.998989
21
-152.232830
0
LINE
8
Shape2DView002
10
504.998989
20
-152.232830
11
512.999979
21
-152.232830
0
LINE
8
Shape2DView002
10
512.999979
20
-131.209065
11
512.999979
21
-152.232830
0
LINE
8
Shape2DView002
10
512.999979
20
-131.209065
11
504.998989
21
-131.209065
0
LINE
8
Shape2DView002
10
504.998989
20
-131.209065
11
504.998989
21
-111.209236
0
LINE
8
Shape2DView002
10
504.998989
20
-111.209236
11
512.999979
21
-111.209236
0
LINE
8
Shape2DView002
10
512.999979
20
-90.185471
11
512.999979
21
-111.209236
0
LINE
8
Shape2DView002
10
512.999979
20
-90.185471
11
504.998989
21
-90.185471
0
LINE
8
Shape2DView002
10
504.998989
20
-90.185471
11
504.998989
21
-70.185642
0
LINE
8
Shape2DView002
10
504.998989
20
-70.185642
11
512.999979
21
-70.185642
0
LINE
8
Shape2DView002
10
512.999979
20
-49.161876
11
512.999979
21
-70.185642
0
LINE
8
Shape2DView002
10
512.999979
20
-49.161876
11
504.998989
21
-49.161876
0
LINE
8
Shape2DView002
10
504.998989
20
-49.161876
11
504.998989
21
-29.159402
0
LINE
8
Shape2DView002
10
504.998989
20
-29.159402
11
512.999979
21
-29.159402
0
LINE
8
Shape2DView002
10
512.999979
20
-8.135636
11
512.999979
21
-29.159402
0
LINE
8
Shape2DView002
10
512.999979
20
-8.135636
11
504.998989
21
-8.135636
0
LINE
8
Shape2DView002
10
504.998989
20
-8.135636
11
504.998989
21
11.864193
0
LINE
8
Shape2DView002
10
504.998989
20
11.864193
11
512.999979
21
11.864193
0
LINE
8
Shape2DView002
10
512.999979
20
32.887958
11
512.999979
21
11.864193
0
LINE
8
Shape2DView002
10
512.999979
20
32.887958
11
504.998989
21
32.887958
0
LINE
8
Shape2DView002
10
504.998989
20
32.887958
11
504.998989
21
52.887787
0
LINE
8
Shape2DView002
10
504.998989
20
52.887787
11
512.999979
21
52.887787
0
LINE
8
Shape2DView002
10
512.999979
20
73.912081
11
512.999979
21
52.887787
0
LINE
8
Shape2DView002
10
512.999979
20
73.912081
11
504.998989
21
73.912081
0
LINE
8
Shape2DView002
10
504.998989
20
73.912081
11
504.998989
21
93.912175
0
LINE
8
Shape2DView002
10
504.998989
20
93.912175
11
512.999979
21
93.912175
0
LINE
8
Shape2DView002
10
512.999979
20
114.936204
11
512.999979
21
93.912175
0
LINE
8
Shape2DView002
10
512.999979
20
114.936204
11
504.998989
21
114.936204
0
LINE
8
Shape2DView002
10
453.000492
20
175.000250
11
453.000492
21
183.000181
0
LINE
8
Shape2DView002
10
492.616504
20
175.000250
11
492.616504
21
183.000181
0
LINE
8
Shape2DView002
10
433.000663
20
175.000250
11
425.060527
21
175.975238
0
LINE
8
Shape2DView002
10
422.621072
20
156.124105
11
425.060527
21
175.975238
0
LINE
8
Shape2DView002
10
427.955065
20
133.911303
11
420.014929
21
134.886292
0
LINE
8
Shape2DView002
10
427.955065
20
133.911303
11
430.561208
21
155.149116
0
LINE
8
Shape2DView002
10
390.024446
20
-175.000197
11
425.518256
21
114.060170
0
LINE
8
Shape2DView002
10
472.965502
20
-175.000197
11
492.985968
21
-175.000197
0
LINE
8
Shape2DView002
10
433.000663
20
-175.000197
11
452.968821
21
-175.000197
0
LINE
8
Shape2DView002
10
413.023456
20
-175.000197
11
390.006402
21
-175.000197
0
LINE
8
Shape2DView002
10
430.561208
20
155.149116
11
422.621072
21
156.124105
0
LINE
8
Shape2DView002
10
425.518256
20
114.060170
11
417.575474
21
115.035158
0
LINE
8
Shape2DView002
10
493.000150
20
-175.000197
11
493.000150
21
-182.998541
0
LINE
8
Shape2DView002
10
512.999979
20
-182.998541
11
493.000150
21
-182.998541
0
LINE
8
Shape2DView002
10
453.000492
20
-175.000197
11
453.000492
21
-182.998541
0
LINE
8
Shape2DView002
10
473.000321
20
-182.998541
11
453.000492
21
-182.998541
0
LINE
8
Shape2DView002
10
412.998188
20
-175.000197
11
412.998188
21
-182.998541
0
LINE
8
Shape2DView002
10
433.000663
20
-182.998541
11
412.998188
21
-182.998541
0
LINE
8
Shape2DView002
10
492.616504
20
183.000181
11
472.616675
21
183.000181
0
LINE
8
Shape2DView002
10
417.575474
20
115.035158
11
420.014929
21
134.886292
0
LINE
8
Shape2DView002
10
512.999979
20
-172.232659
11
512.999979
21
-182.998541
0
LINE
8
Shape2DView002
10
479.362776
20
74.090381
11
481.635381
21
73.579130
0
LINE
8
Shape2DView002
10
481.635381
20
73.579130
11
483.895176
21
73.532206
0
LINE
8
Shape2DView002
10
483.895176
20
73.532206
11
486.083669
21
73.920361
0
LINE
8
Shape2DView002
10
486.083669
20
73.920361
11
488.142363
21
74.714347
0
LINE
8
Shape2DView002
10
488.142363
20
74.714347
11
490.012764
21
75.884918
0
LINE
8
Shape2DView002
10
490.012764
20
75.884918
11
491.636378
21
77.402826
0
LINE
8
Shape2DView002
10
491.636378
20
77.402826
11
492.954708
21
79.238822
0
LINE
8
Shape2DView002
10
492.954708
20
79.238822
11
493.909262
21
81.363660
0
LINE
8
Shape2DView002
10
493.909262
20
81.363660
11
494.420516
21
83.636264
0
LINE
8
Shape2DView002
10
494.420516
20
83.636264
11
494.467443
21
85.896059
0
LINE
8
Shape2DView002
10
494.467443
20
85.896059
11
494.079291
21
88.084552
0
LINE
8
Shape2DView002
10
494.079291
20
88.084552
11
493.285307
21
90.143248
0
LINE
8
Shape2DView002
10
493.285307
20
90.143248
11
492.114739
21
92.013650
0
LINE
8
Shape2DView002
10
492.114739
20
92.013650
11
490.596833
21
93.637266
0
LINE
8
Shape2DView002
10
490.596833
20
93.637266
11
488.760839
21
94.955599
0
LINE
8
Shape2DView002
10
488.760839
20
94.955599
11
486.636002
21
95.910155
0
LINE
8
Shape2DView002
10
486.636002
20
95.910155
11
484.363399
21
96.421412
0
LINE
8
Shape2DView002
10
484.363399
20
96.421412
11
482.103603
21
96.468342
0
LINE
8
Shape2DView002
10
482.103603
20
96.468342
11
479.915110
21
96.080193
0
LINE
8
Shape2DView002
10
479.915110
20
96.080193
11
477.856414
21
95.286212
0
LINE
8
Shape2DView002
10
477.856414
20
95.286212
11
475.986009
21
94.115646
0
LINE
8
Shape2DView002
10
475.986009
20
94.115646
11
474.362392
21
92.597743
0
LINE
8
Shape2DView002
10
474.362392
20
92.597743
11
473.044056
21
90.761750
0
LINE
8
Shape2DView002
10
473.044056
20
90.761750
11
472.089497
21
88.636915
0
LINE
8
Shape2DView002
10
472.089497
20
88.636915
11
471.578237
21
86.364312
0
LINE
8
Shape2DView002
10
471.578237
20
86.364312
11
471.531304
21
84.104517
0
LINE
8
Shape2DView002
10
471.531304
20
84.104517
11
471.919450
21
81.916023
0
LINE
8
Shape2DView002
10
471.919450
20
81.916023
11
472.713429
21
79.857326
0
LINE
8
Shape2DView002
10
472.713429
20
79.857326
11
473.883992
21
77.986920
0
LINE
8
Shape2DView002
10
473.883992
20
77.986920
11
475.401893
21
76.363300
0
LINE
8
Shape2DView002
10
475.401893
20
76.363300
11
477.237884
21
75.044962
0
LINE
8
Shape2DView002
10
477.237884
20
75.044962
11
479.362718
21
74.090400
0
LINE
8
Shape2DView003
10
296.740418
20
179.532027
11
296.740418
21
187.532223
0
LINE
8
Shape2DView003
10
336.740076
20
179.532027
11
336.740076
21
187.532223
0
LINE
8
Shape2DView003
10
296.740418
20
-170.467890
11
296.740418
21
-178.466234
0
LINE
8
Shape2DView003
10
316.740247
20
-178.466234
11
296.740418
21
-178.466234
0
LINE
8
Shape2DView003
10
336.356430
20
-170.467890
11
336.356430
21
-178.466234
0
LINE
8
Shape2DView003
10
376.739734
20
-151.473477
11
376.739734
21
-130.404732
0
LINE
8
Shape2DView003
10
368.738744
20
-130.404732
11
376.739734
21
-130.404732
0
LINE
8
Shape2DView003
10
376.739734
20
-151.473477
11
368.738744
21
-151.473477
0
LINE
8
Shape2DView003
10
368.738744
20
-151.473477
11
368.738744
21
-170.467890
0
LINE
8
Shape2DView003
10
336.356430
20
-170.467890
11
316.740247
21
-170.467890
0
LINE
8
Shape2DView003
10
368.738744
20
-170.467890
11
356.356259
21
-170.467890
0
LINE
8
Shape2DView003
10
368.738744
20
-110.402258
11
368.738744
21
-130.404732
0
LINE
8
Shape2DView003
10
376.739734
20
176.766076
11
368.738744
21
176.766076
0
LINE
8
Shape2DView003
10
368.738744
20
176.766076
11
368.738744
21
156.766248
0
LINE
8
Shape2DView003
10
368.738744
20
156.766248
11
376.739734
21
156.766248
0
LINE
8
Shape2DView003
10
376.739734
20
135.742218
11
376.739734
21
156.766248
0
LINE
8
Shape2DView003
10
376.739734
20
135.742218
11
368.738744
21
135.742218
0
LINE
8
Shape2DView003
10
368.738744
20
135.742218
11
368.738744
21
115.742124
0
LINE
8
Shape2DView003
10
368.738744
20
115.742124
11
376.739734
21
115.742124
0
LINE
8
Shape2DView003
10
376.739734
20
94.717565
11
376.739734
21
115.742124
0
LINE
8
Shape2DView003
10
376.739734
20
94.717565
11
368.738744
21
94.717565
0
LINE
8
Shape2DView003
10
368.738744
20
94.717565
11
368.738744
21
74.717736
0
LINE
8
Shape2DView003
10
368.738744
20
74.717736
11
376.739734
21
74.717736
0
LINE
8
Shape2DView003
10
376.739734
20
53.693442
11
376.739734
21
74.717736
0
LINE
8
Shape2DView003
10
376.739734
20
53.693442
11
368.738744
21
53.693442
0
LINE
8
Shape2DView003
10
368.738744
20
53.693442
11
368.738744
21
33.693348
0
LINE
8
Shape2DView003
10
368.738744
20
33.693348
11
376.739734
21
33.693348
0
LINE
8
Shape2DView003
10
376.739734
20
12.668525
11
376.739734
21
33.693348
0
LINE
8
Shape2DView003
10
376.739734
20
12.668525
11
368.738744
21
12.668525
0
LINE
8
Shape2DView003
10
368.738744
20
12.668525
11
368.738744
21
-7.331304
0
LINE
8
Shape2DView003
10
368.738744
20
-7.331304
11
376.739734
21
-7.331304
0
LINE
8
Shape2DView003
10
376.739734
20
-28.355069
11
376.739734
21
-7.331304
0
LINE
8
Shape2DView003
10
376.739734
20
-28.355069
11
368.738744
21
-28.355069
0
LINE
8
Shape2DView003
10
368.738744
20
-28.355069
11
368.738744
21
-48.354898
0
LINE
8
Shape2DView003
10
368.738744
20
-48.354898
11
376.739734
21
-48.354898
0
LINE
8
Shape2DView003
10
376.739734
20
-69.378663
11
376.739734
21
-48.354898
0
LINE
8
Shape2DView003
10
376.739734
20
-69.378663
11
368.738744
21
-69.378663
0
LINE
8
Shape2DView003
10
368.738744
20
-69.378663
11
368.738744
21
-89.378492
0
LINE
8
Shape2DView003
10
368.738744
20
-89.378492
11
376.739734
21
-89.378492
0
LINE
8
Shape2DView003
10
376.739734
20
-110.402258
11
376.739734
21
-89.378492
0
LINE
8
Shape2DView003
10
376.739734
20
-110.402258
11
368.738744
21
-110.402258
0
LINE
8
Shape2DView003
10
316.740247
20
-170.467890
11
316.740247
21
-178.466234
0
LINE
8
Shape2DView003
10
356.356259
20
-170.467890
11
356.356259
21
-178.466234
0
LINE
8
Shape2DView003
10
296.740418
20
-170.467890
11
288.797636
21
-171.441556
0
LINE
8
Shape2DView003
10
286.360827
20
-151.592539
11
288.797636
21
-171.441556
0
LINE
8
Shape2DView003
10
291.694820
20
-129.378150
11
283.754684
21
-130.354462
0
LINE
8
Shape2DView003
10
291.694820
20
-129.378150
11
294.300963
21
-150.616228
0
LINE
8
Shape2DView003
10
253.764730
20
179.532027
11
289.255365
21
-109.526488
0
LINE
8
Shape2DView003
10
296.726183
20
179.532027
11
316.740247
21
179.532027
0
LINE
8
Shape2DView003
10
253.741524
20
179.532027
11
276.740589
21
179.532027
0
LINE
8
Shape2DView003
10
356.739905
20
179.532027
11
336.713300
21
179.532027
0
LINE
8
Shape2DView003
10
294.300963
20
-150.616228
11
286.360827
21
-151.592539
0
LINE
8
Shape2DView003
10
289.255365
20
-109.526488
11
281.317875
21
-110.502799
0
LINE
8
Shape2DView003
10
356.739905
20
179.532027
11
356.739905
21
187.532223
0
LINE
8
Shape2DView003
10
376.739734
20
187.532223
11
356.739905
21
187.532223
0
LINE
8
Shape2DView003
10
316.740247
20
179.532027
11
316.740247
21
187.532223
0
LINE
8
Shape2DView003
10
336.740076
20
187.532223
11
316.740247
21
187.532223
0
LINE
8
Shape2DView003
10
276.740589
20
179.532027
11
276.740589
21
187.532223
0
LINE
8
Shape2DView003
10
296.740418
20
187.532223
11
276.740589
21
187.532223
0
LINE
8
Shape2DView003
10
356.356259
20
-178.466234
11
336.356430
21
-178.466234
0
LINE
8
Shape2DView003
10
281.317875
20
-110.502799
11
283.754684
21
-130.354462
0
LINE
8
Shape2DView003
10
376.739734
20
176.766076
11
376.739734
21
187.532223
0
LINE
8
Shape2DView003
10
336.453676
20
-75.324571
11
335.630385
21
-77.503620
0
LINE
8
Shape2DView003
10
335.630385
20
-77.503620
11
335.268666
21
-79.734762
0
LINE
8
Shape2DView003
10
335.268666
20
-79.734762
11
335.347716
21
-81.955994
0
LINE
8
Shape2DView003
10
335.347716
20
-81.955994
11
335.846736
21
-84.105313
0
LINE
8
Shape2DView003
10
335.846736
20
-84.105313
11
336.744923
21
-86.120717
0
LINE
8
Shape2DView003
10
336.744923
20
-86.120717
11
338.021477
21
-87.940203
0
LINE
8
Shape2DView003
10
338.021477
20
-87.940203
11
339.655597
21
-89.501769
0
LINE
8
Shape2DView003
10
339.655597
20
-89.501769
11
341.626482
21
-90.743410
0
LINE
8
Shape2DView003
10
341.626482
20
-90.743410
11
343.805530
21
-91.566704
0
LINE
8
Shape2DView003
10
343.805530
20
-91.566704
11
346.036671
21
-91.928426
0
LINE
8
Shape2DView003
10
346.036671
20
-91.928426
11
348.257903
21
-91.849379
0
LINE
8
Shape2DView003
10
348.257903
20
-91.849379
11
350.407223
21
-91.350362
0
LINE
8
Shape2DView003
10
350.407223
20
-91.350362
11
352.422629
21
-90.452178
0
LINE
8
Shape2DView003
10
352.422629
20
-90.452178
11
354.242116
21
-89.175626
0
LINE
8
Shape2DView003
10
354.242116
20
-89.175626
11
355.803684
21
-87.541508
0
LINE
8
Shape2DView003
10
355.803684
20
-87.541508
11
357.045328
21
-85.570625
0
LINE
8
Shape2DView003
10
357.045328
20
-85.570625
11
357.868625
21
-83.391578
0
LINE
8
Shape2DView003
10
357.868625
20
-83.391578
11
358.230350
21
-81.160437
0
LINE
8
Shape2DView003
10
358.230350
20
-81.160437
11
358.151306
21
-78.939205
0
LINE
8
Shape2DView003
10
358.151306
20
-78.939205
11
357.652292
21
-76.789884
0
LINE
8
Shape2DView003
10
357.652292
20
-76.789884
11
356.754110
21
-74.774478
0
LINE
8
Shape2DView003
10
356.754110
20
-74.774478
11
355.477561
21
-72.954989
0
LINE
8
Shape2DView003
10
355.477561
20
-72.954989
11
353.843445
21
-71.393419
0
LINE
8
Shape2DView003
10
353.843445
20
-71.393419
11
351.872563
21
-70.151772
0
LINE
8
Shape2DView003
10
351.872563
20
-70.151772
11
349.693518
21
-69.328472
0
LINE
8
Shape2DView003
10
349.693518
20
-69.328472
11
347.462377
21
-68.966744
0
LINE
8
Shape2DView003
10
347.462377
20
-68.966744
11
345.241145
21
-69.045786
0
LINE
8
Shape2DView003
10
345.241145
20
-69.045786
11
343.091824
21
-69.544796
0
LINE
8
Shape2DView003
10
343.091824
20
-69.544796
11
341.076416
21
-70.442976
0
LINE
8
Shape2DView003
10
341.076416
20
-70.442976
11
339.256925
21
-71.719523
0
LINE
8
Shape2DView003
10
339.256925
20
-71.719523
11
337.695353
21
-73.353636
0
LINE
8
Shape2DView003
10
337.695353
20
-73.353636
11
336.453703
21
-75.324516
0
LINE
8
Shape2DView004
10
-152.999882
20
180.000074
11
-272.999385
21
180.000074
0
LINE
8
Shape2DView004
10
-152.999882
20
180.000074
11
-152.999882
21
163.000088
0
LINE
8
Shape2DView004
10
-272.999656
20
180.000148
11
-276.087244
21
179.922076
0
LINE
8
Shape2DView004
10
-276.087244
20
179.922076
11
-279.134300
21
179.690375
0
LINE
8
Shape2DView004
10
-279.134300
20
179.690375
11
-282.137053
21
179.308813
0
LINE
8
Shape2DView004
10
-282.137053
20
179.308813
11
-285.091734
21
178.781162
0
LINE
8
Shape2DView004
10
-285.091734
20
178.781162
11
-290.841798
21
177.302670
0
LINE
8
Shape2DView004
10
-290.841798
20
177.302670
11
-296.354334
21
175.285056
0
LINE
8
Shape2DView004
10
-296.354334
20
175.285056
11
-301.599183
21
172.758481
0
LINE
8
Shape2DView004
10
-301.599183
20
172.758481
11
-306.546184
21
169.753103
0
LINE
8
Shape2DView004
10
-306.546184
20
169.753103
11
-311.165180
21
166.299082
0
LINE
8
Shape2DView004
10
-311.165180
20
166.299082
11
-315.426009
21
162.426576
0
LINE
8
Shape2DView004
10
-315.426009
20
162.426576
11
-319.298515
21
158.165747
0
LINE
8
Shape2DView004
10
-319.298515
20
158.165747
11
-322.752536
21
153.546751
0
LINE
8
Shape2DView004
10
-322.752536
20
153.546751
11
-325.757914
21
148.599750
0
LINE
8
Shape2DView004
10
-325.757914
20
148.599750
11
-328.284489
21
143.354901
0
LINE
8
Shape2DView004
10
-328.284489
20
143.354901
11
-330.302103
21
137.842365
0
LINE
8
Shape2DView004
10
-330.302103
20
137.842365
11
-331.780595
21
132.092300
0
LINE
8
Shape2DView004
10
-331.780595
20
132.092300
11
-332.308246
21
129.137620
0
LINE
8
Shape2DView004
10
-332.308246
20
129.137620
11
-332.689808
21
126.134867
0
LINE
8
Shape2DView004
10
-332.689808
20
126.134867
11
-332.921509
21
123.087811
0
LINE
8
Shape2DView004
10
-332.921509
20
123.087811
11
-332.999580
21
120.000223
0
LINE
8
Shape2DView004
10
-332.998872
20
120.000323
11
-332.998872
21
-59.999196
0
LINE
8
Shape2DView004
10
-332.999580
20
-59.999550
11
-332.921509
21
-63.087138
0
LINE
8
Shape2DView004
10
-332.921509
20
-63.087138
11
-332.689808
21
-66.134194
0
LINE
8
Shape2DView004
10
-332.689808
20
-66.134194
11
-332.308246
21
-69.136947
0
LINE
8
Shape2DView004
10
-332.308246
20
-69.136947
11
-331.780595
21
-72.091628
0
LINE
8
Shape2DView004
10
-331.780595
20
-72.091628
11
-330.302103
21
-77.841692
0
LINE
8
Shape2DView004
10
-330.302103
20
-77.841692
11
-328.284489
21
-83.354228
0
LINE
8
Shape2DView004
10
-328.284489
20
-83.354228
11
-325.757914
21
-88.599077
0
LINE
8
Shape2DView004
10
-325.757914
20
-88.599077
11
-322.752536
21
-93.546078
0
LINE
8
Shape2DView004
10
-322.752536
20
-93.546078
11
-319.298515
21
-98.165074
0
LINE
8
Shape2DView004
10
-319.298515
20
-98.165074
11
-315.426009
21
-102.425904
0
LINE
8
Shape2DView004
10
-315.426009
20
-102.425904
11
-311.165180
21
-106.298409
0
LINE
8
Shape2DView004
10
-311.165180
20
-106.298409
11
-306.546184
21
-109.752430
0
LINE
8
Shape2DView004
10
-306.546184
20
-109.752430
11
-301.599183
21
-112.757808
0
LINE
8
Shape2DView004
10
-301.599183
20
-112.757808
11
-296.354334
21
-115.284383
0
LINE
8
Shape2DView004
10
-296.354334
20
-115.284383
11
-290.841798
21
-117.301997
0
LINE
8
Shape2DView004
10
-290.841798
20
-117.301997
11
-285.091734
21
-118.780489
0
LINE
8
Shape2DView004
10
-285.091734
20
-118.780489
11
-282.137053
21
-119.308141
0
LINE
8
Shape2DView004
10
-282.137053
20
-119.308141
11
-279.134300
21
-119.689702
0
LINE
8
Shape2DView004
10
-279.134300
20
-119.689702
11
-276.087244
21
-119.921403
0
LINE
8
Shape2DView004
10
-276.087244
20
-119.921403
11
-272.999656
21
-119.999475
0
LINE
8
Shape2DView004
10
-152.999882
20
-119.998683
11
-272.999385
21
-119.998683
0
LINE
8
Shape2DView004
10
-152.999882
20
-102.999225
11
-152.999882
21
-119.998683
0
LINE
8
Shape2DView004
10
-152.999882
20
-102.999225
11
-172.999711
21
-102.999225
0
LINE
8
Shape2DView004
10
-172.999711
20
-102.999225
11
-172.999711
21
-94.998235
0
LINE
8
Shape2DView004
10
-172.999711
20
-94.998235
11
-152.999882
21
-94.998235
0
LINE
8
Shape2DView004
10
-152.999882
20
-83.581479
11
-152.999882
21
-94.998235
0
LINE
8
Shape2DView004
10
-152.999882
20
-83.581479
11
-160.999814
21
-83.581479
0
LINE
8
Shape2DView004
10
-160.999814
20
-83.581479
11
-160.999814
21
-63.581650
0
LINE
8
Shape2DView004
10
-160.999814
20
-63.581650
11
-152.999882
21
-63.581650
0
LINE
8
Shape2DView004
10
-152.999882
20
-42.010198
11
-152.999882
21
-63.581650
0
LINE
8
Shape2DView004
10
-152.999882
20
-42.010198
11
-160.999814
21
-42.010198
0
LINE
8
Shape2DView004
10
-160.999814
20
-42.010198
11
-160.999814
21
-22.010369
0
LINE
8
Shape2DView004
10
-160.999814
20
-22.010369
11
-152.999882
21
-22.010369
0
LINE
8
Shape2DView004
10
-152.999882
20
-0.441563
11
-152.999882
21
-22.010369
0
LINE
8
Shape2DView004
10
-152.999882
20
-0.441563
11
-160.999814
21
-0.441563
0
LINE
8
Shape2DView004
10
-160.999814
20
-0.441563
11
-160.999814
21
19.558266
0
LINE
8
Shape2DView004
10
-160.999814
20
19.558266
11
-152.999882
21
19.558266
0
LINE
8
Shape2DView004
10
-152.999882
20
41.129454
11
-152.999882
21
19.558266
0
LINE
8
Shape2DView004
10
-152.999882
20
41.129454
11
-160.999814
21
41.129454
0
LINE
8
Shape2DView004
10
-160.999814
20
41.129454
11
-160.999814
21
61.129283
0
LINE
8
Shape2DView004
10
-160.999814
20
61.129283
11
-152.999882
21
61.129283
0
LINE
8
Shape2DView004
10
-152.999882
20
82.699412
11
-152.999882
21
61.129283
0
LINE
8
Shape2DView004
10
-152.999882
20
82.699412
11
-160.999814
21
82.699412
0
LINE
8
Shape2DView004
10
-160.999814
20
82.699412
11
-160.999814
21
102.699241
0
LINE
8
Shape2DView004
10
-160.999814
20
102.699241
11
-152.999882
21
102.699241
0
LINE
8
Shape2DView004
10
-152.999882
20
124.269105
11
-152.999882
21
102.699241
0
LINE
8
Shape2DView004
10
-152.999882
20
124.269105
11
-160.999814
21
124.269105
0
LINE
8
Shape2DView004
10
-160.999814
20
124.269105
11
-160.999814
21
144.269199
0
LINE
8
Shape2DView004
10
-160.999814
20
144.269199
11
-152.999882
21
144.269199
0
LINE
8
Shape2DView004
10
-152.999882
20
155.000156
11
-152.999882
21
144.269199
0
LINE
8
Shape2DView004
10
-172.999711
20
155.000156
11
-152.999882
21
155.000156
0
LINE
8
Shape2DView004
10
-172.999711
20
163.000088
11
-172.999711
21
155.000156
0
LINE
8
Shape2DView004
10
-152.999882
20
163.000088
11
-172.999711
21
163.000088
0
LINE
8
Shape2DView004
10
-192.999805
20
-94.998235
11
-192.999805
21
-102.999225
0
LINE
8
Shape2DView004
10
-212.999634
20
-94.998235
11
-192.999805
21
-94.998235
0
LINE
8
Shape2DView004
10
-192.999805
20
-102.999225
11
-212.999634
21
-102.999225
0
LINE
8
Shape2DView004
10
-212.999634
20
-102.999225
11
-212.999634
21
-94.998235
0
LINE
8
Shape2DView004
10
-171.499784
20
-39.999575
11
-171.600916
21
-38.476292
0
LINE
8
Shape2DView004
10
-171.600916
20
-38.476292
11
-171.897861
21
-36.999026
0
LINE
8
Shape2DView004
10
-171.897861
20
-36.999026
11
-172.380945
21
-35.584537
0
LINE
8
Shape2DView004
10
-172.380945
20
-35.584537
11
-173.040490
21
-34.249583
0
LINE
8
Shape2DView004
10
-173.040490
20
-34.249583
11
-173.866821
21
-33.010923
0
LINE
8
Shape2DView004
10
-173.866821
20
-33.010923
11
-174.850263
21
-31.885316
0
LINE
8
Shape2DView004
10
-174.850263
20
-31.885316
11
-175.981140
21
-30.889520
0
LINE
8
Shape2DView004
10
-175.981140
20
-30.889520
11
-177.249777
21
-30.040296
0
LINE
8
Shape2DView004
10
-177.249777
20
-30.040296
11
-178.619545
21
-29.366237
0
LINE
8
Shape2DView004
10
-178.619545
20
-29.366237
11
-180.047367
21
-28.884766
0
LINE
8
Shape2DView004
10
-180.047367
20
-28.884766
11
-181.513893
21
-28.595884
0
LINE
8
Shape2DView004
10
-181.513893
20
-28.595884
11
-182.999769
21
-28.499590
0
LINE
8
Shape2DView004
10
-182.999769
20
-28.499590
11
-184.485646
21
-28.595884
0
LINE
8
Shape2DView004
10
-184.485646
20
-28.595884
11
-185.952172
21
-28.884766
0
LINE
8
Shape2DView004
10
-185.952172
20
-28.884766
11
-187.379994
21
-29.366237
0
LINE
8
Shape2DView004
10
-187.379994
20
-29.366237
11
-188.749762
21
-30.040296
0
LINE
8
Shape2DView004
10
-188.749762
20
-30.040296
11
-190.018398
21
-30.889520
0
LINE
8
Shape2DView004
10
-190.018398
20
-30.889520
11
-191.149275
21
-31.885316
0
LINE
8
Shape2DView004
10
-191.149275
20
-31.885316
11
-192.132717
21
-33.010923
0
LINE
8
Shape2DView004
10
-192.132717
20
-33.010923
11
-192.959049
21
-34.249583
0
LINE
8
Shape2DView004
10
-192.959049
20
-34.249583
11
-193.618594
21
-35.584537
0
LINE
8
Shape2DView004
10
-193.618594
20
-35.584537
11
-194.101677
21
-36.999026
0
LINE
8
Shape2DView004
10
-194.101677
20
-36.999026
11
-194.398623
21
-38.476292
0
LINE
8
Shape2DView004
10
-194.398623
20
-38.476292
11
-194.499755
21
-39.999575
0
LINE
8
Shape2DView004
10
-194.499755
20
-39.999575
11
-194.398623
21
-41.522859
0
LINE
8
Shape2DView004
10
-194.398623
20
-41.522859
11
-194.101677
21
-43.000125
0
LINE
8
Shape2DView004
10
-194.101677
20
-43.000125
11
-193.618594
21
-44.414614
0
LINE
8
Shape2DView004
10
-193.618594
20
-44.414614
11
-192.959049
21
-45.749568
0
LINE
8
Shape2DView004
10
-192.959049
20
-45.749568
11
-192.132717
21
-46.988228
0
LINE
8
Shape2DView004
10
-192.132717
20
-46.988228
11
-191.149275
21
-48.113835
0
LINE
8
Shape2DView004
10
-191.149275
20
-48.113835
11
-190.018398
21
-49.109630
0
LINE
8
Shape2DView004
10
-190.018398
20
-49.109630
11
-188.749762
21
-49.958855
0
LINE
8
Shape2DView004
10
-188.749762
20
-49.958855
11
-187.379994
21
-50.632914
0
LINE
8
Shape2DView004
10
-187.379994
20
-50.632914
11
-185.952172
21
-51.114384
0
LINE
8
Shape2DView004
10
-185.952172
20
-51.114384
11
-184.485646
21
-51.403267
0
LINE
8
Shape2DView004
10
-184.485646
20
-51.403267
11
-182.999769
21
-51.499561
0
LINE
8
Shape2DView004
10
-182.999769
20
-51.499561
11
-181.513893
21
-51.403267
0
LINE
8
Shape2DView004
10
-181.513893
20
-51.403267
11
-180.047367
21
-51.114384
0
LINE
8
Shape2DView004
10
-180.047367
20
-51.114384
11
-178.619545
21
-50.632914
0
LINE
8
Shape2DView004
10
-178.619545
20
-50.632914
11
-177.249777
21
-49.958855
0
LINE
8
Shape2DView004
10
-177.249777
20
-49.958855
11
-175.981140
21
-49.109630
0
LINE
8
Shape2DView004
10
-175.981140
20
-49.109630
11
-174.850263
21
-48.113835
0
LINE
8
Shape2DView004
10
-174.850263
20
-48.113835
11
-173.866821
21
-46.988228
0
LINE
8
Shape2DView004
10
-173.866821
20
-46.988228
11
-173.040490
21
-45.749568
0
LINE
8
Shape2DView004
10
-173.040490
20
-45.749568
11
-172.380945
21
-44.414614
0
LINE
8
Shape2DView004
10
-172.380945
20
-44.414614
11
-171.897861
21
-43.000125
0
LINE
8
Shape2DView004
10
-171.897861
20
-43.000125
11
-171.600916
21
-41.522859
0
LINE
8
Shape2DView004
10
-171.600916
20
-41.522859
11
-171.499784
21
-39.999575
0
LINE
8
Shape2DView004
10
-171.499784
20
-39.999575
11
-171.499784
21
-39.999575
0
LINE
8
Shape2DView004
10
-232.999727
20
-94.998235
11
-232.999727
21
-102.999225
0
LINE
8
Shape2DView004
10
-252.999556
20
-94.998235
11
-232.999727
21
-94.998235
0
LINE
8
Shape2DView004
10
-232.999727
20
-102.999225
11
-252.999556
21
-102.999225
0
LINE
8
Shape2DView004
10
-252.999556
20
-102.999225
11
-252.999556
21
-94.998235
0
LINE
8
Shape2DView004
10
-300.783246
20
-66.269813
11
-300.783246
21
-63.772150
0
LINE
8
Shape2DView004
10
-300.927621
20
-66.433642
11
-300.782621
21
-66.269642
0
LINE
8
Shape2DView004
10
-300.782621
20
-63.771645
11
-300.675121
21
-63.510496
0
LINE
8
Shape2DView004
10
-300.675121
20
-63.510496
11
-300.414622
21
-63.402946
0
LINE
8
Shape2DView004
10
-307.024759
20
-66.433855
11
-300.928767
21
-66.433855
0
LINE
8
Shape2DView004
10
-300.415476
20
-63.401733
11
-298.753894
21
-63.401733
0
LINE
8
Shape2DView004
10
-307.392613
20
-66.802342
11
-307.278238
21
-66.542205
0
LINE
8
Shape2DView004
10
-307.278238
20
-66.542205
11
-307.023613
21
-66.433642
0
LINE
8
Shape2DView004
10
-298.754624
20
-63.402946
11
-298.317624
21
-63.579446
0
LINE
8
Shape2DView004
10
-298.317624
20
-63.579446
11
-298.140624
21
-64.016945
0
LINE
8
Shape2DView004
10
-307.392529
20
-68.706623
11
-307.392529
21
-66.801625
0
LINE
8
Shape2DView004
10
-298.140062
20
-64.018212
11
-298.140062
21
-66.269813
0
LINE
8
Shape2DView004
10
-307.023613
20
-69.075639
11
-307.278238
21
-68.967076
0
LINE
8
Shape2DView004
10
-307.278238
20
-68.967076
11
-307.392613
21
-68.706939
0
LINE
8
Shape2DView004
10
-298.140624
20
-66.269642
11
-297.976624
21
-66.433642
0
LINE
8
Shape2DView004
10
-292.366861
20
-69.074393
11
-307.024759
21
-69.074393
0
LINE
8
Shape2DView004
10
-297.976020
20
-66.433855
11
-292.366861
21
-66.433855
0
LINE
8
Shape2DView004
10
-291.996632
20
-68.706939
11
-292.104632
21
-68.967939
0
LINE
8
Shape2DView004
10
-292.104632
20
-68.967939
11
-292.365632
21
-69.075639
0
LINE
8
Shape2DView004
10
-292.365632
20
-66.433642
11
-292.104632
21
-66.541342
0
LINE
8
Shape2DView004
10
-292.104632
20
-66.541342
11
-291.996632
21
-66.802342
0
LINE
8
Shape2DView004
10
-291.996445
20
-66.801625
11
-291.996445
21
-68.706623
0
LINE
8
Shape2DView004
10
-307.024759
20
-58.753010
11
-305.323490
21
-58.753010
0
LINE
8
Shape2DView004
10
-307.392613
20
-59.122351
11
-307.277113
21
-58.868852
0
LINE
8
Shape2DView004
10
-307.277113
20
-58.868852
11
-307.023613
21
-58.753652
0
LINE
8
Shape2DView004
10
-305.324615
20
-58.753652
11
-304.920241
21
-58.930502
0
LINE
8
Shape2DView004
10
-304.920241
20
-58.930502
11
-304.750616
21
-59.347651
0
LINE
8
Shape2DView004
10
-307.392529
20
-64.385982
11
-307.392529
21
-59.123426
0
LINE
8
Shape2DView004
10
-304.749345
20
-59.348322
11
-304.749345
21
-64.385982
0
LINE
8
Shape2DView004
10
-307.228613
20
-64.528945
11
-307.392613
21
-64.385645
0
LINE
8
Shape2DView004
10
-304.750616
20
-64.385645
11
-304.894616
21
-64.528945
0
LINE
8
Shape2DView004
10
-304.894866
20
-64.528857
11
-307.228488
21
-64.528857
0
LINE
8
Shape2DView004
10
-307.352842
20
-53.212642
11
-307.352842
21
-55.096473
0
LINE
8
Shape2DView004
10
-306.984613
20
-52.822959
11
-307.239113
21
-52.942172
0
LINE
8
Shape2DView004
10
-307.239113
20
-52.942172
11
-307.352613
21
-53.212359
0
LINE
8
Shape2DView004
10
-307.352613
20
-55.096356
11
-307.238738
21
-55.356406
0
LINE
8
Shape2DView004
10
-307.238738
20
-55.356406
11
-306.984613
21
-55.464956
0
LINE
8
Shape2DView004
10
-292.567944
20
-52.823705
11
-306.985072
21
-52.823705
0
LINE
8
Shape2DView004
10
-306.985072
20
-55.464243
11
-292.361569
21
-55.464243
0
LINE
8
Shape2DView004
10
-291.993632
20
-53.416958
11
-292.246632
21
-52.920859
0
LINE
8
Shape2DView004
10
-292.246632
20
-52.920859
11
-292.566631
21
-52.822959
0
LINE
8
Shape2DView004
10
-292.361632
20
-55.464956
11
-292.100757
21
-55.357231
0
LINE
8
Shape2DView004
10
-292.100757
20
-55.357231
11
-291.993632
21
-55.096356
0
LINE
8
Shape2DView004
10
-291.993799
20
-55.096473
11
-291.993799
21
-53.416371
0
LINE
8
Shape2DView004
10
-294.245400
20
-44.529028
11
-292.586465
21
-44.529028
0
LINE
8
Shape2DView004
10
-294.614629
20
-44.897669
11
-294.507129
21
-44.636520
0
LINE
8
Shape2DView004
10
-294.507129
20
-44.636520
11
-294.246629
21
-44.528970
0
LINE
8
Shape2DView004
10
-292.586631
20
-44.528970
11
-292.167882
21
-44.703307
0
LINE
8
Shape2DView004
10
-292.167882
20
-44.703307
11
-291.993632
21
-45.122369
0
LINE
8
Shape2DView004
10
-294.615816
20
-50.794353
11
-294.615816
21
-44.896798
0
LINE
8
Shape2DView004
10
-291.993799
20
-45.121694
11
-291.993799
21
-50.794353
0
LINE
8
Shape2DView004
10
-294.471629
20
-50.959662
11
-294.614629
21
-50.795662
0
LINE
8
Shape2DView004
10
-291.993632
20
-50.795662
11
-292.136632
21
-50.959662
0
LINE
8
Shape2DView004
10
-292.136674
20
-50.958395
11
-294.472942
21
-50.958395
0
LINE
8
Shape2DView004
10
-307.352842
20
-39.367014
11
-307.352842
21
-41.272011
0
LINE
8
Shape2DView004
10
-306.984613
20
-38.998977
11
-307.238738
21
-39.107539
0
LINE
8
Shape2DView004
10
-307.238738
20
-39.107539
11
-307.352613
21
-39.367676
0
LINE
8
Shape2DView004
10
-307.352613
20
-41.272374
11
-307.238738
21
-41.532424
0
LINE
8
Shape2DView004
10
-307.238738
20
-41.532424
11
-306.984613
21
-41.640973
0
LINE
8
Shape2DView004
10
-292.567944
20
-38.999243
11
-306.985072
21
-38.999243
0
LINE
8
Shape2DView004
10
-306.985072
20
-41.639782
11
-292.361569
21
-41.639782
0
LINE
8
Shape2DView004
10
-291.993632
20
-39.572376
11
-292.159382
21
-39.168976
0
LINE
8
Shape2DView004
10
-292.159382
20
-39.168976
11
-292.566631
21
-38.998977
0
LINE
8
Shape2DView004
10
-292.361632
20
-41.640973
11
-292.100757
21
-41.533248
0
LINE
8
Shape2DView004
10
-292.100757
20
-41.533248
11
-291.993632
21
-41.272374
0
LINE
8
Shape2DView004
10
-291.993799
20
-41.272011
11
-291.993799
21
-39.573388
0
LINE
8
Shape2DView004
10
-307.352842
20
-35.321540
11
-307.352842
21
-33.437709
0
LINE
8
Shape2DView004
10
-306.984613
20
-35.710381
11
-307.239113
21
-35.591131
0
LINE
8
Shape2DView004
10
-307.239113
20
-35.591131
11
-307.352613
21
-35.320981
0
LINE
8
Shape2DView004
10
-307.352613
20
-33.436984
11
-307.238738
21
-33.176897
0
LINE
8
Shape2DView004
10
-307.238738
20
-33.176897
11
-306.984613
21
-33.068384
0
LINE
8
Shape2DView004
10
-292.361569
20
-35.710477
11
-306.985072
21
-35.710477
0
LINE
8
Shape2DView004
10
-306.985072
20
-33.067293
11
-292.361569
21
-33.067293
0
LINE
8
Shape2DView004
10
-291.993632
20
-35.320981
11
-292.100757
21
-35.592031
0
LINE
8
Shape2DView004
10
-292.100757
20
-35.592031
11
-292.361632
21
-35.710381
0
LINE
8
Shape2DView004
10
-292.361632
20
-33.068384
11
-292.100757
21
-33.176109
0
LINE
8
Shape2DView004
10
-292.100757
20
-33.176109
11
-291.993632
21
-33.436984
0
LINE
8
Shape2DView004
10
-291.993799
20
-33.437709
11
-291.993799
21
-35.321540
0
LINE
8
Shape2DView004
10
-307.080321
20
-30.344733
11
-307.080321
21
-29.402818
0
LINE
8
Shape2DView004
10
-306.712614
20
-30.712987
11
-306.973988
21
-30.605525
0
LINE
8
Shape2DView004
10
-306.973988
20
-30.605525
11
-307.081613
21
-30.344388
0
LINE
8
Shape2DView004
10
-307.081613
20
-29.402389
11
-306.916238
21
-28.174403
0
LINE
8
Shape2DView004
10
-306.916238
20
-28.174403
11
-306.427614
21
-27.036792
0
LINE
8
Shape2DView004
10
-306.427614
20
-27.036792
11
-305.451615
21
-25.901593
0
LINE
8
Shape2DView004
10
-305.451615
20
-25.901593
11
-304.210992
21
-25.187969
0
LINE
8
Shape2DView004
10
-304.210992
20
-25.187969
11
-302.801619
21
-24.937694
0
LINE
8
Shape2DView004
10
-304.931908
20
-30.712504
11
-306.712551
21
-30.712504
0
LINE
8
Shape2DView004
10
-302.801619
20
-24.937694
11
-301.392245
21
-25.187969
0
LINE
8
Shape2DView004
10
-301.392245
20
-25.187969
11
-300.151622
21
-25.901593
0
LINE
8
Shape2DView004
10
-300.151622
20
-25.901593
11
-299.175623
21
-27.036792
0
LINE
8
Shape2DView004
10
-299.175623
20
-27.036792
11
-298.686999
21
-28.174403
0
LINE
8
Shape2DView004
10
-298.686999
20
-28.174403
11
-298.521624
21
-29.402389
0
LINE
8
Shape2DView004
10
-304.665616
20
-30.467688
11
-304.744991
21
-30.644187
0
LINE
8
Shape2DView004
10
-304.744991
20
-30.644187
11
-304.931616
21
-30.712987
0
LINE
8
Shape2DView004
10
-298.521061
20
-29.402818
11
-298.521061
21
-30.283879
0
LINE
8
Shape2DView004
10
-304.664679
20
-29.402818
11
-304.664679
21
-30.466442
0
LINE
8
Shape2DView004
10
-298.521624
20
-30.282988
11
-298.628749
21
-30.543950
0
LINE
8
Shape2DView004
10
-298.628749
20
-30.543950
11
-298.889623
21
-30.651687
0
LINE
8
Shape2DView004
10
-302.801619
20
-27.313691
11
-303.569618
21
-27.501091
0
LINE
8
Shape2DView004
10
-303.569618
20
-27.501091
11
-304.262617
21
-28.110390
0
LINE
8
Shape2DView004
10
-304.262617
20
-28.110390
11
-304.563491
21
-28.723540
0
LINE
8
Shape2DView004
10
-304.563491
20
-28.723540
11
-304.665616
21
-29.402389
0
LINE
8
Shape2DView004
10
-298.888832
20
-30.651650
11
-300.672121
21
-30.651650
0
LINE
8
Shape2DView004
10
-300.917621
20
-29.402389
11
-301.091871
21
-28.525377
0
LINE
8
Shape2DView004
10
-301.091871
20
-28.525377
11
-301.597620
21
-27.795891
0
LINE
8
Shape2DView004
10
-301.597620
20
-27.795891
11
-302.153869
21
-27.440716
0
LINE
8
Shape2DView004
10
-302.153869
20
-27.440716
11
-302.801619
21
-27.313691
0
LINE
8
Shape2DView004
10
-300.671621
20
-30.651687
11
-300.848246
21
-30.582662
0
LINE
8
Shape2DView004
10
-300.848246
20
-30.582662
11
-300.917621
21
-30.406388
0
LINE
8
Shape2DView004
10
-300.918183
20
-30.405588
11
-300.918183
21
-29.402818
0
LINE
8
Shape2DView004
10
-300.783246
20
-18.867123
11
-300.783246
21
-16.369459
0
LINE
8
Shape2DView004
10
-300.927621
20
-19.031002
11
-300.782621
21
-18.867002
0
LINE
8
Shape2DView004
10
-300.782621
20
-16.369005
11
-300.675121
21
-16.107906
0
LINE
8
Shape2DView004
10
-300.675121
20
-16.107906
11
-300.414622
21
-16.000406
0
LINE
8
Shape2DView004
10
-307.024759
20
-19.031164
11
-300.928767
21
-19.031164
0
LINE
8
Shape2DView004
10
-300.415476
20
-16.001689
11
-298.753894
21
-16.001689
0
LINE
8
Shape2DView004
10
-307.392613
20
-19.399701
11
-307.278238
21
-19.139564
0
LINE
8
Shape2DView004
10
-307.278238
20
-19.139564
11
-307.023613
21
-19.031002
0
LINE
8
Shape2DView004
10
-298.754624
20
-16.000406
11
-298.317624
21
-16.176905
0
LINE
8
Shape2DView004
10
-298.317624
20
-16.176905
11
-298.140624
21
-16.614405
0
LINE
8
Shape2DView004
10
-307.392529
20
-21.303932
11
-307.392529
21
-19.398935
0
LINE
8
Shape2DView004
10
-298.140062
20
-16.615522
11
-298.140062
21
-18.867123
0
LINE
8
Shape2DView004
10
-307.023613
20
-21.672999
11
-307.278238
21
-21.564449
0
LINE
8
Shape2DView004
10
-307.278238
20
-21.564449
11
-307.392613
21
-21.304399
0
LINE
8
Shape2DView004
10
-298.140624
20
-18.867002
11
-297.976624
21
-19.031002
0
LINE
8
Shape2DView004
10
-292.366861
20
-21.671703
11
-307.024759
21
-21.671703
0
LINE
8
Shape2DView004
10
-297.976020
20
-19.031164
11
-292.366861
21
-19.031164
0
LINE
8
Shape2DView004
10
-291.996632
20
-21.304399
11
-292.104632
21
-21.565311
0
LINE
8
Shape2DView004
10
-292.104632
20
-21.565311
11
-292.365632
21
-21.672999
0
LINE
8
Shape2DView004
10
-292.365632
20
-19.031002
11
-292.104632
21
-19.138739
0
LINE
8
Shape2DView004
10
-292.104632
20
-19.138739
11
-291.996632
21
-19.399701
0
LINE
8
Shape2DView004
10
-291.996445
20
-19.398935
11
-291.996445
21
-21.303932
0
LINE
8
Shape2DView004
10
-307.024759
20
-11.350320
11
-305.323490
21
-11.350320
0
LINE
8
Shape2DView004
10
-307.392613
20
-11.719711
11
-307.277113
21
-11.466249
0
LINE
8
Shape2DView004
10
-307.277113
20
-11.466249
11
-307.023613
21
-11.351011
0
LINE
8
Shape2DView004
10
-305.324615
20
-11.351011
11
-304.920241
21
-11.527899
0
LINE
8
Shape2DView004
10
-304.920241
20
-11.527899
11
-304.750616
21
-11.945011
0
LINE
8
Shape2DView004
10
-307.392529
20
-16.983292
11
-307.392529
21
-11.720736
0
LINE
8
Shape2DView004
10
-304.749345
20
-11.945632
11
-304.749345
21
-16.983292
0
LINE
8
Shape2DView004
10
-307.228613
20
-17.126404
11
-307.392613
21
-16.983004
0
LINE
8
Shape2DView004
10
-304.750616
20
-16.983004
11
-304.894616
21
-17.126404
0
LINE
8
Shape2DView004
10
-304.894866
20
-17.126167
11
-307.228488
21
-17.126167
0
LINE
8
Shape2DView004
10
-307.352842
20
-5.809952
11
-307.352842
21
-7.693783
0
LINE
8
Shape2DView004
10
-306.984613
20
-5.420379
11
-307.239113
21
-5.539575
0
LINE
8
Shape2DView004
10
-307.239113
20
-5.539575
11
-307.352613
21
-5.809708
0
LINE
8
Shape2DView004
10
-307.352613
20
-7.693706
11
-307.238738
21
-7.953813
0
LINE
8
Shape2DView004
10
-307.238738
20
-7.953813
11
-306.984613
21
-8.062376
0
LINE
8
Shape2DView004
10
-292.567944
20
-5.421015
11
-306.985072
21
-5.421015
0
LINE
8
Shape2DView004
10
-306.985072
20
-8.061553
11
-292.361569
21
-8.061553
0
LINE
8
Shape2DView004
10
-291.993632
20
-6.014378
11
-292.246632
21
-5.518279
0
LINE
8
Shape2DView004
10
-292.246632
20
-5.518279
11
-292.566631
21
-5.420379
0
LINE
8
Shape2DView004
10
-292.361632
20
-8.062376
11
-292.100757
21
-7.954631
0
LINE
8
Shape2DView004
10
-292.100757
20
-7.954631
11
-291.993632
21
-7.693706
0
LINE
8
Shape2DView004
10
-291.993799
20
-7.693783
11
-291.993799
21
-6.013681
0
LINE
8
Shape2DView004
10
-294.245400
20
2.873662
11
-292.586465
21
2.873662
0
LINE
8
Shape2DView004
10
-294.614629
20
2.504951
11
-294.507129
21
2.766092
0
LINE
8
Shape2DView004
10
-294.507129
20
2.766092
11
-294.246629
21
2.873611
0
LINE
8
Shape2DView004
10
-292.586631
20
2.873611
11
-292.167882
21
2.699312
0
LINE
8
Shape2DView004
10
-292.167882
20
2.699312
11
-291.993632
21
2.280281
0
LINE
8
Shape2DView004
10
-294.615816
20
-3.394309
11
-294.615816
21
2.505892
0
LINE
8
Shape2DView004
10
-291.993799
20
2.280996
11
-291.993799
21
-3.394309
0
LINE
8
Shape2DView004
10
-294.471629
20
-3.557041
11
-294.614629
21
-3.393041
0
LINE
8
Shape2DView004
10
-291.993632
20
-3.393041
11
-292.136632
21
-3.557041
0
LINE
8
Shape2DView004
10
-292.136674
20
-3.558351
11
-294.472942
21
-3.558351
0
LINE
8
Shape2DView004
10
-304.888616
20
9.714272
11
-304.130617
21
8.774843
0
LINE
8
Shape2DView004
10
-304.130617
20
8.774843
11
-303.365618
21
8.357214
0
LINE
8
Shape2DView004
10
-303.365618
20
8.357214
11
-302.492619
21
8.218944
0
LINE
8
Shape2DView004
10
-305.216615
20
9.918942
11
-304.888616
21
9.714272
0
LINE
8
Shape2DView004
10
-302.492452
20
8.218239
11
-296.859480
21
8.218239
0
LINE
8
Shape2DView004
10
-307.141176
20
9.919508
11
-305.217657
21
9.919508
0
LINE
8
Shape2DView004
10
-296.860626
20
8.218944
11
-296.819626
21
8.218944
0
LINE
8
Shape2DView004
10
-307.510613
20
9.448272
11
-307.440863
21
9.774852
0
LINE
8
Shape2DView004
10
-307.440863
20
9.774852
11
-307.141613
21
9.918942
0
LINE
8
Shape2DView004
10
-296.819626
20
8.218944
11
-295.745627
21
8.435564
0
LINE
8
Shape2DView004
10
-295.745627
20
8.435564
11
-295.163628
21
8.797603
0
LINE
8
Shape2DView004
10
-295.163628
20
8.797603
11
-294.444629
21
9.714272
0
LINE
8
Shape2DView004
10
-302.615619
20
5.761607
11
-304.174992
21
6.043269
0
LINE
8
Shape2DView004
10
-304.174992
20
6.043269
11
-305.619615
21
6.729436
0
LINE
8
Shape2DView004
10
-305.619615
20
6.729436
11
-306.500614
21
7.509525
0
LINE
8
Shape2DView004
10
-306.500614
20
7.509525
11
-307.114738
21
8.420369
0
LINE
8
Shape2DView004
10
-307.114738
20
8.420369
11
-307.510613
21
9.448272
0
LINE
8
Shape2DView004
10
-294.444629
20
9.714272
11
-294.095629
21
9.918942
0
LINE
8
Shape2DView004
10
-296.860626
20
5.761607
11
-297.007626
21
5.761607
0
LINE
8
Shape2DView004
10
-297.007626
20
5.761607
11
-297.192626
21
5.761607
0
LINE
8
Shape2DView004
10
-297.192626
20
5.761607
11
-297.585625
21
5.761607
0
LINE
8
Shape2DView004
10
-297.585625
20
5.761607
11
-298.461624
21
5.761607
0
LINE
8
Shape2DView004
10
-298.461624
20
5.761607
11
-300.113622
21
5.761607
0
LINE
8
Shape2DView004
10
-300.113622
20
5.761607
11
-301.542620
21
5.761607
0
LINE
8
Shape2DView004
10
-301.542620
20
5.761607
11
-302.085619
21
5.761607
0
LINE
8
Shape2DView004
10
-302.085619
20
5.761607
11
-302.367619
21
5.761607
0
LINE
8
Shape2DView004
10
-302.367619
20
5.761607
11
-302.503619
21
5.761607
0
LINE
8
Shape2DView004
10
-302.503619
20
5.761607
11
-302.569619
21
5.761607
0
LINE
8
Shape2DView004
10
-302.569619
20
5.761607
11
-302.615619
21
5.761607
0
LINE
8
Shape2DView004
10
-294.094588
20
9.919508
11
-292.189590
21
9.919508
0
LINE
8
Shape2DView004
10
-291.822632
20
9.448272
11
-292.232882
21
8.386925
0
LINE
8
Shape2DView004
10
-292.232882
20
8.386925
11
-292.875631
21
7.451495
0
LINE
8
Shape2DView004
10
-292.875631
20
7.451495
11
-293.762630
21
6.686756
0
LINE
8
Shape2DView004
10
-293.762630
20
6.686756
11
-294.722129
21
6.190404
0
LINE
8
Shape2DView004
10
-294.722129
20
6.190404
11
-295.756627
21
5.887267
0
LINE
8
Shape2DView004
10
-295.756627
20
5.887267
11
-296.860626
21
5.761607
0
LINE
8
Shape2DView004
10
-292.190632
20
9.918942
11
-291.891507
21
9.774844
0
LINE
8
Shape2DView004
10
-291.891507
20
9.774844
11
-291.822632
21
9.448272
0
LINE
8
Shape2DView004
10
-305.216615
20
12.151559
11
-304.888616
21
12.356259
0
LINE
8
Shape2DView004
10
-307.141176
20
12.152588
11
-305.217657
21
12.152588
0
LINE
8
Shape2DView004
10
-304.888616
20
12.356259
11
-304.130617
21
13.295357
0
LINE
8
Shape2DView004
10
-304.130617
20
13.295357
11
-303.365618
21
13.712769
0
LINE
8
Shape2DView004
10
-303.365618
20
13.712769
11
-302.492619
21
13.850957
0
LINE
8
Shape2DView004
10
-307.510613
20
12.622258
11
-307.440863
21
12.295709
0
LINE
8
Shape2DView004
10
-307.440863
20
12.295709
11
-307.141613
21
12.151559
0
LINE
8
Shape2DView004
10
-302.492452
20
13.851211
11
-296.859480
21
13.851211
0
LINE
8
Shape2DView004
10
-302.615619
20
16.308954
11
-304.174992
21
16.027292
0
LINE
8
Shape2DView004
10
-304.174992
20
16.027292
11
-305.619615
21
15.341155
0
LINE
8
Shape2DView004
10
-305.619615
20
15.341155
11
-306.500614
21
14.561056
0
LINE
8
Shape2DView004
10
-306.500614
20
14.561056
11
-307.114738
21
13.650194
0
LINE
8
Shape2DView004
10
-307.114738
20
13.650194
11
-307.510613
21
12.622258
0
LINE
8
Shape2DView004
10
-296.860626
20
13.850957
11
-296.819626
21
13.850957
0
LINE
8
Shape2DView004
10
-296.860626
20
16.308954
11
-297.007626
21
16.308954
0
LINE
8
Shape2DView004
10
-297.007626
20
16.308954
11
-297.192626
21
16.308954
0
LINE
8
Shape2DView004
10
-297.192626
20
16.308954
11
-297.585625
21
16.308954
0
LINE
8
Shape2DView004
10
-297.585625
20
16.308954
11
-298.461624
21
16.308954
0
LINE
8
Shape2DView004
10
-298.461624
20
16.308954
11
-300.113622
21
16.308954
0
LINE
8
Shape2DView004
10
-300.113622
20
16.308954
11
-301.542620
21
16.308954
0
LINE
8
Shape2DView004
10
-301.542620
20
16.308954
11
-302.085619
21
16.308954
0
LINE
8
Shape2DView004
10
-302.085619
20
16.308954
11
-302.367619
21
16.308954
0
LINE
8
Shape2DView004
10
-302.367619
20
16.308954
11
-302.503619
21
16.308954
0
LINE
8
Shape2DView004
10
-302.503619
20
16.308954
11
-302.569619
21
16.308954
0
LINE
8
Shape2DView004
10
-302.569619
20
16.308954
11
-302.615619
21
16.308954
0
LINE
8
Shape2DView004
10
-296.819626
20
13.850957
11
-295.745627
21
13.634457
0
LINE
8
Shape2DView004
10
-295.745627
20
13.634457
11
-295.163628
21
13.272558
0
LINE
8
Shape2DView004
10
-295.163628
20
13.272558
11
-294.444629
21
12.356259
0
LINE
8
Shape2DView004
10
-291.822632
20
12.622258
11
-292.220382
21
13.653119
0
LINE
8
Shape2DView004
10
-292.220382
20
13.653119
11
-292.838631
21
14.565556
0
LINE
8
Shape2DView004
10
-292.838631
20
14.565556
11
-293.750630
21
15.360855
0
LINE
8
Shape2DView004
10
-293.750630
20
15.360855
11
-294.744129
21
15.873554
0
LINE
8
Shape2DView004
10
-294.744129
20
15.873554
11
-295.815627
21
16.183454
0
LINE
8
Shape2DView004
10
-295.815627
20
16.183454
11
-296.860626
21
16.308954
0
LINE
8
Shape2DView004
10
-294.444629
20
12.356259
11
-294.095629
21
12.151559
0
LINE
8
Shape2DView004
10
-292.190632
20
12.151559
11
-291.891507
21
12.295671
0
LINE
8
Shape2DView004
10
-291.891507
20
12.295671
11
-291.822632
21
12.622258
0
LINE
8
Shape2DView004
10
-294.094588
20
12.152588
11
-292.189590
21
12.152588
0
LINE
8
Shape2DView004
10
-307.352842
20
19.973662
11
-307.352842
21
21.860138
0
LINE
8
Shape2DView004
10
-306.984613
20
19.585549
11
-307.239113
21
19.704799
0
LINE
8
Shape2DView004
10
-307.239113
20
19.704799
11
-307.352613
21
19.974949
0
LINE
8
Shape2DView004
10
-307.352613
20
21.858947
11
-307.238738
21
22.119034
0
LINE
8
Shape2DView004
10
-307.238738
20
22.119034
11
-306.984613
21
22.227546
0
LINE
8
Shape2DView004
10
-292.361569
20
19.584724
11
-306.985072
21
19.584724
0
LINE
8
Shape2DView004
10
-306.985072
20
22.227909
11
-292.361569
21
22.227909
0
LINE
8
Shape2DView004
10
-291.993632
20
19.974949
11
-292.100757
21
19.703899
0
LINE
8
Shape2DView004
10
-292.100757
20
19.703899
11
-292.361632
21
19.585549
0
LINE
8
Shape2DView004
10
-292.361632
20
22.227546
11
-292.100757
21
22.119821
0
LINE
8
Shape2DView004
10
-292.100757
20
22.119821
11
-291.993632
21
21.858947
0
LINE
8
Shape2DView004
10
-291.993799
20
21.860138
11
-291.993799
21
19.973662
0
LINE
8
Shape2DView004
10
-307.080321
20
24.950468
11
-307.080321
21
25.892383
0
LINE
8
Shape2DView004
10
-306.712614
20
24.582943
11
-306.973988
21
24.690406
0
LINE
8
Shape2DView004
10
-306.973988
20
24.690406
11
-307.081613
21
24.951543
0
LINE
8
Shape2DView004
10
-307.081613
20
25.893542
11
-306.916238
21
27.121527
0
LINE
8
Shape2DView004
10
-306.916238
20
27.121527
11
-306.427614
21
28.259138
0
LINE
8
Shape2DView004
10
-306.427614
20
28.259138
11
-305.451615
21
29.394337
0
LINE
8
Shape2DView004
10
-305.451615
20
29.394337
11
-304.210992
21
30.107961
0
LINE
8
Shape2DView004
10
-304.210992
20
30.107961
11
-302.801619
21
30.358236
0
LINE
8
Shape2DView004
10
-304.931908
20
24.582697
11
-306.712551
21
24.582697
0
LINE
8
Shape2DView004
10
-302.801619
20
30.358236
11
-301.392245
21
30.107961
0
LINE
8
Shape2DView004
10
-301.392245
20
30.107961
11
-300.151622
21
29.394337
0
LINE
8
Shape2DView004
10
-300.151622
20
29.394337
11
-299.175623
21
28.259138
0
LINE
8
Shape2DView004
10
-299.175623
20
28.259138
11
-298.686999
21
27.121527
0
LINE
8
Shape2DView004
10
-298.686999
20
27.121527
11
-298.521624
21
25.893542
0
LINE
8
Shape2DView004
10
-304.665616
20
24.828243
11
-304.744991
21
24.651743
0
LINE
8
Shape2DView004
10
-304.744991
20
24.651743
11
-304.931616
21
24.582943
0
LINE
8
Shape2DView004
10
-298.521061
20
25.892383
11
-298.521061
21
25.013968
0
LINE
8
Shape2DView004
10
-304.664679
20
25.892383
11
-304.664679
21
24.828760
0
LINE
8
Shape2DView004
10
-298.521624
20
25.012943
11
-298.628749
21
24.751981
0
LINE
8
Shape2DView004
10
-298.628749
20
24.751981
11
-298.889623
21
24.644243
0
LINE
8
Shape2DView004
10
-302.801619
20
27.982239
11
-303.569618
21
27.794839
0
LINE
8
Shape2DView004
10
-303.569618
20
27.794839
11
-304.262617
21
27.185540
0
LINE
8
Shape2DView004
10
-304.262617
20
27.185540
11
-304.563491
21
26.572391
0
LINE
8
Shape2DView004
10
-304.563491
20
26.572391
11
-304.665616
21
25.893542
0
LINE
8
Shape2DView004
10
-298.888832
20
24.643551
11
-300.672121
21
24.643551
0
LINE
8
Shape2DView004
10
-300.917621
20
25.893542
11
-301.091871
21
26.770553
0
LINE
8
Shape2DView004
10
-301.091871
20
26.770553
11
-301.597620
21
27.500040
0
LINE
8
Shape2DView004
10
-301.597620
20
27.500040
11
-302.153869
21
27.855214
0
LINE
8
Shape2DView004
10
-302.153869
20
27.855214
11
-302.801619
21
27.982239
0
LINE
8
Shape2DView004
10
-300.671621
20
24.644243
11
-300.848246
21
24.713268
0
LINE
8
Shape2DView004
10
-300.848246
20
24.713268
11
-300.917621
21
24.889543
0
LINE
8
Shape2DView004
10
-300.918183
20
24.889614
11
-300.918183
21
25.892383
0
LINE
8
Shape2DView004
10
-171.499784
20
100.000248
11
-171.600916
21
101.523532
0
LINE
8
Shape2DView004
10
-171.600916
20
101.523532
11
-171.897861
21
103.000797
0
LINE
8
Shape2DView004
10
-171.897861
20
103.000797
11
-172.380945
21
104.415287
0
LINE
8
Shape2DView004
10
-172.380945
20
104.415287
11
-173.040490
21
105.750241
0
LINE
8
Shape2DView004
10
-173.040490
20
105.750241
11
-173.866821
21
106.988901
0
LINE
8
Shape2DView004
10
-173.866821
20
106.988901
11
-174.850263
21
108.114508
0
LINE
8
Shape2DView004
10
-174.850263
20
108.114508
11
-175.981140
21
109.110303
0
LINE
8
Shape2DView004
10
-175.981140
20
109.110303
11
-177.249777
21
109.959528
0
LINE
8
Shape2DView004
10
-177.249777
20
109.959528
11
-178.619545
21
110.633587
0
LINE
8
Shape2DView004
10
-178.619545
20
110.633587
11
-180.047367
21
111.115057
0
LINE
8
Shape2DView004
10
-180.047367
20
111.115057
11
-181.513893
21
111.403940
0
LINE
8
Shape2DView004
10
-181.513893
20
111.403940
11
-182.999769
21
111.500234
0
LINE
8
Shape2DView004
10
-182.999769
20
111.500234
11
-184.485646
21
111.403940
0
LINE
8
Shape2DView004
10
-184.485646
20
111.403940
11
-185.952172
21
111.115057
0
LINE
8
Shape2DView004
10
-185.952172
20
111.115057
11
-187.379994
21
110.633587
0
LINE
8
Shape2DView004
10
-187.379994
20
110.633587
11
-188.749762
21
109.959528
0
LINE
8
Shape2DView004
10
-188.749762
20
109.959528
11
-190.018398
21
109.110303
0
LINE
8
Shape2DView004
10
-190.018398
20
109.110303
11
-191.149275
21
108.114508
0
LINE
8
Shape2DView004
10
-191.149275
20
108.114508
11
-192.132717
21
106.988901
0
LINE
8
Shape2DView004
10
-192.132717
20
106.988901
11
-192.959049
21
105.750241
0
LINE
8
Shape2DView004
10
-192.959049
20
105.750241
11
-193.618594
21
104.415287
0
LINE
8
Shape2DView004
10
-193.618594
20
104.415287
11
-194.101677
21
103.000797
0
LINE
8
Shape2DView004
10
-194.101677
20
103.000797
11
-194.398623
21
101.523532
0
LINE
8
Shape2DView004
10
-194.398623
20
101.523532
11
-194.499755
21
100.000248
0
LINE
8
Shape2DView004
10
-194.499755
20
100.000248
11
-194.398623
21
98.476965
0
LINE
8
Shape2DView004
10
-194.398623
20
98.476965
11
-194.101677
21
96.999699
0
LINE
8
Shape2DView004
10
-194.101677
20
96.999699
11
-193.618594
21
95.585210
0
LINE
8
Shape2DView004
10
-193.618594
20
95.585210
11
-192.959049
21
94.250255
0
LINE
8
Shape2DView004
10
-192.959049
20
94.250255
11
-192.132717
21
93.011595
0
LINE
8
Shape2DView004
10
-192.132717
20
93.011595
11
-191.149275
21
91.885988
0
LINE
8
Shape2DView004
10
-191.149275
20
91.885988
11
-190.018398
21
90.890193
0
LINE
8
Shape2DView004
10
-190.018398
20
90.890193
11
-188.749762
21
90.040969
0
LINE
8
Shape2DView004
10
-188.749762
20
90.040969
11
-187.379994
21
89.366910
0
LINE
8
Shape2DView004
10
-187.379994
20
89.366910
11
-185.952172
21
88.885439
0
LINE
8
Shape2DView004
10
-185.952172
20
88.885439
11
-184.485646
21
88.596557
0
LINE
8
Shape2DView004
10
-184.485646
20
88.596557
11
-182.999769
21
88.500263
0
LINE
8
Shape2DView004
10
-182.999769
20
88.500263
11
-181.513893
21
88.596557
0
LINE
8
Shape2DView004
10
-181.513893
20
88.596557
11
-180.047367
21
88.885439
0
LINE
8
Shape2DView004
10
-180.047367
20
88.885439
11
-178.619545
21
89.366910
0
LINE
8
Shape2DView004
10
-178.619545
20
89.366910
11
-177.249777
21
90.040969
0
LINE
8
Shape2DView004
10
-177.249777
20
90.040969
11
-175.981140
21
90.890193
0
LINE
8
Shape2DView004
10
-175.981140
20
90.890193
11
-174.850263
21
91.885988
0
LINE
8
Shape2DView004
10
-174.850263
20
91.885988
11
-173.866821
21
93.011595
0
LINE
8
Shape2DView004
10
-173.866821
20
93.011595
11
-173.040490
21
94.250255
0
LINE
8
Shape2DView004
10
-173.040490
20
94.250255
11
-172.380945
21
95.585210
0
LINE
8
Shape2DView004
10
-172.380945
20
95.585210
11
-171.897861
21
96.999699
0
LINE
8
Shape2DView004
10
-171.897861
20
96.999699
11
-171.600916
21
98.476965
0
LINE
8
Shape2DView004
10
-171.600916
20
98.476965
11
-171.499784
21
100.000248
0
LINE
8
Shape2DView004
10
-171.499784
20
100.000248
11
-171.499784
21
100.000248
0
LINE
8
Shape2DView004
10
-212.999634
20
155.000156
11
-192.999805
21
155.000156
0
LINE
8
Shape2DView004
10
-212.999634
20
163.000088
11
-212.999634
21
155.000156
0
LINE
8
Shape2DView004
10
-192.999805
20
163.000088
11
-212.999634
21
163.000088
0
LINE
8
Shape2DView004
10
-192.999805
20
155.000156
11
-192.999805
21
163.000088
0
LINE
8
Shape2DView004
10
-307.352842
20
44.252327
11
-307.352842
21
46.136158
0
LINE
8
Shape2DView004
10
-306.984613
20
43.862919
11
-307.239113
21
43.982081
0
LINE
8
Shape2DView004
10
-307.239113
20
43.982081
11
-307.352613
21
44.252219
0
LINE
8
Shape2DView004
10
-307.352613
20
46.136216
11
-307.238738
21
46.396353
0
LINE
8
Shape2DView004
10
-307.238738
20
46.396353
11
-306.984613
21
46.504916
0
LINE
8
Shape2DView004
10
-292.361569
20
43.862861
11
-306.985072
21
43.862861
0
LINE
8
Shape2DView004
10
-306.985072
20
46.504986
11
-292.361569
21
46.504986
0
LINE
8
Shape2DView004
10
-291.993632
20
44.252219
11
-292.100757
21
43.981219
0
LINE
8
Shape2DView004
10
-292.100757
20
43.981219
11
-292.361632
21
43.862919
0
LINE
8
Shape2DView004
10
-292.361632
20
46.504916
11
-292.100757
21
46.397178
0
LINE
8
Shape2DView004
10
-292.100757
20
46.397178
11
-291.993632
21
46.136216
0
LINE
8
Shape2DView004
10
-291.993799
20
46.136158
11
-291.993799
21
44.252327
0
LINE
8
Shape2DView004
10
-307.080321
20
49.228868
11
-307.080321
21
50.170784
0
LINE
8
Shape2DView004
10
-306.712614
20
48.860213
11
-306.973988
21
48.967725
0
LINE
8
Shape2DView004
10
-306.973988
20
48.967725
11
-307.081613
21
49.228912
0
LINE
8
Shape2DView004
10
-307.081613
20
50.170911
11
-306.916238
21
51.398860
0
LINE
8
Shape2DView004
10
-306.916238
20
51.398860
11
-306.427614
21
52.536508
0
LINE
8
Shape2DView004
10
-306.427614
20
52.536508
11
-305.451615
21
53.671606
0
LINE
8
Shape2DView004
10
-305.451615
20
53.671606
11
-304.210992
21
54.385231
0
LINE
8
Shape2DView004
10
-304.210992
20
54.385231
11
-302.801619
21
54.635505
0
LINE
8
Shape2DView004
10
-304.931908
20
48.860304
11
-306.712551
21
48.860304
0
LINE
8
Shape2DView004
10
-302.801619
20
54.635505
11
-301.392245
21
54.385231
0
LINE
8
Shape2DView004
10
-301.392245
20
54.385231
11
-300.151622
21
53.671606
0
LINE
8
Shape2DView004
10
-300.151622
20
53.671606
11
-299.175623
21
52.536508
0
LINE
8
Shape2DView004
10
-299.175623
20
52.536508
11
-298.686999
21
51.398860
0
LINE
8
Shape2DView004
10
-298.686999
20
51.398860
11
-298.521624
21
50.170911
0
LINE
8
Shape2DView004
10
-304.665616
20
49.105512
11
-304.744991
21
48.929050
0
LINE
8
Shape2DView004
10
-304.744991
20
48.929050
11
-304.931616
21
48.860213
0
LINE
8
Shape2DView004
10
-298.521061
20
50.170784
11
-298.521061
21
49.290252
0
LINE
8
Shape2DView004
10
-304.664679
20
50.170784
11
-304.664679
21
49.105573
0
LINE
8
Shape2DView004
10
-298.521624
20
49.290212
11
-298.628749
21
49.029325
0
LINE
8
Shape2DView004
10
-298.628749
20
49.029325
11
-298.889623
21
48.921513
0
LINE
8
Shape2DView004
10
-302.801619
20
52.259508
11
-303.569618
21
52.072109
0
LINE
8
Shape2DView004
10
-303.569618
20
52.072109
11
-304.262617
21
51.462909
0
LINE
8
Shape2DView004
10
-304.262617
20
51.462909
11
-304.563491
21
50.849760
0
LINE
8
Shape2DView004
10
-304.563491
20
50.849760
11
-304.665616
21
50.170911
0
LINE
8
Shape2DView004
10
-298.888832
20
48.921423
11
-300.672121
21
48.921423
0
LINE
8
Shape2DView004
10
-300.917621
20
50.170911
11
-301.091871
21
51.047872
0
LINE
8
Shape2DView004
10
-301.091871
20
51.047872
11
-301.597620
21
51.777309
0
LINE
8
Shape2DView004
10
-301.597620
20
51.777309
11
-302.153869
21
52.132483
0
LINE
8
Shape2DView004
10
-302.153869
20
52.132483
11
-302.801619
21
52.259508
0
LINE
8
Shape2DView004
10
-300.671621
20
48.921513
11
-300.848246
21
48.990587
0
LINE
8
Shape2DView004
10
-300.848246
20
48.990587
11
-300.917621
21
49.166912
0
LINE
8
Shape2DView004
10
-300.918183
20
49.166956
11
-300.918183
21
50.170784
0
LINE
8
Shape2DView004
10
-307.352842
20
60.173609
11
-307.352842
21
58.268876
0
LINE
8
Shape2DView004
10
-306.984613
20
60.542198
11
-307.238738
21
60.433636
0
LINE
8
Shape2DView004
10
-307.238738
20
60.433636
11
-307.352613
21
60.173498
0
LINE
8
Shape2DView004
10
-307.352613
20
58.268901
11
-307.238738
21
58.008764
0
LINE
8
Shape2DView004
10
-307.238738
20
58.008764
11
-306.984613
21
57.900201
0
LINE
8
Shape2DView004
10
-292.567944
20
60.542173
11
-306.985072
21
60.542173
0
LINE
8
Shape2DView004
10
-306.985072
20
57.900312
11
-292.361569
21
57.900312
0
LINE
8
Shape2DView004
10
-291.993632
20
59.968899
11
-292.159382
21
60.372211
0
LINE
8
Shape2DView004
10
-292.159382
20
60.372211
11
-292.566631
21
60.542198
0
LINE
8
Shape2DView004
10
-292.361632
20
57.900201
11
-292.100757
21
58.007939
0
LINE
8
Shape2DView004
10
-292.100757
20
58.007939
11
-291.993632
21
58.268901
0
LINE
8
Shape2DView004
10
-291.993799
20
58.268876
11
-291.993799
21
59.968822
0
LINE
8
Shape2DView004
10
-295.658628
20
66.472891
11
-297.185876
21
66.260791
0
LINE
8
Shape2DView004
10
-297.185876
20
66.260791
11
-298.588624
21
65.632292
0
LINE
8
Shape2DView004
10
-298.588624
20
65.632292
11
-299.415998
21
64.965605
0
LINE
8
Shape2DView004
10
-299.415998
20
64.965605
11
-300.041622
21
64.117493
0
LINE
8
Shape2DView004
10
-292.361569
20
66.472801
11
-295.658273
21
66.472801
0
LINE
8
Shape2DView004
10
-300.041622
20
64.117493
11
-300.026497
21
63.920981
0
LINE
8
Shape2DView004
10
-300.026497
20
63.920981
11
-299.857622
21
63.830894
0
LINE
8
Shape2DView004
10
-291.993632
20
66.104191
11
-292.100757
21
66.365153
0
LINE
8
Shape2DView004
10
-292.100757
20
66.365153
11
-292.361632
21
66.472891
0
LINE
8
Shape2DView004
10
-299.857206
20
63.830940
11
-299.817518
21
63.830940
0
LINE
8
Shape2DView004
10
-291.993799
20
64.199504
11
-291.993799
21
66.104237
0
LINE
8
Shape2DView004
10
-299.817518
20
63.830940
11
-292.361569
21
63.830940
0
LINE
8
Shape2DView004
10
-292.361632
20
63.830894
11
-292.100757
21
63.938619
0
LINE
8
Shape2DView004
10
-292.100757
20
63.938619
11
-291.993632
21
64.199493
0
LINE
8
Shape2DView004
10
-303.196243
20
63.830940
11
-306.799863
21
63.830940
0
LINE
8
Shape2DView004
10
-302.683619
20
64.302193
11
-302.847743
21
63.966831
0
LINE
8
Shape2DView004
10
-302.847743
20
63.966831
11
-303.195618
21
63.830894
0
LINE
8
Shape2DView004
10
-306.800614
20
63.830894
11
-307.167988
21
63.989381
0
LINE
8
Shape2DView004
10
-307.167988
20
63.989381
11
-307.291613
21
64.363493
0
LINE
8
Shape2DView004
10
-302.601619
20
65.141492
11
-302.683619
21
64.302193
0
LINE
8
Shape2DView004
10
-307.291988
20
64.363545
11
-307.167634
21
66.206895
0
LINE
8
Shape2DView004
10
-301.290620
20
66.943490
11
-301.867870
21
66.543678
0
LINE
8
Shape2DView004
10
-301.867870
20
66.543678
11
-302.320619
21
66.036091
0
LINE
8
Shape2DView004
10
-302.320619
20
66.036091
11
-302.601619
21
65.141492
0
LINE
8
Shape2DView004
10
-307.168613
20
66.206891
11
-307.036488
21
66.582840
0
LINE
8
Shape2DView004
10
-307.036488
20
66.582840
11
-306.738614
21
66.862190
0
LINE
8
Shape2DView004
10
-292.402632
20
71.736184
11
-296.692626
21
69.428487
0
LINE
8
Shape2DView004
10
-296.692626
20
69.428487
11
-299.622623
21
67.851789
0
LINE
8
Shape2DView004
10
-299.622623
20
67.851789
11
-300.499621
21
67.377689
0
LINE
8
Shape2DView004
10
-300.499621
20
67.377689
11
-301.290620
21
66.943490
0
LINE
8
Shape2DView004
10
-306.738614
20
66.862190
11
-302.414619
21
69.167787
0
LINE
8
Shape2DView004
10
-302.414619
20
69.167787
11
-299.383623
21
70.792985
0
LINE
8
Shape2DView004
10
-299.383623
20
70.792985
11
-297.686625
21
71.715484
0
LINE
8
Shape2DView004
10
-291.993632
20
72.412183
11
-292.105132
21
72.014296
0
LINE
8
Shape2DView004
10
-292.105132
20
72.014296
11
-292.402632
21
71.736184
0
LINE
8
Shape2DView004
10
-297.686625
20
71.715484
11
-296.661626
21
72.575283
0
LINE
8
Shape2DView004
10
-296.661626
20
72.575283
11
-296.345627
21
73.171582
0
LINE
8
Shape2DView004
10
-296.345627
20
73.171582
11
-296.252627
21
73.804881
0
LINE
8
Shape2DView004
10
-291.993799
20
74.296256
11
-291.993799
21
72.412160
0
LINE
8
Shape2DView004
10
-296.253585
20
73.804925
11
-296.253585
21
74.296256
0
LINE
8
Shape2DView004
10
-292.300632
20
74.603480
11
-292.085632
21
74.511293
0
LINE
8
Shape2DView004
10
-292.085632
20
74.511293
11
-291.993632
21
74.296181
0
LINE
8
Shape2DView004
10
-296.252627
20
74.296181
11
-296.167377
21
74.511968
0
LINE
8
Shape2DView004
10
-296.167377
20
74.511968
11
-295.945627
21
74.603480
0
LINE
8
Shape2DView004
10
-295.946669
20
74.603436
11
-292.300715
21
74.603436
0
LINE
8
Shape2DView004
10
-307.352842
20
78.236955
11
-307.352842
21
80.899454
0
LINE
8
Shape2DView004
10
-306.984613
20
77.868176
11
-307.245613
21
77.975914
0
LINE
8
Shape2DView004
10
-307.245613
20
77.975914
11
-307.353613
21
78.236876
0
LINE
8
Shape2DView004
10
-307.353613
20
80.899472
11
-307.246363
21
81.170209
0
LINE
8
Shape2DView004
10
-307.246363
20
81.170209
11
-306.984613
21
81.288172
0
LINE
8
Shape2DView004
10
-292.350986
20
77.868126
11
-306.985072
21
77.868126
0
LINE
8
Shape2DView004
10
-306.985072
20
81.288126
11
-305.101241
21
81.288126
0
LINE
8
Shape2DView004
10
-291.981632
20
78.236876
11
-292.088882
21
77.975876
0
LINE
8
Shape2DView004
10
-292.088882
20
77.975876
11
-292.350632
21
77.868176
0
LINE
8
Shape2DView004
10
-305.100616
20
81.288172
11
-304.868866
21
81.202584
0
LINE
8
Shape2DView004
10
-304.868866
20
81.202584
11
-304.731616
21
80.980872
0
LINE
8
Shape2DView004
10
-291.980570
20
81.001583
11
-291.980570
21
78.236955
0
LINE
8
Shape2DView004
10
-304.730824
20
80.980945
11
-304.712304
21
80.817433
0
LINE
8
Shape2DView004
10
-292.350632
20
81.370172
11
-292.088882
21
81.262472
0
LINE
8
Shape2DView004
10
-292.088882
20
81.262472
11
-291.981632
21
81.001472
0
LINE
8
Shape2DView004
10
-304.711616
20
80.817472
11
-304.581616
21
80.595085
0
LINE
8
Shape2DView004
10
-304.581616
20
80.595085
11
-304.343616
21
80.510173
0
LINE
8
Shape2DView004
10
-293.885567
20
81.370147
11
-292.350986
21
81.370147
0
LINE
8
Shape2DView004
10
-304.344533
20
80.510252
11
-294.745462
21
80.510252
0
LINE
8
Shape2DView004
10
-294.213629
20
81.144872
11
-293.886630
21
81.370172
0
LINE
8
Shape2DView004
10
-294.746629
20
80.510173
11
-294.418629
21
80.735472
0
LINE
8
Shape2DView004
10
-294.417379
20
80.735412
11
-294.213650
21
81.144987
0
LINE
8
Shape2DView004
10
-303.686617
20
71.961484
11
-302.233619
21
72.149983
0
LINE
8
Shape2DView004
10
-302.233619
20
72.149983
11
-300.885621
21
72.712283
0
LINE
8
Shape2DView004
10
-300.885621
20
72.712283
11
-299.971122
21
73.407969
0
LINE
8
Shape2DView004
10
-299.971122
20
73.407969
11
-299.284623
21
74.316881
0
LINE
8
Shape2DView004
10
-306.963905
20
71.961575
11
-303.685722
21
71.961575
0
LINE
8
Shape2DView004
10
-299.284623
20
74.316881
11
-299.299748
21
74.506418
0
LINE
8
Shape2DView004
10
-299.299748
20
74.506418
11
-299.468623
21
74.603480
0
LINE
8
Shape2DView004
10
-307.352613
20
72.330183
11
-307.235113
21
72.068921
0
LINE
8
Shape2DView004
10
-307.235113
20
72.068921
11
-306.964613
21
71.961484
0
LINE
8
Shape2DView004
10
-299.468269
20
74.603436
11
-299.510602
21
74.603436
0
LINE
8
Shape2DView004
10
-307.352842
20
74.234872
11
-307.352842
21
72.330139
0
LINE
8
Shape2DView004
10
-299.510602
20
74.603436
11
-306.963905
21
74.603436
0
LINE
8
Shape2DView004
10
-306.964613
20
74.603480
11
-307.235113
21
74.496130
0
LINE
8
Shape2DView004
10
-307.235113
20
74.496130
11
-307.352613
21
74.234881
0
LINE
8
Shape2DView004
10
-300.881142
20
95.199371
11
-295.822315
21
96.632882
0
LINE
8
Shape2DView004
10
-301.126621
20
94.974154
11
-300.881621
21
95.199454
0
LINE
8
Shape2DView004
10
-295.822627
20
96.632852
11
-295.537628
21
96.609853
0
LINE
8
Shape2DView004
10
-295.537628
20
96.609853
11
-295.352628
21
96.284853
0
LINE
8
Shape2DView004
10
-301.251558
20
94.666765
11
-301.127204
21
94.974211
0
LINE
8
Shape2DView004
10
-295.351357
20
96.284955
11
-295.332836
21
95.670064
0
LINE
8
Shape2DView004
10
-301.004621
20
94.175456
11
-301.227371
21
94.367980
0
LINE
8
Shape2DView004
10
-301.227371
20
94.367980
11
-301.250621
21
94.666855
0
LINE
8
Shape2DView004
10
-295.331628
20
95.670154
11
-295.234503
21
95.374279
0
LINE
8
Shape2DView004
10
-295.234503
20
95.374279
11
-294.983628
21
95.199454
0
LINE
8
Shape2DView004
10
-292.464757
20
91.881500
11
-301.005496
21
94.175435
0
LINE
8
Shape2DView004
10
-294.983587
20
95.199371
11
-292.258382
21
94.462243
0
LINE
8
Shape2DView004
10
-291.993632
20
92.229458
11
-292.138007
21
91.940221
0
LINE
8
Shape2DView004
10
-292.138007
20
91.940221
11
-292.464632
21
91.881459
0
LINE
8
Shape2DView004
10
-292.259632
20
94.462155
11
-292.065132
21
94.334018
0
LINE
8
Shape2DView004
10
-292.065132
20
94.334018
11
-291.993632
21
94.114156
0
LINE
8
Shape2DView004
10
-291.993799
20
94.114051
11
-291.993799
21
92.229427
0
LINE
8
Shape2DView004
10
-304.998053
20
83.704827
11
-306.799863
21
83.704827
0
LINE
8
Shape2DView004
10
-304.629616
20
84.012168
11
-304.759741
21
83.789931
0
LINE
8
Shape2DView004
10
-304.759741
20
83.789931
11
-304.998616
21
83.704869
0
LINE
8
Shape2DView004
10
-306.800614
20
83.704869
11
-307.076488
21
83.825794
0
LINE
8
Shape2DView004
10
-307.076488
20
83.825794
11
-307.168613
21
84.114868
0
LINE
8
Shape2DView004
10
-302.626619
20
86.121466
11
-303.412618
21
85.954566
0
LINE
8
Shape2DView004
10
-303.412618
20
85.954566
11
-304.084617
21
85.391866
0
LINE
8
Shape2DView004
10
-304.084617
20
85.391866
11
-304.441866
21
84.726280
0
LINE
8
Shape2DView004
10
-304.441866
20
84.726280
11
-304.629616
21
84.012168
0
LINE
8
Shape2DView004
10
-307.168613
20
84.114868
11
-306.996191
21
85.069229
0
LINE
8
Shape2DView004
10
-306.996191
20
85.069229
11
-306.638989
21
85.970341
0
LINE
8
Shape2DView004
10
-306.638989
20
85.970341
11
-306.116599
21
86.787190
0
LINE
8
Shape2DView004
10
-306.116599
20
86.787190
11
-305.448615
21
87.488764
0
LINE
8
Shape2DView004
10
-305.448615
20
87.488764
11
-304.211492
21
88.252601
0
LINE
8
Shape2DView004
10
-304.211492
20
88.252601
11
-302.790618
21
88.538163
0
LINE
8
Shape2DView004
10
-300.766621
20
83.479469
11
-300.915621
21
84.768167
0
LINE
8
Shape2DView004
10
-300.915621
20
84.768167
11
-301.117621
21
85.288267
0
LINE
8
Shape2DView004
10
-301.117621
20
85.288267
11
-301.581620
21
85.827166
0
LINE
8
Shape2DView004
10
-301.581620
20
85.827166
11
-302.077494
21
86.055203
0
LINE
8
Shape2DView004
10
-302.077494
20
86.055203
11
-302.626619
21
86.121466
0
LINE
8
Shape2DView004
10
-302.790618
20
88.538163
11
-301.981369
21
88.465338
0
LINE
8
Shape2DView004
10
-301.981369
20
88.465338
11
-301.206620
21
88.240863
0
LINE
8
Shape2DView004
10
-301.206620
20
88.240863
11
-300.396746
21
87.799276
0
LINE
8
Shape2DView004
10
-300.396746
20
87.799276
11
-299.722623
21
87.206864
0
LINE
8
Shape2DView004
10
-300.398621
20
83.110869
11
-300.659496
21
83.218557
0
LINE
8
Shape2DView004
10
-300.659496
20
83.218557
11
-300.766621
21
83.479469
0
LINE
8
Shape2DView004
10
-299.722623
20
87.206864
11
-299.419248
21
87.079464
0
LINE
8
Shape2DView004
10
-299.419248
20
87.079464
11
-299.128623
21
87.227464
0
LINE
8
Shape2DView004
10
-298.719499
20
83.110838
11
-300.399601
21
83.110838
0
LINE
8
Shape2DView004
10
-299.128623
20
87.227464
11
-298.541624
21
87.822664
0
LINE
8
Shape2DView004
10
-298.541624
20
87.822664
11
-297.914000
21
88.197513
0
LINE
8
Shape2DView004
10
-297.914000
20
88.197513
11
-297.210625
21
88.432563
0
LINE
8
Shape2DView004
10
-297.210625
20
88.432563
11
-296.220627
21
88.538163
0
LINE
8
Shape2DView004
10
-298.350624
20
83.479469
11
-298.458124
21
83.218594
0
LINE
8
Shape2DView004
10
-298.458124
20
83.218594
11
-298.718624
21
83.110869
0
LINE
8
Shape2DView004
10
-296.220627
20
88.538163
11
-294.682629
21
88.300863
0
LINE
8
Shape2DView004
10
-294.682629
20
88.300863
11
-293.749130
21
87.820214
0
LINE
8
Shape2DView004
10
-293.749130
20
87.820214
11
-292.998631
21
87.087864
0
LINE
8
Shape2DView004
10
-292.998631
20
87.087864
11
-292.440757
21
86.111191
0
LINE
8
Shape2DView004
10
-292.440757
20
86.111191
11
-292.114632
21
85.036567
0
LINE
8
Shape2DView004
10
-292.114632
20
85.036567
11
-292.001632
21
84.216868
0
LINE
8
Shape2DView004
10
-296.404627
20
86.121466
11
-297.267625
21
85.913966
0
LINE
8
Shape2DView004
10
-297.267625
20
85.913966
11
-297.922625
21
85.245467
0
LINE
8
Shape2DView004
10
-297.922625
20
85.245467
11
-298.243874
21
84.382643
0
LINE
8
Shape2DView004
10
-298.243874
20
84.382643
11
-298.350624
21
83.479469
0
LINE
8
Shape2DView004
10
-292.001632
20
84.216868
11
-292.093882
21
83.928131
0
LINE
8
Shape2DView004
10
-292.093882
20
83.928131
11
-292.370632
21
83.807469
0
LINE
8
Shape2DView004
10
-294.643629
20
84.094168
11
-295.082628
21
85.404566
0
LINE
8
Shape2DView004
10
-295.082628
20
85.404566
11
-295.560628
21
85.907966
0
LINE
8
Shape2DView004
10
-295.560628
20
85.907966
11
-296.404627
21
86.121466
0
LINE
8
Shape2DView004
10
-292.369507
20
83.807485
11
-294.274504
21
83.807485
0
LINE
8
Shape2DView004
10
-294.274629
20
83.807469
11
-294.512379
21
83.888831
0
LINE
8
Shape2DView004
10
-294.512379
20
83.888831
11
-294.643629
21
84.094168
0
LINE
8
Shape2DView004
10
-252.999556
20
155.000156
11
-232.999727
21
155.000156
0
LINE
8
Shape2DView004
10
-252.999556
20
163.000088
11
-252.999556
21
155.000156
0
LINE
8
Shape2DView004
10
-232.999727
20
163.000088
11
-252.999556
21
163.000088
0
LINE
8
Shape2DView004
10
-232.999727
20
155.000156
11
-232.999727
21
163.000088
0
LINE
8
Shape2DView004
10
-307.107613
20
98.558150
11
-307.301738
21
98.430013
0
LINE
8
Shape2DView004
10
-307.301738
20
98.430013
11
-307.373613
21
98.210151
0
LINE
8
Shape2DView004
10
-292.464757
20
102.511122
11
-307.106780
21
98.558252
0
LINE
8
Shape2DView004
10
-307.374009
20
98.210061
11
-307.374009
21
96.141551
0
LINE
8
Shape2DView004
10
-291.993632
20
102.163245
11
-292.138007
21
102.452370
0
LINE
8
Shape2DView004
10
-292.138007
20
102.452370
11
-292.464632
21
102.511245
0
LINE
8
Shape2DView004
10
-307.373613
20
96.141453
11
-307.302488
21
95.904353
0
LINE
8
Shape2DView004
10
-307.302488
20
95.904353
11
-307.107613
21
95.772853
0
LINE
8
Shape2DView004
10
-291.993799
20
100.278306
11
-291.993799
21
102.163195
0
LINE
8
Shape2DView004
10
-307.106780
20
95.772722
11
-304.323367
21
95.076869
0
LINE
8
Shape2DView004
10
-292.259632
20
99.930148
11
-292.065132
21
100.058148
0
LINE
8
Shape2DView004
10
-292.065132
20
100.058148
11
-291.993632
21
100.278248
0
LINE
8
Shape2DView004
10
-304.322617
20
95.076854
11
-304.062617
21
95.101642
0
LINE
8
Shape2DView004
10
-304.062617
20
95.101642
11
-303.892617
21
95.281454
0
LINE
8
Shape2DView004
10
-302.868160
20
97.001446
11
-292.258382
21
99.930115
0
LINE
8
Shape2DView004
10
-303.892096
20
95.281392
11
-303.381451
21
96.550861
0
LINE
8
Shape2DView004
10
-303.380618
20
96.550853
11
-303.171493
21
96.836340
0
LINE
8
Shape2DView004
10
-303.171493
20
96.836340
11
-302.868618
21
97.001452
0
LINE
8
Shape2DView004
10
-307.352842
20
107.982169
11
-307.352842
21
106.098338
0
LINE
8
Shape2DView004
10
-306.984613
20
108.371238
11
-307.239113
21
108.252113
0
LINE
8
Shape2DView004
10
-307.239113
20
108.252113
11
-307.352613
21
107.982238
0
LINE
8
Shape2DView004
10
-307.352613
20
106.098241
11
-307.238738
21
105.837991
0
LINE
8
Shape2DView004
10
-307.238738
20
105.837991
11
-306.984613
21
105.729241
0
LINE
8
Shape2DView004
10
-292.567944
20
108.371106
11
-306.985072
21
108.371106
0
LINE
8
Shape2DView004
10
-306.985072
20
105.729245
11
-292.361569
21
105.729245
0
LINE
8
Shape2DView004
10
-291.993632
20
107.777238
11
-292.246632
21
108.273238
0
LINE
8
Shape2DView004
10
-292.246632
20
108.273238
11
-292.566631
21
108.371238
0
LINE
8
Shape2DView004
10
-292.361632
20
105.729241
11
-292.100757
21
105.837241
0
LINE
8
Shape2DView004
10
-292.100757
20
105.837241
11
-291.993632
21
106.098241
0
LINE
8
Shape2DView004
10
-291.993799
20
106.098338
11
-291.993799
21
107.777118
0
LINE
8
Shape2DView004
10
-294.245400
20
116.665254
11
-292.586465
21
116.665254
0
LINE
8
Shape2DView004
10
-294.614629
20
116.297228
11
-294.507129
21
116.558102
0
LINE
8
Shape2DView004
10
-294.507129
20
116.558102
11
-294.246629
21
116.665227
0
LINE
8
Shape2DView004
10
-292.586631
20
116.665227
11
-292.167882
21
116.490977
0
LINE
8
Shape2DView004
10
-292.167882
20
116.490977
11
-291.993632
21
116.072228
0
LINE
8
Shape2DView004
10
-294.615816
20
110.399135
11
-294.615816
21
116.297219
0
LINE
8
Shape2DView004
10
-291.993799
20
116.072324
11
-291.993799
21
110.399135
0
LINE
8
Shape2DView004
10
-294.471629
20
110.235235
11
-294.614629
21
110.399235
0
LINE
8
Shape2DView004
10
-291.993632
20
110.399235
11
-292.136632
21
110.235235
0
LINE
8
Shape2DView004
10
-292.136674
20
110.235358
11
-294.472942
21
110.235358
0
LINE
8
Shape2DView004
10
-294.245400
20
130.489187
11
-292.586465
21
130.489187
0
LINE
8
Shape2DView004
10
-294.614629
20
130.121210
11
-294.507129
21
130.382085
0
LINE
8
Shape2DView004
10
-294.507129
20
130.382085
11
-294.246629
21
130.489210
0
LINE
8
Shape2DView004
10
-292.586631
20
130.489210
11
-292.167882
21
130.314960
0
LINE
8
Shape2DView004
10
-292.167882
20
130.314960
11
-291.993632
21
129.896211
0
LINE
8
Shape2DView004
10
-294.615816
20
124.223332
11
-294.615816
21
130.121152
0
LINE
8
Shape2DView004
10
-291.993799
20
129.896256
11
-291.993799
21
124.223332
0
LINE
8
Shape2DView004
10
-294.471629
20
124.059218
11
-294.614629
21
124.223218
0
LINE
8
Shape2DView004
10
-291.993632
20
124.223218
11
-292.136632
21
124.059218
0
LINE
8
Shape2DView004
10
-292.136674
20
124.059291
11
-294.472942
21
124.059291
0
LINE
8
Shape2DView004
10
-307.352842
20
121.806102
11
-307.352842
21
119.922271
0
LINE
8
Shape2DView004
10
-306.984613
20
122.195220
11
-307.239113
21
122.076095
0
LINE
8
Shape2DView004
10
-307.239113
20
122.076095
11
-307.352613
21
121.806221
0
LINE
8
Shape2DView004
10
-307.352613
20
119.922223
11
-307.238738
21
119.661973
0
LINE
8
Shape2DView004
10
-307.238738
20
119.661973
11
-306.984613
21
119.553223
0
LINE
8
Shape2DView004
10
-292.567944
20
122.195304
11
-306.985072
21
122.195304
0
LINE
8
Shape2DView004
10
-306.985072
20
119.553178
11
-292.361569
21
119.553178
0
LINE
8
Shape2DView004
10
-291.993632
20
121.601221
11
-292.246632
21
122.097220
0
LINE
8
Shape2DView004
10
-292.246632
20
122.097220
11
-292.566631
21
122.195220
0
LINE
8
Shape2DView004
10
-292.361632
20
119.553223
11
-292.100757
21
119.661223
0
LINE
8
Shape2DView004
10
-292.100757
20
119.661223
11
-291.993632
21
119.922223
0
LINE
8
Shape2DView004
10
-291.993799
20
119.922271
11
-291.993799
21
121.601315
0
LINE
8
Shape2DView005
10
-509.901712
20
152.201132
11
-517.900056
21
152.201132
0
LINE
8
Shape2DView005
10
-423.258717
20
-109.505321
11
-458.882172
21
180.619199
0
LINE
8
Shape2DView005
10
-458.882172
20
180.619199
11
-471.047698
21
180.619199
0
LINE
8
Shape2DView005
10
-471.047698
20
180.619199
11
-471.047698
21
167.799094
0
LINE
8
Shape2DView005
10
-471.047698
20
167.799094
11
-503.191887
21
167.799094
0
LINE
8
Shape2DView005
10
-503.191887
20
167.799094
11
-503.191887
21
180.619199
0
LINE
8
Shape2DView005
10
-503.191887
20
180.619199
11
-509.901712
21
180.619199
0
LINE
8
Shape2DView005
10
-509.901712
20
152.201132
11
-509.901712
21
143.887141
0
LINE
8
Shape2DView005
10
-509.901712
20
180.619199
11
-509.901712
21
172.201226
0
LINE
8
Shape2DView005
10
-509.901712
20
143.887141
11
-487.901635
21
143.887141
0
LINE
8
Shape2DView005
10
-487.901385
20
105.887241
11
-485.958918
21
105.985549
0
LINE
8
Shape2DView005
10
-485.958918
20
105.985549
11
-484.072575
21
106.273644
0
LINE
8
Shape2DView005
10
-484.072575
20
106.273644
11
-482.251906
21
106.741977
0
LINE
8
Shape2DView005
10
-482.251906
20
106.741977
11
-480.506457
21
107.380999
0
LINE
8
Shape2DView005
10
-480.506457
20
107.380999
11
-478.845776
21
108.181160
0
LINE
8
Shape2DView005
10
-478.845776
20
108.181160
11
-477.279412
21
109.132913
0
LINE
8
Shape2DView005
10
-477.279412
20
109.132913
11
-475.816912
21
110.226709
0
LINE
8
Shape2DView005
10
-475.816912
20
110.226709
11
-474.467823
21
111.452998
0
LINE
8
Shape2DView005
10
-474.467823
20
111.452998
11
-473.241693
21
112.802231
0
LINE
8
Shape2DView005
10
-473.241693
20
112.802231
11
-472.148070
21
114.264861
0
LINE
8
Shape2DView005
10
-472.148070
20
114.264861
11
-471.196502
21
115.831337
0
LINE
8
Shape2DView005
10
-471.196502
20
115.831337
11
-470.396536
21
117.492112
0
LINE
8
Shape2DView005
10
-470.396536
20
117.492112
11
-469.757721
21
119.237636
0
LINE
8
Shape2DView005
10
-469.757721
20
119.237636
11
-469.289603
21
121.058361
0
LINE
8
Shape2DView005
10
-469.289603
20
121.058361
11
-469.001730
21
122.944738
0
LINE
8
Shape2DView005
10
-469.001730
20
122.944738
11
-468.903651
21
124.887217
0
LINE
8
Shape2DView005
10
-468.903651
20
124.887217
11
-469.001730
21
126.829696
0
LINE
8
Shape2DView005
10
-469.001730
20
126.829696
11
-469.289603
21
128.716073
0
LINE
8
Shape2DView005
10
-469.289603
20
128.716073
11
-469.757721
21
130.536797
0
LINE
8
Shape2DView005
10
-469.757721
20
130.536797
11
-470.396536
21
132.282322
0
LINE
8
Shape2DView005
10
-470.396536
20
132.282322
11
-471.196502
21
133.943096
0
LINE
8
Shape2DView005
10
-471.196502
20
133.943096
11
-472.148070
21
135.509573
0
LINE
8
Shape2DView005
10
-472.148070
20
135.509573
11
-473.241693
21
136.972203
0
LINE
8
Shape2DView005
10
-473.241693
20
136.972203
11
-474.467823
21
138.321436
0
LINE
8
Shape2DView005
10
-474.467823
20
138.321436
11
-475.816912
21
139.547725
0
LINE
8
Shape2DView005
10
-475.816912
20
139.547725
11
-477.279412
21
140.641520
0
LINE
8
Shape2DView005
10
-477.279412
20
140.641520
11
-478.845776
21
141.593273
0
LINE
8
Shape2DView005
10
-478.845776
20
141.593273
11
-480.506457
21
142.393435
0
LINE
8
Shape2DView005
10
-480.506457
20
142.393435
11
-482.251906
21
143.032457
0
LINE
8
Shape2DView005
10
-482.251906
20
143.032457
11
-484.072575
21
143.500790
0
LINE
8
Shape2DView005
10
-484.072575
20
143.500790
11
-485.958918
21
143.788885
0
LINE
8
Shape2DView005
10
-485.958918
20
143.788885
11
-487.901385
21
143.887193
0
LINE
8
Shape2DView005
10
-509.901712
20
70.421438
11
-509.901712
21
105.887201
0
LINE
8
Shape2DView005
10
-509.901712
20
30.440565
11
-509.901712
21
50.421344
0
LINE
8
Shape2DView005
10
-509.901712
20
-9.540572
11
-509.901712
21
10.440736
0
LINE
8
Shape2DView005
10
-509.901712
20
-49.524355
11
-509.901712
21
-29.543047
0
LINE
8
Shape2DView005
10
-509.901712
20
-89.505492
11
-509.901712
21
-69.524184
0
LINE
8
Shape2DView005
10
-509.901712
20
105.887201
11
-487.901635
21
105.887201
0
LINE
8
Shape2DView005
10
-509.901712
20
70.421438
11
-517.900056
21
70.421438
0
LINE
8
Shape2DView005
10
-509.901712
20
50.421344
11
-517.900056
21
50.421344
0
LINE
8
Shape2DView005
10
-509.901712
20
30.440565
11
-517.900056
21
30.440565
0
LINE
8
Shape2DView005
10
-509.901712
20
10.440736
11
-517.900056
21
10.440736
0
LINE
8
Shape2DView005
10
-509.901712
20
-9.540572
11
-517.900056
21
-9.540572
0
LINE
8
Shape2DView005
10
-509.901712
20
-29.543047
11
-517.900056
21
-29.543047
0
LINE
8
Shape2DView005
10
-509.901712
20
-49.524355
11
-517.900056
21
-49.524355
0
LINE
8
Shape2DView005
10
-509.901712
20
-69.524184
11
-517.900056
21
-69.524184
0
LINE
8
Shape2DView005
10
-509.901712
20
-89.505492
11
-517.900056
21
-89.505492
0
LINE
8
Shape2DView005
10
-517.900056
20
70.421438
11
-517.900056
21
50.421344
0
LINE
8
Shape2DView005
10
-517.900056
20
30.440565
11
-517.900056
21
10.440736
0
LINE
8
Shape2DView005
10
-517.900056
20
-9.540572
11
-517.900056
21
-29.543047
0
LINE
8
Shape2DView005
10
-517.900056
20
-49.524355
11
-517.900056
21
-69.524184
0
LINE
8
Shape2DView005
10
-517.900056
20
-89.505492
11
-517.900056
21
-109.505321
0
LINE
8
Shape2DView005
10
-509.901712
20
172.201226
11
-517.900056
21
172.201226
0
LINE
8
Shape2DView005
10
-517.900056
20
172.201226
11
-517.900056
21
152.201132
0
LINE
8
Shape2DView005
10
-517.900056
20
-109.505321
11
-423.258717
21
-109.505321
0
LINE
8
Clone2D
10
-354.181387
20
-81.530961
11
-346.180397
21
-81.530961
0
LINE
8
Clone2D
10
-440.824382
20
180.175228
11
-405.200927
21
-109.947175
0
LINE
8
Clone2D
10
-405.200927
20
-109.947175
11
-393.032755
21
-109.947175
0
LINE
8
Clone2D
10
-393.032755
20
-109.947175
11
-393.032755
21
-97.130774
0
LINE
8
Clone2D
10
-393.032755
20
-97.130774
11
-360.891212
21
-97.130774
0
LINE
8
Clone2D
10
-360.891212
20
-97.130774
11
-360.891212
21
-109.947175
0
LINE
8
Clone2D
10
-360.891212
20
-109.947175
11
-354.181387
21
-109.947175
0
LINE
8
Clone2D
10
-354.181387
20
-81.530961
11
-354.181387
21
-73.217763
0
LINE
8
Clone2D
10
-354.181387
20
-109.947175
11
-354.181387
21
-101.530790
0
LINE
8
Clone2D
10
-354.181387
20
-73.217763
11
-376.181464
21
-73.217763
0
LINE
8
Clone2D
10
-376.180526
20
-35.217282
11
-378.122994
21
-35.315590
0
LINE
8
Clone2D
10
-378.122994
20
-35.315590
11
-380.009336
21
-35.603685
0
LINE
8
Clone2D
10
-380.009336
20
-35.603685
11
-381.830006
21
-36.072018
0
LINE
8
Clone2D
10
-381.830006
20
-36.072018
11
-383.575455
21
-36.711039
0
LINE
8
Clone2D
10
-383.575455
20
-36.711039
11
-385.236135
21
-37.511201
0
LINE
8
Clone2D
10
-385.236135
20
-37.511201
11
-386.802499
21
-38.462954
0
LINE
8
Clone2D
10
-386.802499
20
-38.462954
11
-388.265000
21
-39.556749
0
LINE
8
Clone2D
10
-388.265000
20
-39.556749
11
-389.614089
21
-40.783038
0
LINE
8
Clone2D
10
-389.614089
20
-40.783038
11
-390.840218
21
-42.132272
0
LINE
8
Clone2D
10
-390.840218
20
-42.132272
11
-391.933841
21
-43.594902
0
LINE
8
Clone2D
10
-391.933841
20
-43.594902
11
-392.885409
21
-45.161378
0
LINE
8
Clone2D
10
-392.885409
20
-45.161378
11
-393.685375
21
-46.822153
0
LINE
8
Clone2D
10
-393.685375
20
-46.822153
11
-394.324191
21
-48.567677
0
LINE
8
Clone2D
10
-394.324191
20
-48.567677
11
-394.792309
21
-50.388402
0
LINE
8
Clone2D
10
-394.792309
20
-50.388402
11
-395.080181
21
-52.274778
0
LINE
8
Clone2D
10
-395.080181
20
-52.274778
11
-395.178260
21
-54.217258
0
LINE
8
Clone2D
10
-395.178260
20
-54.217258
11
-395.080181
21
-56.159737
0
LINE
8
Clone2D
10
-395.080181
20
-56.159737
11
-394.792309
21
-58.046113
0
LINE
8
Clone2D
10
-394.792309
20
-58.046113
11
-394.324191
21
-59.866838
0
LINE
8
Clone2D
10
-394.324191
20
-59.866838
11
-393.685375
21
-61.612362
0
LINE
8
Clone2D
10
-393.685375
20
-61.612362
11
-392.885409
21
-63.273137
0
LINE
8
Clone2D
10
-392.885409
20
-63.273137
11
-391.933841
21
-64.839614
0
LINE
8
Clone2D
10
-391.933841
20
-64.839614
11
-390.840218
21
-66.302243
0
LINE
8
Clone2D
10
-390.840218
20
-66.302243
11
-389.614089
21
-67.651477
0
LINE
8
Clone2D
10
-389.614089
20
-67.651477
11
-388.265000
21
-68.877766
0
LINE
8
Clone2D
10
-388.265000
20
-68.877766
11
-386.802499
21
-69.971561
0
LINE
8
Clone2D
10
-386.802499
20
-69.971561
11
-385.236135
21
-70.923314
0
LINE
8
Clone2D
10
-385.236135
20
-70.923314
11
-383.575455
21
-71.723476
0
LINE
8
Clone2D
10
-383.575455
20
-71.723476
11
-381.830006
21
-72.362497
0
LINE
8
Clone2D
10
-381.830006
20
-72.362497
11
-380.009336
21
-72.830830
0
LINE
8
Clone2D
10
-380.009336
20
-72.830830
11
-378.122994
21
-73.118925
0
LINE
8
Clone2D
10
-378.122994
20
-73.118925
11
-376.180526
21
-73.217234
0
LINE
8
Clone2D
10
-354.181387
20
0.248999
11
-354.181387
21
-35.218352
0
LINE
8
Clone2D
10
-354.181387
20
40.230136
11
-354.181387
21
20.248828
0
LINE
8
Clone2D
10
-354.181387
20
80.211802
11
-354.181387
21
60.229965
0
LINE
8
Clone2D
10
-354.181387
20
120.193204
11
-354.181387
21
100.211367
0
LINE
8
Clone2D
10
-354.181387
20
160.175135
11
-354.181387
21
140.193298
0
LINE
8
Clone2D
10
-354.181387
20
-35.218352
11
-376.181464
21
-35.218352
0
LINE
8
Clone2D
10
-354.181387
20
0.248999
11
-346.180397
21
0.248999
0
LINE
8
Clone2D
10
-354.181387
20
20.248828
11
-346.180397
21
20.248828
0
LINE
8
Clone2D
10
-354.181387
20
40.230136
11
-346.180397
21
40.230136
0
LINE
8
Clone2D
10
-354.181387
20
60.229965
11
-346.180397
21
60.229965
0
LINE
8
Clone2D
10
-354.181387
20
80.211802
11
-346.180397
21
80.211802
0
LINE
8
Clone2D
10
-354.181387
20
100.211367
11
-346.180397
21
100.211367
0
LINE
8
Clone2D
10
-354.181387
20
120.193204
11
-346.180397
21
120.193204
0
LINE
8
Clone2D
10
-354.181387
20
140.193298
11
-346.180397
21
140.193298
0
LINE
8
Clone2D
10
-354.181387
20
160.175135
11
-346.180397
21
160.175135
0
LINE
8
Clone2D
10
-346.180397
20
0.248999
11
-346.180397
21
20.248828
0
LINE
8
Clone2D
10
-346.180397
20
40.230136
11
-346.180397
21
60.229965
0
LINE
8
Clone2D
10
-346.180397
20
80.211802
11
-346.180397
21
100.211367
0
LINE
8
Clone2D
10
-346.180397
20
120.193204
11
-346.180397
21
140.193298
0
LINE
8
Clone2D
10
-346.180397
20
160.175135
11
-346.180397
21
180.175228
0
LINE
8
Clone2D
10
-354.181387
20
-101.530790
11
-346.180397
21
-101.530790
0
LINE
8
Clone2D
10
-346.180397
20
-101.530790
11
-346.180397
21
-81.530961
0
LINE
8
Clone2D
10
-346.180397
20
180.175228
11
-440.824382
21
180.175228
0
LINE
8
Shape2DView006
10
-430.532103
20
-153.000121
11
-430.532103
21
-174.396948
0
LINE
8
Shape2DView006
10
-422.533759
20
-174.396948
11
-430.532103
21
-174.396948
0
LINE
8
Shape2DView006
10
-172.532722
20
-153.000121
11
-172.532722
21
-133.000292
0
LINE
8
Shape2DView006
10
-164.532791
20
-153.000121
11
-172.532722
21
-153.000121
0
LINE
8
Shape2DView006
10
-164.532791
20
-174.396948
11
-164.532791
21
-153.000121
0
LINE
8
Shape2DView006
10
-172.532722
20
-174.396948
11
-164.532791
21
-174.396948
0
LINE
8
Shape2DView006
10
-172.532722
20
-194.396777
11
-172.532722
21
-174.396948
0
LINE
8
Shape2DView006
10
-164.532791
20
-194.396777
11
-172.532722
21
-194.396777
0
LINE
8
Shape2DView006
10
-164.532791
20
-232.999436
11
-164.532791
21
-194.396777
0
LINE
8
Shape2DView006
10
-297.531521
20
-184.591331
11
-164.532791
21
-232.999436
0
LINE
8
Shape2DView006
10
-430.532103
20
-232.999436
11
-297.531521
21
-184.591331
0
LINE
8
Shape2DView006
10
-430.532103
20
-194.396777
11
-430.532103
21
-232.999436
0
LINE
8
Shape2DView006
10
-430.532103
20
-194.396777
11
-422.533759
21
-194.396777
0
LINE
8
Shape2DView006
10
-422.533759
20
-194.396777
11
-422.533759
21
-174.396948
0
LINE
8
Shape2DView006
10
-430.532103
20
-153.000121
11
-422.533759
21
-153.000121
0
LINE
8
Shape2DView006
10
-422.533759
20
-153.000121
11
-422.533759
21
-133.000292
0
LINE
8
Shape2DView006
10
-172.532722
20
-133.000292
11
-422.533759
21
-133.000292
 0 
ENDSEC
 0 
EOF